<?xml version="1.0" encoding="utf-8" standalone="no"?>
<!DOCTYPE svg PUBLIC "-//W3C//DTD SVG 1.1//EN"
  "http://www.w3.org/Graphics/SVG/1.1/DTD/svg11.dtd">
<!-- Created with matplotlib (https://matplotlib.org/) -->
<svg height="1440pt" version="1.1" viewBox="0 0 1440 1440" width="1440pt" xmlns="http://www.w3.org/2000/svg" xmlns:xlink="http://www.w3.org/1999/xlink">
 <metadata>
  <rdf:RDF xmlns:cc="http://creativecommons.org/ns#" xmlns:dc="http://purl.org/dc/elements/1.1/" xmlns:rdf="http://www.w3.org/1999/02/22-rdf-syntax-ns#">
   <cc:Work>
    <dc:type rdf:resource="http://purl.org/dc/dcmitype/StillImage"/>
    <dc:date>2021-05-10T00:23:45.638294</dc:date>
    <dc:format>image/svg+xml</dc:format>
    <dc:creator>
     <cc:Agent>
      <dc:title>Matplotlib v3.3.4, https://matplotlib.org/</dc:title>
     </cc:Agent>
    </dc:creator>
   </cc:Work>
  </rdf:RDF>
 </metadata>
 <defs>
  <style type="text/css">*{stroke-linecap:butt;stroke-linejoin:round;}</style>
 </defs>
 <g id="figure_1">
  <g id="patch_1">
   <path d="M 0 1440 
L 1440 1440 
L 1440 0 
L 0 0 
z
" style="fill:none;"/>
  </g>
  <g id="axes_1">
   <g id="patch_2">
    <path d="M 180 1260 
L 1296 1260 
L 1296 172.8 
L 180 172.8 
z
" style="fill:#ffffff;"/>
   </g>
   <g id="patch_3">
    <path clip-path="url(#p9c74471f26)" d="M 234.947793 184.88 
L 234.947793 281.52 
L 264.90696 281.52 
L 264.90696 184.88 
L 234.947793 184.88 
z
" style="fill:#40bfbf;stroke:#4c4c4c;stroke-linejoin:miter;stroke-width:1.5;"/>
   </g>
   <g id="patch_4">
    <path clip-path="url(#p9c74471f26)" d="M 965.542881 305.68 
L 965.542881 402.32 
L 988.24914 402.32 
L 988.24914 305.68 
L 965.542881 305.68 
z
" style="fill:#40bfbf;stroke:#4c4c4c;stroke-linejoin:miter;stroke-width:1.5;"/>
   </g>
   <g id="patch_5">
    <path clip-path="url(#p9c74471f26)" d="M 502.842429 426.48 
L 502.842429 523.12 
L 530.070526 523.12 
L 530.070526 426.48 
L 502.842429 426.48 
z
" style="fill:#40bfbf;stroke:#4c4c4c;stroke-linejoin:miter;stroke-width:1.5;"/>
   </g>
   <g id="patch_6">
    <path clip-path="url(#p9c74471f26)" d="M 921.700118 547.28 
L 921.700118 643.92 
L 943.098961 643.92 
L 943.098961 547.28 
L 921.700118 547.28 
z
" style="fill:#40bfbf;stroke:#4c4c4c;stroke-linejoin:miter;stroke-width:1.5;"/>
   </g>
   <g id="patch_7">
    <path clip-path="url(#p9c74471f26)" d="M 644.975111 668.08 
L 644.975111 764.72 
L 664.839974 764.72 
L 664.839974 668.08 
L 644.975111 668.08 
z
" style="fill:#40bfbf;stroke:#4c4c4c;stroke-linejoin:miter;stroke-width:1.5;"/>
   </g>
   <g id="patch_8">
    <path clip-path="url(#p9c74471f26)" d="M 650.407423 788.88 
L 650.407423 885.52 
L 667.735454 885.52 
L 667.735454 788.88 
L 650.407423 788.88 
z
" style="fill:#40bfbf;stroke:#4c4c4c;stroke-linejoin:miter;stroke-width:1.5;"/>
   </g>
   <g id="patch_9">
    <path clip-path="url(#p9c74471f26)" d="M 802.021375 909.68 
L 802.021375 1006.32 
L 813.211048 1006.32 
L 813.211048 909.68 
L 802.021375 909.68 
z
" style="fill:#40bfbf;stroke:#4c4c4c;stroke-linejoin:miter;stroke-width:1.5;"/>
   </g>
   <g id="patch_10">
    <path clip-path="url(#p9c74471f26)" d="M 667.730291 1030.48 
L 667.730291 1127.12 
L 681.585069 1127.12 
L 681.585069 1030.48 
L 667.730291 1030.48 
z
" style="fill:#40bfbf;stroke:#4c4c4c;stroke-linejoin:miter;stroke-width:1.5;"/>
   </g>
   <g id="patch_11">
    <path clip-path="url(#p9c74471f26)" d="M 738 1151.28 
L 738 1247.92 
L 738 1247.92 
L 738 1151.28 
L 738 1151.28 
z
" style="fill:#40bfbf;stroke:#4c4c4c;stroke-linejoin:miter;stroke-width:1.5;"/>
   </g>
   <g id="matplotlib.axis_1">
    <g id="xtick_1">
     <g id="line2d_1">
      <defs>
       <path d="M 0 0 
L 0 3.5 
" id="mb2b5ab924b" style="stroke:#000000;stroke-width:0.8;"/>
      </defs>
      <g>
       <use style="stroke:#000000;stroke-width:0.8;" x="251.027252" xlink:href="#mb2b5ab924b" y="1260"/>
      </g>
     </g>
     <g id="text_1">
      <!-- −0.4 -->
      <g transform="translate(238.885846 1274.598438)scale(0.1 -0.1)">
       <defs>
        <path d="M 10.59375 35.5 
L 73.1875 35.5 
L 73.1875 27.203125 
L 10.59375 27.203125 
z
" id="DejaVuSans-8722"/>
        <path d="M 31.78125 66.40625 
Q 24.171875 66.40625 20.328125 58.90625 
Q 16.5 51.421875 16.5 36.375 
Q 16.5 21.390625 20.328125 13.890625 
Q 24.171875 6.390625 31.78125 6.390625 
Q 39.453125 6.390625 43.28125 13.890625 
Q 47.125 21.390625 47.125 36.375 
Q 47.125 51.421875 43.28125 58.90625 
Q 39.453125 66.40625 31.78125 66.40625 
z
M 31.78125 74.21875 
Q 44.046875 74.21875 50.515625 64.515625 
Q 56.984375 54.828125 56.984375 36.375 
Q 56.984375 17.96875 50.515625 8.265625 
Q 44.046875 -1.421875 31.78125 -1.421875 
Q 19.53125 -1.421875 13.0625 8.265625 
Q 6.59375 17.96875 6.59375 36.375 
Q 6.59375 54.828125 13.0625 64.515625 
Q 19.53125 74.21875 31.78125 74.21875 
z
" id="DejaVuSans-48"/>
        <path d="M 10.6875 12.40625 
L 21 12.40625 
L 21 0 
L 10.6875 0 
z
" id="DejaVuSans-46"/>
        <path d="M 37.796875 64.3125 
L 12.890625 25.390625 
L 37.796875 25.390625 
z
M 35.203125 72.90625 
L 47.609375 72.90625 
L 47.609375 25.390625 
L 58.015625 25.390625 
L 58.015625 17.1875 
L 47.609375 17.1875 
L 47.609375 0 
L 37.796875 0 
L 37.796875 17.1875 
L 4.890625 17.1875 
L 4.890625 26.703125 
z
" id="DejaVuSans-52"/>
       </defs>
       <use xlink:href="#DejaVuSans-8722"/>
       <use x="83.789062" xlink:href="#DejaVuSans-48"/>
       <use x="147.412109" xlink:href="#DejaVuSans-46"/>
       <use x="179.199219" xlink:href="#DejaVuSans-52"/>
      </g>
     </g>
    </g>
    <g id="xtick_2">
     <g id="line2d_2">
      <g>
       <use style="stroke:#000000;stroke-width:0.8;" x="494.513626" xlink:href="#mb2b5ab924b" y="1260"/>
      </g>
     </g>
     <g id="text_2">
      <!-- −0.2 -->
      <g transform="translate(482.37222 1274.598438)scale(0.1 -0.1)">
       <defs>
        <path d="M 19.1875 8.296875 
L 53.609375 8.296875 
L 53.609375 0 
L 7.328125 0 
L 7.328125 8.296875 
Q 12.9375 14.109375 22.625 23.890625 
Q 32.328125 33.6875 34.8125 36.53125 
Q 39.546875 41.84375 41.421875 45.53125 
Q 43.3125 49.21875 43.3125 52.78125 
Q 43.3125 58.59375 39.234375 62.25 
Q 35.15625 65.921875 28.609375 65.921875 
Q 23.96875 65.921875 18.8125 64.3125 
Q 13.671875 62.703125 7.8125 59.421875 
L 7.8125 69.390625 
Q 13.765625 71.78125 18.9375 73 
Q 24.125 74.21875 28.421875 74.21875 
Q 39.75 74.21875 46.484375 68.546875 
Q 53.21875 62.890625 53.21875 53.421875 
Q 53.21875 48.921875 51.53125 44.890625 
Q 49.859375 40.875 45.40625 35.40625 
Q 44.1875 33.984375 37.640625 27.21875 
Q 31.109375 20.453125 19.1875 8.296875 
z
" id="DejaVuSans-50"/>
       </defs>
       <use xlink:href="#DejaVuSans-8722"/>
       <use x="83.789062" xlink:href="#DejaVuSans-48"/>
       <use x="147.412109" xlink:href="#DejaVuSans-46"/>
       <use x="179.199219" xlink:href="#DejaVuSans-50"/>
      </g>
     </g>
    </g>
    <g id="xtick_3">
     <g id="line2d_3">
      <g>
       <use style="stroke:#000000;stroke-width:0.8;" x="738" xlink:href="#mb2b5ab924b" y="1260"/>
      </g>
     </g>
     <g id="text_3">
      <!-- 0.0 -->
      <g transform="translate(730.048437 1274.598438)scale(0.1 -0.1)">
       <use xlink:href="#DejaVuSans-48"/>
       <use x="63.623047" xlink:href="#DejaVuSans-46"/>
       <use x="95.410156" xlink:href="#DejaVuSans-48"/>
      </g>
     </g>
    </g>
    <g id="xtick_4">
     <g id="line2d_4">
      <g>
       <use style="stroke:#000000;stroke-width:0.8;" x="981.486374" xlink:href="#mb2b5ab924b" y="1260"/>
      </g>
     </g>
     <g id="text_4">
      <!-- 0.2 -->
      <g transform="translate(973.534812 1274.598438)scale(0.1 -0.1)">
       <use xlink:href="#DejaVuSans-48"/>
       <use x="63.623047" xlink:href="#DejaVuSans-46"/>
       <use x="95.410156" xlink:href="#DejaVuSans-50"/>
      </g>
     </g>
    </g>
    <g id="xtick_5">
     <g id="line2d_5">
      <g>
       <use style="stroke:#000000;stroke-width:0.8;" x="1224.972748" xlink:href="#mb2b5ab924b" y="1260"/>
      </g>
     </g>
     <g id="text_5">
      <!-- 0.4 -->
      <g transform="translate(1217.021186 1274.598438)scale(0.1 -0.1)">
       <use xlink:href="#DejaVuSans-48"/>
       <use x="63.623047" xlink:href="#DejaVuSans-46"/>
       <use x="95.410156" xlink:href="#DejaVuSans-52"/>
      </g>
     </g>
    </g>
    <g id="text_6">
     <!-- Coefficient value -->
     <g transform="translate(674.808984 1292.075781)scale(0.15 -0.15)">
      <defs>
       <path d="M 64.40625 67.28125 
L 64.40625 56.890625 
Q 59.421875 61.53125 53.78125 63.8125 
Q 48.140625 66.109375 41.796875 66.109375 
Q 29.296875 66.109375 22.65625 58.46875 
Q 16.015625 50.828125 16.015625 36.375 
Q 16.015625 21.96875 22.65625 14.328125 
Q 29.296875 6.6875 41.796875 6.6875 
Q 48.140625 6.6875 53.78125 8.984375 
Q 59.421875 11.28125 64.40625 15.921875 
L 64.40625 5.609375 
Q 59.234375 2.09375 53.4375 0.328125 
Q 47.65625 -1.421875 41.21875 -1.421875 
Q 24.65625 -1.421875 15.125 8.703125 
Q 5.609375 18.84375 5.609375 36.375 
Q 5.609375 53.953125 15.125 64.078125 
Q 24.65625 74.21875 41.21875 74.21875 
Q 47.75 74.21875 53.53125 72.484375 
Q 59.328125 70.75 64.40625 67.28125 
z
" id="DejaVuSans-67"/>
       <path d="M 30.609375 48.390625 
Q 23.390625 48.390625 19.1875 42.75 
Q 14.984375 37.109375 14.984375 27.296875 
Q 14.984375 17.484375 19.15625 11.84375 
Q 23.34375 6.203125 30.609375 6.203125 
Q 37.796875 6.203125 41.984375 11.859375 
Q 46.1875 17.53125 46.1875 27.296875 
Q 46.1875 37.015625 41.984375 42.703125 
Q 37.796875 48.390625 30.609375 48.390625 
z
M 30.609375 56 
Q 42.328125 56 49.015625 48.375 
Q 55.71875 40.765625 55.71875 27.296875 
Q 55.71875 13.875 49.015625 6.21875 
Q 42.328125 -1.421875 30.609375 -1.421875 
Q 18.84375 -1.421875 12.171875 6.21875 
Q 5.515625 13.875 5.515625 27.296875 
Q 5.515625 40.765625 12.171875 48.375 
Q 18.84375 56 30.609375 56 
z
" id="DejaVuSans-111"/>
       <path d="M 56.203125 29.59375 
L 56.203125 25.203125 
L 14.890625 25.203125 
Q 15.484375 15.921875 20.484375 11.0625 
Q 25.484375 6.203125 34.421875 6.203125 
Q 39.59375 6.203125 44.453125 7.46875 
Q 49.3125 8.734375 54.109375 11.28125 
L 54.109375 2.78125 
Q 49.265625 0.734375 44.1875 -0.34375 
Q 39.109375 -1.421875 33.890625 -1.421875 
Q 20.796875 -1.421875 13.15625 6.1875 
Q 5.515625 13.8125 5.515625 26.8125 
Q 5.515625 40.234375 12.765625 48.109375 
Q 20.015625 56 32.328125 56 
Q 43.359375 56 49.78125 48.890625 
Q 56.203125 41.796875 56.203125 29.59375 
z
M 47.21875 32.234375 
Q 47.125 39.59375 43.09375 43.984375 
Q 39.0625 48.390625 32.421875 48.390625 
Q 24.90625 48.390625 20.390625 44.140625 
Q 15.875 39.890625 15.1875 32.171875 
z
" id="DejaVuSans-101"/>
       <path d="M 37.109375 75.984375 
L 37.109375 68.5 
L 28.515625 68.5 
Q 23.6875 68.5 21.796875 66.546875 
Q 19.921875 64.59375 19.921875 59.515625 
L 19.921875 54.6875 
L 34.71875 54.6875 
L 34.71875 47.703125 
L 19.921875 47.703125 
L 19.921875 0 
L 10.890625 0 
L 10.890625 47.703125 
L 2.296875 47.703125 
L 2.296875 54.6875 
L 10.890625 54.6875 
L 10.890625 58.5 
Q 10.890625 67.625 15.140625 71.796875 
Q 19.390625 75.984375 28.609375 75.984375 
z
" id="DejaVuSans-102"/>
       <path d="M 9.421875 54.6875 
L 18.40625 54.6875 
L 18.40625 0 
L 9.421875 0 
z
M 9.421875 75.984375 
L 18.40625 75.984375 
L 18.40625 64.59375 
L 9.421875 64.59375 
z
" id="DejaVuSans-105"/>
       <path d="M 48.78125 52.59375 
L 48.78125 44.1875 
Q 44.96875 46.296875 41.140625 47.34375 
Q 37.3125 48.390625 33.40625 48.390625 
Q 24.65625 48.390625 19.8125 42.84375 
Q 14.984375 37.3125 14.984375 27.296875 
Q 14.984375 17.28125 19.8125 11.734375 
Q 24.65625 6.203125 33.40625 6.203125 
Q 37.3125 6.203125 41.140625 7.25 
Q 44.96875 8.296875 48.78125 10.40625 
L 48.78125 2.09375 
Q 45.015625 0.34375 40.984375 -0.53125 
Q 36.96875 -1.421875 32.421875 -1.421875 
Q 20.0625 -1.421875 12.78125 6.34375 
Q 5.515625 14.109375 5.515625 27.296875 
Q 5.515625 40.671875 12.859375 48.328125 
Q 20.21875 56 33.015625 56 
Q 37.15625 56 41.109375 55.140625 
Q 45.0625 54.296875 48.78125 52.59375 
z
" id="DejaVuSans-99"/>
       <path d="M 54.890625 33.015625 
L 54.890625 0 
L 45.90625 0 
L 45.90625 32.71875 
Q 45.90625 40.484375 42.875 44.328125 
Q 39.84375 48.1875 33.796875 48.1875 
Q 26.515625 48.1875 22.3125 43.546875 
Q 18.109375 38.921875 18.109375 30.90625 
L 18.109375 0 
L 9.078125 0 
L 9.078125 54.6875 
L 18.109375 54.6875 
L 18.109375 46.1875 
Q 21.34375 51.125 25.703125 53.5625 
Q 30.078125 56 35.796875 56 
Q 45.21875 56 50.046875 50.171875 
Q 54.890625 44.34375 54.890625 33.015625 
z
" id="DejaVuSans-110"/>
       <path d="M 18.3125 70.21875 
L 18.3125 54.6875 
L 36.8125 54.6875 
L 36.8125 47.703125 
L 18.3125 47.703125 
L 18.3125 18.015625 
Q 18.3125 11.328125 20.140625 9.421875 
Q 21.96875 7.515625 27.59375 7.515625 
L 36.8125 7.515625 
L 36.8125 0 
L 27.59375 0 
Q 17.1875 0 13.234375 3.875 
Q 9.28125 7.765625 9.28125 18.015625 
L 9.28125 47.703125 
L 2.6875 47.703125 
L 2.6875 54.6875 
L 9.28125 54.6875 
L 9.28125 70.21875 
z
" id="DejaVuSans-116"/>
       <path id="DejaVuSans-32"/>
       <path d="M 2.984375 54.6875 
L 12.5 54.6875 
L 29.59375 8.796875 
L 46.6875 54.6875 
L 56.203125 54.6875 
L 35.6875 0 
L 23.484375 0 
z
" id="DejaVuSans-118"/>
       <path d="M 34.28125 27.484375 
Q 23.390625 27.484375 19.1875 25 
Q 14.984375 22.515625 14.984375 16.5 
Q 14.984375 11.71875 18.140625 8.90625 
Q 21.296875 6.109375 26.703125 6.109375 
Q 34.1875 6.109375 38.703125 11.40625 
Q 43.21875 16.703125 43.21875 25.484375 
L 43.21875 27.484375 
z
M 52.203125 31.203125 
L 52.203125 0 
L 43.21875 0 
L 43.21875 8.296875 
Q 40.140625 3.328125 35.546875 0.953125 
Q 30.953125 -1.421875 24.3125 -1.421875 
Q 15.921875 -1.421875 10.953125 3.296875 
Q 6 8.015625 6 15.921875 
Q 6 25.140625 12.171875 29.828125 
Q 18.359375 34.515625 30.609375 34.515625 
L 43.21875 34.515625 
L 43.21875 35.40625 
Q 43.21875 41.609375 39.140625 45 
Q 35.0625 48.390625 27.6875 48.390625 
Q 23 48.390625 18.546875 47.265625 
Q 14.109375 46.140625 10.015625 43.890625 
L 10.015625 52.203125 
Q 14.9375 54.109375 19.578125 55.046875 
Q 24.21875 56 28.609375 56 
Q 40.484375 56 46.34375 49.84375 
Q 52.203125 43.703125 52.203125 31.203125 
z
" id="DejaVuSans-97"/>
       <path d="M 9.421875 75.984375 
L 18.40625 75.984375 
L 18.40625 0 
L 9.421875 0 
z
" id="DejaVuSans-108"/>
       <path d="M 8.5 21.578125 
L 8.5 54.6875 
L 17.484375 54.6875 
L 17.484375 21.921875 
Q 17.484375 14.15625 20.5 10.265625 
Q 23.53125 6.390625 29.59375 6.390625 
Q 36.859375 6.390625 41.078125 11.03125 
Q 45.3125 15.671875 45.3125 23.6875 
L 45.3125 54.6875 
L 54.296875 54.6875 
L 54.296875 0 
L 45.3125 0 
L 45.3125 8.40625 
Q 42.046875 3.421875 37.71875 1 
Q 33.40625 -1.421875 27.6875 -1.421875 
Q 18.265625 -1.421875 13.375 4.4375 
Q 8.5 10.296875 8.5 21.578125 
z
M 31.109375 56 
z
" id="DejaVuSans-117"/>
      </defs>
      <use xlink:href="#DejaVuSans-67"/>
      <use x="69.824219" xlink:href="#DejaVuSans-111"/>
      <use x="131.005859" xlink:href="#DejaVuSans-101"/>
      <use x="192.529297" xlink:href="#DejaVuSans-102"/>
      <use x="227.734375" xlink:href="#DejaVuSans-102"/>
      <use x="262.939453" xlink:href="#DejaVuSans-105"/>
      <use x="290.722656" xlink:href="#DejaVuSans-99"/>
      <use x="345.703125" xlink:href="#DejaVuSans-105"/>
      <use x="373.486328" xlink:href="#DejaVuSans-101"/>
      <use x="435.009766" xlink:href="#DejaVuSans-110"/>
      <use x="498.388672" xlink:href="#DejaVuSans-116"/>
      <use x="537.597656" xlink:href="#DejaVuSans-32"/>
      <use x="569.384766" xlink:href="#DejaVuSans-118"/>
      <use x="628.564453" xlink:href="#DejaVuSans-97"/>
      <use x="689.84375" xlink:href="#DejaVuSans-108"/>
      <use x="717.626953" xlink:href="#DejaVuSans-117"/>
      <use x="781.005859" xlink:href="#DejaVuSans-101"/>
     </g>
    </g>
   </g>
   <g id="matplotlib.axis_2">
    <g id="ytick_1">
     <g id="line2d_6">
      <defs>
       <path d="M 0 0 
L -3.5 0 
" id="m7650bbba01" style="stroke:#000000;stroke-width:0.8;"/>
      </defs>
      <g>
       <use style="stroke:#000000;stroke-width:0.8;" x="180" xlink:href="#m7650bbba01" y="233.2"/>
      </g>
     </g>
     <g id="text_7">
      <!-- Distance_Center -->
      <g transform="translate(90.617188 236.999219)scale(0.1 -0.1)">
       <defs>
        <path d="M 19.671875 64.796875 
L 19.671875 8.109375 
L 31.59375 8.109375 
Q 46.6875 8.109375 53.6875 14.9375 
Q 60.6875 21.78125 60.6875 36.53125 
Q 60.6875 51.171875 53.6875 57.984375 
Q 46.6875 64.796875 31.59375 64.796875 
z
M 9.8125 72.90625 
L 30.078125 72.90625 
Q 51.265625 72.90625 61.171875 64.09375 
Q 71.09375 55.28125 71.09375 36.53125 
Q 71.09375 17.671875 61.125 8.828125 
Q 51.171875 0 30.078125 0 
L 9.8125 0 
z
" id="DejaVuSans-68"/>
        <path d="M 44.28125 53.078125 
L 44.28125 44.578125 
Q 40.484375 46.53125 36.375 47.5 
Q 32.28125 48.484375 27.875 48.484375 
Q 21.1875 48.484375 17.84375 46.4375 
Q 14.5 44.390625 14.5 40.28125 
Q 14.5 37.15625 16.890625 35.375 
Q 19.28125 33.59375 26.515625 31.984375 
L 29.59375 31.296875 
Q 39.15625 29.25 43.1875 25.515625 
Q 47.21875 21.78125 47.21875 15.09375 
Q 47.21875 7.46875 41.1875 3.015625 
Q 35.15625 -1.421875 24.609375 -1.421875 
Q 20.21875 -1.421875 15.453125 -0.5625 
Q 10.6875 0.296875 5.421875 2 
L 5.421875 11.28125 
Q 10.40625 8.6875 15.234375 7.390625 
Q 20.0625 6.109375 24.8125 6.109375 
Q 31.15625 6.109375 34.5625 8.28125 
Q 37.984375 10.453125 37.984375 14.40625 
Q 37.984375 18.0625 35.515625 20.015625 
Q 33.0625 21.96875 24.703125 23.78125 
L 21.578125 24.515625 
Q 13.234375 26.265625 9.515625 29.90625 
Q 5.8125 33.546875 5.8125 39.890625 
Q 5.8125 47.609375 11.28125 51.796875 
Q 16.75 56 26.8125 56 
Q 31.78125 56 36.171875 55.265625 
Q 40.578125 54.546875 44.28125 53.078125 
z
" id="DejaVuSans-115"/>
        <path d="M 50.984375 -16.609375 
L 50.984375 -23.578125 
L -0.984375 -23.578125 
L -0.984375 -16.609375 
z
" id="DejaVuSans-95"/>
        <path d="M 41.109375 46.296875 
Q 39.59375 47.171875 37.8125 47.578125 
Q 36.03125 48 33.890625 48 
Q 26.265625 48 22.1875 43.046875 
Q 18.109375 38.09375 18.109375 28.8125 
L 18.109375 0 
L 9.078125 0 
L 9.078125 54.6875 
L 18.109375 54.6875 
L 18.109375 46.1875 
Q 20.953125 51.171875 25.484375 53.578125 
Q 30.03125 56 36.53125 56 
Q 37.453125 56 38.578125 55.875 
Q 39.703125 55.765625 41.0625 55.515625 
z
" id="DejaVuSans-114"/>
       </defs>
       <use xlink:href="#DejaVuSans-68"/>
       <use x="77.001953" xlink:href="#DejaVuSans-105"/>
       <use x="104.785156" xlink:href="#DejaVuSans-115"/>
       <use x="156.884766" xlink:href="#DejaVuSans-116"/>
       <use x="196.09375" xlink:href="#DejaVuSans-97"/>
       <use x="257.373047" xlink:href="#DejaVuSans-110"/>
       <use x="320.751953" xlink:href="#DejaVuSans-99"/>
       <use x="375.732422" xlink:href="#DejaVuSans-101"/>
       <use x="437.255859" xlink:href="#DejaVuSans-95"/>
       <use x="487.255859" xlink:href="#DejaVuSans-67"/>
       <use x="557.080078" xlink:href="#DejaVuSans-101"/>
       <use x="618.603516" xlink:href="#DejaVuSans-110"/>
       <use x="681.982422" xlink:href="#DejaVuSans-116"/>
       <use x="721.191406" xlink:href="#DejaVuSans-101"/>
       <use x="782.714844" xlink:href="#DejaVuSans-114"/>
      </g>
     </g>
    </g>
    <g id="ytick_2">
     <g id="line2d_7">
      <g>
       <use style="stroke:#000000;stroke-width:0.8;" x="180" xlink:href="#m7650bbba01" y="354"/>
      </g>
     </g>
     <g id="text_8">
      <!-- POI_Restaurants_Hotels -->
      <g transform="translate(54.495312 357.799219)scale(0.1 -0.1)">
       <defs>
        <path d="M 19.671875 64.796875 
L 19.671875 37.40625 
L 32.078125 37.40625 
Q 38.96875 37.40625 42.71875 40.96875 
Q 46.484375 44.53125 46.484375 51.125 
Q 46.484375 57.671875 42.71875 61.234375 
Q 38.96875 64.796875 32.078125 64.796875 
z
M 9.8125 72.90625 
L 32.078125 72.90625 
Q 44.34375 72.90625 50.609375 67.359375 
Q 56.890625 61.8125 56.890625 51.125 
Q 56.890625 40.328125 50.609375 34.8125 
Q 44.34375 29.296875 32.078125 29.296875 
L 19.671875 29.296875 
L 19.671875 0 
L 9.8125 0 
z
" id="DejaVuSans-80"/>
        <path d="M 39.40625 66.21875 
Q 28.65625 66.21875 22.328125 58.203125 
Q 16.015625 50.203125 16.015625 36.375 
Q 16.015625 22.609375 22.328125 14.59375 
Q 28.65625 6.59375 39.40625 6.59375 
Q 50.140625 6.59375 56.421875 14.59375 
Q 62.703125 22.609375 62.703125 36.375 
Q 62.703125 50.203125 56.421875 58.203125 
Q 50.140625 66.21875 39.40625 66.21875 
z
M 39.40625 74.21875 
Q 54.734375 74.21875 63.90625 63.9375 
Q 73.09375 53.65625 73.09375 36.375 
Q 73.09375 19.140625 63.90625 8.859375 
Q 54.734375 -1.421875 39.40625 -1.421875 
Q 24.03125 -1.421875 14.8125 8.828125 
Q 5.609375 19.09375 5.609375 36.375 
Q 5.609375 53.65625 14.8125 63.9375 
Q 24.03125 74.21875 39.40625 74.21875 
z
" id="DejaVuSans-79"/>
        <path d="M 9.8125 72.90625 
L 19.671875 72.90625 
L 19.671875 0 
L 9.8125 0 
z
" id="DejaVuSans-73"/>
        <path d="M 44.390625 34.1875 
Q 47.5625 33.109375 50.5625 29.59375 
Q 53.5625 26.078125 56.59375 19.921875 
L 66.609375 0 
L 56 0 
L 46.6875 18.703125 
Q 43.0625 26.03125 39.671875 28.421875 
Q 36.28125 30.8125 30.421875 30.8125 
L 19.671875 30.8125 
L 19.671875 0 
L 9.8125 0 
L 9.8125 72.90625 
L 32.078125 72.90625 
Q 44.578125 72.90625 50.734375 67.671875 
Q 56.890625 62.453125 56.890625 51.90625 
Q 56.890625 45.015625 53.6875 40.46875 
Q 50.484375 35.9375 44.390625 34.1875 
z
M 19.671875 64.796875 
L 19.671875 38.921875 
L 32.078125 38.921875 
Q 39.203125 38.921875 42.84375 42.21875 
Q 46.484375 45.515625 46.484375 51.90625 
Q 46.484375 58.296875 42.84375 61.546875 
Q 39.203125 64.796875 32.078125 64.796875 
z
" id="DejaVuSans-82"/>
        <path d="M 9.8125 72.90625 
L 19.671875 72.90625 
L 19.671875 43.015625 
L 55.515625 43.015625 
L 55.515625 72.90625 
L 65.375 72.90625 
L 65.375 0 
L 55.515625 0 
L 55.515625 34.71875 
L 19.671875 34.71875 
L 19.671875 0 
L 9.8125 0 
z
" id="DejaVuSans-72"/>
       </defs>
       <use xlink:href="#DejaVuSans-80"/>
       <use x="60.302734" xlink:href="#DejaVuSans-79"/>
       <use x="139.013672" xlink:href="#DejaVuSans-73"/>
       <use x="168.505859" xlink:href="#DejaVuSans-95"/>
       <use x="218.505859" xlink:href="#DejaVuSans-82"/>
       <use x="283.488281" xlink:href="#DejaVuSans-101"/>
       <use x="345.011719" xlink:href="#DejaVuSans-115"/>
       <use x="397.111328" xlink:href="#DejaVuSans-116"/>
       <use x="436.320312" xlink:href="#DejaVuSans-97"/>
       <use x="497.599609" xlink:href="#DejaVuSans-117"/>
       <use x="560.978516" xlink:href="#DejaVuSans-114"/>
       <use x="602.091797" xlink:href="#DejaVuSans-97"/>
       <use x="663.371094" xlink:href="#DejaVuSans-110"/>
       <use x="726.75" xlink:href="#DejaVuSans-116"/>
       <use x="765.958984" xlink:href="#DejaVuSans-115"/>
       <use x="818.058594" xlink:href="#DejaVuSans-95"/>
       <use x="868.058594" xlink:href="#DejaVuSans-72"/>
       <use x="943.253906" xlink:href="#DejaVuSans-111"/>
       <use x="1004.435547" xlink:href="#DejaVuSans-116"/>
       <use x="1043.644531" xlink:href="#DejaVuSans-101"/>
       <use x="1105.167969" xlink:href="#DejaVuSans-108"/>
       <use x="1132.951172" xlink:href="#DejaVuSans-115"/>
      </g>
     </g>
    </g>
    <g id="ytick_3">
     <g id="line2d_8">
      <g>
       <use style="stroke:#000000;stroke-width:0.8;" x="180" xlink:href="#m7650bbba01" y="474.8"/>
      </g>
     </g>
     <g id="text_9">
      <!-- Nationality_Spain -->
      <g transform="translate(85.771875 478.599219)scale(0.1 -0.1)">
       <defs>
        <path d="M 9.8125 72.90625 
L 23.09375 72.90625 
L 55.421875 11.921875 
L 55.421875 72.90625 
L 64.984375 72.90625 
L 64.984375 0 
L 51.703125 0 
L 19.390625 60.984375 
L 19.390625 0 
L 9.8125 0 
z
" id="DejaVuSans-78"/>
        <path d="M 32.171875 -5.078125 
Q 28.375 -14.84375 24.75 -17.8125 
Q 21.140625 -20.796875 15.09375 -20.796875 
L 7.90625 -20.796875 
L 7.90625 -13.28125 
L 13.1875 -13.28125 
Q 16.890625 -13.28125 18.9375 -11.515625 
Q 21 -9.765625 23.484375 -3.21875 
L 25.09375 0.875 
L 2.984375 54.6875 
L 12.5 54.6875 
L 29.59375 11.921875 
L 46.6875 54.6875 
L 56.203125 54.6875 
z
" id="DejaVuSans-121"/>
        <path d="M 53.515625 70.515625 
L 53.515625 60.890625 
Q 47.90625 63.578125 42.921875 64.890625 
Q 37.9375 66.21875 33.296875 66.21875 
Q 25.25 66.21875 20.875 63.09375 
Q 16.5 59.96875 16.5 54.203125 
Q 16.5 49.359375 19.40625 46.890625 
Q 22.3125 44.4375 30.421875 42.921875 
L 36.375 41.703125 
Q 47.40625 39.59375 52.65625 34.296875 
Q 57.90625 29 57.90625 20.125 
Q 57.90625 9.515625 50.796875 4.046875 
Q 43.703125 -1.421875 29.984375 -1.421875 
Q 24.8125 -1.421875 18.96875 -0.25 
Q 13.140625 0.921875 6.890625 3.21875 
L 6.890625 13.375 
Q 12.890625 10.015625 18.65625 8.296875 
Q 24.421875 6.59375 29.984375 6.59375 
Q 38.421875 6.59375 43.015625 9.90625 
Q 47.609375 13.234375 47.609375 19.390625 
Q 47.609375 24.75 44.3125 27.78125 
Q 41.015625 30.8125 33.5 32.328125 
L 27.484375 33.5 
Q 16.453125 35.6875 11.515625 40.375 
Q 6.59375 45.0625 6.59375 53.421875 
Q 6.59375 63.09375 13.40625 68.65625 
Q 20.21875 74.21875 32.171875 74.21875 
Q 37.3125 74.21875 42.625 73.28125 
Q 47.953125 72.359375 53.515625 70.515625 
z
" id="DejaVuSans-83"/>
        <path d="M 18.109375 8.203125 
L 18.109375 -20.796875 
L 9.078125 -20.796875 
L 9.078125 54.6875 
L 18.109375 54.6875 
L 18.109375 46.390625 
Q 20.953125 51.265625 25.265625 53.625 
Q 29.59375 56 35.59375 56 
Q 45.5625 56 51.78125 48.09375 
Q 58.015625 40.1875 58.015625 27.296875 
Q 58.015625 14.40625 51.78125 6.484375 
Q 45.5625 -1.421875 35.59375 -1.421875 
Q 29.59375 -1.421875 25.265625 0.953125 
Q 20.953125 3.328125 18.109375 8.203125 
z
M 48.6875 27.296875 
Q 48.6875 37.203125 44.609375 42.84375 
Q 40.53125 48.484375 33.40625 48.484375 
Q 26.265625 48.484375 22.1875 42.84375 
Q 18.109375 37.203125 18.109375 27.296875 
Q 18.109375 17.390625 22.1875 11.75 
Q 26.265625 6.109375 33.40625 6.109375 
Q 40.53125 6.109375 44.609375 11.75 
Q 48.6875 17.390625 48.6875 27.296875 
z
" id="DejaVuSans-112"/>
       </defs>
       <use xlink:href="#DejaVuSans-78"/>
       <use x="74.804688" xlink:href="#DejaVuSans-97"/>
       <use x="136.083984" xlink:href="#DejaVuSans-116"/>
       <use x="175.292969" xlink:href="#DejaVuSans-105"/>
       <use x="203.076172" xlink:href="#DejaVuSans-111"/>
       <use x="264.257812" xlink:href="#DejaVuSans-110"/>
       <use x="327.636719" xlink:href="#DejaVuSans-97"/>
       <use x="388.916016" xlink:href="#DejaVuSans-108"/>
       <use x="416.699219" xlink:href="#DejaVuSans-105"/>
       <use x="444.482422" xlink:href="#DejaVuSans-116"/>
       <use x="483.691406" xlink:href="#DejaVuSans-121"/>
       <use x="542.871094" xlink:href="#DejaVuSans-95"/>
       <use x="592.871094" xlink:href="#DejaVuSans-83"/>
       <use x="656.347656" xlink:href="#DejaVuSans-112"/>
       <use x="719.824219" xlink:href="#DejaVuSans-97"/>
       <use x="781.103516" xlink:href="#DejaVuSans-105"/>
       <use x="808.886719" xlink:href="#DejaVuSans-110"/>
      </g>
     </g>
    </g>
    <g id="ytick_4">
     <g id="line2d_9">
      <g>
       <use style="stroke:#000000;stroke-width:0.8;" x="180" xlink:href="#m7650bbba01" y="595.6"/>
      </g>
     </g>
     <g id="text_10">
      <!-- Nationality_Italy -->
      <g transform="translate(92.017187 599.399219)scale(0.1 -0.1)">
       <use xlink:href="#DejaVuSans-78"/>
       <use x="74.804688" xlink:href="#DejaVuSans-97"/>
       <use x="136.083984" xlink:href="#DejaVuSans-116"/>
       <use x="175.292969" xlink:href="#DejaVuSans-105"/>
       <use x="203.076172" xlink:href="#DejaVuSans-111"/>
       <use x="264.257812" xlink:href="#DejaVuSans-110"/>
       <use x="327.636719" xlink:href="#DejaVuSans-97"/>
       <use x="388.916016" xlink:href="#DejaVuSans-108"/>
       <use x="416.699219" xlink:href="#DejaVuSans-105"/>
       <use x="444.482422" xlink:href="#DejaVuSans-116"/>
       <use x="483.691406" xlink:href="#DejaVuSans-121"/>
       <use x="542.871094" xlink:href="#DejaVuSans-95"/>
       <use x="592.871094" xlink:href="#DejaVuSans-73"/>
       <use x="622.363281" xlink:href="#DejaVuSans-116"/>
       <use x="661.572266" xlink:href="#DejaVuSans-97"/>
       <use x="722.851562" xlink:href="#DejaVuSans-108"/>
       <use x="750.634766" xlink:href="#DejaVuSans-121"/>
      </g>
     </g>
    </g>
    <g id="ytick_5">
     <g id="line2d_10">
      <g>
       <use style="stroke:#000000;stroke-width:0.8;" x="180" xlink:href="#m7650bbba01" y="716.4"/>
      </g>
     </g>
     <g id="text_11">
      <!-- Percentage_Age_65_Plus -->
      <g transform="translate(49.332812 720.199219)scale(0.1 -0.1)">
       <defs>
        <path d="M 45.40625 27.984375 
Q 45.40625 37.75 41.375 43.109375 
Q 37.359375 48.484375 30.078125 48.484375 
Q 22.859375 48.484375 18.828125 43.109375 
Q 14.796875 37.75 14.796875 27.984375 
Q 14.796875 18.265625 18.828125 12.890625 
Q 22.859375 7.515625 30.078125 7.515625 
Q 37.359375 7.515625 41.375 12.890625 
Q 45.40625 18.265625 45.40625 27.984375 
z
M 54.390625 6.78125 
Q 54.390625 -7.171875 48.1875 -13.984375 
Q 42 -20.796875 29.203125 -20.796875 
Q 24.46875 -20.796875 20.265625 -20.09375 
Q 16.0625 -19.390625 12.109375 -17.921875 
L 12.109375 -9.1875 
Q 16.0625 -11.328125 19.921875 -12.34375 
Q 23.78125 -13.375 27.78125 -13.375 
Q 36.625 -13.375 41.015625 -8.765625 
Q 45.40625 -4.15625 45.40625 5.171875 
L 45.40625 9.625 
Q 42.625 4.78125 38.28125 2.390625 
Q 33.9375 0 27.875 0 
Q 17.828125 0 11.671875 7.65625 
Q 5.515625 15.328125 5.515625 27.984375 
Q 5.515625 40.671875 11.671875 48.328125 
Q 17.828125 56 27.875 56 
Q 33.9375 56 38.28125 53.609375 
Q 42.625 51.21875 45.40625 46.390625 
L 45.40625 54.6875 
L 54.390625 54.6875 
z
" id="DejaVuSans-103"/>
        <path d="M 34.1875 63.1875 
L 20.796875 26.90625 
L 47.609375 26.90625 
z
M 28.609375 72.90625 
L 39.796875 72.90625 
L 67.578125 0 
L 57.328125 0 
L 50.6875 18.703125 
L 17.828125 18.703125 
L 11.1875 0 
L 0.78125 0 
z
" id="DejaVuSans-65"/>
        <path d="M 33.015625 40.375 
Q 26.375 40.375 22.484375 35.828125 
Q 18.609375 31.296875 18.609375 23.390625 
Q 18.609375 15.53125 22.484375 10.953125 
Q 26.375 6.390625 33.015625 6.390625 
Q 39.65625 6.390625 43.53125 10.953125 
Q 47.40625 15.53125 47.40625 23.390625 
Q 47.40625 31.296875 43.53125 35.828125 
Q 39.65625 40.375 33.015625 40.375 
z
M 52.59375 71.296875 
L 52.59375 62.3125 
Q 48.875 64.0625 45.09375 64.984375 
Q 41.3125 65.921875 37.59375 65.921875 
Q 27.828125 65.921875 22.671875 59.328125 
Q 17.53125 52.734375 16.796875 39.40625 
Q 19.671875 43.65625 24.015625 45.921875 
Q 28.375 48.1875 33.59375 48.1875 
Q 44.578125 48.1875 50.953125 41.515625 
Q 57.328125 34.859375 57.328125 23.390625 
Q 57.328125 12.15625 50.6875 5.359375 
Q 44.046875 -1.421875 33.015625 -1.421875 
Q 20.359375 -1.421875 13.671875 8.265625 
Q 6.984375 17.96875 6.984375 36.375 
Q 6.984375 53.65625 15.1875 63.9375 
Q 23.390625 74.21875 37.203125 74.21875 
Q 40.921875 74.21875 44.703125 73.484375 
Q 48.484375 72.75 52.59375 71.296875 
z
" id="DejaVuSans-54"/>
        <path d="M 10.796875 72.90625 
L 49.515625 72.90625 
L 49.515625 64.59375 
L 19.828125 64.59375 
L 19.828125 46.734375 
Q 21.96875 47.46875 24.109375 47.828125 
Q 26.265625 48.1875 28.421875 48.1875 
Q 40.625 48.1875 47.75 41.5 
Q 54.890625 34.8125 54.890625 23.390625 
Q 54.890625 11.625 47.5625 5.09375 
Q 40.234375 -1.421875 26.90625 -1.421875 
Q 22.3125 -1.421875 17.546875 -0.640625 
Q 12.796875 0.140625 7.71875 1.703125 
L 7.71875 11.625 
Q 12.109375 9.234375 16.796875 8.0625 
Q 21.484375 6.890625 26.703125 6.890625 
Q 35.15625 6.890625 40.078125 11.328125 
Q 45.015625 15.765625 45.015625 23.390625 
Q 45.015625 31 40.078125 35.4375 
Q 35.15625 39.890625 26.703125 39.890625 
Q 22.75 39.890625 18.8125 39.015625 
Q 14.890625 38.140625 10.796875 36.28125 
z
" id="DejaVuSans-53"/>
       </defs>
       <use xlink:href="#DejaVuSans-80"/>
       <use x="56.677734" xlink:href="#DejaVuSans-101"/>
       <use x="118.201172" xlink:href="#DejaVuSans-114"/>
       <use x="157.064453" xlink:href="#DejaVuSans-99"/>
       <use x="212.044922" xlink:href="#DejaVuSans-101"/>
       <use x="273.568359" xlink:href="#DejaVuSans-110"/>
       <use x="336.947266" xlink:href="#DejaVuSans-116"/>
       <use x="376.15625" xlink:href="#DejaVuSans-97"/>
       <use x="437.435547" xlink:href="#DejaVuSans-103"/>
       <use x="500.912109" xlink:href="#DejaVuSans-101"/>
       <use x="562.435547" xlink:href="#DejaVuSans-95"/>
       <use x="612.435547" xlink:href="#DejaVuSans-65"/>
       <use x="680.84375" xlink:href="#DejaVuSans-103"/>
       <use x="744.320312" xlink:href="#DejaVuSans-101"/>
       <use x="805.84375" xlink:href="#DejaVuSans-95"/>
       <use x="855.84375" xlink:href="#DejaVuSans-54"/>
       <use x="919.466797" xlink:href="#DejaVuSans-53"/>
       <use x="983.089844" xlink:href="#DejaVuSans-95"/>
       <use x="1033.089844" xlink:href="#DejaVuSans-80"/>
       <use x="1093.392578" xlink:href="#DejaVuSans-108"/>
       <use x="1121.175781" xlink:href="#DejaVuSans-117"/>
       <use x="1184.554688" xlink:href="#DejaVuSans-115"/>
      </g>
     </g>
    </g>
    <g id="ytick_6">
     <g id="line2d_11">
      <g>
       <use style="stroke:#000000;stroke-width:0.8;" x="180" xlink:href="#m7650bbba01" y="837.2"/>
      </g>
     </g>
     <g id="text_12">
      <!-- Percentage_Age_0_14 -->
      <g transform="translate(63.325 840.910938)scale(0.1 -0.1)">
       <defs>
        <path d="M 12.40625 8.296875 
L 28.515625 8.296875 
L 28.515625 63.921875 
L 10.984375 60.40625 
L 10.984375 69.390625 
L 28.421875 72.90625 
L 38.28125 72.90625 
L 38.28125 8.296875 
L 54.390625 8.296875 
L 54.390625 0 
L 12.40625 0 
z
" id="DejaVuSans-49"/>
       </defs>
       <use xlink:href="#DejaVuSans-80"/>
       <use x="56.677734" xlink:href="#DejaVuSans-101"/>
       <use x="118.201172" xlink:href="#DejaVuSans-114"/>
       <use x="157.064453" xlink:href="#DejaVuSans-99"/>
       <use x="212.044922" xlink:href="#DejaVuSans-101"/>
       <use x="273.568359" xlink:href="#DejaVuSans-110"/>
       <use x="336.947266" xlink:href="#DejaVuSans-116"/>
       <use x="376.15625" xlink:href="#DejaVuSans-97"/>
       <use x="437.435547" xlink:href="#DejaVuSans-103"/>
       <use x="500.912109" xlink:href="#DejaVuSans-101"/>
       <use x="562.435547" xlink:href="#DejaVuSans-95"/>
       <use x="612.435547" xlink:href="#DejaVuSans-65"/>
       <use x="680.84375" xlink:href="#DejaVuSans-103"/>
       <use x="744.320312" xlink:href="#DejaVuSans-101"/>
       <use x="805.84375" xlink:href="#DejaVuSans-95"/>
       <use x="855.84375" xlink:href="#DejaVuSans-48"/>
       <use x="919.466797" xlink:href="#DejaVuSans-95"/>
       <use x="969.466797" xlink:href="#DejaVuSans-49"/>
       <use x="1033.089844" xlink:href="#DejaVuSans-52"/>
      </g>
     </g>
    </g>
    <g id="ytick_7">
     <g id="line2d_12">
      <g>
       <use style="stroke:#000000;stroke-width:0.8;" x="180" xlink:href="#m7650bbba01" y="958"/>
      </g>
     </g>
     <g id="text_13">
      <!-- Nationality_UK -->
      <g transform="translate(99.835938 961.799219)scale(0.1 -0.1)">
       <defs>
        <path d="M 8.6875 72.90625 
L 18.609375 72.90625 
L 18.609375 28.609375 
Q 18.609375 16.890625 22.84375 11.734375 
Q 27.09375 6.59375 36.625 6.59375 
Q 46.09375 6.59375 50.34375 11.734375 
Q 54.59375 16.890625 54.59375 28.609375 
L 54.59375 72.90625 
L 64.5 72.90625 
L 64.5 27.390625 
Q 64.5 13.140625 57.4375 5.859375 
Q 50.390625 -1.421875 36.625 -1.421875 
Q 22.796875 -1.421875 15.734375 5.859375 
Q 8.6875 13.140625 8.6875 27.390625 
z
" id="DejaVuSans-85"/>
        <path d="M 9.8125 72.90625 
L 19.671875 72.90625 
L 19.671875 42.09375 
L 52.390625 72.90625 
L 65.09375 72.90625 
L 28.90625 38.921875 
L 67.671875 0 
L 54.6875 0 
L 19.671875 35.109375 
L 19.671875 0 
L 9.8125 0 
z
" id="DejaVuSans-75"/>
       </defs>
       <use xlink:href="#DejaVuSans-78"/>
       <use x="74.804688" xlink:href="#DejaVuSans-97"/>
       <use x="136.083984" xlink:href="#DejaVuSans-116"/>
       <use x="175.292969" xlink:href="#DejaVuSans-105"/>
       <use x="203.076172" xlink:href="#DejaVuSans-111"/>
       <use x="264.257812" xlink:href="#DejaVuSans-110"/>
       <use x="327.636719" xlink:href="#DejaVuSans-97"/>
       <use x="388.916016" xlink:href="#DejaVuSans-108"/>
       <use x="416.699219" xlink:href="#DejaVuSans-105"/>
       <use x="444.482422" xlink:href="#DejaVuSans-116"/>
       <use x="483.691406" xlink:href="#DejaVuSans-121"/>
       <use x="542.871094" xlink:href="#DejaVuSans-95"/>
       <use x="592.871094" xlink:href="#DejaVuSans-85"/>
       <use x="666.064453" xlink:href="#DejaVuSans-75"/>
      </g>
     </g>
    </g>
    <g id="ytick_8">
     <g id="line2d_13">
      <g>
       <use style="stroke:#000000;stroke-width:0.8;" x="180" xlink:href="#m7650bbba01" y="1078.8"/>
      </g>
     </g>
     <g id="text_14">
      <!-- POI_Clothing -->
      <g transform="translate(109.546875 1082.599219)scale(0.1 -0.1)">
       <defs>
        <path d="M 54.890625 33.015625 
L 54.890625 0 
L 45.90625 0 
L 45.90625 32.71875 
Q 45.90625 40.484375 42.875 44.328125 
Q 39.84375 48.1875 33.796875 48.1875 
Q 26.515625 48.1875 22.3125 43.546875 
Q 18.109375 38.921875 18.109375 30.90625 
L 18.109375 0 
L 9.078125 0 
L 9.078125 75.984375 
L 18.109375 75.984375 
L 18.109375 46.1875 
Q 21.34375 51.125 25.703125 53.5625 
Q 30.078125 56 35.796875 56 
Q 45.21875 56 50.046875 50.171875 
Q 54.890625 44.34375 54.890625 33.015625 
z
" id="DejaVuSans-104"/>
       </defs>
       <use xlink:href="#DejaVuSans-80"/>
       <use x="60.302734" xlink:href="#DejaVuSans-79"/>
       <use x="139.013672" xlink:href="#DejaVuSans-73"/>
       <use x="168.505859" xlink:href="#DejaVuSans-95"/>
       <use x="218.505859" xlink:href="#DejaVuSans-67"/>
       <use x="288.330078" xlink:href="#DejaVuSans-108"/>
       <use x="316.113281" xlink:href="#DejaVuSans-111"/>
       <use x="377.294922" xlink:href="#DejaVuSans-116"/>
       <use x="416.503906" xlink:href="#DejaVuSans-104"/>
       <use x="479.882812" xlink:href="#DejaVuSans-105"/>
       <use x="507.666016" xlink:href="#DejaVuSans-110"/>
       <use x="571.044922" xlink:href="#DejaVuSans-103"/>
      </g>
     </g>
    </g>
    <g id="ytick_9">
     <g id="line2d_14">
      <g>
       <use style="stroke:#000000;stroke-width:0.8;" x="180" xlink:href="#m7650bbba01" y="1199.6"/>
      </g>
     </g>
     <g id="text_15">
      <!-- Intercept -->
      <g transform="translate(127.832812 1203.399219)scale(0.1 -0.1)">
       <use xlink:href="#DejaVuSans-73"/>
       <use x="29.492188" xlink:href="#DejaVuSans-110"/>
       <use x="92.871094" xlink:href="#DejaVuSans-116"/>
       <use x="132.080078" xlink:href="#DejaVuSans-101"/>
       <use x="193.603516" xlink:href="#DejaVuSans-114"/>
       <use x="232.466797" xlink:href="#DejaVuSans-99"/>
       <use x="287.447266" xlink:href="#DejaVuSans-101"/>
       <use x="348.970703" xlink:href="#DejaVuSans-112"/>
       <use x="412.447266" xlink:href="#DejaVuSans-116"/>
      </g>
     </g>
    </g>
   </g>
   <g id="line2d_15">
    <path clip-path="url(#p9c74471f26)" d="M 234.947793 233.2 
L 206.571429 233.2 
" style="fill:none;stroke:#4c4c4c;stroke-linecap:square;stroke-width:1.5;"/>
   </g>
   <g id="line2d_16">
    <path clip-path="url(#p9c74471f26)" d="M 264.90696 233.2 
L 283.280258 233.2 
" style="fill:none;stroke:#4c4c4c;stroke-linecap:square;stroke-width:1.5;"/>
   </g>
   <g id="line2d_17">
    <path clip-path="url(#p9c74471f26)" d="M 206.571429 209.04 
L 206.571429 257.36 
" style="fill:none;stroke:#4c4c4c;stroke-linecap:square;stroke-width:1.5;"/>
   </g>
   <g id="line2d_18">
    <path clip-path="url(#p9c74471f26)" d="M 283.280258 209.04 
L 283.280258 257.36 
" style="fill:none;stroke:#4c4c4c;stroke-linecap:square;stroke-width:1.5;"/>
   </g>
   <g id="line2d_19"/>
   <g id="line2d_20">
    <path clip-path="url(#p9c74471f26)" d="M 965.542881 354 
L 951.922108 354 
" style="fill:none;stroke:#4c4c4c;stroke-linecap:square;stroke-width:1.5;"/>
   </g>
   <g id="line2d_21">
    <path clip-path="url(#p9c74471f26)" d="M 988.24914 354 
L 1004.983173 354 
" style="fill:none;stroke:#4c4c4c;stroke-linecap:square;stroke-width:1.5;"/>
   </g>
   <g id="line2d_22">
    <path clip-path="url(#p9c74471f26)" d="M 951.922108 329.84 
L 951.922108 378.16 
" style="fill:none;stroke:#4c4c4c;stroke-linecap:square;stroke-width:1.5;"/>
   </g>
   <g id="line2d_23">
    <path clip-path="url(#p9c74471f26)" d="M 1004.983173 329.84 
L 1004.983173 378.16 
" style="fill:none;stroke:#4c4c4c;stroke-linecap:square;stroke-width:1.5;"/>
   </g>
   <g id="line2d_24"/>
   <g id="line2d_25">
    <path clip-path="url(#p9c74471f26)" d="M 502.842429 474.8 
L 487.070151 474.8 
" style="fill:none;stroke:#4c4c4c;stroke-linecap:square;stroke-width:1.5;"/>
   </g>
   <g id="line2d_26">
    <path clip-path="url(#p9c74471f26)" d="M 530.070526 474.8 
L 562.14799 474.8 
" style="fill:none;stroke:#4c4c4c;stroke-linecap:square;stroke-width:1.5;"/>
   </g>
   <g id="line2d_27">
    <path clip-path="url(#p9c74471f26)" d="M 487.070151 450.64 
L 487.070151 498.96 
" style="fill:none;stroke:#4c4c4c;stroke-linecap:square;stroke-width:1.5;"/>
   </g>
   <g id="line2d_28">
    <path clip-path="url(#p9c74471f26)" d="M 562.14799 450.64 
L 562.14799 498.96 
" style="fill:none;stroke:#4c4c4c;stroke-linecap:square;stroke-width:1.5;"/>
   </g>
   <g id="line2d_29"/>
   <g id="line2d_30">
    <path clip-path="url(#p9c74471f26)" d="M 921.700118 595.6 
L 907.190804 595.6 
" style="fill:none;stroke:#4c4c4c;stroke-linecap:square;stroke-width:1.5;"/>
   </g>
   <g id="line2d_31">
    <path clip-path="url(#p9c74471f26)" d="M 943.098961 595.6 
L 954.54738 595.6 
" style="fill:none;stroke:#4c4c4c;stroke-linecap:square;stroke-width:1.5;"/>
   </g>
   <g id="line2d_32">
    <path clip-path="url(#p9c74471f26)" d="M 907.190804 571.44 
L 907.190804 619.76 
" style="fill:none;stroke:#4c4c4c;stroke-linecap:square;stroke-width:1.5;"/>
   </g>
   <g id="line2d_33">
    <path clip-path="url(#p9c74471f26)" d="M 954.54738 571.44 
L 954.54738 619.76 
" style="fill:none;stroke:#4c4c4c;stroke-linecap:square;stroke-width:1.5;"/>
   </g>
   <g id="line2d_34"/>
   <g id="line2d_35">
    <path clip-path="url(#p9c74471f26)" d="M 644.975111 716.4 
L 626.178287 716.4 
" style="fill:none;stroke:#4c4c4c;stroke-linecap:square;stroke-width:1.5;"/>
   </g>
   <g id="line2d_36">
    <path clip-path="url(#p9c74471f26)" d="M 664.839974 716.4 
L 679.718951 716.4 
" style="fill:none;stroke:#4c4c4c;stroke-linecap:square;stroke-width:1.5;"/>
   </g>
   <g id="line2d_37">
    <path clip-path="url(#p9c74471f26)" d="M 626.178287 692.24 
L 626.178287 740.56 
" style="fill:none;stroke:#4c4c4c;stroke-linecap:square;stroke-width:1.5;"/>
   </g>
   <g id="line2d_38">
    <path clip-path="url(#p9c74471f26)" d="M 679.718951 692.24 
L 679.718951 740.56 
" style="fill:none;stroke:#4c4c4c;stroke-linecap:square;stroke-width:1.5;"/>
   </g>
   <g id="line2d_39"/>
   <g id="line2d_40">
    <path clip-path="url(#p9c74471f26)" d="M 650.407423 837.2 
L 631.658248 837.2 
" style="fill:none;stroke:#4c4c4c;stroke-linecap:square;stroke-width:1.5;"/>
   </g>
   <g id="line2d_41">
    <path clip-path="url(#p9c74471f26)" d="M 667.735454 837.2 
L 684.215679 837.2 
" style="fill:none;stroke:#4c4c4c;stroke-linecap:square;stroke-width:1.5;"/>
   </g>
   <g id="line2d_42">
    <path clip-path="url(#p9c74471f26)" d="M 631.658248 813.04 
L 631.658248 861.36 
" style="fill:none;stroke:#4c4c4c;stroke-linecap:square;stroke-width:1.5;"/>
   </g>
   <g id="line2d_43">
    <path clip-path="url(#p9c74471f26)" d="M 684.215679 813.04 
L 684.215679 861.36 
" style="fill:none;stroke:#4c4c4c;stroke-linecap:square;stroke-width:1.5;"/>
   </g>
   <g id="line2d_44"/>
   <g id="line2d_45">
    <path clip-path="url(#p9c74471f26)" d="M 802.021375 958 
L 788.483497 958 
" style="fill:none;stroke:#4c4c4c;stroke-linecap:square;stroke-width:1.5;"/>
   </g>
   <g id="line2d_46">
    <path clip-path="url(#p9c74471f26)" d="M 813.211048 958 
L 824.425612 958 
" style="fill:none;stroke:#4c4c4c;stroke-linecap:square;stroke-width:1.5;"/>
   </g>
   <g id="line2d_47">
    <path clip-path="url(#p9c74471f26)" d="M 788.483497 933.84 
L 788.483497 982.16 
" style="fill:none;stroke:#4c4c4c;stroke-linecap:square;stroke-width:1.5;"/>
   </g>
   <g id="line2d_48">
    <path clip-path="url(#p9c74471f26)" d="M 824.425612 933.84 
L 824.425612 982.16 
" style="fill:none;stroke:#4c4c4c;stroke-linecap:square;stroke-width:1.5;"/>
   </g>
   <g id="line2d_49">
    <defs>
     <path d="M -0 3.535534 
L 2.12132 0 
L -0 -3.535534 
L -2.12132 -0 
z
" id="mefe6c723a7" style="stroke:#4c4c4c;stroke-linejoin:miter;"/>
    </defs>
    <g clip-path="url(#p9c74471f26)">
     <use style="fill:#4c4c4c;stroke:#4c4c4c;stroke-linejoin:miter;" x="784.273221" xlink:href="#mefe6c723a7" y="958"/>
     <use style="fill:#4c4c4c;stroke:#4c4c4c;stroke-linejoin:miter;" x="778.371075" xlink:href="#mefe6c723a7" y="958"/>
     <use style="fill:#4c4c4c;stroke:#4c4c4c;stroke-linejoin:miter;" x="835.221656" xlink:href="#mefe6c723a7" y="958"/>
     <use style="fill:#4c4c4c;stroke:#4c4c4c;stroke-linejoin:miter;" x="837.035299" xlink:href="#mefe6c723a7" y="958"/>
    </g>
   </g>
   <g id="line2d_50">
    <path clip-path="url(#p9c74471f26)" d="M 667.730291 1078.8 
L 658.636303 1078.8 
" style="fill:none;stroke:#4c4c4c;stroke-linecap:square;stroke-width:1.5;"/>
   </g>
   <g id="line2d_51">
    <path clip-path="url(#p9c74471f26)" d="M 681.585069 1078.8 
L 700.549563 1078.8 
" style="fill:none;stroke:#4c4c4c;stroke-linecap:square;stroke-width:1.5;"/>
   </g>
   <g id="line2d_52">
    <path clip-path="url(#p9c74471f26)" d="M 658.636303 1054.64 
L 658.636303 1102.96 
" style="fill:none;stroke:#4c4c4c;stroke-linecap:square;stroke-width:1.5;"/>
   </g>
   <g id="line2d_53">
    <path clip-path="url(#p9c74471f26)" d="M 700.549563 1054.64 
L 700.549563 1102.96 
" style="fill:none;stroke:#4c4c4c;stroke-linecap:square;stroke-width:1.5;"/>
   </g>
   <g id="line2d_54">
    <g clip-path="url(#p9c74471f26)">
     <use style="fill:#4c4c4c;stroke:#4c4c4c;stroke-linejoin:miter;" x="646.602339" xlink:href="#mefe6c723a7" y="1078.8"/>
    </g>
   </g>
   <g id="line2d_55">
    <path clip-path="url(#p9c74471f26)" d="M 738 1199.6 
L 738 1199.6 
" style="fill:none;stroke:#4c4c4c;stroke-linecap:square;stroke-width:1.5;"/>
   </g>
   <g id="line2d_56">
    <path clip-path="url(#p9c74471f26)" d="M 738 1199.6 
L 738 1199.6 
" style="fill:none;stroke:#4c4c4c;stroke-linecap:square;stroke-width:1.5;"/>
   </g>
   <g id="line2d_57">
    <path clip-path="url(#p9c74471f26)" d="M 738 1175.44 
L 738 1223.76 
" style="fill:none;stroke:#4c4c4c;stroke-linecap:square;stroke-width:1.5;"/>
   </g>
   <g id="line2d_58">
    <path clip-path="url(#p9c74471f26)" d="M 738 1175.44 
L 738 1223.76 
" style="fill:none;stroke:#4c4c4c;stroke-linecap:square;stroke-width:1.5;"/>
   </g>
   <g id="line2d_59"/>
   <g id="line2d_60">
    <path clip-path="url(#p9c74471f26)" d="M 738 1260 
L 738 172.8 
" style="fill:none;stroke:#ff0000;stroke-linecap:square;stroke-width:1.5;"/>
   </g>
   <g id="line2d_61">
    <path clip-path="url(#p9c74471f26)" d="M 245.679491 184.88 
L 245.679491 281.52 
" style="fill:none;stroke:#4c4c4c;stroke-linecap:square;stroke-width:1.5;"/>
   </g>
   <g id="line2d_62">
    <path clip-path="url(#p9c74471f26)" d="M 974.745152 305.68 
L 974.745152 402.32 
" style="fill:none;stroke:#4c4c4c;stroke-linecap:square;stroke-width:1.5;"/>
   </g>
   <g id="line2d_63">
    <path clip-path="url(#p9c74471f26)" d="M 516.543907 426.48 
L 516.543907 523.12 
" style="fill:none;stroke:#4c4c4c;stroke-linecap:square;stroke-width:1.5;"/>
   </g>
   <g id="line2d_64">
    <path clip-path="url(#p9c74471f26)" d="M 930.582446 547.28 
L 930.582446 643.92 
" style="fill:none;stroke:#4c4c4c;stroke-linecap:square;stroke-width:1.5;"/>
   </g>
   <g id="line2d_65">
    <path clip-path="url(#p9c74471f26)" d="M 655.754016 668.08 
L 655.754016 764.72 
" style="fill:none;stroke:#4c4c4c;stroke-linecap:square;stroke-width:1.5;"/>
   </g>
   <g id="line2d_66">
    <path clip-path="url(#p9c74471f26)" d="M 659.750756 788.88 
L 659.750756 885.52 
" style="fill:none;stroke:#4c4c4c;stroke-linecap:square;stroke-width:1.5;"/>
   </g>
   <g id="line2d_67">
    <path clip-path="url(#p9c74471f26)" d="M 806.99345 909.68 
L 806.99345 1006.32 
" style="fill:none;stroke:#4c4c4c;stroke-linecap:square;stroke-width:1.5;"/>
   </g>
   <g id="line2d_68">
    <path clip-path="url(#p9c74471f26)" d="M 673.387807 1030.48 
L 673.387807 1127.12 
" style="fill:none;stroke:#4c4c4c;stroke-linecap:square;stroke-width:1.5;"/>
   </g>
   <g id="line2d_69">
    <path clip-path="url(#p9c74471f26)" d="M 738 1151.28 
L 738 1247.92 
" style="fill:none;stroke:#4c4c4c;stroke-linecap:square;stroke-width:1.5;"/>
   </g>
   <g id="patch_12">
    <path d="M 180 1260 
L 180 172.8 
" style="fill:none;stroke:#000000;stroke-linecap:square;stroke-linejoin:miter;stroke-width:0.8;"/>
   </g>
   <g id="patch_13">
    <path d="M 1296 1260 
L 1296 172.8 
" style="fill:none;stroke:#000000;stroke-linecap:square;stroke-linejoin:miter;stroke-width:0.8;"/>
   </g>
   <g id="patch_14">
    <path d="M 180 1260 
L 1296 1260 
" style="fill:none;stroke:#000000;stroke-linecap:square;stroke-linejoin:miter;stroke-width:0.8;"/>
   </g>
   <g id="patch_15">
    <path d="M 180 172.8 
L 1296 172.8 
" style="fill:none;stroke:#000000;stroke-linecap:square;stroke-linejoin:miter;stroke-width:0.8;"/>
   </g>
   <g id="PathCollection_1">
    <defs>
     <path d="M 0 2.5 
C 0.663008 2.5 1.29895 2.236584 1.767767 1.767767 
C 2.236584 1.29895 2.5 0.663008 2.5 -0 
C 2.5 -0.663008 2.236584 -1.29895 1.767767 -1.767767 
C 1.29895 -2.236584 0.663008 -2.5 0 -2.5 
C -0.663008 -2.5 -1.29895 -2.236584 -1.767767 -1.767767 
C -2.236584 -1.29895 -2.5 -0.663008 -2.5 0 
C -2.5 0.663008 -2.236584 1.29895 -1.767767 1.767767 
C -1.29895 2.236584 -0.663008 2.5 0 2.5 
z
" id="C0_0_184ce06244"/>
    </defs>
    <g clip-path="url(#p9c74471f26)">
     <use style="fill-opacity:0.5;" x="253.063601" xlink:href="#C0_0_184ce06244" y="241.089474"/>
    </g>
    <g clip-path="url(#p9c74471f26)">
     <use style="fill-opacity:0.5;" x="264.90696" xlink:href="#C0_0_184ce06244" y="240.471694"/>
    </g>
    <g clip-path="url(#p9c74471f26)">
     <use style="fill-opacity:0.5;" x="211.696715" xlink:href="#C0_0_184ce06244" y="223.643621"/>
    </g>
    <g clip-path="url(#p9c74471f26)">
     <use style="fill-opacity:0.5;" x="283.280258" xlink:href="#C0_0_184ce06244" y="235.056874"/>
    </g>
    <g clip-path="url(#p9c74471f26)">
     <use style="fill-opacity:0.5;" x="226.162982" xlink:href="#C0_0_184ce06244" y="232.329798"/>
    </g>
    <g clip-path="url(#p9c74471f26)">
     <use style="fill-opacity:0.5;" x="214.493936" xlink:href="#C0_0_184ce06244" y="223.988012"/>
    </g>
    <g clip-path="url(#p9c74471f26)">
     <use style="fill-opacity:0.5;" x="234.947793" xlink:href="#C0_0_184ce06244" y="244.810528"/>
    </g>
    <g clip-path="url(#p9c74471f26)">
     <use style="fill-opacity:0.5;" x="262.721932" xlink:href="#C0_0_184ce06244" y="226.307053"/>
    </g>
    <g clip-path="url(#p9c74471f26)">
     <use style="fill-opacity:0.5;" x="274.599916" xlink:href="#C0_0_184ce06244" y="222.744378"/>
    </g>
    <g clip-path="url(#p9c74471f26)">
     <use style="fill-opacity:0.5;" x="249.649399" xlink:href="#C0_0_184ce06244" y="235.491513"/>
    </g>
    <g clip-path="url(#p9c74471f26)">
     <use style="fill-opacity:0.5;" x="241.376776" xlink:href="#C0_0_184ce06244" y="238.971019"/>
    </g>
    <g clip-path="url(#p9c74471f26)">
     <use style="fill-opacity:0.5;" x="249.908535" xlink:href="#C0_0_184ce06244" y="221.903834"/>
    </g>
    <g clip-path="url(#p9c74471f26)">
     <use style="fill-opacity:0.5;" x="244.707468" xlink:href="#C0_0_184ce06244" y="237.034618"/>
    </g>
    <g clip-path="url(#p9c74471f26)">
     <use style="fill-opacity:0.5;" x="233.814123" xlink:href="#C0_0_184ce06244" y="233.980172"/>
    </g>
    <g clip-path="url(#p9c74471f26)">
     <use style="fill-opacity:0.5;" x="266.75983" xlink:href="#C0_0_184ce06244" y="223.614883"/>
    </g>
    <g clip-path="url(#p9c74471f26)">
     <use style="fill-opacity:0.5;" x="268.577609" xlink:href="#C0_0_184ce06244" y="225.288177"/>
    </g>
    <g clip-path="url(#p9c74471f26)">
     <use style="fill-opacity:0.5;" x="244.857131" xlink:href="#C0_0_184ce06244" y="234.842259"/>
    </g>
    <g clip-path="url(#p9c74471f26)">
     <use style="fill-opacity:0.5;" x="225.699895" xlink:href="#C0_0_184ce06244" y="228.28"/>
    </g>
    <g clip-path="url(#p9c74471f26)">
     <use style="fill-opacity:0.5;" x="252.984075" xlink:href="#C0_0_184ce06244" y="243.789708"/>
    </g>
    <g clip-path="url(#p9c74471f26)">
     <use style="fill-opacity:0.5;" x="245.679491" xlink:href="#C0_0_184ce06244" y="240.900764"/>
    </g>
    <g clip-path="url(#p9c74471f26)">
     <use style="fill-opacity:0.5;" x="244.893154" xlink:href="#C0_0_184ce06244" y="244.882984"/>
    </g>
    <g clip-path="url(#p9c74471f26)">
     <use style="fill-opacity:0.5;" x="279.225843" xlink:href="#C0_0_184ce06244" y="227.393647"/>
    </g>
    <g clip-path="url(#p9c74471f26)">
     <use style="fill-opacity:0.5;" x="206.571429" xlink:href="#C0_0_184ce06244" y="244.548523"/>
    </g>
    <g clip-path="url(#p9c74471f26)">
     <use style="fill-opacity:0.5;" x="269.346272" xlink:href="#C0_0_184ce06244" y="231.53861"/>
    </g>
    <g clip-path="url(#p9c74471f26)">
     <use style="fill-opacity:0.5;" x="239.647865" xlink:href="#C0_0_184ce06244" y="229.516054"/>
    </g>
   </g>
   <g id="PathCollection_2">
    <defs>
     <path d="M 0 2.5 
C 0.663008 2.5 1.29895 2.236584 1.767767 1.767767 
C 2.236584 1.29895 2.5 0.663008 2.5 -0 
C 2.5 -0.663008 2.236584 -1.29895 1.767767 -1.767767 
C 1.29895 -2.236584 0.663008 -2.5 0 -2.5 
C -0.663008 -2.5 -1.29895 -2.236584 -1.767767 -1.767767 
C -2.236584 -1.29895 -2.5 -0.663008 -2.5 0 
C -2.5 0.663008 -2.236584 1.29895 -1.767767 1.767767 
C -1.29895 2.236584 -0.663008 2.5 0 2.5 
z
" id="C1_0_46183e90d0"/>
    </defs>
    <g clip-path="url(#p9c74471f26)">
     <use style="fill-opacity:0.5;" x="965.542881" xlink:href="#C1_0_46183e90d0" y="343.136445"/>
    </g>
    <g clip-path="url(#p9c74471f26)">
     <use style="fill-opacity:0.5;" x="980.811074" xlink:href="#C1_0_46183e90d0" y="343.194809"/>
    </g>
    <g clip-path="url(#p9c74471f26)">
     <use style="fill-opacity:0.5;" x="986.864851" xlink:href="#C1_0_46183e90d0" y="358.638992"/>
    </g>
    <g clip-path="url(#p9c74471f26)">
     <use style="fill-opacity:0.5;" x="980.970536" xlink:href="#C1_0_46183e90d0" y="352.983565"/>
    </g>
    <g clip-path="url(#p9c74471f26)">
     <use style="fill-opacity:0.5;" x="963.60378" xlink:href="#C1_0_46183e90d0" y="347.392762"/>
    </g>
    <g clip-path="url(#p9c74471f26)">
     <use style="fill-opacity:0.5;" x="956.062861" xlink:href="#C1_0_46183e90d0" y="356.753523"/>
    </g>
    <g clip-path="url(#p9c74471f26)">
     <use style="fill-opacity:0.5;" x="967.1609" xlink:href="#C1_0_46183e90d0" y="348.029052"/>
    </g>
    <g clip-path="url(#p9c74471f26)">
     <use style="fill-opacity:0.5;" x="1004.983173" xlink:href="#C1_0_46183e90d0" y="355.875583"/>
    </g>
    <g clip-path="url(#p9c74471f26)">
     <use style="fill-opacity:0.5;" x="979.18159" xlink:href="#C1_0_46183e90d0" y="350.598483"/>
    </g>
    <g clip-path="url(#p9c74471f26)">
     <use style="fill-opacity:0.5;" x="974.673117" xlink:href="#C1_0_46183e90d0" y="361.817022"/>
    </g>
    <g clip-path="url(#p9c74471f26)">
     <use style="fill-opacity:0.5;" x="980.650821" xlink:href="#C1_0_46183e90d0" y="361.748019"/>
    </g>
    <g clip-path="url(#p9c74471f26)">
     <use style="fill-opacity:0.5;" x="992.927141" xlink:href="#C1_0_46183e90d0" y="353.452786"/>
    </g>
    <g clip-path="url(#p9c74471f26)">
     <use style="fill-opacity:0.5;" x="968.209249" xlink:href="#C1_0_46183e90d0" y="350.39579"/>
    </g>
    <g clip-path="url(#p9c74471f26)">
     <use style="fill-opacity:0.5;" x="970.303308" xlink:href="#C1_0_46183e90d0" y="350.679445"/>
    </g>
    <g clip-path="url(#p9c74471f26)">
     <use style="fill-opacity:0.5;" x="968.783136" xlink:href="#C1_0_46183e90d0" y="361.386063"/>
    </g>
    <g clip-path="url(#p9c74471f26)">
     <use style="fill-opacity:0.5;" x="988.977826" xlink:href="#C1_0_46183e90d0" y="349.848816"/>
    </g>
    <g clip-path="url(#p9c74471f26)">
     <use style="fill-opacity:0.5;" x="995.511861" xlink:href="#C1_0_46183e90d0" y="346.970874"/>
    </g>
    <g clip-path="url(#p9c74471f26)">
     <use style="fill-opacity:0.5;" x="955.870704" xlink:href="#C1_0_46183e90d0" y="343.96607"/>
    </g>
    <g clip-path="url(#p9c74471f26)">
     <use style="fill-opacity:0.5;" x="988.881061" xlink:href="#C1_0_46183e90d0" y="353.195306"/>
    </g>
    <g clip-path="url(#p9c74471f26)">
     <use style="fill-opacity:0.5;" x="951.922108" xlink:href="#C1_0_46183e90d0" y="353.568312"/>
    </g>
    <g clip-path="url(#p9c74471f26)">
     <use style="fill-opacity:0.5;" x="955.440585" xlink:href="#C1_0_46183e90d0" y="362.236354"/>
    </g>
    <g clip-path="url(#p9c74471f26)">
     <use style="fill-opacity:0.5;" x="988.24914" xlink:href="#C1_0_46183e90d0" y="347.265127"/>
    </g>
    <g clip-path="url(#p9c74471f26)">
     <use style="fill-opacity:0.5;" x="961.207327" xlink:href="#C1_0_46183e90d0" y="351.124749"/>
    </g>
    <g clip-path="url(#p9c74471f26)">
     <use style="fill-opacity:0.5;" x="974.745152" xlink:href="#C1_0_46183e90d0" y="361.451083"/>
    </g>
    <g clip-path="url(#p9c74471f26)">
     <use style="fill-opacity:0.5;" x="999.627501" xlink:href="#C1_0_46183e90d0" y="361.818746"/>
    </g>
   </g>
   <g id="PathCollection_3">
    <defs>
     <path d="M 0 2.5 
C 0.663008 2.5 1.29895 2.236584 1.767767 1.767767 
C 2.236584 1.29895 2.5 0.663008 2.5 -0 
C 2.5 -0.663008 2.236584 -1.29895 1.767767 -1.767767 
C 1.29895 -2.236584 0.663008 -2.5 0 -2.5 
C -0.663008 -2.5 -1.29895 -2.236584 -1.767767 -1.767767 
C -2.236584 -1.29895 -2.5 -0.663008 -2.5 0 
C -2.5 0.663008 -2.236584 1.29895 -1.767767 1.767767 
C -1.29895 2.236584 -0.663008 2.5 0 2.5 
z
" id="C2_0_75842c3abc"/>
    </defs>
    <g clip-path="url(#p9c74471f26)">
     <use style="fill-opacity:0.5;" x="491.308776" xlink:href="#C2_0_75842c3abc" y="472.012204"/>
    </g>
    <g clip-path="url(#p9c74471f26)">
     <use style="fill-opacity:0.5;" x="514.512761" xlink:href="#C2_0_75842c3abc" y="473.812436"/>
    </g>
    <g clip-path="url(#p9c74471f26)">
     <use style="fill-opacity:0.5;" x="553.060053" xlink:href="#C2_0_75842c3abc" y="470.047387"/>
    </g>
    <g clip-path="url(#p9c74471f26)">
     <use style="fill-opacity:0.5;" x="499.399879" xlink:href="#C2_0_75842c3abc" y="485.250526"/>
    </g>
    <g clip-path="url(#p9c74471f26)">
     <use style="fill-opacity:0.5;" x="529.321823" xlink:href="#C2_0_75842c3abc" y="465.586433"/>
    </g>
    <g clip-path="url(#p9c74471f26)">
     <use style="fill-opacity:0.5;" x="534.866618" xlink:href="#C2_0_75842c3abc" y="485.279386"/>
    </g>
    <g clip-path="url(#p9c74471f26)">
     <use style="fill-opacity:0.5;" x="489.530334" xlink:href="#C2_0_75842c3abc" y="479.242213"/>
    </g>
    <g clip-path="url(#p9c74471f26)">
     <use style="fill-opacity:0.5;" x="514.251863" xlink:href="#C2_0_75842c3abc" y="475.562783"/>
    </g>
    <g clip-path="url(#p9c74471f26)">
     <use style="fill-opacity:0.5;" x="513.010924" xlink:href="#C2_0_75842c3abc" y="463.509043"/>
    </g>
    <g clip-path="url(#p9c74471f26)">
     <use style="fill-opacity:0.5;" x="537.697062" xlink:href="#C2_0_75842c3abc" y="474.210404"/>
    </g>
    <g clip-path="url(#p9c74471f26)">
     <use style="fill-opacity:0.5;" x="502.842429" xlink:href="#C2_0_75842c3abc" y="472.571194"/>
    </g>
    <g clip-path="url(#p9c74471f26)">
     <use style="fill-opacity:0.5;" x="562.14799" xlink:href="#C2_0_75842c3abc" y="466.615046"/>
    </g>
    <g clip-path="url(#p9c74471f26)">
     <use style="fill-opacity:0.5;" x="497.769247" xlink:href="#C2_0_75842c3abc" y="478.578856"/>
    </g>
    <g clip-path="url(#p9c74471f26)">
     <use style="fill-opacity:0.5;" x="505.293133" xlink:href="#C2_0_75842c3abc" y="486.183006"/>
    </g>
    <g clip-path="url(#p9c74471f26)">
     <use style="fill-opacity:0.5;" x="519.690931" xlink:href="#C2_0_75842c3abc" y="476.302482"/>
    </g>
    <g clip-path="url(#p9c74471f26)">
     <use style="fill-opacity:0.5;" x="530.660184" xlink:href="#C2_0_75842c3abc" y="479.988439"/>
    </g>
    <g clip-path="url(#p9c74471f26)">
     <use style="fill-opacity:0.5;" x="529.395087" xlink:href="#C2_0_75842c3abc" y="464.373763"/>
    </g>
    <g clip-path="url(#p9c74471f26)">
     <use style="fill-opacity:0.5;" x="496.53183" xlink:href="#C2_0_75842c3abc" y="472.810835"/>
    </g>
    <g clip-path="url(#p9c74471f26)">
     <use style="fill-opacity:0.5;" x="524.379969" xlink:href="#C2_0_75842c3abc" y="465.531221"/>
    </g>
    <g clip-path="url(#p9c74471f26)">
     <use style="fill-opacity:0.5;" x="508.395629" xlink:href="#C2_0_75842c3abc" y="477.525147"/>
    </g>
    <g clip-path="url(#p9c74471f26)">
     <use style="fill-opacity:0.5;" x="516.543907" xlink:href="#C2_0_75842c3abc" y="485.393729"/>
    </g>
    <g clip-path="url(#p9c74471f26)">
     <use style="fill-opacity:0.5;" x="522.287705" xlink:href="#C2_0_75842c3abc" y="478.70855"/>
    </g>
    <g clip-path="url(#p9c74471f26)">
     <use style="fill-opacity:0.5;" x="487.070151" xlink:href="#C2_0_75842c3abc" y="464.575562"/>
    </g>
    <g clip-path="url(#p9c74471f26)">
     <use style="fill-opacity:0.5;" x="530.070526" xlink:href="#C2_0_75842c3abc" y="471.288736"/>
    </g>
    <g clip-path="url(#p9c74471f26)">
     <use style="fill-opacity:0.5;" x="533.28587" xlink:href="#C2_0_75842c3abc" y="476.024027"/>
    </g>
   </g>
   <g id="PathCollection_4">
    <defs>
     <path d="M 0 2.5 
C 0.663008 2.5 1.29895 2.236584 1.767767 1.767767 
C 2.236584 1.29895 2.5 0.663008 2.5 -0 
C 2.5 -0.663008 2.236584 -1.29895 1.767767 -1.767767 
C 1.29895 -2.236584 0.663008 -2.5 0 -2.5 
C -0.663008 -2.5 -1.29895 -2.236584 -1.767767 -1.767767 
C -2.236584 -1.29895 -2.5 -0.663008 -2.5 0 
C -2.5 0.663008 -2.236584 1.29895 -1.767767 1.767767 
C -1.29895 2.236584 -0.663008 2.5 0 2.5 
z
" id="C3_0_8b06fcc8f8"/>
    </defs>
    <g clip-path="url(#p9c74471f26)">
     <use style="fill-opacity:0.5;" x="936.318878" xlink:href="#C3_0_8b06fcc8f8" y="593.261499"/>
    </g>
    <g clip-path="url(#p9c74471f26)">
     <use style="fill-opacity:0.5;" x="952.230141" xlink:href="#C3_0_8b06fcc8f8" y="603.660839"/>
    </g>
    <g clip-path="url(#p9c74471f26)">
     <use style="fill-opacity:0.5;" x="919.288149" xlink:href="#C3_0_8b06fcc8f8" y="603.202451"/>
    </g>
    <g clip-path="url(#p9c74471f26)">
     <use style="fill-opacity:0.5;" x="933.123178" xlink:href="#C3_0_8b06fcc8f8" y="598.301837"/>
    </g>
    <g clip-path="url(#p9c74471f26)">
     <use style="fill-opacity:0.5;" x="921.133528" xlink:href="#C3_0_8b06fcc8f8" y="592.542744"/>
    </g>
    <g clip-path="url(#p9c74471f26)">
     <use style="fill-opacity:0.5;" x="947.255713" xlink:href="#C3_0_8b06fcc8f8" y="589.688927"/>
    </g>
    <g clip-path="url(#p9c74471f26)">
     <use style="fill-opacity:0.5;" x="924.216034" xlink:href="#C3_0_8b06fcc8f8" y="586.077924"/>
    </g>
    <g clip-path="url(#p9c74471f26)">
     <use style="fill-opacity:0.5;" x="936.321547" xlink:href="#C3_0_8b06fcc8f8" y="592.094328"/>
    </g>
    <g clip-path="url(#p9c74471f26)">
     <use style="fill-opacity:0.5;" x="926.42924" xlink:href="#C3_0_8b06fcc8f8" y="593.502248"/>
    </g>
    <g clip-path="url(#p9c74471f26)">
     <use style="fill-opacity:0.5;" x="926.47692" xlink:href="#C3_0_8b06fcc8f8" y="599.847882"/>
    </g>
    <g clip-path="url(#p9c74471f26)">
     <use style="fill-opacity:0.5;" x="907.190804" xlink:href="#C3_0_8b06fcc8f8" y="599.421141"/>
    </g>
    <g clip-path="url(#p9c74471f26)">
     <use style="fill-opacity:0.5;" x="954.54738" xlink:href="#C3_0_8b06fcc8f8" y="585.213813"/>
    </g>
    <g clip-path="url(#p9c74471f26)">
     <use style="fill-opacity:0.5;" x="937.278279" xlink:href="#C3_0_8b06fcc8f8" y="593.069465"/>
    </g>
    <g clip-path="url(#p9c74471f26)">
     <use style="fill-opacity:0.5;" x="921.700118" xlink:href="#C3_0_8b06fcc8f8" y="587.911777"/>
    </g>
    <g clip-path="url(#p9c74471f26)">
     <use style="fill-opacity:0.5;" x="943.098961" xlink:href="#C3_0_8b06fcc8f8" y="587.308595"/>
    </g>
    <g clip-path="url(#p9c74471f26)">
     <use style="fill-opacity:0.5;" x="948.854122" xlink:href="#C3_0_8b06fcc8f8" y="603.50762"/>
    </g>
    <g clip-path="url(#p9c74471f26)">
     <use style="fill-opacity:0.5;" x="923.303578" xlink:href="#C3_0_8b06fcc8f8" y="584.532672"/>
    </g>
    <g clip-path="url(#p9c74471f26)">
     <use style="fill-opacity:0.5;" x="918.433969" xlink:href="#C3_0_8b06fcc8f8" y="593.647458"/>
    </g>
    <g clip-path="url(#p9c74471f26)">
     <use style="fill-opacity:0.5;" x="930.582446" xlink:href="#C3_0_8b06fcc8f8" y="587.5838"/>
    </g>
    <g clip-path="url(#p9c74471f26)">
     <use style="fill-opacity:0.5;" x="942.435498" xlink:href="#C3_0_8b06fcc8f8" y="604.764618"/>
    </g>
    <g clip-path="url(#p9c74471f26)">
     <use style="fill-opacity:0.5;" x="917.721104" xlink:href="#C3_0_8b06fcc8f8" y="596.978099"/>
    </g>
    <g clip-path="url(#p9c74471f26)">
     <use style="fill-opacity:0.5;" x="948.784837" xlink:href="#C3_0_8b06fcc8f8" y="589.110156"/>
    </g>
    <g clip-path="url(#p9c74471f26)">
     <use style="fill-opacity:0.5;" x="920.816614" xlink:href="#C3_0_8b06fcc8f8" y="595.658643"/>
    </g>
    <g clip-path="url(#p9c74471f26)">
     <use style="fill-opacity:0.5;" x="950.751179" xlink:href="#C3_0_8b06fcc8f8" y="601.19271"/>
    </g>
    <g clip-path="url(#p9c74471f26)">
     <use style="fill-opacity:0.5;" x="926.807759" xlink:href="#C3_0_8b06fcc8f8" y="606.668131"/>
    </g>
   </g>
   <g id="PathCollection_5">
    <defs>
     <path d="M 0 2.5 
C 0.663008 2.5 1.29895 2.236584 1.767767 1.767767 
C 2.236584 1.29895 2.5 0.663008 2.5 -0 
C 2.5 -0.663008 2.236584 -1.29895 1.767767 -1.767767 
C 1.29895 -2.236584 0.663008 -2.5 0 -2.5 
C -0.663008 -2.5 -1.29895 -2.236584 -1.767767 -1.767767 
C -2.236584 -1.29895 -2.5 -0.663008 -2.5 0 
C -2.5 0.663008 -2.236584 1.29895 -1.767767 1.767767 
C -1.29895 2.236584 -0.663008 2.5 0 2.5 
z
" id="C4_0_7aa8b67774"/>
    </defs>
    <g clip-path="url(#p9c74471f26)">
     <use style="fill-opacity:0.5;" x="670.284228" xlink:href="#C4_0_7aa8b67774" y="709.645975"/>
    </g>
    <g clip-path="url(#p9c74471f26)">
     <use style="fill-opacity:0.5;" x="676.559186" xlink:href="#C4_0_7aa8b67774" y="725.730152"/>
    </g>
    <g clip-path="url(#p9c74471f26)">
     <use style="fill-opacity:0.5;" x="627.842053" xlink:href="#C4_0_7aa8b67774" y="726.892787"/>
    </g>
    <g clip-path="url(#p9c74471f26)">
     <use style="fill-opacity:0.5;" x="648.280818" xlink:href="#C4_0_7aa8b67774" y="726.46072"/>
    </g>
    <g clip-path="url(#p9c74471f26)">
     <use style="fill-opacity:0.5;" x="646.815481" xlink:href="#C4_0_7aa8b67774" y="719.671611"/>
    </g>
    <g clip-path="url(#p9c74471f26)">
     <use style="fill-opacity:0.5;" x="661.519074" xlink:href="#C4_0_7aa8b67774" y="719.536467"/>
    </g>
    <g clip-path="url(#p9c74471f26)">
     <use style="fill-opacity:0.5;" x="679.718951" xlink:href="#C4_0_7aa8b67774" y="714.061569"/>
    </g>
    <g clip-path="url(#p9c74471f26)">
     <use style="fill-opacity:0.5;" x="634.07559" xlink:href="#C4_0_7aa8b67774" y="722.497933"/>
    </g>
    <g clip-path="url(#p9c74471f26)">
     <use style="fill-opacity:0.5;" x="648.273167" xlink:href="#C4_0_7aa8b67774" y="717.156063"/>
    </g>
    <g clip-path="url(#p9c74471f26)">
     <use style="fill-opacity:0.5;" x="644.975111" xlink:href="#C4_0_7aa8b67774" y="720.686904"/>
    </g>
    <g clip-path="url(#p9c74471f26)">
     <use style="fill-opacity:0.5;" x="651.400604" xlink:href="#C4_0_7aa8b67774" y="714.671543"/>
    </g>
    <g clip-path="url(#p9c74471f26)">
     <use style="fill-opacity:0.5;" x="626.178287" xlink:href="#C4_0_7aa8b67774" y="721.992955"/>
    </g>
    <g clip-path="url(#p9c74471f26)">
     <use style="fill-opacity:0.5;" x="666.427471" xlink:href="#C4_0_7aa8b67774" y="724.239232"/>
    </g>
    <g clip-path="url(#p9c74471f26)">
     <use style="fill-opacity:0.5;" x="658.430622" xlink:href="#C4_0_7aa8b67774" y="707.8579"/>
    </g>
    <g clip-path="url(#p9c74471f26)">
     <use style="fill-opacity:0.5;" x="666.246402" xlink:href="#C4_0_7aa8b67774" y="724.443582"/>
    </g>
    <g clip-path="url(#p9c74471f26)">
     <use style="fill-opacity:0.5;" x="644.469676" xlink:href="#C4_0_7aa8b67774" y="717.373564"/>
    </g>
    <g clip-path="url(#p9c74471f26)">
     <use style="fill-opacity:0.5;" x="635.602109" xlink:href="#C4_0_7aa8b67774" y="724.727128"/>
    </g>
    <g clip-path="url(#p9c74471f26)">
     <use style="fill-opacity:0.5;" x="665.043233" xlink:href="#C4_0_7aa8b67774" y="714.740249"/>
    </g>
    <g clip-path="url(#p9c74471f26)">
     <use style="fill-opacity:0.5;" x="658.142106" xlink:href="#C4_0_7aa8b67774" y="713.477618"/>
    </g>
    <g clip-path="url(#p9c74471f26)">
     <use style="fill-opacity:0.5;" x="664.839974" xlink:href="#C4_0_7aa8b67774" y="726.427867"/>
    </g>
    <g clip-path="url(#p9c74471f26)">
     <use style="fill-opacity:0.5;" x="653.035056" xlink:href="#C4_0_7aa8b67774" y="710.38825"/>
    </g>
    <g clip-path="url(#p9c74471f26)">
     <use style="fill-opacity:0.5;" x="639.067691" xlink:href="#C4_0_7aa8b67774" y="724.71617"/>
    </g>
    <g clip-path="url(#p9c74471f26)">
     <use style="fill-opacity:0.5;" x="664.177675" xlink:href="#C4_0_7aa8b67774" y="716.013937"/>
    </g>
    <g clip-path="url(#p9c74471f26)">
     <use style="fill-opacity:0.5;" x="658.657476" xlink:href="#C4_0_7aa8b67774" y="716.740546"/>
    </g>
    <g clip-path="url(#p9c74471f26)">
     <use style="fill-opacity:0.5;" x="655.754016" xlink:href="#C4_0_7aa8b67774" y="711.772594"/>
    </g>
   </g>
   <g id="PathCollection_6">
    <defs>
     <path d="M 0 2.5 
C 0.663008 2.5 1.29895 2.236584 1.767767 1.767767 
C 2.236584 1.29895 2.5 0.663008 2.5 -0 
C 2.5 -0.663008 2.236584 -1.29895 1.767767 -1.767767 
C 1.29895 -2.236584 0.663008 -2.5 0 -2.5 
C -0.663008 -2.5 -1.29895 -2.236584 -1.767767 -1.767767 
C -2.236584 -1.29895 -2.5 -0.663008 -2.5 0 
C -2.5 0.663008 -2.236584 1.29895 -1.767767 1.767767 
C -1.29895 2.236584 -0.663008 2.5 0 2.5 
z
" id="C5_0_6d6fee813c"/>
    </defs>
    <g clip-path="url(#p9c74471f26)">
     <use style="fill-opacity:0.5;" x="651.561066" xlink:href="#C5_0_6d6fee813c" y="838.9647"/>
    </g>
    <g clip-path="url(#p9c74471f26)">
     <use style="fill-opacity:0.5;" x="670.659609" xlink:href="#C5_0_6d6fee813c" y="832.977103"/>
    </g>
    <g clip-path="url(#p9c74471f26)">
     <use style="fill-opacity:0.5;" x="664.188223" xlink:href="#C5_0_6d6fee813c" y="826.068749"/>
    </g>
    <g clip-path="url(#p9c74471f26)">
     <use style="fill-opacity:0.5;" x="648.942254" xlink:href="#C5_0_6d6fee813c" y="831.691486"/>
    </g>
    <g clip-path="url(#p9c74471f26)">
     <use style="fill-opacity:0.5;" x="658.678429" xlink:href="#C5_0_6d6fee813c" y="825.274118"/>
    </g>
    <g clip-path="url(#p9c74471f26)">
     <use style="fill-opacity:0.5;" x="659.750756" xlink:href="#C5_0_6d6fee813c" y="848.757052"/>
    </g>
    <g clip-path="url(#p9c74471f26)">
     <use style="fill-opacity:0.5;" x="684.215679" xlink:href="#C5_0_6d6fee813c" y="848.452453"/>
    </g>
    <g clip-path="url(#p9c74471f26)">
     <use style="fill-opacity:0.5;" x="665.699492" xlink:href="#C5_0_6d6fee813c" y="834.666952"/>
    </g>
    <g clip-path="url(#p9c74471f26)">
     <use style="fill-opacity:0.5;" x="631.658248" xlink:href="#C5_0_6d6fee813c" y="842.71744"/>
    </g>
    <g clip-path="url(#p9c74471f26)">
     <use style="fill-opacity:0.5;" x="652.988888" xlink:href="#C5_0_6d6fee813c" y="833.474675"/>
    </g>
    <g clip-path="url(#p9c74471f26)">
     <use style="fill-opacity:0.5;" x="661.72598" xlink:href="#C5_0_6d6fee813c" y="841.333611"/>
    </g>
    <g clip-path="url(#p9c74471f26)">
     <use style="fill-opacity:0.5;" x="651.916818" xlink:href="#C5_0_6d6fee813c" y="844.57919"/>
    </g>
    <g clip-path="url(#p9c74471f26)">
     <use style="fill-opacity:0.5;" x="667.735454" xlink:href="#C5_0_6d6fee813c" y="847.993631"/>
    </g>
    <g clip-path="url(#p9c74471f26)">
     <use style="fill-opacity:0.5;" x="669.094603" xlink:href="#C5_0_6d6fee813c" y="834.789129"/>
    </g>
    <g clip-path="url(#p9c74471f26)">
     <use style="fill-opacity:0.5;" x="647.460901" xlink:href="#C5_0_6d6fee813c" y="844.044479"/>
    </g>
    <g clip-path="url(#p9c74471f26)">
     <use style="fill-opacity:0.5;" x="642.246209" xlink:href="#C5_0_6d6fee813c" y="831.544831"/>
    </g>
    <g clip-path="url(#p9c74471f26)">
     <use style="fill-opacity:0.5;" x="645.834251" xlink:href="#C5_0_6d6fee813c" y="849.046428"/>
    </g>
    <g clip-path="url(#p9c74471f26)">
     <use style="fill-opacity:0.5;" x="668.960785" xlink:href="#C5_0_6d6fee813c" y="825.742594"/>
    </g>
    <g clip-path="url(#p9c74471f26)">
     <use style="fill-opacity:0.5;" x="676.514528" xlink:href="#C5_0_6d6fee813c" y="839.701256"/>
    </g>
    <g clip-path="url(#p9c74471f26)">
     <use style="fill-opacity:0.5;" x="662.71893" xlink:href="#C5_0_6d6fee813c" y="841.053665"/>
    </g>
    <g clip-path="url(#p9c74471f26)">
     <use style="fill-opacity:0.5;" x="650.407423" xlink:href="#C5_0_6d6fee813c" y="841.743181"/>
    </g>
    <g clip-path="url(#p9c74471f26)">
     <use style="fill-opacity:0.5;" x="660.434985" xlink:href="#C5_0_6d6fee813c" y="828.028564"/>
    </g>
    <g clip-path="url(#p9c74471f26)">
     <use style="fill-opacity:0.5;" x="675.734276" xlink:href="#C5_0_6d6fee813c" y="847.79488"/>
    </g>
    <g clip-path="url(#p9c74471f26)">
     <use style="fill-opacity:0.5;" x="648.179753" xlink:href="#C5_0_6d6fee813c" y="829.497388"/>
    </g>
    <g clip-path="url(#p9c74471f26)">
     <use style="fill-opacity:0.5;" x="658.12547" xlink:href="#C5_0_6d6fee813c" y="840.165722"/>
    </g>
   </g>
   <g id="PathCollection_7">
    <defs>
     <path d="M 0 2.5 
C 0.663008 2.5 1.29895 2.236584 1.767767 1.767767 
C 2.236584 1.29895 2.5 0.663008 2.5 -0 
C 2.5 -0.663008 2.236584 -1.29895 1.767767 -1.767767 
C 1.29895 -2.236584 0.663008 -2.5 0 -2.5 
C -0.663008 -2.5 -1.29895 -2.236584 -1.767767 -1.767767 
C -2.236584 -1.29895 -2.5 -0.663008 -2.5 0 
C -2.5 0.663008 -2.236584 1.29895 -1.767767 1.767767 
C -1.29895 2.236584 -0.663008 2.5 0 2.5 
z
" id="C6_0_c2be45a7d9"/>
    </defs>
    <g clip-path="url(#p9c74471f26)">
     <use style="fill-opacity:0.5;" x="800.101167" xlink:href="#C6_0_c2be45a7d9" y="951.299854"/>
    </g>
    <g clip-path="url(#p9c74471f26)">
     <use style="fill-opacity:0.5;" x="813.211048" xlink:href="#C6_0_c2be45a7d9" y="953.342349"/>
    </g>
    <g clip-path="url(#p9c74471f26)">
     <use style="fill-opacity:0.5;" x="806.99345" xlink:href="#C6_0_c2be45a7d9" y="959.122438"/>
    </g>
    <g clip-path="url(#p9c74471f26)">
     <use style="fill-opacity:0.5;" x="811.089692" xlink:href="#C6_0_c2be45a7d9" y="955.999393"/>
    </g>
    <g clip-path="url(#p9c74471f26)">
     <use style="fill-opacity:0.5;" x="809.988159" xlink:href="#C6_0_c2be45a7d9" y="949.791051"/>
    </g>
    <g clip-path="url(#p9c74471f26)">
     <use style="fill-opacity:0.5;" x="802.021375" xlink:href="#C6_0_c2be45a7d9" y="950.049823"/>
    </g>
    <g clip-path="url(#p9c74471f26)">
     <use style="fill-opacity:0.5;" x="810.124433" xlink:href="#C6_0_c2be45a7d9" y="956.022378"/>
    </g>
    <g clip-path="url(#p9c74471f26)">
     <use style="fill-opacity:0.5;" x="784.273221" xlink:href="#C6_0_c2be45a7d9" y="964.215957"/>
    </g>
    <g clip-path="url(#p9c74471f26)">
     <use style="fill-opacity:0.5;" x="824.425612" xlink:href="#C6_0_c2be45a7d9" y="967.614826"/>
    </g>
    <g clip-path="url(#p9c74471f26)">
     <use style="fill-opacity:0.5;" x="817.063277" xlink:href="#C6_0_c2be45a7d9" y="947.952524"/>
    </g>
    <g clip-path="url(#p9c74471f26)">
     <use style="fill-opacity:0.5;" x="835.221656" xlink:href="#C6_0_c2be45a7d9" y="955.41739"/>
    </g>
    <g clip-path="url(#p9c74471f26)">
     <use style="fill-opacity:0.5;" x="788.483497" xlink:href="#C6_0_c2be45a7d9" y="948.341933"/>
    </g>
    <g clip-path="url(#p9c74471f26)">
     <use style="fill-opacity:0.5;" x="791.436189" xlink:href="#C6_0_c2be45a7d9" y="946.320874"/>
    </g>
    <g clip-path="url(#p9c74471f26)">
     <use style="fill-opacity:0.5;" x="798.946408" xlink:href="#C6_0_c2be45a7d9" y="961.907123"/>
    </g>
    <g clip-path="url(#p9c74471f26)">
     <use style="fill-opacity:0.5;" x="824.308549" xlink:href="#C6_0_c2be45a7d9" y="960.475179"/>
    </g>
    <g clip-path="url(#p9c74471f26)">
     <use style="fill-opacity:0.5;" x="809.103363" xlink:href="#C6_0_c2be45a7d9" y="949.858542"/>
    </g>
    <g clip-path="url(#p9c74471f26)">
     <use style="fill-opacity:0.5;" x="804.061067" xlink:href="#C6_0_c2be45a7d9" y="951.568918"/>
    </g>
    <g clip-path="url(#p9c74471f26)">
     <use style="fill-opacity:0.5;" x="804.611905" xlink:href="#C6_0_c2be45a7d9" y="946.492779"/>
    </g>
    <g clip-path="url(#p9c74471f26)">
     <use style="fill-opacity:0.5;" x="817.672238" xlink:href="#C6_0_c2be45a7d9" y="966.092324"/>
    </g>
    <g clip-path="url(#p9c74471f26)">
     <use style="fill-opacity:0.5;" x="805.560261" xlink:href="#C6_0_c2be45a7d9" y="969.468525"/>
    </g>
    <g clip-path="url(#p9c74471f26)">
     <use style="fill-opacity:0.5;" x="837.035299" xlink:href="#C6_0_c2be45a7d9" y="949.192702"/>
    </g>
    <g clip-path="url(#p9c74471f26)">
     <use style="fill-opacity:0.5;" x="806.741605" xlink:href="#C6_0_c2be45a7d9" y="951.512441"/>
    </g>
    <g clip-path="url(#p9c74471f26)">
     <use style="fill-opacity:0.5;" x="778.371075" xlink:href="#C6_0_c2be45a7d9" y="966.900774"/>
    </g>
    <g clip-path="url(#p9c74471f26)">
     <use style="fill-opacity:0.5;" x="812.021462" xlink:href="#C6_0_c2be45a7d9" y="968.303365"/>
    </g>
    <g clip-path="url(#p9c74471f26)">
     <use style="fill-opacity:0.5;" x="806.735678" xlink:href="#C6_0_c2be45a7d9" y="956.058198"/>
    </g>
   </g>
   <g id="PathCollection_8">
    <defs>
     <path d="M 0 2.5 
C 0.663008 2.5 1.29895 2.236584 1.767767 1.767767 
C 2.236584 1.29895 2.5 0.663008 2.5 -0 
C 2.5 -0.663008 2.236584 -1.29895 1.767767 -1.767767 
C 1.29895 -2.236584 0.663008 -2.5 0 -2.5 
C -0.663008 -2.5 -1.29895 -2.236584 -1.767767 -1.767767 
C -2.236584 -1.29895 -2.5 -0.663008 -2.5 0 
C -2.5 0.663008 -2.236584 1.29895 -1.767767 1.767767 
C -1.29895 2.236584 -0.663008 2.5 0 2.5 
z
" id="C7_0_bad4490232"/>
    </defs>
    <g clip-path="url(#p9c74471f26)">
     <use style="fill-opacity:0.5;" x="671.989941" xlink:href="#C7_0_bad4490232" y="1067.943039"/>
    </g>
    <g clip-path="url(#p9c74471f26)">
     <use style="fill-opacity:0.5;" x="677.67992" xlink:href="#C7_0_bad4490232" y="1067.671707"/>
    </g>
    <g clip-path="url(#p9c74471f26)">
     <use style="fill-opacity:0.5;" x="667.235129" xlink:href="#C7_0_bad4490232" y="1080.586629"/>
    </g>
    <g clip-path="url(#p9c74471f26)">
     <use style="fill-opacity:0.5;" x="675.732803" xlink:href="#C7_0_bad4490232" y="1076.212346"/>
    </g>
    <g clip-path="url(#p9c74471f26)">
     <use style="fill-opacity:0.5;" x="681.585069" xlink:href="#C7_0_bad4490232" y="1067.412243"/>
    </g>
    <g clip-path="url(#p9c74471f26)">
     <use style="fill-opacity:0.5;" x="671.099829" xlink:href="#C7_0_bad4490232" y="1080.811378"/>
    </g>
    <g clip-path="url(#p9c74471f26)">
     <use style="fill-opacity:0.5;" x="675.643239" xlink:href="#C7_0_bad4490232" y="1066.993069"/>
    </g>
    <g clip-path="url(#p9c74471f26)">
     <use style="fill-opacity:0.5;" x="665.675715" xlink:href="#C7_0_bad4490232" y="1085.742907"/>
    </g>
    <g clip-path="url(#p9c74471f26)">
     <use style="fill-opacity:0.5;" x="668.157656" xlink:href="#C7_0_bad4490232" y="1074.123417"/>
    </g>
    <g clip-path="url(#p9c74471f26)">
     <use style="fill-opacity:0.5;" x="691.369448" xlink:href="#C7_0_bad4490232" y="1067.692633"/>
    </g>
    <g clip-path="url(#p9c74471f26)">
     <use style="fill-opacity:0.5;" x="646.602339" xlink:href="#C7_0_bad4490232" y="1080.93459"/>
    </g>
    <g clip-path="url(#p9c74471f26)">
     <use style="fill-opacity:0.5;" x="667.730291" xlink:href="#C7_0_bad4490232" y="1076.328055"/>
    </g>
    <g clip-path="url(#p9c74471f26)">
     <use style="fill-opacity:0.5;" x="700.549563" xlink:href="#C7_0_bad4490232" y="1090.247018"/>
    </g>
    <g clip-path="url(#p9c74471f26)">
     <use style="fill-opacity:0.5;" x="673.850405" xlink:href="#C7_0_bad4490232" y="1079.86784"/>
    </g>
    <g clip-path="url(#p9c74471f26)">
     <use style="fill-opacity:0.5;" x="684.475324" xlink:href="#C7_0_bad4490232" y="1073.369779"/>
    </g>
    <g clip-path="url(#p9c74471f26)">
     <use style="fill-opacity:0.5;" x="661.553193" xlink:href="#C7_0_bad4490232" y="1083.860043"/>
    </g>
    <g clip-path="url(#p9c74471f26)">
     <use style="fill-opacity:0.5;" x="667.525195" xlink:href="#C7_0_bad4490232" y="1073.279247"/>
    </g>
    <g clip-path="url(#p9c74471f26)">
     <use style="fill-opacity:0.5;" x="692.57198" xlink:href="#C7_0_bad4490232" y="1088.566518"/>
    </g>
    <g clip-path="url(#p9c74471f26)">
     <use style="fill-opacity:0.5;" x="669.105996" xlink:href="#C7_0_bad4490232" y="1075.773283"/>
    </g>
    <g clip-path="url(#p9c74471f26)">
     <use style="fill-opacity:0.5;" x="680.892328" xlink:href="#C7_0_bad4490232" y="1080.004824"/>
    </g>
    <g clip-path="url(#p9c74471f26)">
     <use style="fill-opacity:0.5;" x="682.294589" xlink:href="#C7_0_bad4490232" y="1067.941846"/>
    </g>
    <g clip-path="url(#p9c74471f26)">
     <use style="fill-opacity:0.5;" x="658.636303" xlink:href="#C7_0_bad4490232" y="1077.015089"/>
    </g>
    <g clip-path="url(#p9c74471f26)">
     <use style="fill-opacity:0.5;" x="672.595565" xlink:href="#C7_0_bad4490232" y="1086.829903"/>
    </g>
    <g clip-path="url(#p9c74471f26)">
     <use style="fill-opacity:0.5;" x="685.715783" xlink:href="#C7_0_bad4490232" y="1086.184475"/>
    </g>
    <g clip-path="url(#p9c74471f26)">
     <use style="fill-opacity:0.5;" x="673.387807" xlink:href="#C7_0_bad4490232" y="1072.139536"/>
    </g>
   </g>
   <g id="PathCollection_9">
    <defs>
     <path d="M 0 2.5 
C 0.663008 2.5 1.29895 2.236584 1.767767 1.767767 
C 2.236584 1.29895 2.5 0.663008 2.5 -0 
C 2.5 -0.663008 2.236584 -1.29895 1.767767 -1.767767 
C 1.29895 -2.236584 0.663008 -2.5 0 -2.5 
C -0.663008 -2.5 -1.29895 -2.236584 -1.767767 -1.767767 
C -2.236584 -1.29895 -2.5 -0.663008 -2.5 0 
C -2.5 0.663008 -2.236584 1.29895 -1.767767 1.767767 
C -1.29895 2.236584 -0.663008 2.5 0 2.5 
z
" id="C8_0_a114829646"/>
    </defs>
    <g clip-path="url(#p9c74471f26)">
     <use style="fill-opacity:0.5;" x="738" xlink:href="#C8_0_a114829646" y="1192.98207"/>
    </g>
    <g clip-path="url(#p9c74471f26)">
     <use style="fill-opacity:0.5;" x="738" xlink:href="#C8_0_a114829646" y="1207.266096"/>
    </g>
    <g clip-path="url(#p9c74471f26)">
     <use style="fill-opacity:0.5;" x="738" xlink:href="#C8_0_a114829646" y="1209.998426"/>
    </g>
    <g clip-path="url(#p9c74471f26)">
     <use style="fill-opacity:0.5;" x="738" xlink:href="#C8_0_a114829646" y="1189.82392"/>
    </g>
    <g clip-path="url(#p9c74471f26)">
     <use style="fill-opacity:0.5;" x="738" xlink:href="#C8_0_a114829646" y="1198.393417"/>
    </g>
    <g clip-path="url(#p9c74471f26)">
     <use style="fill-opacity:0.5;" x="738" xlink:href="#C8_0_a114829646" y="1195.672895"/>
    </g>
    <g clip-path="url(#p9c74471f26)">
     <use style="fill-opacity:0.5;" x="738" xlink:href="#C8_0_a114829646" y="1208.555833"/>
    </g>
    <g clip-path="url(#p9c74471f26)">
     <use style="fill-opacity:0.5;" x="738" xlink:href="#C8_0_a114829646" y="1189.537962"/>
    </g>
    <g clip-path="url(#p9c74471f26)">
     <use style="fill-opacity:0.5;" x="738" xlink:href="#C8_0_a114829646" y="1192.620803"/>
    </g>
    <g clip-path="url(#p9c74471f26)">
     <use style="fill-opacity:0.5;" x="738" xlink:href="#C8_0_a114829646" y="1205.699635"/>
    </g>
    <g clip-path="url(#p9c74471f26)">
     <use style="fill-opacity:0.5;" x="738" xlink:href="#C8_0_a114829646" y="1188.759259"/>
    </g>
    <g clip-path="url(#p9c74471f26)">
     <use style="fill-opacity:0.5;" x="738" xlink:href="#C8_0_a114829646" y="1199.419655"/>
    </g>
    <g clip-path="url(#p9c74471f26)">
     <use style="fill-opacity:0.5;" x="738" xlink:href="#C8_0_a114829646" y="1198.201306"/>
    </g>
    <g clip-path="url(#p9c74471f26)">
     <use style="fill-opacity:0.5;" x="738" xlink:href="#C8_0_a114829646" y="1195.599132"/>
    </g>
    <g clip-path="url(#p9c74471f26)">
     <use style="fill-opacity:0.5;" x="738" xlink:href="#C8_0_a114829646" y="1197.052867"/>
    </g>
    <g clip-path="url(#p9c74471f26)">
     <use style="fill-opacity:0.5;" x="738" xlink:href="#C8_0_a114829646" y="1200.323365"/>
    </g>
    <g clip-path="url(#p9c74471f26)">
     <use style="fill-opacity:0.5;" x="738" xlink:href="#C8_0_a114829646" y="1191.418635"/>
    </g>
    <g clip-path="url(#p9c74471f26)">
     <use style="fill-opacity:0.5;" x="738" xlink:href="#C8_0_a114829646" y="1201.33942"/>
    </g>
    <g clip-path="url(#p9c74471f26)">
     <use style="fill-opacity:0.5;" x="738" xlink:href="#C8_0_a114829646" y="1206.979245"/>
    </g>
    <g clip-path="url(#p9c74471f26)">
     <use style="fill-opacity:0.5;" x="738" xlink:href="#C8_0_a114829646" y="1205.885488"/>
    </g>
    <g clip-path="url(#p9c74471f26)">
     <use style="fill-opacity:0.5;" x="738" xlink:href="#C8_0_a114829646" y="1191.238222"/>
    </g>
    <g clip-path="url(#p9c74471f26)">
     <use style="fill-opacity:0.5;" x="738" xlink:href="#C8_0_a114829646" y="1191.125867"/>
    </g>
    <g clip-path="url(#p9c74471f26)">
     <use style="fill-opacity:0.5;" x="738" xlink:href="#C8_0_a114829646" y="1193.999093"/>
    </g>
    <g clip-path="url(#p9c74471f26)">
     <use style="fill-opacity:0.5;" x="738" xlink:href="#C8_0_a114829646" y="1196.243565"/>
    </g>
    <g clip-path="url(#p9c74471f26)">
     <use style="fill-opacity:0.5;" x="738" xlink:href="#C8_0_a114829646" y="1197.388287"/>
    </g>
   </g>
  </g>
  <g id="text_16">
   <!-- Linear Model: Coefficient robustness -->
   <g transform="translate(551.9 144)scale(0.2 -0.2)">
    <defs>
     <path d="M 9.8125 72.90625 
L 19.671875 72.90625 
L 19.671875 8.296875 
L 55.171875 8.296875 
L 55.171875 0 
L 9.8125 0 
z
" id="DejaVuSans-76"/>
     <path d="M 9.8125 72.90625 
L 24.515625 72.90625 
L 43.109375 23.296875 
L 61.8125 72.90625 
L 76.515625 72.90625 
L 76.515625 0 
L 66.890625 0 
L 66.890625 64.015625 
L 48.09375 14.015625 
L 38.1875 14.015625 
L 19.390625 64.015625 
L 19.390625 0 
L 9.8125 0 
z
" id="DejaVuSans-77"/>
     <path d="M 45.40625 46.390625 
L 45.40625 75.984375 
L 54.390625 75.984375 
L 54.390625 0 
L 45.40625 0 
L 45.40625 8.203125 
Q 42.578125 3.328125 38.25 0.953125 
Q 33.9375 -1.421875 27.875 -1.421875 
Q 17.96875 -1.421875 11.734375 6.484375 
Q 5.515625 14.40625 5.515625 27.296875 
Q 5.515625 40.1875 11.734375 48.09375 
Q 17.96875 56 27.875 56 
Q 33.9375 56 38.25 53.625 
Q 42.578125 51.265625 45.40625 46.390625 
z
M 14.796875 27.296875 
Q 14.796875 17.390625 18.875 11.75 
Q 22.953125 6.109375 30.078125 6.109375 
Q 37.203125 6.109375 41.296875 11.75 
Q 45.40625 17.390625 45.40625 27.296875 
Q 45.40625 37.203125 41.296875 42.84375 
Q 37.203125 48.484375 30.078125 48.484375 
Q 22.953125 48.484375 18.875 42.84375 
Q 14.796875 37.203125 14.796875 27.296875 
z
" id="DejaVuSans-100"/>
     <path d="M 11.71875 12.40625 
L 22.015625 12.40625 
L 22.015625 0 
L 11.71875 0 
z
M 11.71875 51.703125 
L 22.015625 51.703125 
L 22.015625 39.3125 
L 11.71875 39.3125 
z
" id="DejaVuSans-58"/>
     <path d="M 48.6875 27.296875 
Q 48.6875 37.203125 44.609375 42.84375 
Q 40.53125 48.484375 33.40625 48.484375 
Q 26.265625 48.484375 22.1875 42.84375 
Q 18.109375 37.203125 18.109375 27.296875 
Q 18.109375 17.390625 22.1875 11.75 
Q 26.265625 6.109375 33.40625 6.109375 
Q 40.53125 6.109375 44.609375 11.75 
Q 48.6875 17.390625 48.6875 27.296875 
z
M 18.109375 46.390625 
Q 20.953125 51.265625 25.265625 53.625 
Q 29.59375 56 35.59375 56 
Q 45.5625 56 51.78125 48.09375 
Q 58.015625 40.1875 58.015625 27.296875 
Q 58.015625 14.40625 51.78125 6.484375 
Q 45.5625 -1.421875 35.59375 -1.421875 
Q 29.59375 -1.421875 25.265625 0.953125 
Q 20.953125 3.328125 18.109375 8.203125 
L 18.109375 0 
L 9.078125 0 
L 9.078125 75.984375 
L 18.109375 75.984375 
z
" id="DejaVuSans-98"/>
    </defs>
    <use xlink:href="#DejaVuSans-76"/>
    <use x="55.712891" xlink:href="#DejaVuSans-105"/>
    <use x="83.496094" xlink:href="#DejaVuSans-110"/>
    <use x="146.875" xlink:href="#DejaVuSans-101"/>
    <use x="208.398438" xlink:href="#DejaVuSans-97"/>
    <use x="269.677734" xlink:href="#DejaVuSans-114"/>
    <use x="310.791016" xlink:href="#DejaVuSans-32"/>
    <use x="342.578125" xlink:href="#DejaVuSans-77"/>
    <use x="428.857422" xlink:href="#DejaVuSans-111"/>
    <use x="490.039062" xlink:href="#DejaVuSans-100"/>
    <use x="553.515625" xlink:href="#DejaVuSans-101"/>
    <use x="615.039062" xlink:href="#DejaVuSans-108"/>
    <use x="642.822266" xlink:href="#DejaVuSans-58"/>
    <use x="676.513672" xlink:href="#DejaVuSans-32"/>
    <use x="708.300781" xlink:href="#DejaVuSans-67"/>
    <use x="778.125" xlink:href="#DejaVuSans-111"/>
    <use x="839.306641" xlink:href="#DejaVuSans-101"/>
    <use x="900.830078" xlink:href="#DejaVuSans-102"/>
    <use x="936.035156" xlink:href="#DejaVuSans-102"/>
    <use x="971.240234" xlink:href="#DejaVuSans-105"/>
    <use x="999.023438" xlink:href="#DejaVuSans-99"/>
    <use x="1054.003906" xlink:href="#DejaVuSans-105"/>
    <use x="1081.787109" xlink:href="#DejaVuSans-101"/>
    <use x="1143.310547" xlink:href="#DejaVuSans-110"/>
    <use x="1206.689453" xlink:href="#DejaVuSans-116"/>
    <use x="1245.898438" xlink:href="#DejaVuSans-32"/>
    <use x="1277.685547" xlink:href="#DejaVuSans-114"/>
    <use x="1316.548828" xlink:href="#DejaVuSans-111"/>
    <use x="1377.730469" xlink:href="#DejaVuSans-98"/>
    <use x="1441.207031" xlink:href="#DejaVuSans-117"/>
    <use x="1504.585938" xlink:href="#DejaVuSans-115"/>
    <use x="1556.685547" xlink:href="#DejaVuSans-116"/>
    <use x="1595.894531" xlink:href="#DejaVuSans-110"/>
    <use x="1659.273438" xlink:href="#DejaVuSans-101"/>
    <use x="1720.796875" xlink:href="#DejaVuSans-115"/>
    <use x="1772.896484" xlink:href="#DejaVuSans-115"/>
   </g>
  </g>
  <g id="text_17">
   <!-- 2019-03 -->
   <g transform="translate(696.795469 165.6)scale(0.18 -0.18)">
    <defs>
     <path d="M 10.984375 1.515625 
L 10.984375 10.5 
Q 14.703125 8.734375 18.5 7.8125 
Q 22.3125 6.890625 25.984375 6.890625 
Q 35.75 6.890625 40.890625 13.453125 
Q 46.046875 20.015625 46.78125 33.40625 
Q 43.953125 29.203125 39.59375 26.953125 
Q 35.25 24.703125 29.984375 24.703125 
Q 19.046875 24.703125 12.671875 31.3125 
Q 6.296875 37.9375 6.296875 49.421875 
Q 6.296875 60.640625 12.9375 67.421875 
Q 19.578125 74.21875 30.609375 74.21875 
Q 43.265625 74.21875 49.921875 64.515625 
Q 56.59375 54.828125 56.59375 36.375 
Q 56.59375 19.140625 48.40625 8.859375 
Q 40.234375 -1.421875 26.421875 -1.421875 
Q 22.703125 -1.421875 18.890625 -0.6875 
Q 15.09375 0.046875 10.984375 1.515625 
z
M 30.609375 32.421875 
Q 37.25 32.421875 41.125 36.953125 
Q 45.015625 41.5 45.015625 49.421875 
Q 45.015625 57.28125 41.125 61.84375 
Q 37.25 66.40625 30.609375 66.40625 
Q 23.96875 66.40625 20.09375 61.84375 
Q 16.21875 57.28125 16.21875 49.421875 
Q 16.21875 41.5 20.09375 36.953125 
Q 23.96875 32.421875 30.609375 32.421875 
z
" id="DejaVuSans-57"/>
     <path d="M 4.890625 31.390625 
L 31.203125 31.390625 
L 31.203125 23.390625 
L 4.890625 23.390625 
z
" id="DejaVuSans-45"/>
     <path d="M 40.578125 39.3125 
Q 47.65625 37.796875 51.625 33 
Q 55.609375 28.21875 55.609375 21.1875 
Q 55.609375 10.40625 48.1875 4.484375 
Q 40.765625 -1.421875 27.09375 -1.421875 
Q 22.515625 -1.421875 17.65625 -0.515625 
Q 12.796875 0.390625 7.625 2.203125 
L 7.625 11.71875 
Q 11.71875 9.328125 16.59375 8.109375 
Q 21.484375 6.890625 26.8125 6.890625 
Q 36.078125 6.890625 40.9375 10.546875 
Q 45.796875 14.203125 45.796875 21.1875 
Q 45.796875 27.640625 41.28125 31.265625 
Q 36.765625 34.90625 28.71875 34.90625 
L 20.21875 34.90625 
L 20.21875 43.015625 
L 29.109375 43.015625 
Q 36.375 43.015625 40.234375 45.921875 
Q 44.09375 48.828125 44.09375 54.296875 
Q 44.09375 59.90625 40.109375 62.90625 
Q 36.140625 65.921875 28.71875 65.921875 
Q 24.65625 65.921875 20.015625 65.03125 
Q 15.375 64.15625 9.8125 62.3125 
L 9.8125 71.09375 
Q 15.4375 72.65625 20.34375 73.4375 
Q 25.25 74.21875 29.59375 74.21875 
Q 40.828125 74.21875 47.359375 69.109375 
Q 53.90625 64.015625 53.90625 55.328125 
Q 53.90625 49.265625 50.4375 45.09375 
Q 46.96875 40.921875 40.578125 39.3125 
z
" id="DejaVuSans-51"/>
    </defs>
    <use xlink:href="#DejaVuSans-50"/>
    <use x="63.623047" xlink:href="#DejaVuSans-48"/>
    <use x="127.246094" xlink:href="#DejaVuSans-49"/>
    <use x="190.869141" xlink:href="#DejaVuSans-57"/>
    <use x="254.492188" xlink:href="#DejaVuSans-45"/>
    <use x="290.576172" xlink:href="#DejaVuSans-48"/>
    <use x="354.199219" xlink:href="#DejaVuSans-51"/>
   </g>
  </g>
 </g>
 <defs>
  <clipPath id="p9c74471f26">
   <rect height="1087.2" width="1116" x="180" y="172.8"/>
  </clipPath>
 </defs>
</svg>
