<?xml version="1.0" encoding="utf-8" standalone="no"?>
<!DOCTYPE svg PUBLIC "-//W3C//DTD SVG 1.1//EN"
  "http://www.w3.org/Graphics/SVG/1.1/DTD/svg11.dtd">
<!-- Created with matplotlib (https://matplotlib.org/) -->
<svg height="1440pt" version="1.1" viewBox="0 0 1440 1440" width="1440pt" xmlns="http://www.w3.org/2000/svg" xmlns:xlink="http://www.w3.org/1999/xlink">
 <metadata>
  <rdf:RDF xmlns:cc="http://creativecommons.org/ns#" xmlns:dc="http://purl.org/dc/elements/1.1/" xmlns:rdf="http://www.w3.org/1999/02/22-rdf-syntax-ns#">
   <cc:Work>
    <dc:type rdf:resource="http://purl.org/dc/dcmitype/StillImage"/>
    <dc:date>2021-05-10T00:23:51.976408</dc:date>
    <dc:format>image/svg+xml</dc:format>
    <dc:creator>
     <cc:Agent>
      <dc:title>Matplotlib v3.3.4, https://matplotlib.org/</dc:title>
     </cc:Agent>
    </dc:creator>
   </cc:Work>
  </rdf:RDF>
 </metadata>
 <defs>
  <style type="text/css">*{stroke-linecap:butt;stroke-linejoin:round;}</style>
 </defs>
 <g id="figure_1">
  <g id="patch_1">
   <path d="M 0 1440 
L 1440 1440 
L 1440 0 
L 0 0 
z
" style="fill:none;"/>
  </g>
  <g id="axes_1">
   <g id="patch_2">
    <path d="M 180 1260 
L 1296 1260 
L 1296 172.8 
L 180 172.8 
z
" style="fill:#ffffff;"/>
   </g>
   <g id="patch_3">
    <path clip-path="url(#pb31b9e2d8b)" d="M 247.998545 186.39 
L 247.998545 295.11 
L 268.970194 295.11 
L 268.970194 186.39 
L 247.998545 186.39 
z
" style="fill:#40bfbf;stroke:#4c4c4c;stroke-linejoin:miter;stroke-width:1.5;"/>
   </g>
   <g id="patch_4">
    <path clip-path="url(#pb31b9e2d8b)" d="M 491.110004 322.29 
L 491.110004 431.01 
L 513.629847 431.01 
L 513.629847 322.29 
L 491.110004 322.29 
z
" style="fill:#40bfbf;stroke:#4c4c4c;stroke-linejoin:miter;stroke-width:1.5;"/>
   </g>
   <g id="patch_5">
    <path clip-path="url(#pb31b9e2d8b)" d="M 921.227974 458.19 
L 921.227974 566.91 
L 943.985533 566.91 
L 943.985533 458.19 
L 921.227974 458.19 
z
" style="fill:#40bfbf;stroke:#4c4c4c;stroke-linejoin:miter;stroke-width:1.5;"/>
   </g>
   <g id="patch_6">
    <path clip-path="url(#pb31b9e2d8b)" d="M 912.105538 594.09 
L 912.105538 702.81 
L 933.273556 702.81 
L 933.273556 594.09 
L 912.105538 594.09 
z
" style="fill:#40bfbf;stroke:#4c4c4c;stroke-linejoin:miter;stroke-width:1.5;"/>
   </g>
   <g id="patch_7">
    <path clip-path="url(#pb31b9e2d8b)" d="M 831.400228 729.99 
L 831.400228 838.71 
L 848.989816 838.71 
L 848.989816 729.99 
L 831.400228 729.99 
z
" style="fill:#40bfbf;stroke:#4c4c4c;stroke-linejoin:miter;stroke-width:1.5;"/>
   </g>
   <g id="patch_8">
    <path clip-path="url(#pb31b9e2d8b)" d="M 649.386705 865.89 
L 649.386705 974.61 
L 666.393034 974.61 
L 666.393034 865.89 
L 649.386705 865.89 
z
" style="fill:#40bfbf;stroke:#4c4c4c;stroke-linejoin:miter;stroke-width:1.5;"/>
   </g>
   <g id="patch_9">
    <path clip-path="url(#pb31b9e2d8b)" d="M 655.229549 1001.79 
L 655.229549 1110.51 
L 668.98986 1110.51 
L 668.98986 1001.79 
L 655.229549 1001.79 
z
" style="fill:#40bfbf;stroke:#4c4c4c;stroke-linejoin:miter;stroke-width:1.5;"/>
   </g>
   <g id="patch_10">
    <path clip-path="url(#pb31b9e2d8b)" d="M 738 1137.69 
L 738 1246.41 
L 738 1246.41 
L 738 1137.69 
L 738 1137.69 
z
" style="fill:#40bfbf;stroke:#4c4c4c;stroke-linejoin:miter;stroke-width:1.5;"/>
   </g>
   <g id="matplotlib.axis_1">
    <g id="xtick_1">
     <g id="line2d_1">
      <defs>
       <path d="M 0 0 
L 0 3.5 
" id="mf421e4c0db" style="stroke:#000000;stroke-width:0.8;"/>
      </defs>
      <g>
       <use style="stroke:#000000;stroke-width:0.8;" x="244.7739" xlink:href="#mf421e4c0db" y="1260"/>
      </g>
     </g>
     <g id="text_1">
      <!-- −0.4 -->
      <g transform="translate(232.632494 1274.598438)scale(0.1 -0.1)">
       <defs>
        <path d="M 10.59375 35.5 
L 73.1875 35.5 
L 73.1875 27.203125 
L 10.59375 27.203125 
z
" id="DejaVuSans-8722"/>
        <path d="M 31.78125 66.40625 
Q 24.171875 66.40625 20.328125 58.90625 
Q 16.5 51.421875 16.5 36.375 
Q 16.5 21.390625 20.328125 13.890625 
Q 24.171875 6.390625 31.78125 6.390625 
Q 39.453125 6.390625 43.28125 13.890625 
Q 47.125 21.390625 47.125 36.375 
Q 47.125 51.421875 43.28125 58.90625 
Q 39.453125 66.40625 31.78125 66.40625 
z
M 31.78125 74.21875 
Q 44.046875 74.21875 50.515625 64.515625 
Q 56.984375 54.828125 56.984375 36.375 
Q 56.984375 17.96875 50.515625 8.265625 
Q 44.046875 -1.421875 31.78125 -1.421875 
Q 19.53125 -1.421875 13.0625 8.265625 
Q 6.59375 17.96875 6.59375 36.375 
Q 6.59375 54.828125 13.0625 64.515625 
Q 19.53125 74.21875 31.78125 74.21875 
z
" id="DejaVuSans-48"/>
        <path d="M 10.6875 12.40625 
L 21 12.40625 
L 21 0 
L 10.6875 0 
z
" id="DejaVuSans-46"/>
        <path d="M 37.796875 64.3125 
L 12.890625 25.390625 
L 37.796875 25.390625 
z
M 35.203125 72.90625 
L 47.609375 72.90625 
L 47.609375 25.390625 
L 58.015625 25.390625 
L 58.015625 17.1875 
L 47.609375 17.1875 
L 47.609375 0 
L 37.796875 0 
L 37.796875 17.1875 
L 4.890625 17.1875 
L 4.890625 26.703125 
z
" id="DejaVuSans-52"/>
       </defs>
       <use xlink:href="#DejaVuSans-8722"/>
       <use x="83.789062" xlink:href="#DejaVuSans-48"/>
       <use x="147.412109" xlink:href="#DejaVuSans-46"/>
       <use x="179.199219" xlink:href="#DejaVuSans-52"/>
      </g>
     </g>
    </g>
    <g id="xtick_2">
     <g id="line2d_2">
      <g>
       <use style="stroke:#000000;stroke-width:0.8;" x="491.38695" xlink:href="#mf421e4c0db" y="1260"/>
      </g>
     </g>
     <g id="text_2">
      <!-- −0.2 -->
      <g transform="translate(479.245544 1274.598438)scale(0.1 -0.1)">
       <defs>
        <path d="M 19.1875 8.296875 
L 53.609375 8.296875 
L 53.609375 0 
L 7.328125 0 
L 7.328125 8.296875 
Q 12.9375 14.109375 22.625 23.890625 
Q 32.328125 33.6875 34.8125 36.53125 
Q 39.546875 41.84375 41.421875 45.53125 
Q 43.3125 49.21875 43.3125 52.78125 
Q 43.3125 58.59375 39.234375 62.25 
Q 35.15625 65.921875 28.609375 65.921875 
Q 23.96875 65.921875 18.8125 64.3125 
Q 13.671875 62.703125 7.8125 59.421875 
L 7.8125 69.390625 
Q 13.765625 71.78125 18.9375 73 
Q 24.125 74.21875 28.421875 74.21875 
Q 39.75 74.21875 46.484375 68.546875 
Q 53.21875 62.890625 53.21875 53.421875 
Q 53.21875 48.921875 51.53125 44.890625 
Q 49.859375 40.875 45.40625 35.40625 
Q 44.1875 33.984375 37.640625 27.21875 
Q 31.109375 20.453125 19.1875 8.296875 
z
" id="DejaVuSans-50"/>
       </defs>
       <use xlink:href="#DejaVuSans-8722"/>
       <use x="83.789062" xlink:href="#DejaVuSans-48"/>
       <use x="147.412109" xlink:href="#DejaVuSans-46"/>
       <use x="179.199219" xlink:href="#DejaVuSans-50"/>
      </g>
     </g>
    </g>
    <g id="xtick_3">
     <g id="line2d_3">
      <g>
       <use style="stroke:#000000;stroke-width:0.8;" x="738" xlink:href="#mf421e4c0db" y="1260"/>
      </g>
     </g>
     <g id="text_3">
      <!-- 0.0 -->
      <g transform="translate(730.048437 1274.598438)scale(0.1 -0.1)">
       <use xlink:href="#DejaVuSans-48"/>
       <use x="63.623047" xlink:href="#DejaVuSans-46"/>
       <use x="95.410156" xlink:href="#DejaVuSans-48"/>
      </g>
     </g>
    </g>
    <g id="xtick_4">
     <g id="line2d_4">
      <g>
       <use style="stroke:#000000;stroke-width:0.8;" x="984.61305" xlink:href="#mf421e4c0db" y="1260"/>
      </g>
     </g>
     <g id="text_4">
      <!-- 0.2 -->
      <g transform="translate(976.661487 1274.598438)scale(0.1 -0.1)">
       <use xlink:href="#DejaVuSans-48"/>
       <use x="63.623047" xlink:href="#DejaVuSans-46"/>
       <use x="95.410156" xlink:href="#DejaVuSans-50"/>
      </g>
     </g>
    </g>
    <g id="xtick_5">
     <g id="line2d_5">
      <g>
       <use style="stroke:#000000;stroke-width:0.8;" x="1231.2261" xlink:href="#mf421e4c0db" y="1260"/>
      </g>
     </g>
     <g id="text_5">
      <!-- 0.4 -->
      <g transform="translate(1223.274537 1274.598438)scale(0.1 -0.1)">
       <use xlink:href="#DejaVuSans-48"/>
       <use x="63.623047" xlink:href="#DejaVuSans-46"/>
       <use x="95.410156" xlink:href="#DejaVuSans-52"/>
      </g>
     </g>
    </g>
    <g id="text_6">
     <!-- Coefficient value -->
     <g transform="translate(674.808984 1292.075781)scale(0.15 -0.15)">
      <defs>
       <path d="M 64.40625 67.28125 
L 64.40625 56.890625 
Q 59.421875 61.53125 53.78125 63.8125 
Q 48.140625 66.109375 41.796875 66.109375 
Q 29.296875 66.109375 22.65625 58.46875 
Q 16.015625 50.828125 16.015625 36.375 
Q 16.015625 21.96875 22.65625 14.328125 
Q 29.296875 6.6875 41.796875 6.6875 
Q 48.140625 6.6875 53.78125 8.984375 
Q 59.421875 11.28125 64.40625 15.921875 
L 64.40625 5.609375 
Q 59.234375 2.09375 53.4375 0.328125 
Q 47.65625 -1.421875 41.21875 -1.421875 
Q 24.65625 -1.421875 15.125 8.703125 
Q 5.609375 18.84375 5.609375 36.375 
Q 5.609375 53.953125 15.125 64.078125 
Q 24.65625 74.21875 41.21875 74.21875 
Q 47.75 74.21875 53.53125 72.484375 
Q 59.328125 70.75 64.40625 67.28125 
z
" id="DejaVuSans-67"/>
       <path d="M 30.609375 48.390625 
Q 23.390625 48.390625 19.1875 42.75 
Q 14.984375 37.109375 14.984375 27.296875 
Q 14.984375 17.484375 19.15625 11.84375 
Q 23.34375 6.203125 30.609375 6.203125 
Q 37.796875 6.203125 41.984375 11.859375 
Q 46.1875 17.53125 46.1875 27.296875 
Q 46.1875 37.015625 41.984375 42.703125 
Q 37.796875 48.390625 30.609375 48.390625 
z
M 30.609375 56 
Q 42.328125 56 49.015625 48.375 
Q 55.71875 40.765625 55.71875 27.296875 
Q 55.71875 13.875 49.015625 6.21875 
Q 42.328125 -1.421875 30.609375 -1.421875 
Q 18.84375 -1.421875 12.171875 6.21875 
Q 5.515625 13.875 5.515625 27.296875 
Q 5.515625 40.765625 12.171875 48.375 
Q 18.84375 56 30.609375 56 
z
" id="DejaVuSans-111"/>
       <path d="M 56.203125 29.59375 
L 56.203125 25.203125 
L 14.890625 25.203125 
Q 15.484375 15.921875 20.484375 11.0625 
Q 25.484375 6.203125 34.421875 6.203125 
Q 39.59375 6.203125 44.453125 7.46875 
Q 49.3125 8.734375 54.109375 11.28125 
L 54.109375 2.78125 
Q 49.265625 0.734375 44.1875 -0.34375 
Q 39.109375 -1.421875 33.890625 -1.421875 
Q 20.796875 -1.421875 13.15625 6.1875 
Q 5.515625 13.8125 5.515625 26.8125 
Q 5.515625 40.234375 12.765625 48.109375 
Q 20.015625 56 32.328125 56 
Q 43.359375 56 49.78125 48.890625 
Q 56.203125 41.796875 56.203125 29.59375 
z
M 47.21875 32.234375 
Q 47.125 39.59375 43.09375 43.984375 
Q 39.0625 48.390625 32.421875 48.390625 
Q 24.90625 48.390625 20.390625 44.140625 
Q 15.875 39.890625 15.1875 32.171875 
z
" id="DejaVuSans-101"/>
       <path d="M 37.109375 75.984375 
L 37.109375 68.5 
L 28.515625 68.5 
Q 23.6875 68.5 21.796875 66.546875 
Q 19.921875 64.59375 19.921875 59.515625 
L 19.921875 54.6875 
L 34.71875 54.6875 
L 34.71875 47.703125 
L 19.921875 47.703125 
L 19.921875 0 
L 10.890625 0 
L 10.890625 47.703125 
L 2.296875 47.703125 
L 2.296875 54.6875 
L 10.890625 54.6875 
L 10.890625 58.5 
Q 10.890625 67.625 15.140625 71.796875 
Q 19.390625 75.984375 28.609375 75.984375 
z
" id="DejaVuSans-102"/>
       <path d="M 9.421875 54.6875 
L 18.40625 54.6875 
L 18.40625 0 
L 9.421875 0 
z
M 9.421875 75.984375 
L 18.40625 75.984375 
L 18.40625 64.59375 
L 9.421875 64.59375 
z
" id="DejaVuSans-105"/>
       <path d="M 48.78125 52.59375 
L 48.78125 44.1875 
Q 44.96875 46.296875 41.140625 47.34375 
Q 37.3125 48.390625 33.40625 48.390625 
Q 24.65625 48.390625 19.8125 42.84375 
Q 14.984375 37.3125 14.984375 27.296875 
Q 14.984375 17.28125 19.8125 11.734375 
Q 24.65625 6.203125 33.40625 6.203125 
Q 37.3125 6.203125 41.140625 7.25 
Q 44.96875 8.296875 48.78125 10.40625 
L 48.78125 2.09375 
Q 45.015625 0.34375 40.984375 -0.53125 
Q 36.96875 -1.421875 32.421875 -1.421875 
Q 20.0625 -1.421875 12.78125 6.34375 
Q 5.515625 14.109375 5.515625 27.296875 
Q 5.515625 40.671875 12.859375 48.328125 
Q 20.21875 56 33.015625 56 
Q 37.15625 56 41.109375 55.140625 
Q 45.0625 54.296875 48.78125 52.59375 
z
" id="DejaVuSans-99"/>
       <path d="M 54.890625 33.015625 
L 54.890625 0 
L 45.90625 0 
L 45.90625 32.71875 
Q 45.90625 40.484375 42.875 44.328125 
Q 39.84375 48.1875 33.796875 48.1875 
Q 26.515625 48.1875 22.3125 43.546875 
Q 18.109375 38.921875 18.109375 30.90625 
L 18.109375 0 
L 9.078125 0 
L 9.078125 54.6875 
L 18.109375 54.6875 
L 18.109375 46.1875 
Q 21.34375 51.125 25.703125 53.5625 
Q 30.078125 56 35.796875 56 
Q 45.21875 56 50.046875 50.171875 
Q 54.890625 44.34375 54.890625 33.015625 
z
" id="DejaVuSans-110"/>
       <path d="M 18.3125 70.21875 
L 18.3125 54.6875 
L 36.8125 54.6875 
L 36.8125 47.703125 
L 18.3125 47.703125 
L 18.3125 18.015625 
Q 18.3125 11.328125 20.140625 9.421875 
Q 21.96875 7.515625 27.59375 7.515625 
L 36.8125 7.515625 
L 36.8125 0 
L 27.59375 0 
Q 17.1875 0 13.234375 3.875 
Q 9.28125 7.765625 9.28125 18.015625 
L 9.28125 47.703125 
L 2.6875 47.703125 
L 2.6875 54.6875 
L 9.28125 54.6875 
L 9.28125 70.21875 
z
" id="DejaVuSans-116"/>
       <path id="DejaVuSans-32"/>
       <path d="M 2.984375 54.6875 
L 12.5 54.6875 
L 29.59375 8.796875 
L 46.6875 54.6875 
L 56.203125 54.6875 
L 35.6875 0 
L 23.484375 0 
z
" id="DejaVuSans-118"/>
       <path d="M 34.28125 27.484375 
Q 23.390625 27.484375 19.1875 25 
Q 14.984375 22.515625 14.984375 16.5 
Q 14.984375 11.71875 18.140625 8.90625 
Q 21.296875 6.109375 26.703125 6.109375 
Q 34.1875 6.109375 38.703125 11.40625 
Q 43.21875 16.703125 43.21875 25.484375 
L 43.21875 27.484375 
z
M 52.203125 31.203125 
L 52.203125 0 
L 43.21875 0 
L 43.21875 8.296875 
Q 40.140625 3.328125 35.546875 0.953125 
Q 30.953125 -1.421875 24.3125 -1.421875 
Q 15.921875 -1.421875 10.953125 3.296875 
Q 6 8.015625 6 15.921875 
Q 6 25.140625 12.171875 29.828125 
Q 18.359375 34.515625 30.609375 34.515625 
L 43.21875 34.515625 
L 43.21875 35.40625 
Q 43.21875 41.609375 39.140625 45 
Q 35.0625 48.390625 27.6875 48.390625 
Q 23 48.390625 18.546875 47.265625 
Q 14.109375 46.140625 10.015625 43.890625 
L 10.015625 52.203125 
Q 14.9375 54.109375 19.578125 55.046875 
Q 24.21875 56 28.609375 56 
Q 40.484375 56 46.34375 49.84375 
Q 52.203125 43.703125 52.203125 31.203125 
z
" id="DejaVuSans-97"/>
       <path d="M 9.421875 75.984375 
L 18.40625 75.984375 
L 18.40625 0 
L 9.421875 0 
z
" id="DejaVuSans-108"/>
       <path d="M 8.5 21.578125 
L 8.5 54.6875 
L 17.484375 54.6875 
L 17.484375 21.921875 
Q 17.484375 14.15625 20.5 10.265625 
Q 23.53125 6.390625 29.59375 6.390625 
Q 36.859375 6.390625 41.078125 11.03125 
Q 45.3125 15.671875 45.3125 23.6875 
L 45.3125 54.6875 
L 54.296875 54.6875 
L 54.296875 0 
L 45.3125 0 
L 45.3125 8.40625 
Q 42.046875 3.421875 37.71875 1 
Q 33.40625 -1.421875 27.6875 -1.421875 
Q 18.265625 -1.421875 13.375 4.4375 
Q 8.5 10.296875 8.5 21.578125 
z
M 31.109375 56 
z
" id="DejaVuSans-117"/>
      </defs>
      <use xlink:href="#DejaVuSans-67"/>
      <use x="69.824219" xlink:href="#DejaVuSans-111"/>
      <use x="131.005859" xlink:href="#DejaVuSans-101"/>
      <use x="192.529297" xlink:href="#DejaVuSans-102"/>
      <use x="227.734375" xlink:href="#DejaVuSans-102"/>
      <use x="262.939453" xlink:href="#DejaVuSans-105"/>
      <use x="290.722656" xlink:href="#DejaVuSans-99"/>
      <use x="345.703125" xlink:href="#DejaVuSans-105"/>
      <use x="373.486328" xlink:href="#DejaVuSans-101"/>
      <use x="435.009766" xlink:href="#DejaVuSans-110"/>
      <use x="498.388672" xlink:href="#DejaVuSans-116"/>
      <use x="537.597656" xlink:href="#DejaVuSans-32"/>
      <use x="569.384766" xlink:href="#DejaVuSans-118"/>
      <use x="628.564453" xlink:href="#DejaVuSans-97"/>
      <use x="689.84375" xlink:href="#DejaVuSans-108"/>
      <use x="717.626953" xlink:href="#DejaVuSans-117"/>
      <use x="781.005859" xlink:href="#DejaVuSans-101"/>
     </g>
    </g>
   </g>
   <g id="matplotlib.axis_2">
    <g id="ytick_1">
     <g id="line2d_6">
      <defs>
       <path d="M 0 0 
L -3.5 0 
" id="m97dff022c2" style="stroke:#000000;stroke-width:0.8;"/>
      </defs>
      <g>
       <use style="stroke:#000000;stroke-width:0.8;" x="180" xlink:href="#m97dff022c2" y="240.75"/>
      </g>
     </g>
     <g id="text_7">
      <!-- Distance_Center -->
      <g transform="translate(90.617188 244.549219)scale(0.1 -0.1)">
       <defs>
        <path d="M 19.671875 64.796875 
L 19.671875 8.109375 
L 31.59375 8.109375 
Q 46.6875 8.109375 53.6875 14.9375 
Q 60.6875 21.78125 60.6875 36.53125 
Q 60.6875 51.171875 53.6875 57.984375 
Q 46.6875 64.796875 31.59375 64.796875 
z
M 9.8125 72.90625 
L 30.078125 72.90625 
Q 51.265625 72.90625 61.171875 64.09375 
Q 71.09375 55.28125 71.09375 36.53125 
Q 71.09375 17.671875 61.125 8.828125 
Q 51.171875 0 30.078125 0 
L 9.8125 0 
z
" id="DejaVuSans-68"/>
        <path d="M 44.28125 53.078125 
L 44.28125 44.578125 
Q 40.484375 46.53125 36.375 47.5 
Q 32.28125 48.484375 27.875 48.484375 
Q 21.1875 48.484375 17.84375 46.4375 
Q 14.5 44.390625 14.5 40.28125 
Q 14.5 37.15625 16.890625 35.375 
Q 19.28125 33.59375 26.515625 31.984375 
L 29.59375 31.296875 
Q 39.15625 29.25 43.1875 25.515625 
Q 47.21875 21.78125 47.21875 15.09375 
Q 47.21875 7.46875 41.1875 3.015625 
Q 35.15625 -1.421875 24.609375 -1.421875 
Q 20.21875 -1.421875 15.453125 -0.5625 
Q 10.6875 0.296875 5.421875 2 
L 5.421875 11.28125 
Q 10.40625 8.6875 15.234375 7.390625 
Q 20.0625 6.109375 24.8125 6.109375 
Q 31.15625 6.109375 34.5625 8.28125 
Q 37.984375 10.453125 37.984375 14.40625 
Q 37.984375 18.0625 35.515625 20.015625 
Q 33.0625 21.96875 24.703125 23.78125 
L 21.578125 24.515625 
Q 13.234375 26.265625 9.515625 29.90625 
Q 5.8125 33.546875 5.8125 39.890625 
Q 5.8125 47.609375 11.28125 51.796875 
Q 16.75 56 26.8125 56 
Q 31.78125 56 36.171875 55.265625 
Q 40.578125 54.546875 44.28125 53.078125 
z
" id="DejaVuSans-115"/>
        <path d="M 50.984375 -16.609375 
L 50.984375 -23.578125 
L -0.984375 -23.578125 
L -0.984375 -16.609375 
z
" id="DejaVuSans-95"/>
        <path d="M 41.109375 46.296875 
Q 39.59375 47.171875 37.8125 47.578125 
Q 36.03125 48 33.890625 48 
Q 26.265625 48 22.1875 43.046875 
Q 18.109375 38.09375 18.109375 28.8125 
L 18.109375 0 
L 9.078125 0 
L 9.078125 54.6875 
L 18.109375 54.6875 
L 18.109375 46.1875 
Q 20.953125 51.171875 25.484375 53.578125 
Q 30.03125 56 36.53125 56 
Q 37.453125 56 38.578125 55.875 
Q 39.703125 55.765625 41.0625 55.515625 
z
" id="DejaVuSans-114"/>
       </defs>
       <use xlink:href="#DejaVuSans-68"/>
       <use x="77.001953" xlink:href="#DejaVuSans-105"/>
       <use x="104.785156" xlink:href="#DejaVuSans-115"/>
       <use x="156.884766" xlink:href="#DejaVuSans-116"/>
       <use x="196.09375" xlink:href="#DejaVuSans-97"/>
       <use x="257.373047" xlink:href="#DejaVuSans-110"/>
       <use x="320.751953" xlink:href="#DejaVuSans-99"/>
       <use x="375.732422" xlink:href="#DejaVuSans-101"/>
       <use x="437.255859" xlink:href="#DejaVuSans-95"/>
       <use x="487.255859" xlink:href="#DejaVuSans-67"/>
       <use x="557.080078" xlink:href="#DejaVuSans-101"/>
       <use x="618.603516" xlink:href="#DejaVuSans-110"/>
       <use x="681.982422" xlink:href="#DejaVuSans-116"/>
       <use x="721.191406" xlink:href="#DejaVuSans-101"/>
       <use x="782.714844" xlink:href="#DejaVuSans-114"/>
      </g>
     </g>
    </g>
    <g id="ytick_2">
     <g id="line2d_7">
      <g>
       <use style="stroke:#000000;stroke-width:0.8;" x="180" xlink:href="#m97dff022c2" y="376.65"/>
      </g>
     </g>
     <g id="text_8">
      <!-- Nationality_Spain -->
      <g transform="translate(85.771875 380.449219)scale(0.1 -0.1)">
       <defs>
        <path d="M 9.8125 72.90625 
L 23.09375 72.90625 
L 55.421875 11.921875 
L 55.421875 72.90625 
L 64.984375 72.90625 
L 64.984375 0 
L 51.703125 0 
L 19.390625 60.984375 
L 19.390625 0 
L 9.8125 0 
z
" id="DejaVuSans-78"/>
        <path d="M 32.171875 -5.078125 
Q 28.375 -14.84375 24.75 -17.8125 
Q 21.140625 -20.796875 15.09375 -20.796875 
L 7.90625 -20.796875 
L 7.90625 -13.28125 
L 13.1875 -13.28125 
Q 16.890625 -13.28125 18.9375 -11.515625 
Q 21 -9.765625 23.484375 -3.21875 
L 25.09375 0.875 
L 2.984375 54.6875 
L 12.5 54.6875 
L 29.59375 11.921875 
L 46.6875 54.6875 
L 56.203125 54.6875 
z
" id="DejaVuSans-121"/>
        <path d="M 53.515625 70.515625 
L 53.515625 60.890625 
Q 47.90625 63.578125 42.921875 64.890625 
Q 37.9375 66.21875 33.296875 66.21875 
Q 25.25 66.21875 20.875 63.09375 
Q 16.5 59.96875 16.5 54.203125 
Q 16.5 49.359375 19.40625 46.890625 
Q 22.3125 44.4375 30.421875 42.921875 
L 36.375 41.703125 
Q 47.40625 39.59375 52.65625 34.296875 
Q 57.90625 29 57.90625 20.125 
Q 57.90625 9.515625 50.796875 4.046875 
Q 43.703125 -1.421875 29.984375 -1.421875 
Q 24.8125 -1.421875 18.96875 -0.25 
Q 13.140625 0.921875 6.890625 3.21875 
L 6.890625 13.375 
Q 12.890625 10.015625 18.65625 8.296875 
Q 24.421875 6.59375 29.984375 6.59375 
Q 38.421875 6.59375 43.015625 9.90625 
Q 47.609375 13.234375 47.609375 19.390625 
Q 47.609375 24.75 44.3125 27.78125 
Q 41.015625 30.8125 33.5 32.328125 
L 27.484375 33.5 
Q 16.453125 35.6875 11.515625 40.375 
Q 6.59375 45.0625 6.59375 53.421875 
Q 6.59375 63.09375 13.40625 68.65625 
Q 20.21875 74.21875 32.171875 74.21875 
Q 37.3125 74.21875 42.625 73.28125 
Q 47.953125 72.359375 53.515625 70.515625 
z
" id="DejaVuSans-83"/>
        <path d="M 18.109375 8.203125 
L 18.109375 -20.796875 
L 9.078125 -20.796875 
L 9.078125 54.6875 
L 18.109375 54.6875 
L 18.109375 46.390625 
Q 20.953125 51.265625 25.265625 53.625 
Q 29.59375 56 35.59375 56 
Q 45.5625 56 51.78125 48.09375 
Q 58.015625 40.1875 58.015625 27.296875 
Q 58.015625 14.40625 51.78125 6.484375 
Q 45.5625 -1.421875 35.59375 -1.421875 
Q 29.59375 -1.421875 25.265625 0.953125 
Q 20.953125 3.328125 18.109375 8.203125 
z
M 48.6875 27.296875 
Q 48.6875 37.203125 44.609375 42.84375 
Q 40.53125 48.484375 33.40625 48.484375 
Q 26.265625 48.484375 22.1875 42.84375 
Q 18.109375 37.203125 18.109375 27.296875 
Q 18.109375 17.390625 22.1875 11.75 
Q 26.265625 6.109375 33.40625 6.109375 
Q 40.53125 6.109375 44.609375 11.75 
Q 48.6875 17.390625 48.6875 27.296875 
z
" id="DejaVuSans-112"/>
       </defs>
       <use xlink:href="#DejaVuSans-78"/>
       <use x="74.804688" xlink:href="#DejaVuSans-97"/>
       <use x="136.083984" xlink:href="#DejaVuSans-116"/>
       <use x="175.292969" xlink:href="#DejaVuSans-105"/>
       <use x="203.076172" xlink:href="#DejaVuSans-111"/>
       <use x="264.257812" xlink:href="#DejaVuSans-110"/>
       <use x="327.636719" xlink:href="#DejaVuSans-97"/>
       <use x="388.916016" xlink:href="#DejaVuSans-108"/>
       <use x="416.699219" xlink:href="#DejaVuSans-105"/>
       <use x="444.482422" xlink:href="#DejaVuSans-116"/>
       <use x="483.691406" xlink:href="#DejaVuSans-121"/>
       <use x="542.871094" xlink:href="#DejaVuSans-95"/>
       <use x="592.871094" xlink:href="#DejaVuSans-83"/>
       <use x="656.347656" xlink:href="#DejaVuSans-112"/>
       <use x="719.824219" xlink:href="#DejaVuSans-97"/>
       <use x="781.103516" xlink:href="#DejaVuSans-105"/>
       <use x="808.886719" xlink:href="#DejaVuSans-110"/>
      </g>
     </g>
    </g>
    <g id="ytick_3">
     <g id="line2d_8">
      <g>
       <use style="stroke:#000000;stroke-width:0.8;" x="180" xlink:href="#m97dff022c2" y="512.55"/>
      </g>
     </g>
     <g id="text_9">
      <!-- Nationality_Italy -->
      <g transform="translate(92.017187 516.349219)scale(0.1 -0.1)">
       <defs>
        <path d="M 9.8125 72.90625 
L 19.671875 72.90625 
L 19.671875 0 
L 9.8125 0 
z
" id="DejaVuSans-73"/>
       </defs>
       <use xlink:href="#DejaVuSans-78"/>
       <use x="74.804688" xlink:href="#DejaVuSans-97"/>
       <use x="136.083984" xlink:href="#DejaVuSans-116"/>
       <use x="175.292969" xlink:href="#DejaVuSans-105"/>
       <use x="203.076172" xlink:href="#DejaVuSans-111"/>
       <use x="264.257812" xlink:href="#DejaVuSans-110"/>
       <use x="327.636719" xlink:href="#DejaVuSans-97"/>
       <use x="388.916016" xlink:href="#DejaVuSans-108"/>
       <use x="416.699219" xlink:href="#DejaVuSans-105"/>
       <use x="444.482422" xlink:href="#DejaVuSans-116"/>
       <use x="483.691406" xlink:href="#DejaVuSans-121"/>
       <use x="542.871094" xlink:href="#DejaVuSans-95"/>
       <use x="592.871094" xlink:href="#DejaVuSans-73"/>
       <use x="622.363281" xlink:href="#DejaVuSans-116"/>
       <use x="661.572266" xlink:href="#DejaVuSans-97"/>
       <use x="722.851562" xlink:href="#DejaVuSans-108"/>
       <use x="750.634766" xlink:href="#DejaVuSans-121"/>
      </g>
     </g>
    </g>
    <g id="ytick_4">
     <g id="line2d_9">
      <g>
       <use style="stroke:#000000;stroke-width:0.8;" x="180" xlink:href="#m97dff022c2" y="648.45"/>
      </g>
     </g>
     <g id="text_10">
      <!-- POI_Restaurants_Hotels -->
      <g transform="translate(54.495312 652.249219)scale(0.1 -0.1)">
       <defs>
        <path d="M 19.671875 64.796875 
L 19.671875 37.40625 
L 32.078125 37.40625 
Q 38.96875 37.40625 42.71875 40.96875 
Q 46.484375 44.53125 46.484375 51.125 
Q 46.484375 57.671875 42.71875 61.234375 
Q 38.96875 64.796875 32.078125 64.796875 
z
M 9.8125 72.90625 
L 32.078125 72.90625 
Q 44.34375 72.90625 50.609375 67.359375 
Q 56.890625 61.8125 56.890625 51.125 
Q 56.890625 40.328125 50.609375 34.8125 
Q 44.34375 29.296875 32.078125 29.296875 
L 19.671875 29.296875 
L 19.671875 0 
L 9.8125 0 
z
" id="DejaVuSans-80"/>
        <path d="M 39.40625 66.21875 
Q 28.65625 66.21875 22.328125 58.203125 
Q 16.015625 50.203125 16.015625 36.375 
Q 16.015625 22.609375 22.328125 14.59375 
Q 28.65625 6.59375 39.40625 6.59375 
Q 50.140625 6.59375 56.421875 14.59375 
Q 62.703125 22.609375 62.703125 36.375 
Q 62.703125 50.203125 56.421875 58.203125 
Q 50.140625 66.21875 39.40625 66.21875 
z
M 39.40625 74.21875 
Q 54.734375 74.21875 63.90625 63.9375 
Q 73.09375 53.65625 73.09375 36.375 
Q 73.09375 19.140625 63.90625 8.859375 
Q 54.734375 -1.421875 39.40625 -1.421875 
Q 24.03125 -1.421875 14.8125 8.828125 
Q 5.609375 19.09375 5.609375 36.375 
Q 5.609375 53.65625 14.8125 63.9375 
Q 24.03125 74.21875 39.40625 74.21875 
z
" id="DejaVuSans-79"/>
        <path d="M 44.390625 34.1875 
Q 47.5625 33.109375 50.5625 29.59375 
Q 53.5625 26.078125 56.59375 19.921875 
L 66.609375 0 
L 56 0 
L 46.6875 18.703125 
Q 43.0625 26.03125 39.671875 28.421875 
Q 36.28125 30.8125 30.421875 30.8125 
L 19.671875 30.8125 
L 19.671875 0 
L 9.8125 0 
L 9.8125 72.90625 
L 32.078125 72.90625 
Q 44.578125 72.90625 50.734375 67.671875 
Q 56.890625 62.453125 56.890625 51.90625 
Q 56.890625 45.015625 53.6875 40.46875 
Q 50.484375 35.9375 44.390625 34.1875 
z
M 19.671875 64.796875 
L 19.671875 38.921875 
L 32.078125 38.921875 
Q 39.203125 38.921875 42.84375 42.21875 
Q 46.484375 45.515625 46.484375 51.90625 
Q 46.484375 58.296875 42.84375 61.546875 
Q 39.203125 64.796875 32.078125 64.796875 
z
" id="DejaVuSans-82"/>
        <path d="M 9.8125 72.90625 
L 19.671875 72.90625 
L 19.671875 43.015625 
L 55.515625 43.015625 
L 55.515625 72.90625 
L 65.375 72.90625 
L 65.375 0 
L 55.515625 0 
L 55.515625 34.71875 
L 19.671875 34.71875 
L 19.671875 0 
L 9.8125 0 
z
" id="DejaVuSans-72"/>
       </defs>
       <use xlink:href="#DejaVuSans-80"/>
       <use x="60.302734" xlink:href="#DejaVuSans-79"/>
       <use x="139.013672" xlink:href="#DejaVuSans-73"/>
       <use x="168.505859" xlink:href="#DejaVuSans-95"/>
       <use x="218.505859" xlink:href="#DejaVuSans-82"/>
       <use x="283.488281" xlink:href="#DejaVuSans-101"/>
       <use x="345.011719" xlink:href="#DejaVuSans-115"/>
       <use x="397.111328" xlink:href="#DejaVuSans-116"/>
       <use x="436.320312" xlink:href="#DejaVuSans-97"/>
       <use x="497.599609" xlink:href="#DejaVuSans-117"/>
       <use x="560.978516" xlink:href="#DejaVuSans-114"/>
       <use x="602.091797" xlink:href="#DejaVuSans-97"/>
       <use x="663.371094" xlink:href="#DejaVuSans-110"/>
       <use x="726.75" xlink:href="#DejaVuSans-116"/>
       <use x="765.958984" xlink:href="#DejaVuSans-115"/>
       <use x="818.058594" xlink:href="#DejaVuSans-95"/>
       <use x="868.058594" xlink:href="#DejaVuSans-72"/>
       <use x="943.253906" xlink:href="#DejaVuSans-111"/>
       <use x="1004.435547" xlink:href="#DejaVuSans-116"/>
       <use x="1043.644531" xlink:href="#DejaVuSans-101"/>
       <use x="1105.167969" xlink:href="#DejaVuSans-108"/>
       <use x="1132.951172" xlink:href="#DejaVuSans-115"/>
      </g>
     </g>
    </g>
    <g id="ytick_5">
     <g id="line2d_10">
      <g>
       <use style="stroke:#000000;stroke-width:0.8;" x="180" xlink:href="#m97dff022c2" y="784.35"/>
      </g>
     </g>
     <g id="text_11">
      <!-- Nationality_UK -->
      <g transform="translate(99.835938 788.149219)scale(0.1 -0.1)">
       <defs>
        <path d="M 8.6875 72.90625 
L 18.609375 72.90625 
L 18.609375 28.609375 
Q 18.609375 16.890625 22.84375 11.734375 
Q 27.09375 6.59375 36.625 6.59375 
Q 46.09375 6.59375 50.34375 11.734375 
Q 54.59375 16.890625 54.59375 28.609375 
L 54.59375 72.90625 
L 64.5 72.90625 
L 64.5 27.390625 
Q 64.5 13.140625 57.4375 5.859375 
Q 50.390625 -1.421875 36.625 -1.421875 
Q 22.796875 -1.421875 15.734375 5.859375 
Q 8.6875 13.140625 8.6875 27.390625 
z
" id="DejaVuSans-85"/>
        <path d="M 9.8125 72.90625 
L 19.671875 72.90625 
L 19.671875 42.09375 
L 52.390625 72.90625 
L 65.09375 72.90625 
L 28.90625 38.921875 
L 67.671875 0 
L 54.6875 0 
L 19.671875 35.109375 
L 19.671875 0 
L 9.8125 0 
z
" id="DejaVuSans-75"/>
       </defs>
       <use xlink:href="#DejaVuSans-78"/>
       <use x="74.804688" xlink:href="#DejaVuSans-97"/>
       <use x="136.083984" xlink:href="#DejaVuSans-116"/>
       <use x="175.292969" xlink:href="#DejaVuSans-105"/>
       <use x="203.076172" xlink:href="#DejaVuSans-111"/>
       <use x="264.257812" xlink:href="#DejaVuSans-110"/>
       <use x="327.636719" xlink:href="#DejaVuSans-97"/>
       <use x="388.916016" xlink:href="#DejaVuSans-108"/>
       <use x="416.699219" xlink:href="#DejaVuSans-105"/>
       <use x="444.482422" xlink:href="#DejaVuSans-116"/>
       <use x="483.691406" xlink:href="#DejaVuSans-121"/>
       <use x="542.871094" xlink:href="#DejaVuSans-95"/>
       <use x="592.871094" xlink:href="#DejaVuSans-85"/>
       <use x="666.064453" xlink:href="#DejaVuSans-75"/>
      </g>
     </g>
    </g>
    <g id="ytick_6">
     <g id="line2d_11">
      <g>
       <use style="stroke:#000000;stroke-width:0.8;" x="180" xlink:href="#m97dff022c2" y="920.25"/>
      </g>
     </g>
     <g id="text_12">
      <!-- Percentage_Age_65_Plus -->
      <g transform="translate(49.332812 924.049219)scale(0.1 -0.1)">
       <defs>
        <path d="M 45.40625 27.984375 
Q 45.40625 37.75 41.375 43.109375 
Q 37.359375 48.484375 30.078125 48.484375 
Q 22.859375 48.484375 18.828125 43.109375 
Q 14.796875 37.75 14.796875 27.984375 
Q 14.796875 18.265625 18.828125 12.890625 
Q 22.859375 7.515625 30.078125 7.515625 
Q 37.359375 7.515625 41.375 12.890625 
Q 45.40625 18.265625 45.40625 27.984375 
z
M 54.390625 6.78125 
Q 54.390625 -7.171875 48.1875 -13.984375 
Q 42 -20.796875 29.203125 -20.796875 
Q 24.46875 -20.796875 20.265625 -20.09375 
Q 16.0625 -19.390625 12.109375 -17.921875 
L 12.109375 -9.1875 
Q 16.0625 -11.328125 19.921875 -12.34375 
Q 23.78125 -13.375 27.78125 -13.375 
Q 36.625 -13.375 41.015625 -8.765625 
Q 45.40625 -4.15625 45.40625 5.171875 
L 45.40625 9.625 
Q 42.625 4.78125 38.28125 2.390625 
Q 33.9375 0 27.875 0 
Q 17.828125 0 11.671875 7.65625 
Q 5.515625 15.328125 5.515625 27.984375 
Q 5.515625 40.671875 11.671875 48.328125 
Q 17.828125 56 27.875 56 
Q 33.9375 56 38.28125 53.609375 
Q 42.625 51.21875 45.40625 46.390625 
L 45.40625 54.6875 
L 54.390625 54.6875 
z
" id="DejaVuSans-103"/>
        <path d="M 34.1875 63.1875 
L 20.796875 26.90625 
L 47.609375 26.90625 
z
M 28.609375 72.90625 
L 39.796875 72.90625 
L 67.578125 0 
L 57.328125 0 
L 50.6875 18.703125 
L 17.828125 18.703125 
L 11.1875 0 
L 0.78125 0 
z
" id="DejaVuSans-65"/>
        <path d="M 33.015625 40.375 
Q 26.375 40.375 22.484375 35.828125 
Q 18.609375 31.296875 18.609375 23.390625 
Q 18.609375 15.53125 22.484375 10.953125 
Q 26.375 6.390625 33.015625 6.390625 
Q 39.65625 6.390625 43.53125 10.953125 
Q 47.40625 15.53125 47.40625 23.390625 
Q 47.40625 31.296875 43.53125 35.828125 
Q 39.65625 40.375 33.015625 40.375 
z
M 52.59375 71.296875 
L 52.59375 62.3125 
Q 48.875 64.0625 45.09375 64.984375 
Q 41.3125 65.921875 37.59375 65.921875 
Q 27.828125 65.921875 22.671875 59.328125 
Q 17.53125 52.734375 16.796875 39.40625 
Q 19.671875 43.65625 24.015625 45.921875 
Q 28.375 48.1875 33.59375 48.1875 
Q 44.578125 48.1875 50.953125 41.515625 
Q 57.328125 34.859375 57.328125 23.390625 
Q 57.328125 12.15625 50.6875 5.359375 
Q 44.046875 -1.421875 33.015625 -1.421875 
Q 20.359375 -1.421875 13.671875 8.265625 
Q 6.984375 17.96875 6.984375 36.375 
Q 6.984375 53.65625 15.1875 63.9375 
Q 23.390625 74.21875 37.203125 74.21875 
Q 40.921875 74.21875 44.703125 73.484375 
Q 48.484375 72.75 52.59375 71.296875 
z
" id="DejaVuSans-54"/>
        <path d="M 10.796875 72.90625 
L 49.515625 72.90625 
L 49.515625 64.59375 
L 19.828125 64.59375 
L 19.828125 46.734375 
Q 21.96875 47.46875 24.109375 47.828125 
Q 26.265625 48.1875 28.421875 48.1875 
Q 40.625 48.1875 47.75 41.5 
Q 54.890625 34.8125 54.890625 23.390625 
Q 54.890625 11.625 47.5625 5.09375 
Q 40.234375 -1.421875 26.90625 -1.421875 
Q 22.3125 -1.421875 17.546875 -0.640625 
Q 12.796875 0.140625 7.71875 1.703125 
L 7.71875 11.625 
Q 12.109375 9.234375 16.796875 8.0625 
Q 21.484375 6.890625 26.703125 6.890625 
Q 35.15625 6.890625 40.078125 11.328125 
Q 45.015625 15.765625 45.015625 23.390625 
Q 45.015625 31 40.078125 35.4375 
Q 35.15625 39.890625 26.703125 39.890625 
Q 22.75 39.890625 18.8125 39.015625 
Q 14.890625 38.140625 10.796875 36.28125 
z
" id="DejaVuSans-53"/>
       </defs>
       <use xlink:href="#DejaVuSans-80"/>
       <use x="56.677734" xlink:href="#DejaVuSans-101"/>
       <use x="118.201172" xlink:href="#DejaVuSans-114"/>
       <use x="157.064453" xlink:href="#DejaVuSans-99"/>
       <use x="212.044922" xlink:href="#DejaVuSans-101"/>
       <use x="273.568359" xlink:href="#DejaVuSans-110"/>
       <use x="336.947266" xlink:href="#DejaVuSans-116"/>
       <use x="376.15625" xlink:href="#DejaVuSans-97"/>
       <use x="437.435547" xlink:href="#DejaVuSans-103"/>
       <use x="500.912109" xlink:href="#DejaVuSans-101"/>
       <use x="562.435547" xlink:href="#DejaVuSans-95"/>
       <use x="612.435547" xlink:href="#DejaVuSans-65"/>
       <use x="680.84375" xlink:href="#DejaVuSans-103"/>
       <use x="744.320312" xlink:href="#DejaVuSans-101"/>
       <use x="805.84375" xlink:href="#DejaVuSans-95"/>
       <use x="855.84375" xlink:href="#DejaVuSans-54"/>
       <use x="919.466797" xlink:href="#DejaVuSans-53"/>
       <use x="983.089844" xlink:href="#DejaVuSans-95"/>
       <use x="1033.089844" xlink:href="#DejaVuSans-80"/>
       <use x="1093.392578" xlink:href="#DejaVuSans-108"/>
       <use x="1121.175781" xlink:href="#DejaVuSans-117"/>
       <use x="1184.554688" xlink:href="#DejaVuSans-115"/>
      </g>
     </g>
    </g>
    <g id="ytick_7">
     <g id="line2d_12">
      <g>
       <use style="stroke:#000000;stroke-width:0.8;" x="180" xlink:href="#m97dff022c2" y="1056.15"/>
      </g>
     </g>
     <g id="text_13">
      <!-- Percentage_Age_0_14 -->
      <g transform="translate(63.325 1059.860938)scale(0.1 -0.1)">
       <defs>
        <path d="M 12.40625 8.296875 
L 28.515625 8.296875 
L 28.515625 63.921875 
L 10.984375 60.40625 
L 10.984375 69.390625 
L 28.421875 72.90625 
L 38.28125 72.90625 
L 38.28125 8.296875 
L 54.390625 8.296875 
L 54.390625 0 
L 12.40625 0 
z
" id="DejaVuSans-49"/>
       </defs>
       <use xlink:href="#DejaVuSans-80"/>
       <use x="56.677734" xlink:href="#DejaVuSans-101"/>
       <use x="118.201172" xlink:href="#DejaVuSans-114"/>
       <use x="157.064453" xlink:href="#DejaVuSans-99"/>
       <use x="212.044922" xlink:href="#DejaVuSans-101"/>
       <use x="273.568359" xlink:href="#DejaVuSans-110"/>
       <use x="336.947266" xlink:href="#DejaVuSans-116"/>
       <use x="376.15625" xlink:href="#DejaVuSans-97"/>
       <use x="437.435547" xlink:href="#DejaVuSans-103"/>
       <use x="500.912109" xlink:href="#DejaVuSans-101"/>
       <use x="562.435547" xlink:href="#DejaVuSans-95"/>
       <use x="612.435547" xlink:href="#DejaVuSans-65"/>
       <use x="680.84375" xlink:href="#DejaVuSans-103"/>
       <use x="744.320312" xlink:href="#DejaVuSans-101"/>
       <use x="805.84375" xlink:href="#DejaVuSans-95"/>
       <use x="855.84375" xlink:href="#DejaVuSans-48"/>
       <use x="919.466797" xlink:href="#DejaVuSans-95"/>
       <use x="969.466797" xlink:href="#DejaVuSans-49"/>
       <use x="1033.089844" xlink:href="#DejaVuSans-52"/>
      </g>
     </g>
    </g>
    <g id="ytick_8">
     <g id="line2d_13">
      <g>
       <use style="stroke:#000000;stroke-width:0.8;" x="180" xlink:href="#m97dff022c2" y="1192.05"/>
      </g>
     </g>
     <g id="text_14">
      <!-- Intercept -->
      <g transform="translate(127.832812 1195.849219)scale(0.1 -0.1)">
       <use xlink:href="#DejaVuSans-73"/>
       <use x="29.492188" xlink:href="#DejaVuSans-110"/>
       <use x="92.871094" xlink:href="#DejaVuSans-116"/>
       <use x="132.080078" xlink:href="#DejaVuSans-101"/>
       <use x="193.603516" xlink:href="#DejaVuSans-114"/>
       <use x="232.466797" xlink:href="#DejaVuSans-99"/>
       <use x="287.447266" xlink:href="#DejaVuSans-101"/>
       <use x="348.970703" xlink:href="#DejaVuSans-112"/>
       <use x="412.447266" xlink:href="#DejaVuSans-116"/>
      </g>
     </g>
    </g>
   </g>
   <g id="line2d_14">
    <path clip-path="url(#pb31b9e2d8b)" d="M 247.998545 240.75 
L 221.835059 240.75 
" style="fill:none;stroke:#4c4c4c;stroke-linecap:square;stroke-width:1.5;"/>
   </g>
   <g id="line2d_15">
    <path clip-path="url(#pb31b9e2d8b)" d="M 268.970194 240.75 
L 298.724238 240.75 
" style="fill:none;stroke:#4c4c4c;stroke-linecap:square;stroke-width:1.5;"/>
   </g>
   <g id="line2d_16">
    <path clip-path="url(#pb31b9e2d8b)" d="M 221.835059 213.57 
L 221.835059 267.93 
" style="fill:none;stroke:#4c4c4c;stroke-linecap:square;stroke-width:1.5;"/>
   </g>
   <g id="line2d_17">
    <path clip-path="url(#pb31b9e2d8b)" d="M 298.724238 213.57 
L 298.724238 267.93 
" style="fill:none;stroke:#4c4c4c;stroke-linecap:square;stroke-width:1.5;"/>
   </g>
   <g id="line2d_18">
    <defs>
     <path d="M -0 3.535534 
L 2.12132 0 
L -0 -3.535534 
L -2.12132 -0 
z
" id="m03d2eb0fab" style="stroke:#4c4c4c;stroke-linejoin:miter;"/>
    </defs>
    <g clip-path="url(#pb31b9e2d8b)">
     <use style="fill:#4c4c4c;stroke:#4c4c4c;stroke-linejoin:miter;" x="206.571429" xlink:href="#m03d2eb0fab" y="240.75"/>
    </g>
   </g>
   <g id="line2d_19">
    <path clip-path="url(#pb31b9e2d8b)" d="M 491.110004 376.65 
L 468.988591 376.65 
" style="fill:none;stroke:#4c4c4c;stroke-linecap:square;stroke-width:1.5;"/>
   </g>
   <g id="line2d_20">
    <path clip-path="url(#pb31b9e2d8b)" d="M 513.629847 376.65 
L 536.21333 376.65 
" style="fill:none;stroke:#4c4c4c;stroke-linecap:square;stroke-width:1.5;"/>
   </g>
   <g id="line2d_21">
    <path clip-path="url(#pb31b9e2d8b)" d="M 468.988591 349.47 
L 468.988591 403.83 
" style="fill:none;stroke:#4c4c4c;stroke-linecap:square;stroke-width:1.5;"/>
   </g>
   <g id="line2d_22">
    <path clip-path="url(#pb31b9e2d8b)" d="M 536.21333 349.47 
L 536.21333 403.83 
" style="fill:none;stroke:#4c4c4c;stroke-linecap:square;stroke-width:1.5;"/>
   </g>
   <g id="line2d_23">
    <g clip-path="url(#pb31b9e2d8b)">
     <use style="fill:#4c4c4c;stroke:#4c4c4c;stroke-linejoin:miter;" x="551.622483" xlink:href="#m03d2eb0fab" y="376.65"/>
    </g>
   </g>
   <g id="line2d_24">
    <path clip-path="url(#pb31b9e2d8b)" d="M 921.227974 512.55 
L 905.981162 512.55 
" style="fill:none;stroke:#4c4c4c;stroke-linecap:square;stroke-width:1.5;"/>
   </g>
   <g id="line2d_25">
    <path clip-path="url(#pb31b9e2d8b)" d="M 943.985533 512.55 
L 959.091882 512.55 
" style="fill:none;stroke:#4c4c4c;stroke-linecap:square;stroke-width:1.5;"/>
   </g>
   <g id="line2d_26">
    <path clip-path="url(#pb31b9e2d8b)" d="M 905.981162 485.37 
L 905.981162 539.73 
" style="fill:none;stroke:#4c4c4c;stroke-linecap:square;stroke-width:1.5;"/>
   </g>
   <g id="line2d_27">
    <path clip-path="url(#pb31b9e2d8b)" d="M 959.091882 485.37 
L 959.091882 539.73 
" style="fill:none;stroke:#4c4c4c;stroke-linecap:square;stroke-width:1.5;"/>
   </g>
   <g id="line2d_28">
    <g clip-path="url(#pb31b9e2d8b)">
     <use style="fill:#4c4c4c;stroke:#4c4c4c;stroke-linejoin:miter;" x="979.863839" xlink:href="#m03d2eb0fab" y="512.55"/>
    </g>
   </g>
   <g id="line2d_29">
    <path clip-path="url(#pb31b9e2d8b)" d="M 912.105538 648.45 
L 899.172769 648.45 
" style="fill:none;stroke:#4c4c4c;stroke-linecap:square;stroke-width:1.5;"/>
   </g>
   <g id="line2d_30">
    <path clip-path="url(#pb31b9e2d8b)" d="M 933.273556 648.45 
L 952.035612 648.45 
" style="fill:none;stroke:#4c4c4c;stroke-linecap:square;stroke-width:1.5;"/>
   </g>
   <g id="line2d_31">
    <path clip-path="url(#pb31b9e2d8b)" d="M 899.172769 621.27 
L 899.172769 675.63 
" style="fill:none;stroke:#4c4c4c;stroke-linecap:square;stroke-width:1.5;"/>
   </g>
   <g id="line2d_32">
    <path clip-path="url(#pb31b9e2d8b)" d="M 952.035612 621.27 
L 952.035612 675.63 
" style="fill:none;stroke:#4c4c4c;stroke-linecap:square;stroke-width:1.5;"/>
   </g>
   <g id="line2d_33"/>
   <g id="line2d_34">
    <path clip-path="url(#pb31b9e2d8b)" d="M 831.400228 784.35 
L 808.540477 784.35 
" style="fill:none;stroke:#4c4c4c;stroke-linecap:square;stroke-width:1.5;"/>
   </g>
   <g id="line2d_35">
    <path clip-path="url(#pb31b9e2d8b)" d="M 848.989816 784.35 
L 871.59846 784.35 
" style="fill:none;stroke:#4c4c4c;stroke-linecap:square;stroke-width:1.5;"/>
   </g>
   <g id="line2d_36">
    <path clip-path="url(#pb31b9e2d8b)" d="M 808.540477 757.17 
L 808.540477 811.53 
" style="fill:none;stroke:#4c4c4c;stroke-linecap:square;stroke-width:1.5;"/>
   </g>
   <g id="line2d_37">
    <path clip-path="url(#pb31b9e2d8b)" d="M 871.59846 757.17 
L 871.59846 811.53 
" style="fill:none;stroke:#4c4c4c;stroke-linecap:square;stroke-width:1.5;"/>
   </g>
   <g id="line2d_38"/>
   <g id="line2d_39">
    <path clip-path="url(#pb31b9e2d8b)" d="M 649.386705 920.25 
L 623.917115 920.25 
" style="fill:none;stroke:#4c4c4c;stroke-linecap:square;stroke-width:1.5;"/>
   </g>
   <g id="line2d_40">
    <path clip-path="url(#pb31b9e2d8b)" d="M 666.393034 920.25 
L 691.092852 920.25 
" style="fill:none;stroke:#4c4c4c;stroke-linecap:square;stroke-width:1.5;"/>
   </g>
   <g id="line2d_41">
    <path clip-path="url(#pb31b9e2d8b)" d="M 623.917115 893.07 
L 623.917115 947.43 
" style="fill:none;stroke:#4c4c4c;stroke-linecap:square;stroke-width:1.5;"/>
   </g>
   <g id="line2d_42">
    <path clip-path="url(#pb31b9e2d8b)" d="M 691.092852 893.07 
L 691.092852 947.43 
" style="fill:none;stroke:#4c4c4c;stroke-linecap:square;stroke-width:1.5;"/>
   </g>
   <g id="line2d_43"/>
   <g id="line2d_44">
    <path clip-path="url(#pb31b9e2d8b)" d="M 655.229549 1056.15 
L 643.727147 1056.15 
" style="fill:none;stroke:#4c4c4c;stroke-linecap:square;stroke-width:1.5;"/>
   </g>
   <g id="line2d_45">
    <path clip-path="url(#pb31b9e2d8b)" d="M 668.98986 1056.15 
L 682.835109 1056.15 
" style="fill:none;stroke:#4c4c4c;stroke-linecap:square;stroke-width:1.5;"/>
   </g>
   <g id="line2d_46">
    <path clip-path="url(#pb31b9e2d8b)" d="M 643.727147 1028.97 
L 643.727147 1083.33 
" style="fill:none;stroke:#4c4c4c;stroke-linecap:square;stroke-width:1.5;"/>
   </g>
   <g id="line2d_47">
    <path clip-path="url(#pb31b9e2d8b)" d="M 682.835109 1028.97 
L 682.835109 1083.33 
" style="fill:none;stroke:#4c4c4c;stroke-linecap:square;stroke-width:1.5;"/>
   </g>
   <g id="line2d_48">
    <g clip-path="url(#pb31b9e2d8b)">
     <use style="fill:#4c4c4c;stroke:#4c4c4c;stroke-linejoin:miter;" x="631.875735" xlink:href="#m03d2eb0fab" y="1056.15"/>
     <use style="fill:#4c4c4c;stroke:#4c4c4c;stroke-linejoin:miter;" x="691.208" xlink:href="#m03d2eb0fab" y="1056.15"/>
    </g>
   </g>
   <g id="line2d_49">
    <path clip-path="url(#pb31b9e2d8b)" d="M 738 1192.05 
L 738 1192.05 
" style="fill:none;stroke:#4c4c4c;stroke-linecap:square;stroke-width:1.5;"/>
   </g>
   <g id="line2d_50">
    <path clip-path="url(#pb31b9e2d8b)" d="M 738 1192.05 
L 738 1192.05 
" style="fill:none;stroke:#4c4c4c;stroke-linecap:square;stroke-width:1.5;"/>
   </g>
   <g id="line2d_51">
    <path clip-path="url(#pb31b9e2d8b)" d="M 738 1164.87 
L 738 1219.23 
" style="fill:none;stroke:#4c4c4c;stroke-linecap:square;stroke-width:1.5;"/>
   </g>
   <g id="line2d_52">
    <path clip-path="url(#pb31b9e2d8b)" d="M 738 1164.87 
L 738 1219.23 
" style="fill:none;stroke:#4c4c4c;stroke-linecap:square;stroke-width:1.5;"/>
   </g>
   <g id="line2d_53"/>
   <g id="line2d_54">
    <path clip-path="url(#pb31b9e2d8b)" d="M 738 1260 
L 738 172.8 
" style="fill:none;stroke:#ff0000;stroke-linecap:square;stroke-width:1.5;"/>
   </g>
   <g id="line2d_55">
    <path clip-path="url(#pb31b9e2d8b)" d="M 256.306846 186.39 
L 256.306846 295.11 
" style="fill:none;stroke:#4c4c4c;stroke-linecap:square;stroke-width:1.5;"/>
   </g>
   <g id="line2d_56">
    <path clip-path="url(#pb31b9e2d8b)" d="M 506.438645 322.29 
L 506.438645 431.01 
" style="fill:none;stroke:#4c4c4c;stroke-linecap:square;stroke-width:1.5;"/>
   </g>
   <g id="line2d_57">
    <path clip-path="url(#pb31b9e2d8b)" d="M 930.308237 458.19 
L 930.308237 566.91 
" style="fill:none;stroke:#4c4c4c;stroke-linecap:square;stroke-width:1.5;"/>
   </g>
   <g id="line2d_58">
    <path clip-path="url(#pb31b9e2d8b)" d="M 925.48041 594.09 
L 925.48041 702.81 
" style="fill:none;stroke:#4c4c4c;stroke-linecap:square;stroke-width:1.5;"/>
   </g>
   <g id="line2d_59">
    <path clip-path="url(#pb31b9e2d8b)" d="M 836.342531 729.99 
L 836.342531 838.71 
" style="fill:none;stroke:#4c4c4c;stroke-linecap:square;stroke-width:1.5;"/>
   </g>
   <g id="line2d_60">
    <path clip-path="url(#pb31b9e2d8b)" d="M 656.153607 865.89 
L 656.153607 974.61 
" style="fill:none;stroke:#4c4c4c;stroke-linecap:square;stroke-width:1.5;"/>
   </g>
   <g id="line2d_61">
    <path clip-path="url(#pb31b9e2d8b)" d="M 662.409643 1001.79 
L 662.409643 1110.51 
" style="fill:none;stroke:#4c4c4c;stroke-linecap:square;stroke-width:1.5;"/>
   </g>
   <g id="line2d_62">
    <path clip-path="url(#pb31b9e2d8b)" d="M 738 1137.69 
L 738 1246.41 
" style="fill:none;stroke:#4c4c4c;stroke-linecap:square;stroke-width:1.5;"/>
   </g>
   <g id="patch_11">
    <path d="M 180 1260 
L 180 172.8 
" style="fill:none;stroke:#000000;stroke-linecap:square;stroke-linejoin:miter;stroke-width:0.8;"/>
   </g>
   <g id="patch_12">
    <path d="M 1296 1260 
L 1296 172.8 
" style="fill:none;stroke:#000000;stroke-linecap:square;stroke-linejoin:miter;stroke-width:0.8;"/>
   </g>
   <g id="patch_13">
    <path d="M 180 1260 
L 1296 1260 
" style="fill:none;stroke:#000000;stroke-linecap:square;stroke-linejoin:miter;stroke-width:0.8;"/>
   </g>
   <g id="patch_14">
    <path d="M 180 172.8 
L 1296 172.8 
" style="fill:none;stroke:#000000;stroke-linecap:square;stroke-linejoin:miter;stroke-width:0.8;"/>
   </g>
   <g id="PathCollection_1">
    <defs>
     <path d="M 0 2.5 
C 0.663008 2.5 1.29895 2.236584 1.767767 1.767767 
C 2.236584 1.29895 2.5 0.663008 2.5 -0 
C 2.5 -0.663008 2.236584 -1.29895 1.767767 -1.767767 
C 1.29895 -2.236584 0.663008 -2.5 0 -2.5 
C -0.663008 -2.5 -1.29895 -2.236584 -1.767767 -1.767767 
C -2.236584 -1.29895 -2.5 -0.663008 -2.5 0 
C -2.5 0.663008 -2.236584 1.29895 -1.767767 1.767767 
C -1.29895 2.236584 -0.663008 2.5 0 2.5 
z
" id="C0_0_33dac73e93"/>
    </defs>
    <g clip-path="url(#pb31b9e2d8b)">
     <use style="fill-opacity:0.5;" x="267.643852" xlink:href="#C0_0_33dac73e93" y="249.625658"/>
    </g>
    <g clip-path="url(#pb31b9e2d8b)">
     <use style="fill-opacity:0.5;" x="266.379336" xlink:href="#C0_0_33dac73e93" y="248.930655"/>
    </g>
    <g clip-path="url(#pb31b9e2d8b)">
     <use style="fill-opacity:0.5;" x="225.502974" xlink:href="#C0_0_33dac73e93" y="229.999074"/>
    </g>
    <g clip-path="url(#pb31b9e2d8b)">
     <use style="fill-opacity:0.5;" x="293.954335" xlink:href="#C0_0_33dac73e93" y="242.838984"/>
    </g>
    <g clip-path="url(#pb31b9e2d8b)">
     <use style="fill-opacity:0.5;" x="227.181898" xlink:href="#C0_0_33dac73e93" y="239.771023"/>
    </g>
    <g clip-path="url(#pb31b9e2d8b)">
     <use style="fill-opacity:0.5;" x="221.835059" xlink:href="#C0_0_33dac73e93" y="230.386513"/>
    </g>
    <g clip-path="url(#pb31b9e2d8b)">
     <use style="fill-opacity:0.5;" x="256.306846" xlink:href="#C0_0_33dac73e93" y="253.811844"/>
    </g>
    <g clip-path="url(#pb31b9e2d8b)">
     <use style="fill-opacity:0.5;" x="268.970194" xlink:href="#C0_0_33dac73e93" y="232.995434"/>
    </g>
    <g clip-path="url(#pb31b9e2d8b)">
     <use style="fill-opacity:0.5;" x="280.554447" xlink:href="#C0_0_33dac73e93" y="228.987425"/>
    </g>
    <g clip-path="url(#pb31b9e2d8b)">
     <use style="fill-opacity:0.5;" x="251.090613" xlink:href="#C0_0_33dac73e93" y="243.327952"/>
    </g>
    <g clip-path="url(#pb31b9e2d8b)">
     <use style="fill-opacity:0.5;" x="247.998545" xlink:href="#C0_0_33dac73e93" y="247.242396"/>
    </g>
    <g clip-path="url(#pb31b9e2d8b)">
     <use style="fill-opacity:0.5;" x="260.066817" xlink:href="#C0_0_33dac73e93" y="228.041813"/>
    </g>
    <g clip-path="url(#pb31b9e2d8b)">
     <use style="fill-opacity:0.5;" x="254.19597" xlink:href="#C0_0_33dac73e93" y="245.063945"/>
    </g>
    <g clip-path="url(#pb31b9e2d8b)">
     <use style="fill-opacity:0.5;" x="242.603394" xlink:href="#C0_0_33dac73e93" y="241.627693"/>
    </g>
    <g clip-path="url(#pb31b9e2d8b)">
     <use style="fill-opacity:0.5;" x="272.770617" xlink:href="#C0_0_33dac73e93" y="229.966743"/>
    </g>
    <g clip-path="url(#pb31b9e2d8b)">
     <use style="fill-opacity:0.5;" x="273.115652" xlink:href="#C0_0_33dac73e93" y="231.849199"/>
    </g>
    <g clip-path="url(#pb31b9e2d8b)">
     <use style="fill-opacity:0.5;" x="250.689723" xlink:href="#C0_0_33dac73e93" y="242.597541"/>
    </g>
    <g clip-path="url(#pb31b9e2d8b)">
     <use style="fill-opacity:0.5;" x="232.30843" xlink:href="#C0_0_33dac73e93" y="235.215"/>
    </g>
    <g clip-path="url(#pb31b9e2d8b)">
     <use style="fill-opacity:0.5;" x="256.98332" xlink:href="#C0_0_33dac73e93" y="252.663422"/>
    </g>
    <g clip-path="url(#pb31b9e2d8b)">
     <use style="fill-opacity:0.5;" x="268.178892" xlink:href="#C0_0_33dac73e93" y="249.413359"/>
    </g>
    <g clip-path="url(#pb31b9e2d8b)">
     <use style="fill-opacity:0.5;" x="250.478624" xlink:href="#C0_0_33dac73e93" y="253.893357"/>
    </g>
    <g clip-path="url(#pb31b9e2d8b)">
     <use style="fill-opacity:0.5;" x="298.724238" xlink:href="#C0_0_33dac73e93" y="234.217853"/>
    </g>
    <g clip-path="url(#pb31b9e2d8b)">
     <use style="fill-opacity:0.5;" x="206.571429" xlink:href="#C0_0_33dac73e93" y="253.517088"/>
    </g>
    <g clip-path="url(#pb31b9e2d8b)">
     <use style="fill-opacity:0.5;" x="277.229459" xlink:href="#C0_0_33dac73e93" y="238.880937"/>
    </g>
    <g clip-path="url(#pb31b9e2d8b)">
     <use style="fill-opacity:0.5;" x="250.657318" xlink:href="#C0_0_33dac73e93" y="236.605561"/>
    </g>
   </g>
   <g id="PathCollection_2">
    <defs>
     <path d="M 0 2.5 
C 0.663008 2.5 1.29895 2.236584 1.767767 1.767767 
C 2.236584 1.29895 2.5 0.663008 2.5 -0 
C 2.5 -0.663008 2.236584 -1.29895 1.767767 -1.767767 
C 1.29895 -2.236584 0.663008 -2.5 0 -2.5 
C -0.663008 -2.5 -1.29895 -2.236584 -1.767767 -1.767767 
C -2.236584 -1.29895 -2.5 -0.663008 -2.5 0 
C -2.5 0.663008 -2.236584 1.29895 -1.767767 1.767767 
C -1.29895 2.236584 -0.663008 2.5 0 2.5 
z
" id="C1_0_2e2c32deab"/>
    </defs>
    <g clip-path="url(#pb31b9e2d8b)">
     <use style="fill-opacity:0.5;" x="484.497291" xlink:href="#C1_0_2e2c32deab" y="364.4285"/>
    </g>
    <g clip-path="url(#pb31b9e2d8b)">
     <use style="fill-opacity:0.5;" x="507.860398" xlink:href="#C1_0_2e2c32deab" y="364.49416"/>
    </g>
    <g clip-path="url(#pb31b9e2d8b)">
     <use style="fill-opacity:0.5;" x="551.622483" xlink:href="#C1_0_2e2c32deab" y="381.868866"/>
    </g>
    <g clip-path="url(#pb31b9e2d8b)">
     <use style="fill-opacity:0.5;" x="475.449384" xlink:href="#C1_0_2e2c32deab" y="375.50651"/>
    </g>
    <g clip-path="url(#pb31b9e2d8b)">
     <use style="fill-opacity:0.5;" x="491.711466" xlink:href="#C1_0_2e2c32deab" y="369.216858"/>
    </g>
    <g clip-path="url(#pb31b9e2d8b)">
     <use style="fill-opacity:0.5;" x="514.679973" xlink:href="#C1_0_2e2c32deab" y="379.747713"/>
    </g>
    <g clip-path="url(#pb31b9e2d8b)">
     <use style="fill-opacity:0.5;" x="468.988591" xlink:href="#C1_0_2e2c32deab" y="369.932684"/>
    </g>
    <g clip-path="url(#pb31b9e2d8b)">
     <use style="fill-opacity:0.5;" x="509.233795" xlink:href="#C1_0_2e2c32deab" y="378.760031"/>
    </g>
    <g clip-path="url(#pb31b9e2d8b)">
     <use style="fill-opacity:0.5;" x="498.950299" xlink:href="#C1_0_2e2c32deab" y="372.823294"/>
    </g>
    <g clip-path="url(#pb31b9e2d8b)">
     <use style="fill-opacity:0.5;" x="523.617751" xlink:href="#C1_0_2e2c32deab" y="385.44415"/>
    </g>
    <g clip-path="url(#pb31b9e2d8b)">
     <use style="fill-opacity:0.5;" x="491.110004" xlink:href="#C1_0_2e2c32deab" y="385.366522"/>
    </g>
    <g clip-path="url(#pb31b9e2d8b)">
     <use style="fill-opacity:0.5;" x="536.21333" xlink:href="#C1_0_2e2c32deab" y="376.034384"/>
    </g>
    <g clip-path="url(#pb31b9e2d8b)">
     <use style="fill-opacity:0.5;" x="479.037986" xlink:href="#C1_0_2e2c32deab" y="372.595263"/>
    </g>
    <g clip-path="url(#pb31b9e2d8b)">
     <use style="fill-opacity:0.5;" x="491.655379" xlink:href="#C1_0_2e2c32deab" y="372.914375"/>
    </g>
    <g clip-path="url(#pb31b9e2d8b)">
     <use style="fill-opacity:0.5;" x="516.261203" xlink:href="#C1_0_2e2c32deab" y="384.959321"/>
    </g>
    <g clip-path="url(#pb31b9e2d8b)">
     <use style="fill-opacity:0.5;" x="517.482817" xlink:href="#C1_0_2e2c32deab" y="371.979918"/>
    </g>
    <g clip-path="url(#pb31b9e2d8b)">
     <use style="fill-opacity:0.5;" x="506.438645" xlink:href="#C1_0_2e2c32deab" y="368.742234"/>
    </g>
    <g clip-path="url(#pb31b9e2d8b)">
     <use style="fill-opacity:0.5;" x="475.417831" xlink:href="#C1_0_2e2c32deab" y="365.361829"/>
    </g>
    <g clip-path="url(#pb31b9e2d8b)">
     <use style="fill-opacity:0.5;" x="513.301582" xlink:href="#C1_0_2e2c32deab" y="375.744719"/>
    </g>
    <g clip-path="url(#pb31b9e2d8b)">
     <use style="fill-opacity:0.5;" x="500.734207" xlink:href="#C1_0_2e2c32deab" y="376.16435"/>
    </g>
    <g clip-path="url(#pb31b9e2d8b)">
     <use style="fill-opacity:0.5;" x="495.727856" xlink:href="#C1_0_2e2c32deab" y="385.915899"/>
    </g>
    <g clip-path="url(#pb31b9e2d8b)">
     <use style="fill-opacity:0.5;" x="513.629847" xlink:href="#C1_0_2e2c32deab" y="369.073268"/>
    </g>
    <g clip-path="url(#pb31b9e2d8b)">
     <use style="fill-opacity:0.5;" x="481.559532" xlink:href="#C1_0_2e2c32deab" y="373.415343"/>
    </g>
    <g clip-path="url(#pb31b9e2d8b)">
     <use style="fill-opacity:0.5;" x="510.873986" xlink:href="#C1_0_2e2c32deab" y="385.032468"/>
    </g>
    <g clip-path="url(#pb31b9e2d8b)">
     <use style="fill-opacity:0.5;" x="512.112499" xlink:href="#C1_0_2e2c32deab" y="385.44609"/>
    </g>
   </g>
   <g id="PathCollection_3">
    <defs>
     <path d="M 0 2.5 
C 0.663008 2.5 1.29895 2.236584 1.767767 1.767767 
C 2.236584 1.29895 2.5 0.663008 2.5 -0 
C 2.5 -0.663008 2.236584 -1.29895 1.767767 -1.767767 
C 1.29895 -2.236584 0.663008 -2.5 0 -2.5 
C -0.663008 -2.5 -1.29895 -2.236584 -1.767767 -1.767767 
C -2.236584 -1.29895 -2.5 -0.663008 -2.5 0 
C -2.5 0.663008 -2.236584 1.29895 -1.767767 1.767767 
C -1.29895 2.236584 -0.663008 2.5 0 2.5 
z
" id="C2_0_2d272259e4"/>
    </defs>
    <g clip-path="url(#pb31b9e2d8b)">
     <use style="fill-opacity:0.5;" x="944.198942" xlink:href="#C2_0_2d272259e4" y="509.413729"/>
    </g>
    <g clip-path="url(#pb31b9e2d8b)">
     <use style="fill-opacity:0.5;" x="954.581142" xlink:href="#C2_0_2d272259e4" y="511.438991"/>
    </g>
    <g clip-path="url(#pb31b9e2d8b)">
     <use style="fill-opacity:0.5;" x="919.737482" xlink:href="#C2_0_2d272259e4" y="507.203311"/>
    </g>
    <g clip-path="url(#pb31b9e2d8b)">
     <use style="fill-opacity:0.5;" x="931.930066" xlink:href="#C2_0_2d272259e4" y="524.306842"/>
    </g>
    <g clip-path="url(#pb31b9e2d8b)">
     <use style="fill-opacity:0.5;" x="911.567758" xlink:href="#C2_0_2d272259e4" y="502.184738"/>
    </g>
    <g clip-path="url(#pb31b9e2d8b)">
     <use style="fill-opacity:0.5;" x="943.985533" xlink:href="#C2_0_2d272259e4" y="524.339309"/>
    </g>
    <g clip-path="url(#pb31b9e2d8b)">
     <use style="fill-opacity:0.5;" x="931.08307" xlink:href="#C2_0_2d272259e4" y="517.54749"/>
    </g>
    <g clip-path="url(#pb31b9e2d8b)">
     <use style="fill-opacity:0.5;" x="937.484571" xlink:href="#C2_0_2d272259e4" y="513.408131"/>
    </g>
    <g clip-path="url(#pb31b9e2d8b)">
     <use style="fill-opacity:0.5;" x="927.312805" xlink:href="#C2_0_2d272259e4" y="499.847673"/>
    </g>
    <g clip-path="url(#pb31b9e2d8b)">
     <use style="fill-opacity:0.5;" x="923.685858" xlink:href="#C2_0_2d272259e4" y="511.886704"/>
    </g>
    <g clip-path="url(#pb31b9e2d8b)">
     <use style="fill-opacity:0.5;" x="913.191833" xlink:href="#C2_0_2d272259e4" y="510.042593"/>
    </g>
    <g clip-path="url(#pb31b9e2d8b)">
     <use style="fill-opacity:0.5;" x="959.091882" xlink:href="#C2_0_2d272259e4" y="503.341927"/>
    </g>
    <g clip-path="url(#pb31b9e2d8b)">
     <use style="fill-opacity:0.5;" x="939.508166" xlink:href="#C2_0_2d272259e4" y="516.801213"/>
    </g>
    <g clip-path="url(#pb31b9e2d8b)">
     <use style="fill-opacity:0.5;" x="923.163529" xlink:href="#C2_0_2d272259e4" y="525.355882"/>
    </g>
    <g clip-path="url(#pb31b9e2d8b)">
     <use style="fill-opacity:0.5;" x="929.960606" xlink:href="#C2_0_2d272259e4" y="514.240292"/>
    </g>
    <g clip-path="url(#pb31b9e2d8b)">
     <use style="fill-opacity:0.5;" x="957.320349" xlink:href="#C2_0_2d272259e4" y="518.386994"/>
    </g>
    <g clip-path="url(#pb31b9e2d8b)">
     <use style="fill-opacity:0.5;" x="911.221627" xlink:href="#C2_0_2d272259e4" y="500.820483"/>
    </g>
    <g clip-path="url(#pb31b9e2d8b)">
     <use style="fill-opacity:0.5;" x="921.227974" xlink:href="#C2_0_2d272259e4" y="510.312189"/>
    </g>
    <g clip-path="url(#pb31b9e2d8b)">
     <use style="fill-opacity:0.5;" x="928.25899" xlink:href="#C2_0_2d272259e4" y="502.122624"/>
    </g>
    <g clip-path="url(#pb31b9e2d8b)">
     <use style="fill-opacity:0.5;" x="948.058147" xlink:href="#C2_0_2d272259e4" y="515.615791"/>
    </g>
    <g clip-path="url(#pb31b9e2d8b)">
     <use style="fill-opacity:0.5;" x="915.962319" xlink:href="#C2_0_2d272259e4" y="524.467945"/>
    </g>
    <g clip-path="url(#pb31b9e2d8b)">
     <use style="fill-opacity:0.5;" x="979.863839" xlink:href="#C2_0_2d272259e4" y="516.947119"/>
    </g>
    <g clip-path="url(#pb31b9e2d8b)">
     <use style="fill-opacity:0.5;" x="905.981162" xlink:href="#C2_0_2d272259e4" y="501.047507"/>
    </g>
    <g clip-path="url(#pb31b9e2d8b)">
     <use style="fill-opacity:0.5;" x="938.982587" xlink:href="#C2_0_2d272259e4" y="508.599827"/>
    </g>
    <g clip-path="url(#pb31b9e2d8b)">
     <use style="fill-opacity:0.5;" x="930.308237" xlink:href="#C2_0_2d272259e4" y="513.927031"/>
    </g>
   </g>
   <g id="PathCollection_4">
    <defs>
     <path d="M 0 2.5 
C 0.663008 2.5 1.29895 2.236584 1.767767 1.767767 
C 2.236584 1.29895 2.5 0.663008 2.5 -0 
C 2.5 -0.663008 2.236584 -1.29895 1.767767 -1.767767 
C 1.29895 -2.236584 0.663008 -2.5 0 -2.5 
C -0.663008 -2.5 -1.29895 -2.236584 -1.767767 -1.767767 
C -2.236584 -1.29895 -2.5 -0.663008 -2.5 0 
C -2.5 0.663008 -2.236584 1.29895 -1.767767 1.767767 
C -1.29895 2.236584 -0.663008 2.5 0 2.5 
z
" id="C3_0_53d423e79b"/>
    </defs>
    <g clip-path="url(#pb31b9e2d8b)">
     <use style="fill-opacity:0.5;" x="912.105538" xlink:href="#C3_0_53d423e79b" y="645.819187"/>
    </g>
    <g clip-path="url(#pb31b9e2d8b)">
     <use style="fill-opacity:0.5;" x="929.406047" xlink:href="#C3_0_53d423e79b" y="657.518444"/>
    </g>
    <g clip-path="url(#pb31b9e2d8b)">
     <use style="fill-opacity:0.5;" x="942.012668" xlink:href="#C3_0_53d423e79b" y="657.002758"/>
    </g>
    <g clip-path="url(#pb31b9e2d8b)">
     <use style="fill-opacity:0.5;" x="924.443816" xlink:href="#C3_0_53d423e79b" y="651.489567"/>
    </g>
    <g clip-path="url(#pb31b9e2d8b)">
     <use style="fill-opacity:0.5;" x="911.231103" xlink:href="#C3_0_53d423e79b" y="645.010587"/>
    </g>
    <g clip-path="url(#pb31b9e2d8b)">
     <use style="fill-opacity:0.5;" x="899.172769" xlink:href="#C3_0_53d423e79b" y="641.800043"/>
    </g>
    <g clip-path="url(#pb31b9e2d8b)">
     <use style="fill-opacity:0.5;" x="915.967865" xlink:href="#C3_0_53d423e79b" y="637.737664"/>
    </g>
    <g clip-path="url(#pb31b9e2d8b)">
     <use style="fill-opacity:0.5;" x="952.035612" xlink:href="#C3_0_53d423e79b" y="644.506119"/>
    </g>
    <g clip-path="url(#pb31b9e2d8b)">
     <use style="fill-opacity:0.5;" x="920.784111" xlink:href="#C3_0_53d423e79b" y="646.090029"/>
    </g>
    <g clip-path="url(#pb31b9e2d8b)">
     <use style="fill-opacity:0.5;" x="933.273556" xlink:href="#C3_0_53d423e79b" y="653.228867"/>
    </g>
    <g clip-path="url(#pb31b9e2d8b)">
     <use style="fill-opacity:0.5;" x="908.498044" xlink:href="#C3_0_53d423e79b" y="652.748784"/>
    </g>
    <g clip-path="url(#pb31b9e2d8b)">
     <use style="fill-opacity:0.5;" x="938.566155" xlink:href="#C3_0_53d423e79b" y="636.765539"/>
    </g>
    <g clip-path="url(#pb31b9e2d8b)">
     <use style="fill-opacity:0.5;" x="931.100749" xlink:href="#C3_0_53d423e79b" y="645.603148"/>
    </g>
    <g clip-path="url(#pb31b9e2d8b)">
     <use style="fill-opacity:0.5;" x="918.069166" xlink:href="#C3_0_53d423e79b" y="639.80075"/>
    </g>
    <g clip-path="url(#pb31b9e2d8b)">
     <use style="fill-opacity:0.5;" x="925.48041" xlink:href="#C3_0_53d423e79b" y="639.122169"/>
    </g>
    <g clip-path="url(#pb31b9e2d8b)">
     <use style="fill-opacity:0.5;" x="927.186337" xlink:href="#C3_0_53d423e79b" y="657.346072"/>
    </g>
    <g clip-path="url(#pb31b9e2d8b)">
     <use style="fill-opacity:0.5;" x="938.207368" xlink:href="#C3_0_53d423e79b" y="635.999256"/>
    </g>
    <g clip-path="url(#pb31b9e2d8b)">
     <use style="fill-opacity:0.5;" x="914.853728" xlink:href="#C3_0_53d423e79b" y="646.253391"/>
    </g>
    <g clip-path="url(#pb31b9e2d8b)">
     <use style="fill-opacity:0.5;" x="931.350137" xlink:href="#C3_0_53d423e79b" y="639.431775"/>
    </g>
    <g clip-path="url(#pb31b9e2d8b)">
     <use style="fill-opacity:0.5;" x="909.310225" xlink:href="#C3_0_53d423e79b" y="658.760195"/>
    </g>
    <g clip-path="url(#pb31b9e2d8b)">
     <use style="fill-opacity:0.5;" x="902.299134" xlink:href="#C3_0_53d423e79b" y="650.000361"/>
    </g>
    <g clip-path="url(#pb31b9e2d8b)">
     <use style="fill-opacity:0.5;" x="935.263521" xlink:href="#C3_0_53d423e79b" y="641.148926"/>
    </g>
    <g clip-path="url(#pb31b9e2d8b)">
     <use style="fill-opacity:0.5;" x="908.537234" xlink:href="#C3_0_53d423e79b" y="648.515974"/>
    </g>
    <g clip-path="url(#pb31b9e2d8b)">
     <use style="fill-opacity:0.5;" x="930.765523" xlink:href="#C3_0_53d423e79b" y="654.741799"/>
    </g>
    <g clip-path="url(#pb31b9e2d8b)">
     <use style="fill-opacity:0.5;" x="944.333902" xlink:href="#C3_0_53d423e79b" y="660.901647"/>
    </g>
   </g>
   <g id="PathCollection_5">
    <defs>
     <path d="M 0 2.5 
C 0.663008 2.5 1.29895 2.236584 1.767767 1.767767 
C 2.236584 1.29895 2.5 0.663008 2.5 -0 
C 2.5 -0.663008 2.236584 -1.29895 1.767767 -1.767767 
C 1.29895 -2.236584 0.663008 -2.5 0 -2.5 
C -0.663008 -2.5 -1.29895 -2.236584 -1.767767 -1.767767 
C -2.236584 -1.29895 -2.5 -0.663008 -2.5 0 
C -2.5 0.663008 -2.236584 1.29895 -1.767767 1.767767 
C -1.29895 2.236584 -0.663008 2.5 0 2.5 
z
" id="C4_0_52be027d2b"/>
    </defs>
    <g clip-path="url(#pb31b9e2d8b)">
     <use style="fill-opacity:0.5;" x="834.368391" xlink:href="#C4_0_52be027d2b" y="776.751722"/>
    </g>
    <g clip-path="url(#pb31b9e2d8b)">
     <use style="fill-opacity:0.5;" x="840.187164" xlink:href="#C4_0_52be027d2b" y="794.846421"/>
    </g>
    <g clip-path="url(#pb31b9e2d8b)">
     <use style="fill-opacity:0.5;" x="835.523118" xlink:href="#C4_0_52be027d2b" y="796.154386"/>
    </g>
    <g clip-path="url(#pb31b9e2d8b)">
     <use style="fill-opacity:0.5;" x="846.467524" xlink:href="#C4_0_52be027d2b" y="795.66831"/>
    </g>
    <g clip-path="url(#pb31b9e2d8b)">
     <use style="fill-opacity:0.5;" x="836.342531" xlink:href="#C4_0_52be027d2b" y="788.030562"/>
    </g>
    <g clip-path="url(#pb31b9e2d8b)">
     <use style="fill-opacity:0.5;" x="831.400228" xlink:href="#C4_0_52be027d2b" y="787.878525"/>
    </g>
    <g clip-path="url(#pb31b9e2d8b)">
     <use style="fill-opacity:0.5;" x="848.989816" xlink:href="#C4_0_52be027d2b" y="781.719265"/>
    </g>
    <g clip-path="url(#pb31b9e2d8b)">
     <use style="fill-opacity:0.5;" x="814.93316" xlink:href="#C4_0_52be027d2b" y="791.210174"/>
    </g>
    <g clip-path="url(#pb31b9e2d8b)">
     <use style="fill-opacity:0.5;" x="851.040192" xlink:href="#C4_0_52be027d2b" y="785.200571"/>
    </g>
    <g clip-path="url(#pb31b9e2d8b)">
     <use style="fill-opacity:0.5;" x="842.310905" xlink:href="#C4_0_52be027d2b" y="789.172767"/>
    </g>
    <g clip-path="url(#pb31b9e2d8b)">
     <use style="fill-opacity:0.5;" x="857.985549" xlink:href="#C4_0_52be027d2b" y="782.405486"/>
    </g>
    <g clip-path="url(#pb31b9e2d8b)">
     <use style="fill-opacity:0.5;" x="814.152791" xlink:href="#C4_0_52be027d2b" y="790.642074"/>
    </g>
    <g clip-path="url(#pb31b9e2d8b)">
     <use style="fill-opacity:0.5;" x="819.784807" xlink:href="#C4_0_52be027d2b" y="793.169136"/>
    </g>
    <g clip-path="url(#pb31b9e2d8b)">
     <use style="fill-opacity:0.5;" x="825.623951" xlink:href="#C4_0_52be027d2b" y="774.740137"/>
    </g>
    <g clip-path="url(#pb31b9e2d8b)">
     <use style="fill-opacity:0.5;" x="871.59846" xlink:href="#C4_0_52be027d2b" y="793.39903"/>
    </g>
    <g clip-path="url(#pb31b9e2d8b)">
     <use style="fill-opacity:0.5;" x="832.424124" xlink:href="#C4_0_52be027d2b" y="785.44526"/>
    </g>
    <g clip-path="url(#pb31b9e2d8b)">
     <use style="fill-opacity:0.5;" x="841.112212" xlink:href="#C4_0_52be027d2b" y="793.718019"/>
    </g>
    <g clip-path="url(#pb31b9e2d8b)">
     <use style="fill-opacity:0.5;" x="833.669191" xlink:href="#C4_0_52be027d2b" y="782.48278"/>
    </g>
    <g clip-path="url(#pb31b9e2d8b)">
     <use style="fill-opacity:0.5;" x="849.449297" xlink:href="#C4_0_52be027d2b" y="781.06232"/>
    </g>
    <g clip-path="url(#pb31b9e2d8b)">
     <use style="fill-opacity:0.5;" x="835.25469" xlink:href="#C4_0_52be027d2b" y="795.631351"/>
    </g>
    <g clip-path="url(#pb31b9e2d8b)">
     <use style="fill-opacity:0.5;" x="863.382729" xlink:href="#C4_0_52be027d2b" y="777.586781"/>
    </g>
    <g clip-path="url(#pb31b9e2d8b)">
     <use style="fill-opacity:0.5;" x="824.073726" xlink:href="#C4_0_52be027d2b" y="793.705691"/>
    </g>
    <g clip-path="url(#pb31b9e2d8b)">
     <use style="fill-opacity:0.5;" x="808.540477" xlink:href="#C4_0_52be027d2b" y="783.915679"/>
    </g>
    <g clip-path="url(#pb31b9e2d8b)">
     <use style="fill-opacity:0.5;" x="855.870429" xlink:href="#C4_0_52be027d2b" y="784.733114"/>
    </g>
    <g clip-path="url(#pb31b9e2d8b)">
     <use style="fill-opacity:0.5;" x="838.258801" xlink:href="#C4_0_52be027d2b" y="779.144168"/>
    </g>
   </g>
   <g id="PathCollection_6">
    <defs>
     <path d="M 0 2.5 
C 0.663008 2.5 1.29895 2.236584 1.767767 1.767767 
C 2.236584 1.29895 2.5 0.663008 2.5 -0 
C 2.5 -0.663008 2.236584 -1.29895 1.767767 -1.767767 
C 1.29895 -2.236584 0.663008 -2.5 0 -2.5 
C -0.663008 -2.5 -1.29895 -2.236584 -1.767767 -1.767767 
C -2.236584 -1.29895 -2.5 -0.663008 -2.5 0 
C -2.5 0.663008 -2.236584 1.29895 -1.767767 1.767767 
C -1.29895 2.236584 -0.663008 2.5 0 2.5 
z
" id="C5_0_4aa9396444"/>
    </defs>
    <g clip-path="url(#pb31b9e2d8b)">
     <use style="fill-opacity:0.5;" x="673.554418" xlink:href="#C5_0_4aa9396444" y="922.235287"/>
    </g>
    <g clip-path="url(#pb31b9e2d8b)">
     <use style="fill-opacity:0.5;" x="676.728283" xlink:href="#C5_0_4aa9396444" y="915.49924"/>
    </g>
    <g clip-path="url(#pb31b9e2d8b)">
     <use style="fill-opacity:0.5;" x="623.917115" xlink:href="#C5_0_4aa9396444" y="907.727343"/>
    </g>
    <g clip-path="url(#pb31b9e2d8b)">
     <use style="fill-opacity:0.5;" x="656.180818" xlink:href="#C5_0_4aa9396444" y="914.052922"/>
    </g>
    <g clip-path="url(#pb31b9e2d8b)">
     <use style="fill-opacity:0.5;" x="655.231167" xlink:href="#C5_0_4aa9396444" y="906.833382"/>
    </g>
    <g clip-path="url(#pb31b9e2d8b)">
     <use style="fill-opacity:0.5;" x="666.393034" xlink:href="#C5_0_4aa9396444" y="933.251683"/>
    </g>
    <g clip-path="url(#pb31b9e2d8b)">
     <use style="fill-opacity:0.5;" x="691.092852" xlink:href="#C5_0_4aa9396444" y="932.909009"/>
    </g>
    <g clip-path="url(#pb31b9e2d8b)">
     <use style="fill-opacity:0.5;" x="640.200231" xlink:href="#C5_0_4aa9396444" y="917.400321"/>
    </g>
    <g clip-path="url(#pb31b9e2d8b)">
     <use style="fill-opacity:0.5;" x="646.411844" xlink:href="#C5_0_4aa9396444" y="926.45712"/>
    </g>
    <g clip-path="url(#pb31b9e2d8b)">
     <use style="fill-opacity:0.5;" x="639.467096" xlink:href="#C5_0_4aa9396444" y="916.05901"/>
    </g>
    <g clip-path="url(#pb31b9e2d8b)">
     <use style="fill-opacity:0.5;" x="649.739976" xlink:href="#C5_0_4aa9396444" y="924.900312"/>
    </g>
    <g clip-path="url(#pb31b9e2d8b)">
     <use style="fill-opacity:0.5;" x="639.589378" xlink:href="#C5_0_4aa9396444" y="928.551589"/>
    </g>
    <g clip-path="url(#pb31b9e2d8b)">
     <use style="fill-opacity:0.5;" x="675.413568" xlink:href="#C5_0_4aa9396444" y="932.392835"/>
    </g>
    <g clip-path="url(#pb31b9e2d8b)">
     <use style="fill-opacity:0.5;" x="656.153607" xlink:href="#C5_0_4aa9396444" y="917.53777"/>
    </g>
    <g clip-path="url(#pb31b9e2d8b)">
     <use style="fill-opacity:0.5;" x="663.474803" xlink:href="#C5_0_4aa9396444" y="927.950039"/>
    </g>
    <g clip-path="url(#pb31b9e2d8b)">
     <use style="fill-opacity:0.5;" x="652.184772" xlink:href="#C5_0_4aa9396444" y="913.887935"/>
    </g>
    <g clip-path="url(#pb31b9e2d8b)">
     <use style="fill-opacity:0.5;" x="639.752882" xlink:href="#C5_0_4aa9396444" y="933.577232"/>
    </g>
    <g clip-path="url(#pb31b9e2d8b)">
     <use style="fill-opacity:0.5;" x="675.771646" xlink:href="#C5_0_4aa9396444" y="907.360418"/>
    </g>
    <g clip-path="url(#pb31b9e2d8b)">
     <use style="fill-opacity:0.5;" x="658.622285" xlink:href="#C5_0_4aa9396444" y="923.063913"/>
    </g>
    <g clip-path="url(#pb31b9e2d8b)">
     <use style="fill-opacity:0.5;" x="659.305541" xlink:href="#C5_0_4aa9396444" y="924.585373"/>
    </g>
    <g clip-path="url(#pb31b9e2d8b)">
     <use style="fill-opacity:0.5;" x="654.231442" xlink:href="#C5_0_4aa9396444" y="925.361078"/>
    </g>
    <g clip-path="url(#pb31b9e2d8b)">
     <use style="fill-opacity:0.5;" x="652.090312" xlink:href="#C5_0_4aa9396444" y="909.932134"/>
    </g>
    <g clip-path="url(#pb31b9e2d8b)">
     <use style="fill-opacity:0.5;" x="649.386705" xlink:href="#C5_0_4aa9396444" y="932.16924"/>
    </g>
    <g clip-path="url(#pb31b9e2d8b)">
     <use style="fill-opacity:0.5;" x="668.241044" xlink:href="#C5_0_4aa9396444" y="911.584562"/>
    </g>
    <g clip-path="url(#pb31b9e2d8b)">
     <use style="fill-opacity:0.5;" x="664.168549" xlink:href="#C5_0_4aa9396444" y="923.586438"/>
    </g>
   </g>
   <g id="PathCollection_7">
    <defs>
     <path d="M 0 2.5 
C 0.663008 2.5 1.29895 2.236584 1.767767 1.767767 
C 2.236584 1.29895 2.5 0.663008 2.5 -0 
C 2.5 -0.663008 2.236584 -1.29895 1.767767 -1.767767 
C 1.29895 -2.236584 0.663008 -2.5 0 -2.5 
C -0.663008 -2.5 -1.29895 -2.236584 -1.767767 -1.767767 
C -2.236584 -1.29895 -2.5 -0.663008 -2.5 0 
C -2.5 0.663008 -2.236584 1.29895 -1.767767 1.767767 
C -1.29895 2.236584 -0.663008 2.5 0 2.5 
z
" id="C6_0_6340d49449"/>
    </defs>
    <g clip-path="url(#pb31b9e2d8b)">
     <use style="fill-opacity:0.5;" x="655.229549" xlink:href="#C6_0_6340d49449" y="1048.612336"/>
    </g>
    <g clip-path="url(#pb31b9e2d8b)">
     <use style="fill-opacity:0.5;" x="671.937318" xlink:href="#C6_0_6340d49449" y="1050.910142"/>
    </g>
    <g clip-path="url(#pb31b9e2d8b)">
     <use style="fill-opacity:0.5;" x="662.409643" xlink:href="#C6_0_6340d49449" y="1057.412743"/>
    </g>
    <g clip-path="url(#pb31b9e2d8b)">
     <use style="fill-opacity:0.5;" x="651.3342" xlink:href="#C6_0_6340d49449" y="1053.899317"/>
    </g>
    <g clip-path="url(#pb31b9e2d8b)">
     <use style="fill-opacity:0.5;" x="669.962429" xlink:href="#C6_0_6340d49449" y="1046.914932"/>
    </g>
    <g clip-path="url(#pb31b9e2d8b)">
     <use style="fill-opacity:0.5;" x="661.027707" xlink:href="#C6_0_6340d49449" y="1047.206051"/>
    </g>
    <g clip-path="url(#pb31b9e2d8b)">
     <use style="fill-opacity:0.5;" x="691.208" xlink:href="#C6_0_6340d49449" y="1053.925175"/>
    </g>
    <g clip-path="url(#pb31b9e2d8b)">
     <use style="fill-opacity:0.5;" x="665.982562" xlink:href="#C6_0_6340d49449" y="1063.142951"/>
    </g>
    <g clip-path="url(#pb31b9e2d8b)">
     <use style="fill-opacity:0.5;" x="631.875735" xlink:href="#C6_0_6340d49449" y="1066.966679"/>
    </g>
    <g clip-path="url(#pb31b9e2d8b)">
     <use style="fill-opacity:0.5;" x="660.230881" xlink:href="#C6_0_6340d49449" y="1044.84659"/>
    </g>
    <g clip-path="url(#pb31b9e2d8b)">
     <use style="fill-opacity:0.5;" x="666.867799" xlink:href="#C6_0_6340d49449" y="1053.244564"/>
    </g>
    <g clip-path="url(#pb31b9e2d8b)">
     <use style="fill-opacity:0.5;" x="656.940509" xlink:href="#C6_0_6340d49449" y="1045.284674"/>
    </g>
    <g clip-path="url(#pb31b9e2d8b)">
     <use style="fill-opacity:0.5;" x="672.824158" xlink:href="#C6_0_6340d49449" y="1043.010984"/>
    </g>
    <g clip-path="url(#pb31b9e2d8b)">
     <use style="fill-opacity:0.5;" x="668.793149" xlink:href="#C6_0_6340d49449" y="1060.545514"/>
    </g>
    <g clip-path="url(#pb31b9e2d8b)">
     <use style="fill-opacity:0.5;" x="648.801943" xlink:href="#C6_0_6340d49449" y="1058.934576"/>
    </g>
    <g clip-path="url(#pb31b9e2d8b)">
     <use style="fill-opacity:0.5;" x="643.727147" xlink:href="#C6_0_6340d49449" y="1046.99086"/>
    </g>
    <g clip-path="url(#pb31b9e2d8b)">
     <use style="fill-opacity:0.5;" x="649.289507" xlink:href="#C6_0_6340d49449" y="1048.915033"/>
    </g>
    <g clip-path="url(#pb31b9e2d8b)">
     <use style="fill-opacity:0.5;" x="682.835109" xlink:href="#C6_0_6340d49449" y="1043.204377"/>
    </g>
    <g clip-path="url(#pb31b9e2d8b)">
     <use style="fill-opacity:0.5;" x="678.637063" xlink:href="#C6_0_6340d49449" y="1065.253865"/>
    </g>
    <g clip-path="url(#pb31b9e2d8b)">
     <use style="fill-opacity:0.5;" x="658.899297" xlink:href="#C6_0_6340d49449" y="1069.05209"/>
    </g>
    <g clip-path="url(#pb31b9e2d8b)">
     <use style="fill-opacity:0.5;" x="652.981064" xlink:href="#C6_0_6340d49449" y="1046.24179"/>
    </g>
    <g clip-path="url(#pb31b9e2d8b)">
     <use style="fill-opacity:0.5;" x="668.98986" xlink:href="#C6_0_6340d49449" y="1048.851496"/>
    </g>
    <g clip-path="url(#pb31b9e2d8b)">
     <use style="fill-opacity:0.5;" x="668.781581" xlink:href="#C6_0_6340d49449" y="1066.163371"/>
    </g>
    <g clip-path="url(#pb31b9e2d8b)">
     <use style="fill-opacity:0.5;" x="656.275706" xlink:href="#C6_0_6340d49449" y="1067.741286"/>
    </g>
    <g clip-path="url(#pb31b9e2d8b)">
     <use style="fill-opacity:0.5;" x="663.551088" xlink:href="#C6_0_6340d49449" y="1053.965472"/>
    </g>
   </g>
   <g id="PathCollection_8">
    <defs>
     <path d="M 0 2.5 
C 0.663008 2.5 1.29895 2.236584 1.767767 1.767767 
C 2.236584 1.29895 2.5 0.663008 2.5 -0 
C 2.5 -0.663008 2.236584 -1.29895 1.767767 -1.767767 
C 1.29895 -2.236584 0.663008 -2.5 0 -2.5 
C -0.663008 -2.5 -1.29895 -2.236584 -1.767767 -1.767767 
C -2.236584 -1.29895 -2.5 -0.663008 -2.5 0 
C -2.5 0.663008 -2.236584 1.29895 -1.767767 1.767767 
C -1.29895 2.236584 -0.663008 2.5 0 2.5 
z
" id="C7_0_7eac432b81"/>
    </defs>
    <g clip-path="url(#pb31b9e2d8b)">
     <use style="fill-opacity:0.5;" x="738" xlink:href="#C7_0_7eac432b81" y="1179.835919"/>
    </g>
    <g clip-path="url(#pb31b9e2d8b)">
     <use style="fill-opacity:0.5;" x="738" xlink:href="#C7_0_7eac432b81" y="1179.53067"/>
    </g>
    <g clip-path="url(#pb31b9e2d8b)">
     <use style="fill-opacity:0.5;" x="738" xlink:href="#C7_0_7eac432b81" y="1194.059957"/>
    </g>
    <g clip-path="url(#pb31b9e2d8b)">
     <use style="fill-opacity:0.5;" x="738" xlink:href="#C7_0_7eac432b81" y="1189.138889"/>
    </g>
    <g clip-path="url(#pb31b9e2d8b)">
     <use style="fill-opacity:0.5;" x="738" xlink:href="#C7_0_7eac432b81" y="1179.238773"/>
    </g>
    <g clip-path="url(#pb31b9e2d8b)">
     <use style="fill-opacity:0.5;" x="738" xlink:href="#C7_0_7eac432b81" y="1194.3128"/>
    </g>
    <g clip-path="url(#pb31b9e2d8b)">
     <use style="fill-opacity:0.5;" x="738" xlink:href="#C7_0_7eac432b81" y="1178.767203"/>
    </g>
    <g clip-path="url(#pb31b9e2d8b)">
     <use style="fill-opacity:0.5;" x="738" xlink:href="#C7_0_7eac432b81" y="1199.86077"/>
    </g>
    <g clip-path="url(#pb31b9e2d8b)">
     <use style="fill-opacity:0.5;" x="738" xlink:href="#C7_0_7eac432b81" y="1186.788844"/>
    </g>
    <g clip-path="url(#pb31b9e2d8b)">
     <use style="fill-opacity:0.5;" x="738" xlink:href="#C7_0_7eac432b81" y="1179.554213"/>
    </g>
    <g clip-path="url(#pb31b9e2d8b)">
     <use style="fill-opacity:0.5;" x="738" xlink:href="#C7_0_7eac432b81" y="1194.451413"/>
    </g>
    <g clip-path="url(#pb31b9e2d8b)">
     <use style="fill-opacity:0.5;" x="738" xlink:href="#C7_0_7eac432b81" y="1189.269062"/>
    </g>
    <g clip-path="url(#pb31b9e2d8b)">
     <use style="fill-opacity:0.5;" x="738" xlink:href="#C7_0_7eac432b81" y="1204.927895"/>
    </g>
    <g clip-path="url(#pb31b9e2d8b)">
     <use style="fill-opacity:0.5;" x="738" xlink:href="#C7_0_7eac432b81" y="1193.25132"/>
    </g>
    <g clip-path="url(#pb31b9e2d8b)">
     <use style="fill-opacity:0.5;" x="738" xlink:href="#C7_0_7eac432b81" y="1185.941001"/>
    </g>
    <g clip-path="url(#pb31b9e2d8b)">
     <use style="fill-opacity:0.5;" x="738" xlink:href="#C7_0_7eac432b81" y="1197.742548"/>
    </g>
    <g clip-path="url(#pb31b9e2d8b)">
     <use style="fill-opacity:0.5;" x="738" xlink:href="#C7_0_7eac432b81" y="1185.839153"/>
    </g>
    <g clip-path="url(#pb31b9e2d8b)">
     <use style="fill-opacity:0.5;" x="738" xlink:href="#C7_0_7eac432b81" y="1203.037333"/>
    </g>
    <g clip-path="url(#pb31b9e2d8b)">
     <use style="fill-opacity:0.5;" x="738" xlink:href="#C7_0_7eac432b81" y="1188.644943"/>
    </g>
    <g clip-path="url(#pb31b9e2d8b)">
     <use style="fill-opacity:0.5;" x="738" xlink:href="#C7_0_7eac432b81" y="1193.405428"/>
    </g>
    <g clip-path="url(#pb31b9e2d8b)">
     <use style="fill-opacity:0.5;" x="738" xlink:href="#C7_0_7eac432b81" y="1179.834577"/>
    </g>
    <g clip-path="url(#pb31b9e2d8b)">
     <use style="fill-opacity:0.5;" x="738" xlink:href="#C7_0_7eac432b81" y="1190.041975"/>
    </g>
    <g clip-path="url(#pb31b9e2d8b)">
     <use style="fill-opacity:0.5;" x="738" xlink:href="#C7_0_7eac432b81" y="1201.083641"/>
    </g>
    <g clip-path="url(#pb31b9e2d8b)">
     <use style="fill-opacity:0.5;" x="738" xlink:href="#C7_0_7eac432b81" y="1200.357535"/>
    </g>
    <g clip-path="url(#pb31b9e2d8b)">
     <use style="fill-opacity:0.5;" x="738" xlink:href="#C7_0_7eac432b81" y="1184.556978"/>
    </g>
   </g>
  </g>
  <g id="text_15">
   <!-- Linear Model: Coefficient robustness -->
   <g transform="translate(551.9 144)scale(0.2 -0.2)">
    <defs>
     <path d="M 9.8125 72.90625 
L 19.671875 72.90625 
L 19.671875 8.296875 
L 55.171875 8.296875 
L 55.171875 0 
L 9.8125 0 
z
" id="DejaVuSans-76"/>
     <path d="M 9.8125 72.90625 
L 24.515625 72.90625 
L 43.109375 23.296875 
L 61.8125 72.90625 
L 76.515625 72.90625 
L 76.515625 0 
L 66.890625 0 
L 66.890625 64.015625 
L 48.09375 14.015625 
L 38.1875 14.015625 
L 19.390625 64.015625 
L 19.390625 0 
L 9.8125 0 
z
" id="DejaVuSans-77"/>
     <path d="M 45.40625 46.390625 
L 45.40625 75.984375 
L 54.390625 75.984375 
L 54.390625 0 
L 45.40625 0 
L 45.40625 8.203125 
Q 42.578125 3.328125 38.25 0.953125 
Q 33.9375 -1.421875 27.875 -1.421875 
Q 17.96875 -1.421875 11.734375 6.484375 
Q 5.515625 14.40625 5.515625 27.296875 
Q 5.515625 40.1875 11.734375 48.09375 
Q 17.96875 56 27.875 56 
Q 33.9375 56 38.25 53.625 
Q 42.578125 51.265625 45.40625 46.390625 
z
M 14.796875 27.296875 
Q 14.796875 17.390625 18.875 11.75 
Q 22.953125 6.109375 30.078125 6.109375 
Q 37.203125 6.109375 41.296875 11.75 
Q 45.40625 17.390625 45.40625 27.296875 
Q 45.40625 37.203125 41.296875 42.84375 
Q 37.203125 48.484375 30.078125 48.484375 
Q 22.953125 48.484375 18.875 42.84375 
Q 14.796875 37.203125 14.796875 27.296875 
z
" id="DejaVuSans-100"/>
     <path d="M 11.71875 12.40625 
L 22.015625 12.40625 
L 22.015625 0 
L 11.71875 0 
z
M 11.71875 51.703125 
L 22.015625 51.703125 
L 22.015625 39.3125 
L 11.71875 39.3125 
z
" id="DejaVuSans-58"/>
     <path d="M 48.6875 27.296875 
Q 48.6875 37.203125 44.609375 42.84375 
Q 40.53125 48.484375 33.40625 48.484375 
Q 26.265625 48.484375 22.1875 42.84375 
Q 18.109375 37.203125 18.109375 27.296875 
Q 18.109375 17.390625 22.1875 11.75 
Q 26.265625 6.109375 33.40625 6.109375 
Q 40.53125 6.109375 44.609375 11.75 
Q 48.6875 17.390625 48.6875 27.296875 
z
M 18.109375 46.390625 
Q 20.953125 51.265625 25.265625 53.625 
Q 29.59375 56 35.59375 56 
Q 45.5625 56 51.78125 48.09375 
Q 58.015625 40.1875 58.015625 27.296875 
Q 58.015625 14.40625 51.78125 6.484375 
Q 45.5625 -1.421875 35.59375 -1.421875 
Q 29.59375 -1.421875 25.265625 0.953125 
Q 20.953125 3.328125 18.109375 8.203125 
L 18.109375 0 
L 9.078125 0 
L 9.078125 75.984375 
L 18.109375 75.984375 
z
" id="DejaVuSans-98"/>
    </defs>
    <use xlink:href="#DejaVuSans-76"/>
    <use x="55.712891" xlink:href="#DejaVuSans-105"/>
    <use x="83.496094" xlink:href="#DejaVuSans-110"/>
    <use x="146.875" xlink:href="#DejaVuSans-101"/>
    <use x="208.398438" xlink:href="#DejaVuSans-97"/>
    <use x="269.677734" xlink:href="#DejaVuSans-114"/>
    <use x="310.791016" xlink:href="#DejaVuSans-32"/>
    <use x="342.578125" xlink:href="#DejaVuSans-77"/>
    <use x="428.857422" xlink:href="#DejaVuSans-111"/>
    <use x="490.039062" xlink:href="#DejaVuSans-100"/>
    <use x="553.515625" xlink:href="#DejaVuSans-101"/>
    <use x="615.039062" xlink:href="#DejaVuSans-108"/>
    <use x="642.822266" xlink:href="#DejaVuSans-58"/>
    <use x="676.513672" xlink:href="#DejaVuSans-32"/>
    <use x="708.300781" xlink:href="#DejaVuSans-67"/>
    <use x="778.125" xlink:href="#DejaVuSans-111"/>
    <use x="839.306641" xlink:href="#DejaVuSans-101"/>
    <use x="900.830078" xlink:href="#DejaVuSans-102"/>
    <use x="936.035156" xlink:href="#DejaVuSans-102"/>
    <use x="971.240234" xlink:href="#DejaVuSans-105"/>
    <use x="999.023438" xlink:href="#DejaVuSans-99"/>
    <use x="1054.003906" xlink:href="#DejaVuSans-105"/>
    <use x="1081.787109" xlink:href="#DejaVuSans-101"/>
    <use x="1143.310547" xlink:href="#DejaVuSans-110"/>
    <use x="1206.689453" xlink:href="#DejaVuSans-116"/>
    <use x="1245.898438" xlink:href="#DejaVuSans-32"/>
    <use x="1277.685547" xlink:href="#DejaVuSans-114"/>
    <use x="1316.548828" xlink:href="#DejaVuSans-111"/>
    <use x="1377.730469" xlink:href="#DejaVuSans-98"/>
    <use x="1441.207031" xlink:href="#DejaVuSans-117"/>
    <use x="1504.585938" xlink:href="#DejaVuSans-115"/>
    <use x="1556.685547" xlink:href="#DejaVuSans-116"/>
    <use x="1595.894531" xlink:href="#DejaVuSans-110"/>
    <use x="1659.273438" xlink:href="#DejaVuSans-101"/>
    <use x="1720.796875" xlink:href="#DejaVuSans-115"/>
    <use x="1772.896484" xlink:href="#DejaVuSans-115"/>
   </g>
  </g>
  <g id="text_16">
   <!-- 2019-05 -->
   <g transform="translate(696.795469 165.6)scale(0.18 -0.18)">
    <defs>
     <path d="M 10.984375 1.515625 
L 10.984375 10.5 
Q 14.703125 8.734375 18.5 7.8125 
Q 22.3125 6.890625 25.984375 6.890625 
Q 35.75 6.890625 40.890625 13.453125 
Q 46.046875 20.015625 46.78125 33.40625 
Q 43.953125 29.203125 39.59375 26.953125 
Q 35.25 24.703125 29.984375 24.703125 
Q 19.046875 24.703125 12.671875 31.3125 
Q 6.296875 37.9375 6.296875 49.421875 
Q 6.296875 60.640625 12.9375 67.421875 
Q 19.578125 74.21875 30.609375 74.21875 
Q 43.265625 74.21875 49.921875 64.515625 
Q 56.59375 54.828125 56.59375 36.375 
Q 56.59375 19.140625 48.40625 8.859375 
Q 40.234375 -1.421875 26.421875 -1.421875 
Q 22.703125 -1.421875 18.890625 -0.6875 
Q 15.09375 0.046875 10.984375 1.515625 
z
M 30.609375 32.421875 
Q 37.25 32.421875 41.125 36.953125 
Q 45.015625 41.5 45.015625 49.421875 
Q 45.015625 57.28125 41.125 61.84375 
Q 37.25 66.40625 30.609375 66.40625 
Q 23.96875 66.40625 20.09375 61.84375 
Q 16.21875 57.28125 16.21875 49.421875 
Q 16.21875 41.5 20.09375 36.953125 
Q 23.96875 32.421875 30.609375 32.421875 
z
" id="DejaVuSans-57"/>
     <path d="M 4.890625 31.390625 
L 31.203125 31.390625 
L 31.203125 23.390625 
L 4.890625 23.390625 
z
" id="DejaVuSans-45"/>
    </defs>
    <use xlink:href="#DejaVuSans-50"/>
    <use x="63.623047" xlink:href="#DejaVuSans-48"/>
    <use x="127.246094" xlink:href="#DejaVuSans-49"/>
    <use x="190.869141" xlink:href="#DejaVuSans-57"/>
    <use x="254.492188" xlink:href="#DejaVuSans-45"/>
    <use x="290.576172" xlink:href="#DejaVuSans-48"/>
    <use x="354.199219" xlink:href="#DejaVuSans-53"/>
   </g>
  </g>
 </g>
 <defs>
  <clipPath id="pb31b9e2d8b">
   <rect height="1087.2" width="1116" x="180" y="172.8"/>
  </clipPath>
 </defs>
</svg>
