<?xml version="1.0" encoding="utf-8" standalone="no"?>
<!DOCTYPE svg PUBLIC "-//W3C//DTD SVG 1.1//EN"
  "http://www.w3.org/Graphics/SVG/1.1/DTD/svg11.dtd">
<!-- Created with matplotlib (https://matplotlib.org/) -->
<svg height="1440pt" version="1.1" viewBox="0 0 1440 1440" width="1440pt" xmlns="http://www.w3.org/2000/svg" xmlns:xlink="http://www.w3.org/1999/xlink">
 <metadata>
  <rdf:RDF xmlns:cc="http://creativecommons.org/ns#" xmlns:dc="http://purl.org/dc/elements/1.1/" xmlns:rdf="http://www.w3.org/1999/02/22-rdf-syntax-ns#">
   <cc:Work>
    <dc:type rdf:resource="http://purl.org/dc/dcmitype/StillImage"/>
    <dc:date>2021-05-10T00:24:37.052779</dc:date>
    <dc:format>image/svg+xml</dc:format>
    <dc:creator>
     <cc:Agent>
      <dc:title>Matplotlib v3.3.4, https://matplotlib.org/</dc:title>
     </cc:Agent>
    </dc:creator>
   </cc:Work>
  </rdf:RDF>
 </metadata>
 <defs>
  <style type="text/css">*{stroke-linecap:butt;stroke-linejoin:round;}</style>
 </defs>
 <g id="figure_1">
  <g id="patch_1">
   <path d="M 0 1440 
L 1440 1440 
L 1440 0 
L 0 0 
z
" style="fill:none;"/>
  </g>
  <g id="axes_1">
   <g id="patch_2">
    <path d="M 180 1260 
L 1296 1260 
L 1296 172.8 
L 180 172.8 
z
" style="fill:#ffffff;"/>
   </g>
   <g id="patch_3">
    <path clip-path="url(#pf59df660af)" d="M 244.828352 188.331429 
L 244.828352 312.582857 
L 265.13356 312.582857 
L 265.13356 188.331429 
L 244.828352 188.331429 
z
" style="fill:#40bfbf;stroke:#4c4c4c;stroke-linejoin:miter;stroke-width:1.5;"/>
   </g>
   <g id="patch_4">
    <path clip-path="url(#pf59df660af)" d="M 948.547186 343.645714 
L 948.547186 467.897143 
L 969.166911 467.897143 
L 969.166911 343.645714 
L 948.547186 343.645714 
z
" style="fill:#40bfbf;stroke:#4c4c4c;stroke-linejoin:miter;stroke-width:1.5;"/>
   </g>
   <g id="patch_5">
    <path clip-path="url(#pf59df660af)" d="M 515.618521 498.96 
L 515.618521 623.211429 
L 539.052588 623.211429 
L 539.052588 498.96 
L 515.618521 498.96 
z
" style="fill:#40bfbf;stroke:#4c4c4c;stroke-linejoin:miter;stroke-width:1.5;"/>
   </g>
   <g id="patch_6">
    <path clip-path="url(#pf59df660af)" d="M 920.187527 654.274286 
L 920.187527 778.525714 
L 935.262263 778.525714 
L 935.262263 654.274286 
L 920.187527 654.274286 
z
" style="fill:#40bfbf;stroke:#4c4c4c;stroke-linejoin:miter;stroke-width:1.5;"/>
   </g>
   <g id="patch_7">
    <path clip-path="url(#pf59df660af)" d="M 867.970219 809.588571 
L 867.970219 933.84 
L 892.404481 933.84 
L 892.404481 809.588571 
L 867.970219 809.588571 
z
" style="fill:#40bfbf;stroke:#4c4c4c;stroke-linejoin:miter;stroke-width:1.5;"/>
   </g>
   <g id="patch_8">
    <path clip-path="url(#pf59df660af)" d="M 866.087755 964.902857 
L 866.087755 1089.154286 
L 883.444749 1089.154286 
L 883.444749 964.902857 
L 866.087755 964.902857 
z
" style="fill:#40bfbf;stroke:#4c4c4c;stroke-linejoin:miter;stroke-width:1.5;"/>
   </g>
   <g id="patch_9">
    <path clip-path="url(#pf59df660af)" d="M 738 1120.217143 
L 738 1244.468571 
L 738 1244.468571 
L 738 1120.217143 
L 738 1120.217143 
z
" style="fill:#40bfbf;stroke:#4c4c4c;stroke-linejoin:miter;stroke-width:1.5;"/>
   </g>
   <g id="matplotlib.axis_1">
    <g id="xtick_1">
     <g id="line2d_1">
      <defs>
       <path d="M 0 0 
L 0 3.5 
" id="m1638d74061" style="stroke:#000000;stroke-width:0.8;"/>
      </defs>
      <g>
       <use style="stroke:#000000;stroke-width:0.8;" x="210.483073" xlink:href="#m1638d74061" y="1260"/>
      </g>
     </g>
     <g id="text_1">
      <!-- −0.4 -->
      <g transform="translate(198.341667 1274.598438)scale(0.1 -0.1)">
       <defs>
        <path d="M 10.59375 35.5 
L 73.1875 35.5 
L 73.1875 27.203125 
L 10.59375 27.203125 
z
" id="DejaVuSans-8722"/>
        <path d="M 31.78125 66.40625 
Q 24.171875 66.40625 20.328125 58.90625 
Q 16.5 51.421875 16.5 36.375 
Q 16.5 21.390625 20.328125 13.890625 
Q 24.171875 6.390625 31.78125 6.390625 
Q 39.453125 6.390625 43.28125 13.890625 
Q 47.125 21.390625 47.125 36.375 
Q 47.125 51.421875 43.28125 58.90625 
Q 39.453125 66.40625 31.78125 66.40625 
z
M 31.78125 74.21875 
Q 44.046875 74.21875 50.515625 64.515625 
Q 56.984375 54.828125 56.984375 36.375 
Q 56.984375 17.96875 50.515625 8.265625 
Q 44.046875 -1.421875 31.78125 -1.421875 
Q 19.53125 -1.421875 13.0625 8.265625 
Q 6.59375 17.96875 6.59375 36.375 
Q 6.59375 54.828125 13.0625 64.515625 
Q 19.53125 74.21875 31.78125 74.21875 
z
" id="DejaVuSans-48"/>
        <path d="M 10.6875 12.40625 
L 21 12.40625 
L 21 0 
L 10.6875 0 
z
" id="DejaVuSans-46"/>
        <path d="M 37.796875 64.3125 
L 12.890625 25.390625 
L 37.796875 25.390625 
z
M 35.203125 72.90625 
L 47.609375 72.90625 
L 47.609375 25.390625 
L 58.015625 25.390625 
L 58.015625 17.1875 
L 47.609375 17.1875 
L 47.609375 0 
L 37.796875 0 
L 37.796875 17.1875 
L 4.890625 17.1875 
L 4.890625 26.703125 
z
" id="DejaVuSans-52"/>
       </defs>
       <use xlink:href="#DejaVuSans-8722"/>
       <use x="83.789062" xlink:href="#DejaVuSans-48"/>
       <use x="147.412109" xlink:href="#DejaVuSans-46"/>
       <use x="179.199219" xlink:href="#DejaVuSans-52"/>
      </g>
     </g>
    </g>
    <g id="xtick_2">
     <g id="line2d_2">
      <g>
       <use style="stroke:#000000;stroke-width:0.8;" x="342.362305" xlink:href="#m1638d74061" y="1260"/>
      </g>
     </g>
     <g id="text_2">
      <!-- −0.3 -->
      <g transform="translate(330.220899 1274.598438)scale(0.1 -0.1)">
       <defs>
        <path d="M 40.578125 39.3125 
Q 47.65625 37.796875 51.625 33 
Q 55.609375 28.21875 55.609375 21.1875 
Q 55.609375 10.40625 48.1875 4.484375 
Q 40.765625 -1.421875 27.09375 -1.421875 
Q 22.515625 -1.421875 17.65625 -0.515625 
Q 12.796875 0.390625 7.625 2.203125 
L 7.625 11.71875 
Q 11.71875 9.328125 16.59375 8.109375 
Q 21.484375 6.890625 26.8125 6.890625 
Q 36.078125 6.890625 40.9375 10.546875 
Q 45.796875 14.203125 45.796875 21.1875 
Q 45.796875 27.640625 41.28125 31.265625 
Q 36.765625 34.90625 28.71875 34.90625 
L 20.21875 34.90625 
L 20.21875 43.015625 
L 29.109375 43.015625 
Q 36.375 43.015625 40.234375 45.921875 
Q 44.09375 48.828125 44.09375 54.296875 
Q 44.09375 59.90625 40.109375 62.90625 
Q 36.140625 65.921875 28.71875 65.921875 
Q 24.65625 65.921875 20.015625 65.03125 
Q 15.375 64.15625 9.8125 62.3125 
L 9.8125 71.09375 
Q 15.4375 72.65625 20.34375 73.4375 
Q 25.25 74.21875 29.59375 74.21875 
Q 40.828125 74.21875 47.359375 69.109375 
Q 53.90625 64.015625 53.90625 55.328125 
Q 53.90625 49.265625 50.4375 45.09375 
Q 46.96875 40.921875 40.578125 39.3125 
z
" id="DejaVuSans-51"/>
       </defs>
       <use xlink:href="#DejaVuSans-8722"/>
       <use x="83.789062" xlink:href="#DejaVuSans-48"/>
       <use x="147.412109" xlink:href="#DejaVuSans-46"/>
       <use x="179.199219" xlink:href="#DejaVuSans-51"/>
      </g>
     </g>
    </g>
    <g id="xtick_3">
     <g id="line2d_3">
      <g>
       <use style="stroke:#000000;stroke-width:0.8;" x="474.241537" xlink:href="#m1638d74061" y="1260"/>
      </g>
     </g>
     <g id="text_3">
      <!-- −0.2 -->
      <g transform="translate(462.10013 1274.598438)scale(0.1 -0.1)">
       <defs>
        <path d="M 19.1875 8.296875 
L 53.609375 8.296875 
L 53.609375 0 
L 7.328125 0 
L 7.328125 8.296875 
Q 12.9375 14.109375 22.625 23.890625 
Q 32.328125 33.6875 34.8125 36.53125 
Q 39.546875 41.84375 41.421875 45.53125 
Q 43.3125 49.21875 43.3125 52.78125 
Q 43.3125 58.59375 39.234375 62.25 
Q 35.15625 65.921875 28.609375 65.921875 
Q 23.96875 65.921875 18.8125 64.3125 
Q 13.671875 62.703125 7.8125 59.421875 
L 7.8125 69.390625 
Q 13.765625 71.78125 18.9375 73 
Q 24.125 74.21875 28.421875 74.21875 
Q 39.75 74.21875 46.484375 68.546875 
Q 53.21875 62.890625 53.21875 53.421875 
Q 53.21875 48.921875 51.53125 44.890625 
Q 49.859375 40.875 45.40625 35.40625 
Q 44.1875 33.984375 37.640625 27.21875 
Q 31.109375 20.453125 19.1875 8.296875 
z
" id="DejaVuSans-50"/>
       </defs>
       <use xlink:href="#DejaVuSans-8722"/>
       <use x="83.789062" xlink:href="#DejaVuSans-48"/>
       <use x="147.412109" xlink:href="#DejaVuSans-46"/>
       <use x="179.199219" xlink:href="#DejaVuSans-50"/>
      </g>
     </g>
    </g>
    <g id="xtick_4">
     <g id="line2d_4">
      <g>
       <use style="stroke:#000000;stroke-width:0.8;" x="606.120768" xlink:href="#m1638d74061" y="1260"/>
      </g>
     </g>
     <g id="text_4">
      <!-- −0.1 -->
      <g transform="translate(593.979362 1274.598438)scale(0.1 -0.1)">
       <defs>
        <path d="M 12.40625 8.296875 
L 28.515625 8.296875 
L 28.515625 63.921875 
L 10.984375 60.40625 
L 10.984375 69.390625 
L 28.421875 72.90625 
L 38.28125 72.90625 
L 38.28125 8.296875 
L 54.390625 8.296875 
L 54.390625 0 
L 12.40625 0 
z
" id="DejaVuSans-49"/>
       </defs>
       <use xlink:href="#DejaVuSans-8722"/>
       <use x="83.789062" xlink:href="#DejaVuSans-48"/>
       <use x="147.412109" xlink:href="#DejaVuSans-46"/>
       <use x="179.199219" xlink:href="#DejaVuSans-49"/>
      </g>
     </g>
    </g>
    <g id="xtick_5">
     <g id="line2d_5">
      <g>
       <use style="stroke:#000000;stroke-width:0.8;" x="738" xlink:href="#m1638d74061" y="1260"/>
      </g>
     </g>
     <g id="text_5">
      <!-- 0.0 -->
      <g transform="translate(730.048437 1274.598438)scale(0.1 -0.1)">
       <use xlink:href="#DejaVuSans-48"/>
       <use x="63.623047" xlink:href="#DejaVuSans-46"/>
       <use x="95.410156" xlink:href="#DejaVuSans-48"/>
      </g>
     </g>
    </g>
    <g id="xtick_6">
     <g id="line2d_6">
      <g>
       <use style="stroke:#000000;stroke-width:0.8;" x="869.879232" xlink:href="#m1638d74061" y="1260"/>
      </g>
     </g>
     <g id="text_6">
      <!-- 0.1 -->
      <g transform="translate(861.927669 1274.598438)scale(0.1 -0.1)">
       <use xlink:href="#DejaVuSans-48"/>
       <use x="63.623047" xlink:href="#DejaVuSans-46"/>
       <use x="95.410156" xlink:href="#DejaVuSans-49"/>
      </g>
     </g>
    </g>
    <g id="xtick_7">
     <g id="line2d_7">
      <g>
       <use style="stroke:#000000;stroke-width:0.8;" x="1001.758463" xlink:href="#m1638d74061" y="1260"/>
      </g>
     </g>
     <g id="text_7">
      <!-- 0.2 -->
      <g transform="translate(993.806901 1274.598438)scale(0.1 -0.1)">
       <use xlink:href="#DejaVuSans-48"/>
       <use x="63.623047" xlink:href="#DejaVuSans-46"/>
       <use x="95.410156" xlink:href="#DejaVuSans-50"/>
      </g>
     </g>
    </g>
    <g id="xtick_8">
     <g id="line2d_8">
      <g>
       <use style="stroke:#000000;stroke-width:0.8;" x="1133.637695" xlink:href="#m1638d74061" y="1260"/>
      </g>
     </g>
     <g id="text_8">
      <!-- 0.3 -->
      <g transform="translate(1125.686132 1274.598438)scale(0.1 -0.1)">
       <use xlink:href="#DejaVuSans-48"/>
       <use x="63.623047" xlink:href="#DejaVuSans-46"/>
       <use x="95.410156" xlink:href="#DejaVuSans-51"/>
      </g>
     </g>
    </g>
    <g id="xtick_9">
     <g id="line2d_9">
      <g>
       <use style="stroke:#000000;stroke-width:0.8;" x="1265.516927" xlink:href="#m1638d74061" y="1260"/>
      </g>
     </g>
     <g id="text_9">
      <!-- 0.4 -->
      <g transform="translate(1257.565364 1274.598438)scale(0.1 -0.1)">
       <use xlink:href="#DejaVuSans-48"/>
       <use x="63.623047" xlink:href="#DejaVuSans-46"/>
       <use x="95.410156" xlink:href="#DejaVuSans-52"/>
      </g>
     </g>
    </g>
    <g id="text_10">
     <!-- Coefficient value -->
     <g transform="translate(674.808984 1292.075781)scale(0.15 -0.15)">
      <defs>
       <path d="M 64.40625 67.28125 
L 64.40625 56.890625 
Q 59.421875 61.53125 53.78125 63.8125 
Q 48.140625 66.109375 41.796875 66.109375 
Q 29.296875 66.109375 22.65625 58.46875 
Q 16.015625 50.828125 16.015625 36.375 
Q 16.015625 21.96875 22.65625 14.328125 
Q 29.296875 6.6875 41.796875 6.6875 
Q 48.140625 6.6875 53.78125 8.984375 
Q 59.421875 11.28125 64.40625 15.921875 
L 64.40625 5.609375 
Q 59.234375 2.09375 53.4375 0.328125 
Q 47.65625 -1.421875 41.21875 -1.421875 
Q 24.65625 -1.421875 15.125 8.703125 
Q 5.609375 18.84375 5.609375 36.375 
Q 5.609375 53.953125 15.125 64.078125 
Q 24.65625 74.21875 41.21875 74.21875 
Q 47.75 74.21875 53.53125 72.484375 
Q 59.328125 70.75 64.40625 67.28125 
z
" id="DejaVuSans-67"/>
       <path d="M 30.609375 48.390625 
Q 23.390625 48.390625 19.1875 42.75 
Q 14.984375 37.109375 14.984375 27.296875 
Q 14.984375 17.484375 19.15625 11.84375 
Q 23.34375 6.203125 30.609375 6.203125 
Q 37.796875 6.203125 41.984375 11.859375 
Q 46.1875 17.53125 46.1875 27.296875 
Q 46.1875 37.015625 41.984375 42.703125 
Q 37.796875 48.390625 30.609375 48.390625 
z
M 30.609375 56 
Q 42.328125 56 49.015625 48.375 
Q 55.71875 40.765625 55.71875 27.296875 
Q 55.71875 13.875 49.015625 6.21875 
Q 42.328125 -1.421875 30.609375 -1.421875 
Q 18.84375 -1.421875 12.171875 6.21875 
Q 5.515625 13.875 5.515625 27.296875 
Q 5.515625 40.765625 12.171875 48.375 
Q 18.84375 56 30.609375 56 
z
" id="DejaVuSans-111"/>
       <path d="M 56.203125 29.59375 
L 56.203125 25.203125 
L 14.890625 25.203125 
Q 15.484375 15.921875 20.484375 11.0625 
Q 25.484375 6.203125 34.421875 6.203125 
Q 39.59375 6.203125 44.453125 7.46875 
Q 49.3125 8.734375 54.109375 11.28125 
L 54.109375 2.78125 
Q 49.265625 0.734375 44.1875 -0.34375 
Q 39.109375 -1.421875 33.890625 -1.421875 
Q 20.796875 -1.421875 13.15625 6.1875 
Q 5.515625 13.8125 5.515625 26.8125 
Q 5.515625 40.234375 12.765625 48.109375 
Q 20.015625 56 32.328125 56 
Q 43.359375 56 49.78125 48.890625 
Q 56.203125 41.796875 56.203125 29.59375 
z
M 47.21875 32.234375 
Q 47.125 39.59375 43.09375 43.984375 
Q 39.0625 48.390625 32.421875 48.390625 
Q 24.90625 48.390625 20.390625 44.140625 
Q 15.875 39.890625 15.1875 32.171875 
z
" id="DejaVuSans-101"/>
       <path d="M 37.109375 75.984375 
L 37.109375 68.5 
L 28.515625 68.5 
Q 23.6875 68.5 21.796875 66.546875 
Q 19.921875 64.59375 19.921875 59.515625 
L 19.921875 54.6875 
L 34.71875 54.6875 
L 34.71875 47.703125 
L 19.921875 47.703125 
L 19.921875 0 
L 10.890625 0 
L 10.890625 47.703125 
L 2.296875 47.703125 
L 2.296875 54.6875 
L 10.890625 54.6875 
L 10.890625 58.5 
Q 10.890625 67.625 15.140625 71.796875 
Q 19.390625 75.984375 28.609375 75.984375 
z
" id="DejaVuSans-102"/>
       <path d="M 9.421875 54.6875 
L 18.40625 54.6875 
L 18.40625 0 
L 9.421875 0 
z
M 9.421875 75.984375 
L 18.40625 75.984375 
L 18.40625 64.59375 
L 9.421875 64.59375 
z
" id="DejaVuSans-105"/>
       <path d="M 48.78125 52.59375 
L 48.78125 44.1875 
Q 44.96875 46.296875 41.140625 47.34375 
Q 37.3125 48.390625 33.40625 48.390625 
Q 24.65625 48.390625 19.8125 42.84375 
Q 14.984375 37.3125 14.984375 27.296875 
Q 14.984375 17.28125 19.8125 11.734375 
Q 24.65625 6.203125 33.40625 6.203125 
Q 37.3125 6.203125 41.140625 7.25 
Q 44.96875 8.296875 48.78125 10.40625 
L 48.78125 2.09375 
Q 45.015625 0.34375 40.984375 -0.53125 
Q 36.96875 -1.421875 32.421875 -1.421875 
Q 20.0625 -1.421875 12.78125 6.34375 
Q 5.515625 14.109375 5.515625 27.296875 
Q 5.515625 40.671875 12.859375 48.328125 
Q 20.21875 56 33.015625 56 
Q 37.15625 56 41.109375 55.140625 
Q 45.0625 54.296875 48.78125 52.59375 
z
" id="DejaVuSans-99"/>
       <path d="M 54.890625 33.015625 
L 54.890625 0 
L 45.90625 0 
L 45.90625 32.71875 
Q 45.90625 40.484375 42.875 44.328125 
Q 39.84375 48.1875 33.796875 48.1875 
Q 26.515625 48.1875 22.3125 43.546875 
Q 18.109375 38.921875 18.109375 30.90625 
L 18.109375 0 
L 9.078125 0 
L 9.078125 54.6875 
L 18.109375 54.6875 
L 18.109375 46.1875 
Q 21.34375 51.125 25.703125 53.5625 
Q 30.078125 56 35.796875 56 
Q 45.21875 56 50.046875 50.171875 
Q 54.890625 44.34375 54.890625 33.015625 
z
" id="DejaVuSans-110"/>
       <path d="M 18.3125 70.21875 
L 18.3125 54.6875 
L 36.8125 54.6875 
L 36.8125 47.703125 
L 18.3125 47.703125 
L 18.3125 18.015625 
Q 18.3125 11.328125 20.140625 9.421875 
Q 21.96875 7.515625 27.59375 7.515625 
L 36.8125 7.515625 
L 36.8125 0 
L 27.59375 0 
Q 17.1875 0 13.234375 3.875 
Q 9.28125 7.765625 9.28125 18.015625 
L 9.28125 47.703125 
L 2.6875 47.703125 
L 2.6875 54.6875 
L 9.28125 54.6875 
L 9.28125 70.21875 
z
" id="DejaVuSans-116"/>
       <path id="DejaVuSans-32"/>
       <path d="M 2.984375 54.6875 
L 12.5 54.6875 
L 29.59375 8.796875 
L 46.6875 54.6875 
L 56.203125 54.6875 
L 35.6875 0 
L 23.484375 0 
z
" id="DejaVuSans-118"/>
       <path d="M 34.28125 27.484375 
Q 23.390625 27.484375 19.1875 25 
Q 14.984375 22.515625 14.984375 16.5 
Q 14.984375 11.71875 18.140625 8.90625 
Q 21.296875 6.109375 26.703125 6.109375 
Q 34.1875 6.109375 38.703125 11.40625 
Q 43.21875 16.703125 43.21875 25.484375 
L 43.21875 27.484375 
z
M 52.203125 31.203125 
L 52.203125 0 
L 43.21875 0 
L 43.21875 8.296875 
Q 40.140625 3.328125 35.546875 0.953125 
Q 30.953125 -1.421875 24.3125 -1.421875 
Q 15.921875 -1.421875 10.953125 3.296875 
Q 6 8.015625 6 15.921875 
Q 6 25.140625 12.171875 29.828125 
Q 18.359375 34.515625 30.609375 34.515625 
L 43.21875 34.515625 
L 43.21875 35.40625 
Q 43.21875 41.609375 39.140625 45 
Q 35.0625 48.390625 27.6875 48.390625 
Q 23 48.390625 18.546875 47.265625 
Q 14.109375 46.140625 10.015625 43.890625 
L 10.015625 52.203125 
Q 14.9375 54.109375 19.578125 55.046875 
Q 24.21875 56 28.609375 56 
Q 40.484375 56 46.34375 49.84375 
Q 52.203125 43.703125 52.203125 31.203125 
z
" id="DejaVuSans-97"/>
       <path d="M 9.421875 75.984375 
L 18.40625 75.984375 
L 18.40625 0 
L 9.421875 0 
z
" id="DejaVuSans-108"/>
       <path d="M 8.5 21.578125 
L 8.5 54.6875 
L 17.484375 54.6875 
L 17.484375 21.921875 
Q 17.484375 14.15625 20.5 10.265625 
Q 23.53125 6.390625 29.59375 6.390625 
Q 36.859375 6.390625 41.078125 11.03125 
Q 45.3125 15.671875 45.3125 23.6875 
L 45.3125 54.6875 
L 54.296875 54.6875 
L 54.296875 0 
L 45.3125 0 
L 45.3125 8.40625 
Q 42.046875 3.421875 37.71875 1 
Q 33.40625 -1.421875 27.6875 -1.421875 
Q 18.265625 -1.421875 13.375 4.4375 
Q 8.5 10.296875 8.5 21.578125 
z
M 31.109375 56 
z
" id="DejaVuSans-117"/>
      </defs>
      <use xlink:href="#DejaVuSans-67"/>
      <use x="69.824219" xlink:href="#DejaVuSans-111"/>
      <use x="131.005859" xlink:href="#DejaVuSans-101"/>
      <use x="192.529297" xlink:href="#DejaVuSans-102"/>
      <use x="227.734375" xlink:href="#DejaVuSans-102"/>
      <use x="262.939453" xlink:href="#DejaVuSans-105"/>
      <use x="290.722656" xlink:href="#DejaVuSans-99"/>
      <use x="345.703125" xlink:href="#DejaVuSans-105"/>
      <use x="373.486328" xlink:href="#DejaVuSans-101"/>
      <use x="435.009766" xlink:href="#DejaVuSans-110"/>
      <use x="498.388672" xlink:href="#DejaVuSans-116"/>
      <use x="537.597656" xlink:href="#DejaVuSans-32"/>
      <use x="569.384766" xlink:href="#DejaVuSans-118"/>
      <use x="628.564453" xlink:href="#DejaVuSans-97"/>
      <use x="689.84375" xlink:href="#DejaVuSans-108"/>
      <use x="717.626953" xlink:href="#DejaVuSans-117"/>
      <use x="781.005859" xlink:href="#DejaVuSans-101"/>
     </g>
    </g>
   </g>
   <g id="matplotlib.axis_2">
    <g id="ytick_1">
     <g id="line2d_10">
      <defs>
       <path d="M 0 0 
L -3.5 0 
" id="m15ffafd543" style="stroke:#000000;stroke-width:0.8;"/>
      </defs>
      <g>
       <use style="stroke:#000000;stroke-width:0.8;" x="180" xlink:href="#m15ffafd543" y="250.457143"/>
      </g>
     </g>
     <g id="text_11">
      <!-- Distance_Center -->
      <g transform="translate(90.617188 254.256362)scale(0.1 -0.1)">
       <defs>
        <path d="M 19.671875 64.796875 
L 19.671875 8.109375 
L 31.59375 8.109375 
Q 46.6875 8.109375 53.6875 14.9375 
Q 60.6875 21.78125 60.6875 36.53125 
Q 60.6875 51.171875 53.6875 57.984375 
Q 46.6875 64.796875 31.59375 64.796875 
z
M 9.8125 72.90625 
L 30.078125 72.90625 
Q 51.265625 72.90625 61.171875 64.09375 
Q 71.09375 55.28125 71.09375 36.53125 
Q 71.09375 17.671875 61.125 8.828125 
Q 51.171875 0 30.078125 0 
L 9.8125 0 
z
" id="DejaVuSans-68"/>
        <path d="M 44.28125 53.078125 
L 44.28125 44.578125 
Q 40.484375 46.53125 36.375 47.5 
Q 32.28125 48.484375 27.875 48.484375 
Q 21.1875 48.484375 17.84375 46.4375 
Q 14.5 44.390625 14.5 40.28125 
Q 14.5 37.15625 16.890625 35.375 
Q 19.28125 33.59375 26.515625 31.984375 
L 29.59375 31.296875 
Q 39.15625 29.25 43.1875 25.515625 
Q 47.21875 21.78125 47.21875 15.09375 
Q 47.21875 7.46875 41.1875 3.015625 
Q 35.15625 -1.421875 24.609375 -1.421875 
Q 20.21875 -1.421875 15.453125 -0.5625 
Q 10.6875 0.296875 5.421875 2 
L 5.421875 11.28125 
Q 10.40625 8.6875 15.234375 7.390625 
Q 20.0625 6.109375 24.8125 6.109375 
Q 31.15625 6.109375 34.5625 8.28125 
Q 37.984375 10.453125 37.984375 14.40625 
Q 37.984375 18.0625 35.515625 20.015625 
Q 33.0625 21.96875 24.703125 23.78125 
L 21.578125 24.515625 
Q 13.234375 26.265625 9.515625 29.90625 
Q 5.8125 33.546875 5.8125 39.890625 
Q 5.8125 47.609375 11.28125 51.796875 
Q 16.75 56 26.8125 56 
Q 31.78125 56 36.171875 55.265625 
Q 40.578125 54.546875 44.28125 53.078125 
z
" id="DejaVuSans-115"/>
        <path d="M 50.984375 -16.609375 
L 50.984375 -23.578125 
L -0.984375 -23.578125 
L -0.984375 -16.609375 
z
" id="DejaVuSans-95"/>
        <path d="M 41.109375 46.296875 
Q 39.59375 47.171875 37.8125 47.578125 
Q 36.03125 48 33.890625 48 
Q 26.265625 48 22.1875 43.046875 
Q 18.109375 38.09375 18.109375 28.8125 
L 18.109375 0 
L 9.078125 0 
L 9.078125 54.6875 
L 18.109375 54.6875 
L 18.109375 46.1875 
Q 20.953125 51.171875 25.484375 53.578125 
Q 30.03125 56 36.53125 56 
Q 37.453125 56 38.578125 55.875 
Q 39.703125 55.765625 41.0625 55.515625 
z
" id="DejaVuSans-114"/>
       </defs>
       <use xlink:href="#DejaVuSans-68"/>
       <use x="77.001953" xlink:href="#DejaVuSans-105"/>
       <use x="104.785156" xlink:href="#DejaVuSans-115"/>
       <use x="156.884766" xlink:href="#DejaVuSans-116"/>
       <use x="196.09375" xlink:href="#DejaVuSans-97"/>
       <use x="257.373047" xlink:href="#DejaVuSans-110"/>
       <use x="320.751953" xlink:href="#DejaVuSans-99"/>
       <use x="375.732422" xlink:href="#DejaVuSans-101"/>
       <use x="437.255859" xlink:href="#DejaVuSans-95"/>
       <use x="487.255859" xlink:href="#DejaVuSans-67"/>
       <use x="557.080078" xlink:href="#DejaVuSans-101"/>
       <use x="618.603516" xlink:href="#DejaVuSans-110"/>
       <use x="681.982422" xlink:href="#DejaVuSans-116"/>
       <use x="721.191406" xlink:href="#DejaVuSans-101"/>
       <use x="782.714844" xlink:href="#DejaVuSans-114"/>
      </g>
     </g>
    </g>
    <g id="ytick_2">
     <g id="line2d_11">
      <g>
       <use style="stroke:#000000;stroke-width:0.8;" x="180" xlink:href="#m15ffafd543" y="405.771429"/>
      </g>
     </g>
     <g id="text_12">
      <!-- Nationality_Italy -->
      <g transform="translate(92.017187 409.570647)scale(0.1 -0.1)">
       <defs>
        <path d="M 9.8125 72.90625 
L 23.09375 72.90625 
L 55.421875 11.921875 
L 55.421875 72.90625 
L 64.984375 72.90625 
L 64.984375 0 
L 51.703125 0 
L 19.390625 60.984375 
L 19.390625 0 
L 9.8125 0 
z
" id="DejaVuSans-78"/>
        <path d="M 32.171875 -5.078125 
Q 28.375 -14.84375 24.75 -17.8125 
Q 21.140625 -20.796875 15.09375 -20.796875 
L 7.90625 -20.796875 
L 7.90625 -13.28125 
L 13.1875 -13.28125 
Q 16.890625 -13.28125 18.9375 -11.515625 
Q 21 -9.765625 23.484375 -3.21875 
L 25.09375 0.875 
L 2.984375 54.6875 
L 12.5 54.6875 
L 29.59375 11.921875 
L 46.6875 54.6875 
L 56.203125 54.6875 
z
" id="DejaVuSans-121"/>
        <path d="M 9.8125 72.90625 
L 19.671875 72.90625 
L 19.671875 0 
L 9.8125 0 
z
" id="DejaVuSans-73"/>
       </defs>
       <use xlink:href="#DejaVuSans-78"/>
       <use x="74.804688" xlink:href="#DejaVuSans-97"/>
       <use x="136.083984" xlink:href="#DejaVuSans-116"/>
       <use x="175.292969" xlink:href="#DejaVuSans-105"/>
       <use x="203.076172" xlink:href="#DejaVuSans-111"/>
       <use x="264.257812" xlink:href="#DejaVuSans-110"/>
       <use x="327.636719" xlink:href="#DejaVuSans-97"/>
       <use x="388.916016" xlink:href="#DejaVuSans-108"/>
       <use x="416.699219" xlink:href="#DejaVuSans-105"/>
       <use x="444.482422" xlink:href="#DejaVuSans-116"/>
       <use x="483.691406" xlink:href="#DejaVuSans-121"/>
       <use x="542.871094" xlink:href="#DejaVuSans-95"/>
       <use x="592.871094" xlink:href="#DejaVuSans-73"/>
       <use x="622.363281" xlink:href="#DejaVuSans-116"/>
       <use x="661.572266" xlink:href="#DejaVuSans-97"/>
       <use x="722.851562" xlink:href="#DejaVuSans-108"/>
       <use x="750.634766" xlink:href="#DejaVuSans-121"/>
      </g>
     </g>
    </g>
    <g id="ytick_3">
     <g id="line2d_12">
      <g>
       <use style="stroke:#000000;stroke-width:0.8;" x="180" xlink:href="#m15ffafd543" y="561.085714"/>
      </g>
     </g>
     <g id="text_13">
      <!-- Nationality_Spain -->
      <g transform="translate(85.771875 564.884933)scale(0.1 -0.1)">
       <defs>
        <path d="M 53.515625 70.515625 
L 53.515625 60.890625 
Q 47.90625 63.578125 42.921875 64.890625 
Q 37.9375 66.21875 33.296875 66.21875 
Q 25.25 66.21875 20.875 63.09375 
Q 16.5 59.96875 16.5 54.203125 
Q 16.5 49.359375 19.40625 46.890625 
Q 22.3125 44.4375 30.421875 42.921875 
L 36.375 41.703125 
Q 47.40625 39.59375 52.65625 34.296875 
Q 57.90625 29 57.90625 20.125 
Q 57.90625 9.515625 50.796875 4.046875 
Q 43.703125 -1.421875 29.984375 -1.421875 
Q 24.8125 -1.421875 18.96875 -0.25 
Q 13.140625 0.921875 6.890625 3.21875 
L 6.890625 13.375 
Q 12.890625 10.015625 18.65625 8.296875 
Q 24.421875 6.59375 29.984375 6.59375 
Q 38.421875 6.59375 43.015625 9.90625 
Q 47.609375 13.234375 47.609375 19.390625 
Q 47.609375 24.75 44.3125 27.78125 
Q 41.015625 30.8125 33.5 32.328125 
L 27.484375 33.5 
Q 16.453125 35.6875 11.515625 40.375 
Q 6.59375 45.0625 6.59375 53.421875 
Q 6.59375 63.09375 13.40625 68.65625 
Q 20.21875 74.21875 32.171875 74.21875 
Q 37.3125 74.21875 42.625 73.28125 
Q 47.953125 72.359375 53.515625 70.515625 
z
" id="DejaVuSans-83"/>
        <path d="M 18.109375 8.203125 
L 18.109375 -20.796875 
L 9.078125 -20.796875 
L 9.078125 54.6875 
L 18.109375 54.6875 
L 18.109375 46.390625 
Q 20.953125 51.265625 25.265625 53.625 
Q 29.59375 56 35.59375 56 
Q 45.5625 56 51.78125 48.09375 
Q 58.015625 40.1875 58.015625 27.296875 
Q 58.015625 14.40625 51.78125 6.484375 
Q 45.5625 -1.421875 35.59375 -1.421875 
Q 29.59375 -1.421875 25.265625 0.953125 
Q 20.953125 3.328125 18.109375 8.203125 
z
M 48.6875 27.296875 
Q 48.6875 37.203125 44.609375 42.84375 
Q 40.53125 48.484375 33.40625 48.484375 
Q 26.265625 48.484375 22.1875 42.84375 
Q 18.109375 37.203125 18.109375 27.296875 
Q 18.109375 17.390625 22.1875 11.75 
Q 26.265625 6.109375 33.40625 6.109375 
Q 40.53125 6.109375 44.609375 11.75 
Q 48.6875 17.390625 48.6875 27.296875 
z
" id="DejaVuSans-112"/>
       </defs>
       <use xlink:href="#DejaVuSans-78"/>
       <use x="74.804688" xlink:href="#DejaVuSans-97"/>
       <use x="136.083984" xlink:href="#DejaVuSans-116"/>
       <use x="175.292969" xlink:href="#DejaVuSans-105"/>
       <use x="203.076172" xlink:href="#DejaVuSans-111"/>
       <use x="264.257812" xlink:href="#DejaVuSans-110"/>
       <use x="327.636719" xlink:href="#DejaVuSans-97"/>
       <use x="388.916016" xlink:href="#DejaVuSans-108"/>
       <use x="416.699219" xlink:href="#DejaVuSans-105"/>
       <use x="444.482422" xlink:href="#DejaVuSans-116"/>
       <use x="483.691406" xlink:href="#DejaVuSans-121"/>
       <use x="542.871094" xlink:href="#DejaVuSans-95"/>
       <use x="592.871094" xlink:href="#DejaVuSans-83"/>
       <use x="656.347656" xlink:href="#DejaVuSans-112"/>
       <use x="719.824219" xlink:href="#DejaVuSans-97"/>
       <use x="781.103516" xlink:href="#DejaVuSans-105"/>
       <use x="808.886719" xlink:href="#DejaVuSans-110"/>
      </g>
     </g>
    </g>
    <g id="ytick_4">
     <g id="line2d_13">
      <g>
       <use style="stroke:#000000;stroke-width:0.8;" x="180" xlink:href="#m15ffafd543" y="716.4"/>
      </g>
     </g>
     <g id="text_14">
      <!-- POI_Restaurants_Hotels -->
      <g transform="translate(54.495312 720.199219)scale(0.1 -0.1)">
       <defs>
        <path d="M 19.671875 64.796875 
L 19.671875 37.40625 
L 32.078125 37.40625 
Q 38.96875 37.40625 42.71875 40.96875 
Q 46.484375 44.53125 46.484375 51.125 
Q 46.484375 57.671875 42.71875 61.234375 
Q 38.96875 64.796875 32.078125 64.796875 
z
M 9.8125 72.90625 
L 32.078125 72.90625 
Q 44.34375 72.90625 50.609375 67.359375 
Q 56.890625 61.8125 56.890625 51.125 
Q 56.890625 40.328125 50.609375 34.8125 
Q 44.34375 29.296875 32.078125 29.296875 
L 19.671875 29.296875 
L 19.671875 0 
L 9.8125 0 
z
" id="DejaVuSans-80"/>
        <path d="M 39.40625 66.21875 
Q 28.65625 66.21875 22.328125 58.203125 
Q 16.015625 50.203125 16.015625 36.375 
Q 16.015625 22.609375 22.328125 14.59375 
Q 28.65625 6.59375 39.40625 6.59375 
Q 50.140625 6.59375 56.421875 14.59375 
Q 62.703125 22.609375 62.703125 36.375 
Q 62.703125 50.203125 56.421875 58.203125 
Q 50.140625 66.21875 39.40625 66.21875 
z
M 39.40625 74.21875 
Q 54.734375 74.21875 63.90625 63.9375 
Q 73.09375 53.65625 73.09375 36.375 
Q 73.09375 19.140625 63.90625 8.859375 
Q 54.734375 -1.421875 39.40625 -1.421875 
Q 24.03125 -1.421875 14.8125 8.828125 
Q 5.609375 19.09375 5.609375 36.375 
Q 5.609375 53.65625 14.8125 63.9375 
Q 24.03125 74.21875 39.40625 74.21875 
z
" id="DejaVuSans-79"/>
        <path d="M 44.390625 34.1875 
Q 47.5625 33.109375 50.5625 29.59375 
Q 53.5625 26.078125 56.59375 19.921875 
L 66.609375 0 
L 56 0 
L 46.6875 18.703125 
Q 43.0625 26.03125 39.671875 28.421875 
Q 36.28125 30.8125 30.421875 30.8125 
L 19.671875 30.8125 
L 19.671875 0 
L 9.8125 0 
L 9.8125 72.90625 
L 32.078125 72.90625 
Q 44.578125 72.90625 50.734375 67.671875 
Q 56.890625 62.453125 56.890625 51.90625 
Q 56.890625 45.015625 53.6875 40.46875 
Q 50.484375 35.9375 44.390625 34.1875 
z
M 19.671875 64.796875 
L 19.671875 38.921875 
L 32.078125 38.921875 
Q 39.203125 38.921875 42.84375 42.21875 
Q 46.484375 45.515625 46.484375 51.90625 
Q 46.484375 58.296875 42.84375 61.546875 
Q 39.203125 64.796875 32.078125 64.796875 
z
" id="DejaVuSans-82"/>
        <path d="M 9.8125 72.90625 
L 19.671875 72.90625 
L 19.671875 43.015625 
L 55.515625 43.015625 
L 55.515625 72.90625 
L 65.375 72.90625 
L 65.375 0 
L 55.515625 0 
L 55.515625 34.71875 
L 19.671875 34.71875 
L 19.671875 0 
L 9.8125 0 
z
" id="DejaVuSans-72"/>
       </defs>
       <use xlink:href="#DejaVuSans-80"/>
       <use x="60.302734" xlink:href="#DejaVuSans-79"/>
       <use x="139.013672" xlink:href="#DejaVuSans-73"/>
       <use x="168.505859" xlink:href="#DejaVuSans-95"/>
       <use x="218.505859" xlink:href="#DejaVuSans-82"/>
       <use x="283.488281" xlink:href="#DejaVuSans-101"/>
       <use x="345.011719" xlink:href="#DejaVuSans-115"/>
       <use x="397.111328" xlink:href="#DejaVuSans-116"/>
       <use x="436.320312" xlink:href="#DejaVuSans-97"/>
       <use x="497.599609" xlink:href="#DejaVuSans-117"/>
       <use x="560.978516" xlink:href="#DejaVuSans-114"/>
       <use x="602.091797" xlink:href="#DejaVuSans-97"/>
       <use x="663.371094" xlink:href="#DejaVuSans-110"/>
       <use x="726.75" xlink:href="#DejaVuSans-116"/>
       <use x="765.958984" xlink:href="#DejaVuSans-115"/>
       <use x="818.058594" xlink:href="#DejaVuSans-95"/>
       <use x="868.058594" xlink:href="#DejaVuSans-72"/>
       <use x="943.253906" xlink:href="#DejaVuSans-111"/>
       <use x="1004.435547" xlink:href="#DejaVuSans-116"/>
       <use x="1043.644531" xlink:href="#DejaVuSans-101"/>
       <use x="1105.167969" xlink:href="#DejaVuSans-108"/>
       <use x="1132.951172" xlink:href="#DejaVuSans-115"/>
      </g>
     </g>
    </g>
    <g id="ytick_5">
     <g id="line2d_14">
      <g>
       <use style="stroke:#000000;stroke-width:0.8;" x="180" xlink:href="#m15ffafd543" y="871.714286"/>
      </g>
     </g>
     <g id="text_15">
      <!-- Nationality_UK -->
      <g transform="translate(99.835938 875.513504)scale(0.1 -0.1)">
       <defs>
        <path d="M 8.6875 72.90625 
L 18.609375 72.90625 
L 18.609375 28.609375 
Q 18.609375 16.890625 22.84375 11.734375 
Q 27.09375 6.59375 36.625 6.59375 
Q 46.09375 6.59375 50.34375 11.734375 
Q 54.59375 16.890625 54.59375 28.609375 
L 54.59375 72.90625 
L 64.5 72.90625 
L 64.5 27.390625 
Q 64.5 13.140625 57.4375 5.859375 
Q 50.390625 -1.421875 36.625 -1.421875 
Q 22.796875 -1.421875 15.734375 5.859375 
Q 8.6875 13.140625 8.6875 27.390625 
z
" id="DejaVuSans-85"/>
        <path d="M 9.8125 72.90625 
L 19.671875 72.90625 
L 19.671875 42.09375 
L 52.390625 72.90625 
L 65.09375 72.90625 
L 28.90625 38.921875 
L 67.671875 0 
L 54.6875 0 
L 19.671875 35.109375 
L 19.671875 0 
L 9.8125 0 
z
" id="DejaVuSans-75"/>
       </defs>
       <use xlink:href="#DejaVuSans-78"/>
       <use x="74.804688" xlink:href="#DejaVuSans-97"/>
       <use x="136.083984" xlink:href="#DejaVuSans-116"/>
       <use x="175.292969" xlink:href="#DejaVuSans-105"/>
       <use x="203.076172" xlink:href="#DejaVuSans-111"/>
       <use x="264.257812" xlink:href="#DejaVuSans-110"/>
       <use x="327.636719" xlink:href="#DejaVuSans-97"/>
       <use x="388.916016" xlink:href="#DejaVuSans-108"/>
       <use x="416.699219" xlink:href="#DejaVuSans-105"/>
       <use x="444.482422" xlink:href="#DejaVuSans-116"/>
       <use x="483.691406" xlink:href="#DejaVuSans-121"/>
       <use x="542.871094" xlink:href="#DejaVuSans-95"/>
       <use x="592.871094" xlink:href="#DejaVuSans-85"/>
       <use x="666.064453" xlink:href="#DejaVuSans-75"/>
      </g>
     </g>
    </g>
    <g id="ytick_6">
     <g id="line2d_15">
      <g>
       <use style="stroke:#000000;stroke-width:0.8;" x="180" xlink:href="#m15ffafd543" y="1027.028571"/>
      </g>
     </g>
     <g id="text_16">
      <!-- Percentage_Age_25_39 -->
      <g transform="translate(56.9625 1030.739509)scale(0.1 -0.1)">
       <defs>
        <path d="M 45.40625 27.984375 
Q 45.40625 37.75 41.375 43.109375 
Q 37.359375 48.484375 30.078125 48.484375 
Q 22.859375 48.484375 18.828125 43.109375 
Q 14.796875 37.75 14.796875 27.984375 
Q 14.796875 18.265625 18.828125 12.890625 
Q 22.859375 7.515625 30.078125 7.515625 
Q 37.359375 7.515625 41.375 12.890625 
Q 45.40625 18.265625 45.40625 27.984375 
z
M 54.390625 6.78125 
Q 54.390625 -7.171875 48.1875 -13.984375 
Q 42 -20.796875 29.203125 -20.796875 
Q 24.46875 -20.796875 20.265625 -20.09375 
Q 16.0625 -19.390625 12.109375 -17.921875 
L 12.109375 -9.1875 
Q 16.0625 -11.328125 19.921875 -12.34375 
Q 23.78125 -13.375 27.78125 -13.375 
Q 36.625 -13.375 41.015625 -8.765625 
Q 45.40625 -4.15625 45.40625 5.171875 
L 45.40625 9.625 
Q 42.625 4.78125 38.28125 2.390625 
Q 33.9375 0 27.875 0 
Q 17.828125 0 11.671875 7.65625 
Q 5.515625 15.328125 5.515625 27.984375 
Q 5.515625 40.671875 11.671875 48.328125 
Q 17.828125 56 27.875 56 
Q 33.9375 56 38.28125 53.609375 
Q 42.625 51.21875 45.40625 46.390625 
L 45.40625 54.6875 
L 54.390625 54.6875 
z
" id="DejaVuSans-103"/>
        <path d="M 34.1875 63.1875 
L 20.796875 26.90625 
L 47.609375 26.90625 
z
M 28.609375 72.90625 
L 39.796875 72.90625 
L 67.578125 0 
L 57.328125 0 
L 50.6875 18.703125 
L 17.828125 18.703125 
L 11.1875 0 
L 0.78125 0 
z
" id="DejaVuSans-65"/>
        <path d="M 10.796875 72.90625 
L 49.515625 72.90625 
L 49.515625 64.59375 
L 19.828125 64.59375 
L 19.828125 46.734375 
Q 21.96875 47.46875 24.109375 47.828125 
Q 26.265625 48.1875 28.421875 48.1875 
Q 40.625 48.1875 47.75 41.5 
Q 54.890625 34.8125 54.890625 23.390625 
Q 54.890625 11.625 47.5625 5.09375 
Q 40.234375 -1.421875 26.90625 -1.421875 
Q 22.3125 -1.421875 17.546875 -0.640625 
Q 12.796875 0.140625 7.71875 1.703125 
L 7.71875 11.625 
Q 12.109375 9.234375 16.796875 8.0625 
Q 21.484375 6.890625 26.703125 6.890625 
Q 35.15625 6.890625 40.078125 11.328125 
Q 45.015625 15.765625 45.015625 23.390625 
Q 45.015625 31 40.078125 35.4375 
Q 35.15625 39.890625 26.703125 39.890625 
Q 22.75 39.890625 18.8125 39.015625 
Q 14.890625 38.140625 10.796875 36.28125 
z
" id="DejaVuSans-53"/>
        <path d="M 10.984375 1.515625 
L 10.984375 10.5 
Q 14.703125 8.734375 18.5 7.8125 
Q 22.3125 6.890625 25.984375 6.890625 
Q 35.75 6.890625 40.890625 13.453125 
Q 46.046875 20.015625 46.78125 33.40625 
Q 43.953125 29.203125 39.59375 26.953125 
Q 35.25 24.703125 29.984375 24.703125 
Q 19.046875 24.703125 12.671875 31.3125 
Q 6.296875 37.9375 6.296875 49.421875 
Q 6.296875 60.640625 12.9375 67.421875 
Q 19.578125 74.21875 30.609375 74.21875 
Q 43.265625 74.21875 49.921875 64.515625 
Q 56.59375 54.828125 56.59375 36.375 
Q 56.59375 19.140625 48.40625 8.859375 
Q 40.234375 -1.421875 26.421875 -1.421875 
Q 22.703125 -1.421875 18.890625 -0.6875 
Q 15.09375 0.046875 10.984375 1.515625 
z
M 30.609375 32.421875 
Q 37.25 32.421875 41.125 36.953125 
Q 45.015625 41.5 45.015625 49.421875 
Q 45.015625 57.28125 41.125 61.84375 
Q 37.25 66.40625 30.609375 66.40625 
Q 23.96875 66.40625 20.09375 61.84375 
Q 16.21875 57.28125 16.21875 49.421875 
Q 16.21875 41.5 20.09375 36.953125 
Q 23.96875 32.421875 30.609375 32.421875 
z
" id="DejaVuSans-57"/>
       </defs>
       <use xlink:href="#DejaVuSans-80"/>
       <use x="56.677734" xlink:href="#DejaVuSans-101"/>
       <use x="118.201172" xlink:href="#DejaVuSans-114"/>
       <use x="157.064453" xlink:href="#DejaVuSans-99"/>
       <use x="212.044922" xlink:href="#DejaVuSans-101"/>
       <use x="273.568359" xlink:href="#DejaVuSans-110"/>
       <use x="336.947266" xlink:href="#DejaVuSans-116"/>
       <use x="376.15625" xlink:href="#DejaVuSans-97"/>
       <use x="437.435547" xlink:href="#DejaVuSans-103"/>
       <use x="500.912109" xlink:href="#DejaVuSans-101"/>
       <use x="562.435547" xlink:href="#DejaVuSans-95"/>
       <use x="612.435547" xlink:href="#DejaVuSans-65"/>
       <use x="680.84375" xlink:href="#DejaVuSans-103"/>
       <use x="744.320312" xlink:href="#DejaVuSans-101"/>
       <use x="805.84375" xlink:href="#DejaVuSans-95"/>
       <use x="855.84375" xlink:href="#DejaVuSans-50"/>
       <use x="919.466797" xlink:href="#DejaVuSans-53"/>
       <use x="983.089844" xlink:href="#DejaVuSans-95"/>
       <use x="1033.089844" xlink:href="#DejaVuSans-51"/>
       <use x="1096.712891" xlink:href="#DejaVuSans-57"/>
      </g>
     </g>
    </g>
    <g id="ytick_7">
     <g id="line2d_16">
      <g>
       <use style="stroke:#000000;stroke-width:0.8;" x="180" xlink:href="#m15ffafd543" y="1182.342857"/>
      </g>
     </g>
     <g id="text_17">
      <!-- Intercept -->
      <g transform="translate(127.832812 1186.142076)scale(0.1 -0.1)">
       <use xlink:href="#DejaVuSans-73"/>
       <use x="29.492188" xlink:href="#DejaVuSans-110"/>
       <use x="92.871094" xlink:href="#DejaVuSans-116"/>
       <use x="132.080078" xlink:href="#DejaVuSans-101"/>
       <use x="193.603516" xlink:href="#DejaVuSans-114"/>
       <use x="232.466797" xlink:href="#DejaVuSans-99"/>
       <use x="287.447266" xlink:href="#DejaVuSans-101"/>
       <use x="348.970703" xlink:href="#DejaVuSans-112"/>
       <use x="412.447266" xlink:href="#DejaVuSans-116"/>
      </g>
     </g>
    </g>
   </g>
   <g id="line2d_17">
    <path clip-path="url(#pf59df660af)" d="M 244.828352 250.457143 
L 222.521519 250.457143 
" style="fill:none;stroke:#4c4c4c;stroke-linecap:square;stroke-width:1.5;"/>
   </g>
   <g id="line2d_18">
    <path clip-path="url(#pf59df660af)" d="M 265.13356 250.457143 
L 286.697055 250.457143 
" style="fill:none;stroke:#4c4c4c;stroke-linecap:square;stroke-width:1.5;"/>
   </g>
   <g id="line2d_19">
    <path clip-path="url(#pf59df660af)" d="M 222.521519 219.394286 
L 222.521519 281.52 
" style="fill:none;stroke:#4c4c4c;stroke-linecap:square;stroke-width:1.5;"/>
   </g>
   <g id="line2d_20">
    <path clip-path="url(#pf59df660af)" d="M 286.697055 219.394286 
L 286.697055 281.52 
" style="fill:none;stroke:#4c4c4c;stroke-linecap:square;stroke-width:1.5;"/>
   </g>
   <g id="line2d_21">
    <defs>
     <path d="M -0 3.535534 
L 2.12132 0 
L -0 -3.535534 
L -2.12132 -0 
z
" id="md31708f19f" style="stroke:#4c4c4c;stroke-linejoin:miter;"/>
    </defs>
    <g clip-path="url(#pf59df660af)">
     <use style="fill:#4c4c4c;stroke:#4c4c4c;stroke-linejoin:miter;" x="206.571429" xlink:href="#md31708f19f" y="250.457143"/>
     <use style="fill:#4c4c4c;stroke:#4c4c4c;stroke-linejoin:miter;" x="208.673372" xlink:href="#md31708f19f" y="250.457143"/>
     <use style="fill:#4c4c4c;stroke:#4c4c4c;stroke-linejoin:miter;" x="306.862336" xlink:href="#md31708f19f" y="250.457143"/>
     <use style="fill:#4c4c4c;stroke:#4c4c4c;stroke-linejoin:miter;" x="305.19649" xlink:href="#md31708f19f" y="250.457143"/>
    </g>
   </g>
   <g id="line2d_22">
    <path clip-path="url(#pf59df660af)" d="M 948.547186 405.771429 
L 920.973844 405.771429 
" style="fill:none;stroke:#4c4c4c;stroke-linecap:square;stroke-width:1.5;"/>
   </g>
   <g id="line2d_23">
    <path clip-path="url(#pf59df660af)" d="M 969.166911 405.771429 
L 997.579025 405.771429 
" style="fill:none;stroke:#4c4c4c;stroke-linecap:square;stroke-width:1.5;"/>
   </g>
   <g id="line2d_24">
    <path clip-path="url(#pf59df660af)" d="M 920.973844 374.708571 
L 920.973844 436.834286 
" style="fill:none;stroke:#4c4c4c;stroke-linecap:square;stroke-width:1.5;"/>
   </g>
   <g id="line2d_25">
    <path clip-path="url(#pf59df660af)" d="M 997.579025 374.708571 
L 997.579025 436.834286 
" style="fill:none;stroke:#4c4c4c;stroke-linecap:square;stroke-width:1.5;"/>
   </g>
   <g id="line2d_26">
    <g clip-path="url(#pf59df660af)">
     <use style="fill:#4c4c4c;stroke:#4c4c4c;stroke-linejoin:miter;" x="1001.43922" xlink:href="#md31708f19f" y="405.771429"/>
    </g>
   </g>
   <g id="line2d_27">
    <path clip-path="url(#pf59df660af)" d="M 515.618521 561.085714 
L 485.381952 561.085714 
" style="fill:none;stroke:#4c4c4c;stroke-linecap:square;stroke-width:1.5;"/>
   </g>
   <g id="line2d_28">
    <path clip-path="url(#pf59df660af)" d="M 539.052588 561.085714 
L 558.388527 561.085714 
" style="fill:none;stroke:#4c4c4c;stroke-linecap:square;stroke-width:1.5;"/>
   </g>
   <g id="line2d_29">
    <path clip-path="url(#pf59df660af)" d="M 485.381952 530.022857 
L 485.381952 592.148571 
" style="fill:none;stroke:#4c4c4c;stroke-linecap:square;stroke-width:1.5;"/>
   </g>
   <g id="line2d_30">
    <path clip-path="url(#pf59df660af)" d="M 558.388527 530.022857 
L 558.388527 592.148571 
" style="fill:none;stroke:#4c4c4c;stroke-linecap:square;stroke-width:1.5;"/>
   </g>
   <g id="line2d_31"/>
   <g id="line2d_32">
    <path clip-path="url(#pf59df660af)" d="M 920.187527 716.4 
L 906.887939 716.4 
" style="fill:none;stroke:#4c4c4c;stroke-linecap:square;stroke-width:1.5;"/>
   </g>
   <g id="line2d_33">
    <path clip-path="url(#pf59df660af)" d="M 935.262263 716.4 
L 957.124379 716.4 
" style="fill:none;stroke:#4c4c4c;stroke-linecap:square;stroke-width:1.5;"/>
   </g>
   <g id="line2d_34">
    <path clip-path="url(#pf59df660af)" d="M 906.887939 685.337143 
L 906.887939 747.462857 
" style="fill:none;stroke:#4c4c4c;stroke-linecap:square;stroke-width:1.5;"/>
   </g>
   <g id="line2d_35">
    <path clip-path="url(#pf59df660af)" d="M 957.124379 685.337143 
L 957.124379 747.462857 
" style="fill:none;stroke:#4c4c4c;stroke-linecap:square;stroke-width:1.5;"/>
   </g>
   <g id="line2d_36">
    <g clip-path="url(#pf59df660af)">
     <use style="fill:#4c4c4c;stroke:#4c4c4c;stroke-linejoin:miter;" x="893.573752" xlink:href="#md31708f19f" y="716.4"/>
    </g>
   </g>
   <g id="line2d_37">
    <path clip-path="url(#pf59df660af)" d="M 867.970219 871.714286 
L 839.975325 871.714286 
" style="fill:none;stroke:#4c4c4c;stroke-linecap:square;stroke-width:1.5;"/>
   </g>
   <g id="line2d_38">
    <path clip-path="url(#pf59df660af)" d="M 892.404481 871.714286 
L 924.042743 871.714286 
" style="fill:none;stroke:#4c4c4c;stroke-linecap:square;stroke-width:1.5;"/>
   </g>
   <g id="line2d_39">
    <path clip-path="url(#pf59df660af)" d="M 839.975325 840.651429 
L 839.975325 902.777143 
" style="fill:none;stroke:#4c4c4c;stroke-linecap:square;stroke-width:1.5;"/>
   </g>
   <g id="line2d_40">
    <path clip-path="url(#pf59df660af)" d="M 924.042743 840.651429 
L 924.042743 902.777143 
" style="fill:none;stroke:#4c4c4c;stroke-linecap:square;stroke-width:1.5;"/>
   </g>
   <g id="line2d_41"/>
   <g id="line2d_42">
    <path clip-path="url(#pf59df660af)" d="M 866.087755 1027.028571 
L 843.17308 1027.028571 
" style="fill:none;stroke:#4c4c4c;stroke-linecap:square;stroke-width:1.5;"/>
   </g>
   <g id="line2d_43">
    <path clip-path="url(#pf59df660af)" d="M 883.444749 1027.028571 
L 905.752376 1027.028571 
" style="fill:none;stroke:#4c4c4c;stroke-linecap:square;stroke-width:1.5;"/>
   </g>
   <g id="line2d_44">
    <path clip-path="url(#pf59df660af)" d="M 843.17308 995.965714 
L 843.17308 1058.091429 
" style="fill:none;stroke:#4c4c4c;stroke-linecap:square;stroke-width:1.5;"/>
   </g>
   <g id="line2d_45">
    <path clip-path="url(#pf59df660af)" d="M 905.752376 995.965714 
L 905.752376 1058.091429 
" style="fill:none;stroke:#4c4c4c;stroke-linecap:square;stroke-width:1.5;"/>
   </g>
   <g id="line2d_46">
    <g clip-path="url(#pf59df660af)">
     <use style="fill:#4c4c4c;stroke:#4c4c4c;stroke-linejoin:miter;" x="828.672077" xlink:href="#md31708f19f" y="1027.028571"/>
     <use style="fill:#4c4c4c;stroke:#4c4c4c;stroke-linejoin:miter;" x="834.354836" xlink:href="#md31708f19f" y="1027.028571"/>
    </g>
   </g>
   <g id="line2d_47">
    <path clip-path="url(#pf59df660af)" d="M 738 1182.342857 
L 738 1182.342857 
" style="fill:none;stroke:#4c4c4c;stroke-linecap:square;stroke-width:1.5;"/>
   </g>
   <g id="line2d_48">
    <path clip-path="url(#pf59df660af)" d="M 738 1182.342857 
L 738 1182.342857 
" style="fill:none;stroke:#4c4c4c;stroke-linecap:square;stroke-width:1.5;"/>
   </g>
   <g id="line2d_49">
    <path clip-path="url(#pf59df660af)" d="M 738 1151.28 
L 738 1213.405714 
" style="fill:none;stroke:#4c4c4c;stroke-linecap:square;stroke-width:1.5;"/>
   </g>
   <g id="line2d_50">
    <path clip-path="url(#pf59df660af)" d="M 738 1151.28 
L 738 1213.405714 
" style="fill:none;stroke:#4c4c4c;stroke-linecap:square;stroke-width:1.5;"/>
   </g>
   <g id="line2d_51"/>
   <g id="line2d_52">
    <path clip-path="url(#pf59df660af)" d="M 738 1260 
L 738 172.8 
" style="fill:none;stroke:#ff0000;stroke-linecap:square;stroke-width:1.5;"/>
   </g>
   <g id="line2d_53">
    <path clip-path="url(#pf59df660af)" d="M 257.048081 188.331429 
L 257.048081 312.582857 
" style="fill:none;stroke:#4c4c4c;stroke-linecap:square;stroke-width:1.5;"/>
   </g>
   <g id="line2d_54">
    <path clip-path="url(#pf59df660af)" d="M 957.356774 343.645714 
L 957.356774 467.897143 
" style="fill:none;stroke:#4c4c4c;stroke-linecap:square;stroke-width:1.5;"/>
   </g>
   <g id="line2d_55">
    <path clip-path="url(#pf59df660af)" d="M 524.82265 498.96 
L 524.82265 623.211429 
" style="fill:none;stroke:#4c4c4c;stroke-linecap:square;stroke-width:1.5;"/>
   </g>
   <g id="line2d_56">
    <path clip-path="url(#pf59df660af)" d="M 925.879081 654.274286 
L 925.879081 778.525714 
" style="fill:none;stroke:#4c4c4c;stroke-linecap:square;stroke-width:1.5;"/>
   </g>
   <g id="line2d_57">
    <path clip-path="url(#pf59df660af)" d="M 878.6751 809.588571 
L 878.6751 933.84 
" style="fill:none;stroke:#4c4c4c;stroke-linecap:square;stroke-width:1.5;"/>
   </g>
   <g id="line2d_58">
    <path clip-path="url(#pf59df660af)" d="M 871.547437 964.902857 
L 871.547437 1089.154286 
" style="fill:none;stroke:#4c4c4c;stroke-linecap:square;stroke-width:1.5;"/>
   </g>
   <g id="line2d_59">
    <path clip-path="url(#pf59df660af)" d="M 738 1120.217143 
L 738 1244.468571 
" style="fill:none;stroke:#4c4c4c;stroke-linecap:square;stroke-width:1.5;"/>
   </g>
   <g id="patch_10">
    <path d="M 180 1260 
L 180 172.8 
" style="fill:none;stroke:#000000;stroke-linecap:square;stroke-linejoin:miter;stroke-width:0.8;"/>
   </g>
   <g id="patch_11">
    <path d="M 1296 1260 
L 1296 172.8 
" style="fill:none;stroke:#000000;stroke-linecap:square;stroke-linejoin:miter;stroke-width:0.8;"/>
   </g>
   <g id="patch_12">
    <path d="M 180 1260 
L 1296 1260 
" style="fill:none;stroke:#000000;stroke-linecap:square;stroke-linejoin:miter;stroke-width:0.8;"/>
   </g>
   <g id="patch_13">
    <path d="M 180 172.8 
L 1296 172.8 
" style="fill:none;stroke:#000000;stroke-linecap:square;stroke-linejoin:miter;stroke-width:0.8;"/>
   </g>
   <g id="PathCollection_1">
    <defs>
     <path d="M 0 2.5 
C 0.663008 2.5 1.29895 2.236584 1.767767 1.767767 
C 2.236584 1.29895 2.5 0.663008 2.5 -0 
C 2.5 -0.663008 2.236584 -1.29895 1.767767 -1.767767 
C 1.29895 -2.236584 0.663008 -2.5 0 -2.5 
C -0.663008 -2.5 -1.29895 -2.236584 -1.767767 -1.767767 
C -2.236584 -1.29895 -2.5 -0.663008 -2.5 0 
C -2.5 0.663008 -2.236584 1.29895 -1.767767 1.767767 
C -1.29895 2.236584 -0.663008 2.5 0 2.5 
z
" id="C0_0_276685f0cd"/>
    </defs>
    <g clip-path="url(#pf59df660af)">
     <use style="fill-opacity:0.5;" x="248.956289" xlink:href="#C0_0_276685f0cd" y="260.600752"/>
    </g>
    <g clip-path="url(#pf59df660af)">
     <use style="fill-opacity:0.5;" x="252.84159" xlink:href="#C0_0_276685f0cd" y="259.806463"/>
    </g>
    <g clip-path="url(#pf59df660af)">
     <use style="fill-opacity:0.5;" x="228.151637" xlink:href="#C0_0_276685f0cd" y="238.17037"/>
    </g>
    <g clip-path="url(#pf59df660af)">
     <use style="fill-opacity:0.5;" x="306.862336" xlink:href="#C0_0_276685f0cd" y="252.844553"/>
    </g>
    <g clip-path="url(#pf59df660af)">
     <use style="fill-opacity:0.5;" x="248.52638" xlink:href="#C0_0_276685f0cd" y="249.338311"/>
    </g>
    <g clip-path="url(#pf59df660af)">
     <use style="fill-opacity:0.5;" x="206.571429" xlink:href="#C0_0_276685f0cd" y="238.613158"/>
    </g>
    <g clip-path="url(#pf59df660af)">
     <use style="fill-opacity:0.5;" x="279.795602" xlink:href="#C0_0_276685f0cd" y="265.384965"/>
    </g>
    <g clip-path="url(#pf59df660af)">
     <use style="fill-opacity:0.5;" x="286.697055" xlink:href="#C0_0_276685f0cd" y="241.594782"/>
    </g>
    <g clip-path="url(#pf59df660af)">
     <use style="fill-opacity:0.5;" x="274.246515" xlink:href="#C0_0_276685f0cd" y="237.0142"/>
    </g>
    <g clip-path="url(#pf59df660af)">
     <use style="fill-opacity:0.5;" x="236.341859" xlink:href="#C0_0_276685f0cd" y="253.403373"/>
    </g>
    <g clip-path="url(#pf59df660af)">
     <use style="fill-opacity:0.5;" x="257.048081" xlink:href="#C0_0_276685f0cd" y="257.877024"/>
    </g>
    <g clip-path="url(#pf59df660af)">
     <use style="fill-opacity:0.5;" x="264.359538" xlink:href="#C0_0_276685f0cd" y="235.9335"/>
    </g>
    <g clip-path="url(#pf59df660af)">
     <use style="fill-opacity:0.5;" x="244.828352" xlink:href="#C0_0_276685f0cd" y="255.387366"/>
    </g>
    <g clip-path="url(#pf59df660af)">
     <use style="fill-opacity:0.5;" x="253.220716" xlink:href="#C0_0_276685f0cd" y="251.460221"/>
    </g>
    <g clip-path="url(#pf59df660af)">
     <use style="fill-opacity:0.5;" x="264.326349" xlink:href="#C0_0_276685f0cd" y="238.133421"/>
    </g>
    <g clip-path="url(#pf59df660af)">
     <use style="fill-opacity:0.5;" x="258.425322" xlink:href="#C0_0_276685f0cd" y="240.284799"/>
    </g>
    <g clip-path="url(#pf59df660af)">
     <use style="fill-opacity:0.5;" x="243.340517" xlink:href="#C0_0_276685f0cd" y="252.568619"/>
    </g>
    <g clip-path="url(#pf59df660af)">
     <use style="fill-opacity:0.5;" x="254.536931" xlink:href="#C0_0_276685f0cd" y="244.131428"/>
    </g>
    <g clip-path="url(#pf59df660af)">
     <use style="fill-opacity:0.5;" x="264.145323" xlink:href="#C0_0_276685f0cd" y="264.072482"/>
    </g>
    <g clip-path="url(#pf59df660af)">
     <use style="fill-opacity:0.5;" x="265.13356" xlink:href="#C0_0_276685f0cd" y="260.358125"/>
    </g>
    <g clip-path="url(#pf59df660af)">
     <use style="fill-opacity:0.5;" x="222.521519" xlink:href="#C0_0_276685f0cd" y="265.478122"/>
    </g>
    <g clip-path="url(#pf59df660af)">
     <use style="fill-opacity:0.5;" x="305.19649" xlink:href="#C0_0_276685f0cd" y="242.991832"/>
    </g>
    <g clip-path="url(#pf59df660af)">
     <use style="fill-opacity:0.5;" x="208.673372" xlink:href="#C0_0_276685f0cd" y="265.048101"/>
    </g>
    <g clip-path="url(#pf59df660af)">
     <use style="fill-opacity:0.5;" x="283.581969" xlink:href="#C0_0_276685f0cd" y="248.32107"/>
    </g>
    <g clip-path="url(#pf59df660af)">
     <use style="fill-opacity:0.5;" x="264.88359" xlink:href="#C0_0_276685f0cd" y="245.720641"/>
    </g>
   </g>
   <g id="PathCollection_2">
    <defs>
     <path d="M 0 2.5 
C 0.663008 2.5 1.29895 2.236584 1.767767 1.767767 
C 2.236584 1.29895 2.5 0.663008 2.5 -0 
C 2.5 -0.663008 2.236584 -1.29895 1.767767 -1.767767 
C 1.29895 -2.236584 0.663008 -2.5 0 -2.5 
C -0.663008 -2.5 -1.29895 -2.236584 -1.767767 -1.767767 
C -2.236584 -1.29895 -2.5 -0.663008 -2.5 0 
C -2.5 0.663008 -2.236584 1.29895 -1.767767 1.767767 
C -1.29895 2.236584 -0.663008 2.5 0 2.5 
z
" id="C1_0_f3e1b7b7f3"/>
    </defs>
    <g clip-path="url(#pf59df660af)">
     <use style="fill-opacity:0.5;" x="997.579025" xlink:href="#C1_0_f3e1b7b7f3" y="391.804"/>
    </g>
    <g clip-path="url(#pf59df660af)">
     <use style="fill-opacity:0.5;" x="950.070641" xlink:href="#C1_0_f3e1b7b7f3" y="391.87904"/>
    </g>
    <g clip-path="url(#pf59df660af)">
     <use style="fill-opacity:0.5;" x="920.973844" xlink:href="#C1_0_f3e1b7b7f3" y="411.735847"/>
    </g>
    <g clip-path="url(#pf59df660af)">
     <use style="fill-opacity:0.5;" x="951.687219" xlink:href="#C1_0_f3e1b7b7f3" y="404.464583"/>
    </g>
    <g clip-path="url(#pf59df660af)">
     <use style="fill-opacity:0.5;" x="968.170825" xlink:href="#C1_0_f3e1b7b7f3" y="397.276409"/>
    </g>
    <g clip-path="url(#pf59df660af)">
     <use style="fill-opacity:0.5;" x="974.37395" xlink:href="#C1_0_f3e1b7b7f3" y="409.311672"/>
    </g>
    <g clip-path="url(#pf59df660af)">
     <use style="fill-opacity:0.5;" x="952.370618" xlink:href="#C1_0_f3e1b7b7f3" y="398.094496"/>
    </g>
    <g clip-path="url(#pf59df660af)">
     <use style="fill-opacity:0.5;" x="976.23892" xlink:href="#C1_0_f3e1b7b7f3" y="408.182893"/>
    </g>
    <g clip-path="url(#pf59df660af)">
     <use style="fill-opacity:0.5;" x="949.082079" xlink:href="#C1_0_f3e1b7b7f3" y="401.39805"/>
    </g>
    <g clip-path="url(#pf59df660af)">
     <use style="fill-opacity:0.5;" x="941.525139" xlink:href="#C1_0_f3e1b7b7f3" y="415.821885"/>
    </g>
    <g clip-path="url(#pf59df660af)">
     <use style="fill-opacity:0.5;" x="982.199214" xlink:href="#C1_0_f3e1b7b7f3" y="415.733168"/>
    </g>
    <g clip-path="url(#pf59df660af)">
     <use style="fill-opacity:0.5;" x="969.166911" xlink:href="#C1_0_f3e1b7b7f3" y="405.067867"/>
    </g>
    <g clip-path="url(#pf59df660af)">
     <use style="fill-opacity:0.5;" x="948.547186" xlink:href="#C1_0_f3e1b7b7f3" y="401.137444"/>
    </g>
    <g clip-path="url(#pf59df660af)">
     <use style="fill-opacity:0.5;" x="934.880039" xlink:href="#C1_0_f3e1b7b7f3" y="401.502143"/>
    </g>
    <g clip-path="url(#pf59df660af)">
     <use style="fill-opacity:0.5;" x="959.236841" xlink:href="#C1_0_f3e1b7b7f3" y="415.267795"/>
    </g>
    <g clip-path="url(#pf59df660af)">
     <use style="fill-opacity:0.5;" x="972.996651" xlink:href="#C1_0_f3e1b7b7f3" y="400.434192"/>
    </g>
    <g clip-path="url(#pf59df660af)">
     <use style="fill-opacity:0.5;" x="957.356774" xlink:href="#C1_0_f3e1b7b7f3" y="396.733981"/>
    </g>
    <g clip-path="url(#pf59df660af)">
     <use style="fill-opacity:0.5;" x="931.894453" xlink:href="#C1_0_f3e1b7b7f3" y="392.870662"/>
    </g>
    <g clip-path="url(#pf59df660af)">
     <use style="fill-opacity:0.5;" x="964.685984" xlink:href="#C1_0_f3e1b7b7f3" y="404.736822"/>
    </g>
    <g clip-path="url(#pf59df660af)">
     <use style="fill-opacity:0.5;" x="966.997838" xlink:href="#C1_0_f3e1b7b7f3" y="405.216401"/>
    </g>
    <g clip-path="url(#pf59df660af)">
     <use style="fill-opacity:0.5;" x="943.275257" xlink:href="#C1_0_f3e1b7b7f3" y="416.361027"/>
    </g>
    <g clip-path="url(#pf59df660af)">
     <use style="fill-opacity:0.5;" x="1001.43922" xlink:href="#C1_0_f3e1b7b7f3" y="397.112306"/>
    </g>
    <g clip-path="url(#pf59df660af)">
     <use style="fill-opacity:0.5;" x="940.147733" xlink:href="#C1_0_f3e1b7b7f3" y="402.074678"/>
    </g>
    <g clip-path="url(#pf59df660af)">
     <use style="fill-opacity:0.5;" x="950.180421" xlink:href="#C1_0_f3e1b7b7f3" y="415.351392"/>
    </g>
    <g clip-path="url(#pf59df660af)">
     <use style="fill-opacity:0.5;" x="959.546533" xlink:href="#C1_0_f3e1b7b7f3" y="415.824103"/>
    </g>
   </g>
   <g id="PathCollection_3">
    <defs>
     <path d="M 0 2.5 
C 0.663008 2.5 1.29895 2.236584 1.767767 1.767767 
C 2.236584 1.29895 2.5 0.663008 2.5 -0 
C 2.5 -0.663008 2.236584 -1.29895 1.767767 -1.767767 
C 1.29895 -2.236584 0.663008 -2.5 0 -2.5 
C -0.663008 -2.5 -1.29895 -2.236584 -1.767767 -1.767767 
C -2.236584 -1.29895 -2.5 -0.663008 -2.5 0 
C -2.5 0.663008 -2.236584 1.29895 -1.767767 1.767767 
C -1.29895 2.236584 -0.663008 2.5 0 2.5 
z
" id="C2_0_f66ec248b8"/>
    </defs>
    <g clip-path="url(#pf59df660af)">
     <use style="fill-opacity:0.5;" x="518.129041" xlink:href="#C2_0_f66ec248b8" y="557.501405"/>
    </g>
    <g clip-path="url(#pf59df660af)">
     <use style="fill-opacity:0.5;" x="543.613855" xlink:href="#C2_0_f66ec248b8" y="559.81599"/>
    </g>
    <g clip-path="url(#pf59df660af)">
     <use style="fill-opacity:0.5;" x="543.137894" xlink:href="#C2_0_f66ec248b8" y="554.975212"/>
    </g>
    <g clip-path="url(#pf59df660af)">
     <use style="fill-opacity:0.5;" x="504.245009" xlink:href="#C2_0_f66ec248b8" y="574.522105"/>
    </g>
    <g clip-path="url(#pf59df660af)">
     <use style="fill-opacity:0.5;" x="518.972225" xlink:href="#C2_0_f66ec248b8" y="549.2397"/>
    </g>
    <g clip-path="url(#pf59df660af)">
     <use style="fill-opacity:0.5;" x="558.388527" xlink:href="#C2_0_f66ec248b8" y="574.559211"/>
    </g>
    <g clip-path="url(#pf59df660af)">
     <use style="fill-opacity:0.5;" x="485.381952" xlink:href="#C2_0_f66ec248b8" y="566.797132"/>
    </g>
    <g clip-path="url(#pf59df660af)">
     <use style="fill-opacity:0.5;" x="534.398102" xlink:href="#C2_0_f66ec248b8" y="562.066436"/>
    </g>
    <g clip-path="url(#pf59df660af)">
     <use style="fill-opacity:0.5;" x="533.755287" xlink:href="#C2_0_f66ec248b8" y="546.568769"/>
    </g>
    <g clip-path="url(#pf59df660af)">
     <use style="fill-opacity:0.5;" x="515.618521" xlink:href="#C2_0_f66ec248b8" y="560.327662"/>
    </g>
    <g clip-path="url(#pf59df660af)">
     <use style="fill-opacity:0.5;" x="498.32311" xlink:href="#C2_0_f66ec248b8" y="558.220107"/>
    </g>
    <g clip-path="url(#pf59df660af)">
     <use style="fill-opacity:0.5;" x="550.436843" xlink:href="#C2_0_f66ec248b8" y="550.562203"/>
    </g>
    <g clip-path="url(#pf59df660af)">
     <use style="fill-opacity:0.5;" x="500.169434" xlink:href="#C2_0_f66ec248b8" y="565.944243"/>
    </g>
    <g clip-path="url(#pf59df660af)">
     <use style="fill-opacity:0.5;" x="540.404112" xlink:href="#C2_0_f66ec248b8" y="575.721008"/>
    </g>
    <g clip-path="url(#pf59df660af)">
     <use style="fill-opacity:0.5;" x="538.779237" xlink:href="#C2_0_f66ec248b8" y="563.017476"/>
    </g>
    <g clip-path="url(#pf59df660af)">
     <use style="fill-opacity:0.5;" x="532.821974" xlink:href="#C2_0_f66ec248b8" y="567.756565"/>
    </g>
    <g clip-path="url(#pf59df660af)">
     <use style="fill-opacity:0.5;" x="539.052588" xlink:href="#C2_0_f66ec248b8" y="547.680552"/>
    </g>
    <g clip-path="url(#pf59df660af)">
     <use style="fill-opacity:0.5;" x="507.850624" xlink:href="#C2_0_f66ec248b8" y="558.528216"/>
    </g>
    <g clip-path="url(#pf59df660af)">
     <use style="fill-opacity:0.5;" x="524.703056" xlink:href="#C2_0_f66ec248b8" y="549.168713"/>
    </g>
    <g clip-path="url(#pf59df660af)">
     <use style="fill-opacity:0.5;" x="520.527235" xlink:href="#C2_0_f66ec248b8" y="564.589475"/>
    </g>
    <g clip-path="url(#pf59df660af)">
     <use style="fill-opacity:0.5;" x="530.920601" xlink:href="#C2_0_f66ec248b8" y="574.706223"/>
    </g>
    <g clip-path="url(#pf59df660af)">
     <use style="fill-opacity:0.5;" x="524.82265" xlink:href="#C2_0_f66ec248b8" y="566.110993"/>
    </g>
    <g clip-path="url(#pf59df660af)">
     <use style="fill-opacity:0.5;" x="510.877297" xlink:href="#C2_0_f66ec248b8" y="547.940008"/>
    </g>
    <g clip-path="url(#pf59df660af)">
     <use style="fill-opacity:0.5;" x="516.359025" xlink:href="#C2_0_f66ec248b8" y="556.571231"/>
    </g>
    <g clip-path="url(#pf59df660af)">
     <use style="fill-opacity:0.5;" x="546.352972" xlink:href="#C2_0_f66ec248b8" y="562.659464"/>
    </g>
   </g>
   <g id="PathCollection_4">
    <defs>
     <path d="M 0 2.5 
C 0.663008 2.5 1.29895 2.236584 1.767767 1.767767 
C 2.236584 1.29895 2.5 0.663008 2.5 -0 
C 2.5 -0.663008 2.236584 -1.29895 1.767767 -1.767767 
C 1.29895 -2.236584 0.663008 -2.5 0 -2.5 
C -0.663008 -2.5 -1.29895 -2.236584 -1.767767 -1.767767 
C -2.236584 -1.29895 -2.5 -0.663008 -2.5 0 
C -2.5 0.663008 -2.236584 1.29895 -1.767767 1.767767 
C -1.29895 2.236584 -0.663008 2.5 0 2.5 
z
" id="C3_0_beb130f915"/>
    </defs>
    <g clip-path="url(#pf59df660af)">
     <use style="fill-opacity:0.5;" x="910.088358" xlink:href="#C3_0_beb130f915" y="713.393356"/>
    </g>
    <g clip-path="url(#pf59df660af)">
     <use style="fill-opacity:0.5;" x="935.262263" xlink:href="#C3_0_beb130f915" y="726.763936"/>
    </g>
    <g clip-path="url(#pf59df660af)">
     <use style="fill-opacity:0.5;" x="944.250138" xlink:href="#C3_0_beb130f915" y="726.17458"/>
    </g>
    <g clip-path="url(#pf59df660af)">
     <use style="fill-opacity:0.5;" x="922.407505" xlink:href="#C3_0_beb130f915" y="719.873791"/>
    </g>
    <g clip-path="url(#pf59df660af)">
     <use style="fill-opacity:0.5;" x="924.257721" xlink:href="#C3_0_beb130f915" y="712.469242"/>
    </g>
    <g clip-path="url(#pf59df660af)">
     <use style="fill-opacity:0.5;" x="893.573752" xlink:href="#C3_0_beb130f915" y="708.800049"/>
    </g>
    <g clip-path="url(#pf59df660af)">
     <use style="fill-opacity:0.5;" x="922.411324" xlink:href="#C3_0_beb130f915" y="704.15733"/>
    </g>
    <g clip-path="url(#pf59df660af)">
     <use style="fill-opacity:0.5;" x="945.682063" xlink:href="#C3_0_beb130f915" y="711.892707"/>
    </g>
    <g clip-path="url(#pf59df660af)">
     <use style="fill-opacity:0.5;" x="942.816498" xlink:href="#C3_0_beb130f915" y="713.70289"/>
    </g>
    <g clip-path="url(#pf59df660af)">
     <use style="fill-opacity:0.5;" x="931.03805" xlink:href="#C3_0_beb130f915" y="721.861562"/>
    </g>
    <g clip-path="url(#pf59df660af)">
     <use style="fill-opacity:0.5;" x="913.827904" xlink:href="#C3_0_beb130f915" y="721.312896"/>
    </g>
    <g clip-path="url(#pf59df660af)">
     <use style="fill-opacity:0.5;" x="925.879081" xlink:href="#C3_0_beb130f915" y="703.046331"/>
    </g>
    <g clip-path="url(#pf59df660af)">
     <use style="fill-opacity:0.5;" x="938.035736" xlink:href="#C3_0_beb130f915" y="713.146455"/>
    </g>
    <g clip-path="url(#pf59df660af)">
     <use style="fill-opacity:0.5;" x="920.187527" xlink:href="#C3_0_beb130f915" y="706.515142"/>
    </g>
    <g clip-path="url(#pf59df660af)">
     <use style="fill-opacity:0.5;" x="934.660254" xlink:href="#C3_0_beb130f915" y="705.739622"/>
    </g>
    <g clip-path="url(#pf59df660af)">
     <use style="fill-opacity:0.5;" x="927.291466" xlink:href="#C3_0_beb130f915" y="726.56694"/>
    </g>
    <g clip-path="url(#pf59df660af)">
     <use style="fill-opacity:0.5;" x="944.330284" xlink:href="#C3_0_beb130f915" y="702.170578"/>
    </g>
    <g clip-path="url(#pf59df660af)">
     <use style="fill-opacity:0.5;" x="922.49234" xlink:href="#C3_0_beb130f915" y="713.889589"/>
    </g>
    <g clip-path="url(#pf59df660af)">
     <use style="fill-opacity:0.5;" x="931.805803" xlink:href="#C3_0_beb130f915" y="706.093458"/>
    </g>
    <g clip-path="url(#pf59df660af)">
     <use style="fill-opacity:0.5;" x="908.827454" xlink:href="#C3_0_beb130f915" y="728.18308"/>
    </g>
    <g clip-path="url(#pf59df660af)">
     <use style="fill-opacity:0.5;" x="916.39891" xlink:href="#C3_0_beb130f915" y="718.171841"/>
    </g>
    <g clip-path="url(#pf59df660af)">
     <use style="fill-opacity:0.5;" x="922.746621" xlink:href="#C3_0_beb130f915" y="708.055915"/>
    </g>
    <g clip-path="url(#pf59df660af)">
     <use style="fill-opacity:0.5;" x="906.887939" xlink:href="#C3_0_beb130f915" y="716.475398"/>
    </g>
    <g clip-path="url(#pf59df660af)">
     <use style="fill-opacity:0.5;" x="931.418288" xlink:href="#C3_0_beb130f915" y="723.590628"/>
    </g>
    <g clip-path="url(#pf59df660af)">
     <use style="fill-opacity:0.5;" x="957.124379" xlink:href="#C3_0_beb130f915" y="730.630454"/>
    </g>
   </g>
   <g id="PathCollection_5">
    <defs>
     <path d="M 0 2.5 
C 0.663008 2.5 1.29895 2.236584 1.767767 1.767767 
C 2.236584 1.29895 2.5 0.663008 2.5 -0 
C 2.5 -0.663008 2.236584 -1.29895 1.767767 -1.767767 
C 1.29895 -2.236584 0.663008 -2.5 0 -2.5 
C -0.663008 -2.5 -1.29895 -2.236584 -1.767767 -1.767767 
C -2.236584 -1.29895 -2.5 -0.663008 -2.5 0 
C -2.5 0.663008 -2.236584 1.29895 -1.767767 1.767767 
C -1.29895 2.236584 -0.663008 2.5 0 2.5 
z
" id="C4_0_956975dc2a"/>
    </defs>
    <g clip-path="url(#pf59df660af)">
     <use style="fill-opacity:0.5;" x="839.975325" xlink:href="#C4_0_956975dc2a" y="863.03054"/>
    </g>
    <g clip-path="url(#pf59df660af)">
     <use style="fill-opacity:0.5;" x="895.209909" xlink:href="#C4_0_956975dc2a" y="883.710195"/>
    </g>
    <g clip-path="url(#pf59df660af)">
     <use style="fill-opacity:0.5;" x="899.778024" xlink:href="#C4_0_956975dc2a" y="885.205012"/>
    </g>
    <g clip-path="url(#pf59df660af)">
     <use style="fill-opacity:0.5;" x="904.133303" xlink:href="#C4_0_956975dc2a" y="884.649498"/>
    </g>
    <g clip-path="url(#pf59df660af)">
     <use style="fill-opacity:0.5;" x="858.245272" xlink:href="#C4_0_956975dc2a" y="875.920643"/>
    </g>
    <g clip-path="url(#pf59df660af)">
     <use style="fill-opacity:0.5;" x="857.093881" xlink:href="#C4_0_956975dc2a" y="875.746886"/>
    </g>
    <g clip-path="url(#pf59df660af)">
     <use style="fill-opacity:0.5;" x="924.042743" xlink:href="#C4_0_956975dc2a" y="868.707731"/>
    </g>
    <g clip-path="url(#pf59df660af)">
     <use style="fill-opacity:0.5;" x="867.970219" xlink:href="#C4_0_956975dc2a" y="879.554485"/>
    </g>
    <g clip-path="url(#pf59df660af)">
     <use style="fill-opacity:0.5;" x="871.638142" xlink:href="#C4_0_956975dc2a" y="872.686367"/>
    </g>
    <g clip-path="url(#pf59df660af)">
     <use style="fill-opacity:0.5;" x="871.03621" xlink:href="#C4_0_956975dc2a" y="877.226019"/>
    </g>
    <g clip-path="url(#pf59df660af)">
     <use style="fill-opacity:0.5;" x="883.084605" xlink:href="#C4_0_956975dc2a" y="869.491984"/>
    </g>
    <g clip-path="url(#pf59df660af)">
     <use style="fill-opacity:0.5;" x="868.33483" xlink:href="#C4_0_956975dc2a" y="878.905227"/>
    </g>
    <g clip-path="url(#pf59df660af)">
     <use style="fill-opacity:0.5;" x="876.781556" xlink:href="#C4_0_956975dc2a" y="881.793298"/>
    </g>
    <g clip-path="url(#pf59df660af)">
     <use style="fill-opacity:0.5;" x="885.655807" xlink:href="#C4_0_956975dc2a" y="860.731586"/>
    </g>
    <g clip-path="url(#pf59df660af)">
     <use style="fill-opacity:0.5;" x="878.6751" xlink:href="#C4_0_956975dc2a" y="882.056034"/>
    </g>
    <g clip-path="url(#pf59df660af)">
     <use style="fill-opacity:0.5;" x="865.542847" xlink:href="#C4_0_956975dc2a" y="872.966011"/>
    </g>
    <g clip-path="url(#pf59df660af)">
     <use style="fill-opacity:0.5;" x="860.013296" xlink:href="#C4_0_956975dc2a" y="882.420594"/>
    </g>
    <g clip-path="url(#pf59df660af)">
     <use style="fill-opacity:0.5;" x="896.705539" xlink:href="#C4_0_956975dc2a" y="869.58032"/>
    </g>
    <g clip-path="url(#pf59df660af)">
     <use style="fill-opacity:0.5;" x="892.404481" xlink:href="#C4_0_956975dc2a" y="867.956938"/>
    </g>
    <g clip-path="url(#pf59df660af)">
     <use style="fill-opacity:0.5;" x="880.833632" xlink:href="#C4_0_956975dc2a" y="884.607258"/>
    </g>
    <g clip-path="url(#pf59df660af)">
     <use style="fill-opacity:0.5;" x="867.985143" xlink:href="#C4_0_956975dc2a" y="863.984892"/>
    </g>
    <g clip-path="url(#pf59df660af)">
     <use style="fill-opacity:0.5;" x="887.698981" xlink:href="#C4_0_956975dc2a" y="882.406504"/>
    </g>
    <g clip-path="url(#pf59df660af)">
     <use style="fill-opacity:0.5;" x="847.796029" xlink:href="#C4_0_956975dc2a" y="871.217919"/>
    </g>
    <g clip-path="url(#pf59df660af)">
     <use style="fill-opacity:0.5;" x="902.318633" xlink:href="#C4_0_956975dc2a" y="872.15213"/>
    </g>
    <g clip-path="url(#pf59df660af)">
     <use style="fill-opacity:0.5;" x="886.270222" xlink:href="#C4_0_956975dc2a" y="865.764763"/>
    </g>
   </g>
   <g id="PathCollection_6">
    <defs>
     <path d="M 0 2.5 
C 0.663008 2.5 1.29895 2.236584 1.767767 1.767767 
C 2.236584 1.29895 2.5 0.663008 2.5 -0 
C 2.5 -0.663008 2.236584 -1.29895 1.767767 -1.767767 
C 1.29895 -2.236584 0.663008 -2.5 0 -2.5 
C -0.663008 -2.5 -1.29895 -2.236584 -1.767767 -1.767767 
C -2.236584 -1.29895 -2.5 -0.663008 -2.5 0 
C -2.5 0.663008 -2.236584 1.29895 -1.767767 1.767767 
C -1.29895 2.236584 -0.663008 2.5 0 2.5 
z
" id="C5_0_07be51804c"/>
    </defs>
    <g clip-path="url(#pf59df660af)">
     <use style="fill-opacity:0.5;" x="866.087755" xlink:href="#C5_0_07be51804c" y="1029.297471"/>
    </g>
    <g clip-path="url(#pf59df660af)">
     <use style="fill-opacity:0.5;" x="866.675266" xlink:href="#C5_0_07be51804c" y="1021.599132"/>
    </g>
    <g clip-path="url(#pf59df660af)">
     <use style="fill-opacity:0.5;" x="866.16637" xlink:href="#C5_0_07be51804c" y="1012.716963"/>
    </g>
    <g clip-path="url(#pf59df660af)">
     <use style="fill-opacity:0.5;" x="896.16829" xlink:href="#C5_0_07be51804c" y="1019.946197"/>
    </g>
    <g clip-path="url(#pf59df660af)">
     <use style="fill-opacity:0.5;" x="868.983691" xlink:href="#C5_0_07be51804c" y="1011.695294"/>
    </g>
    <g clip-path="url(#pf59df660af)">
     <use style="fill-opacity:0.5;" x="883.444749" xlink:href="#C5_0_07be51804c" y="1041.887638"/>
    </g>
    <g clip-path="url(#pf59df660af)">
     <use style="fill-opacity:0.5;" x="828.672077" xlink:href="#C5_0_07be51804c" y="1041.49601"/>
    </g>
    <g clip-path="url(#pf59df660af)">
     <use style="fill-opacity:0.5;" x="889.020431" xlink:href="#C5_0_07be51804c" y="1023.771795"/>
    </g>
    <g clip-path="url(#pf59df660af)">
     <use style="fill-opacity:0.5;" x="905.752376" xlink:href="#C5_0_07be51804c" y="1034.122423"/>
    </g>
    <g clip-path="url(#pf59df660af)">
     <use style="fill-opacity:0.5;" x="854.974839" xlink:href="#C5_0_07be51804c" y="1022.238868"/>
    </g>
    <g clip-path="url(#pf59df660af)">
     <use style="fill-opacity:0.5;" x="834.354836" xlink:href="#C5_0_07be51804c" y="1032.343214"/>
    </g>
    <g clip-path="url(#pf59df660af)">
     <use style="fill-opacity:0.5;" x="903.983942" xlink:href="#C5_0_07be51804c" y="1036.516101"/>
    </g>
    <g clip-path="url(#pf59df660af)">
     <use style="fill-opacity:0.5;" x="843.17308" xlink:href="#C5_0_07be51804c" y="1040.906097"/>
    </g>
    <g clip-path="url(#pf59df660af)">
     <use style="fill-opacity:0.5;" x="898.476135" xlink:href="#C5_0_07be51804c" y="1023.92888"/>
    </g>
    <g clip-path="url(#pf59df660af)">
     <use style="fill-opacity:0.5;" x="884.493625" xlink:href="#C5_0_07be51804c" y="1035.828616"/>
    </g>
    <g clip-path="url(#pf59df660af)">
     <use style="fill-opacity:0.5;" x="879.467183" xlink:href="#C5_0_07be51804c" y="1019.75764"/>
    </g>
    <g clip-path="url(#pf59df660af)">
     <use style="fill-opacity:0.5;" x="881.238721" xlink:href="#C5_0_07be51804c" y="1042.259694"/>
    </g>
    <g clip-path="url(#pf59df660af)">
     <use style="fill-opacity:0.5;" x="870.661796" xlink:href="#C5_0_07be51804c" y="1012.29762"/>
    </g>
    <g clip-path="url(#pf59df660af)">
     <use style="fill-opacity:0.5;" x="855.319959" xlink:href="#C5_0_07be51804c" y="1030.244472"/>
    </g>
    <g clip-path="url(#pf59df660af)">
     <use style="fill-opacity:0.5;" x="871.547437" xlink:href="#C5_0_07be51804c" y="1031.983283"/>
    </g>
    <g clip-path="url(#pf59df660af)">
     <use style="fill-opacity:0.5;" x="877.67687" xlink:href="#C5_0_07be51804c" y="1032.869804"/>
    </g>
    <g clip-path="url(#pf59df660af)">
     <use style="fill-opacity:0.5;" x="864.518312" xlink:href="#C5_0_07be51804c" y="1015.236725"/>
    </g>
    <g clip-path="url(#pf59df660af)">
     <use style="fill-opacity:0.5;" x="880.245467" xlink:href="#C5_0_07be51804c" y="1040.650559"/>
    </g>
    <g clip-path="url(#pf59df660af)">
     <use style="fill-opacity:0.5;" x="867.960829" xlink:href="#C5_0_07be51804c" y="1017.125213"/>
    </g>
    <g clip-path="url(#pf59df660af)">
     <use style="fill-opacity:0.5;" x="873.494535" xlink:href="#C5_0_07be51804c" y="1030.841643"/>
    </g>
   </g>
   <g id="PathCollection_7">
    <defs>
     <path d="M 0 2.5 
C 0.663008 2.5 1.29895 2.236584 1.767767 1.767767 
C 2.236584 1.29895 2.5 0.663008 2.5 -0 
C 2.5 -0.663008 2.236584 -1.29895 1.767767 -1.767767 
C 1.29895 -2.236584 0.663008 -2.5 0 -2.5 
C -0.663008 -2.5 -1.29895 -2.236584 -1.767767 -1.767767 
C -2.236584 -1.29895 -2.5 -0.663008 -2.5 0 
C -2.5 0.663008 -2.236584 1.29895 -1.767767 1.767767 
C -1.29895 2.236584 -0.663008 2.5 0 2.5 
z
" id="C6_0_a0067c3185"/>
    </defs>
    <g clip-path="url(#pf59df660af)">
     <use style="fill-opacity:0.5;" x="738" xlink:href="#C6_0_a0067c3185" y="1173.728384"/>
    </g>
    <g clip-path="url(#pf59df660af)">
     <use style="fill-opacity:0.5;" x="738" xlink:href="#C6_0_a0067c3185" y="1176.354448"/>
    </g>
    <g clip-path="url(#pf59df660af)">
     <use style="fill-opacity:0.5;" x="738" xlink:href="#C6_0_a0067c3185" y="1183.785992"/>
    </g>
    <g clip-path="url(#pf59df660af)">
     <use style="fill-opacity:0.5;" x="738" xlink:href="#C6_0_a0067c3185" y="1179.770648"/>
    </g>
    <g clip-path="url(#pf59df660af)">
     <use style="fill-opacity:0.5;" x="738" xlink:href="#C6_0_a0067c3185" y="1171.788494"/>
    </g>
    <g clip-path="url(#pf59df660af)">
     <use style="fill-opacity:0.5;" x="738" xlink:href="#C6_0_a0067c3185" y="1172.121202"/>
    </g>
    <g clip-path="url(#pf59df660af)">
     <use style="fill-opacity:0.5;" x="738" xlink:href="#C6_0_a0067c3185" y="1179.8002"/>
    </g>
    <g clip-path="url(#pf59df660af)">
     <use style="fill-opacity:0.5;" x="738" xlink:href="#C6_0_a0067c3185" y="1190.334802"/>
    </g>
    <g clip-path="url(#pf59df660af)">
     <use style="fill-opacity:0.5;" x="738" xlink:href="#C6_0_a0067c3185" y="1194.704776"/>
    </g>
    <g clip-path="url(#pf59df660af)">
     <use style="fill-opacity:0.5;" x="738" xlink:href="#C6_0_a0067c3185" y="1169.424674"/>
    </g>
    <g clip-path="url(#pf59df660af)">
     <use style="fill-opacity:0.5;" x="738" xlink:href="#C6_0_a0067c3185" y="1179.022359"/>
    </g>
    <g clip-path="url(#pf59df660af)">
     <use style="fill-opacity:0.5;" x="738" xlink:href="#C6_0_a0067c3185" y="1169.925342"/>
    </g>
    <g clip-path="url(#pf59df660af)">
     <use style="fill-opacity:0.5;" x="738" xlink:href="#C6_0_a0067c3185" y="1167.326838"/>
    </g>
    <g clip-path="url(#pf59df660af)">
     <use style="fill-opacity:0.5;" x="738" xlink:href="#C6_0_a0067c3185" y="1187.366301"/>
    </g>
    <g clip-path="url(#pf59df660af)">
     <use style="fill-opacity:0.5;" x="738" xlink:href="#C6_0_a0067c3185" y="1185.52523"/>
    </g>
    <g clip-path="url(#pf59df660af)">
     <use style="fill-opacity:0.5;" x="738" xlink:href="#C6_0_a0067c3185" y="1171.875268"/>
    </g>
    <g clip-path="url(#pf59df660af)">
     <use style="fill-opacity:0.5;" x="738" xlink:href="#C6_0_a0067c3185" y="1174.074323"/>
    </g>
    <g clip-path="url(#pf59df660af)">
     <use style="fill-opacity:0.5;" x="738" xlink:href="#C6_0_a0067c3185" y="1167.547859"/>
    </g>
    <g clip-path="url(#pf59df660af)">
     <use style="fill-opacity:0.5;" x="738" xlink:href="#C6_0_a0067c3185" y="1192.747274"/>
    </g>
    <g clip-path="url(#pf59df660af)">
     <use style="fill-opacity:0.5;" x="738" xlink:href="#C6_0_a0067c3185" y="1197.088103"/>
    </g>
    <g clip-path="url(#pf59df660af)">
     <use style="fill-opacity:0.5;" x="738" xlink:href="#C6_0_a0067c3185" y="1171.019189"/>
    </g>
    <g clip-path="url(#pf59df660af)">
     <use style="fill-opacity:0.5;" x="738" xlink:href="#C6_0_a0067c3185" y="1174.00171"/>
    </g>
    <g clip-path="url(#pf59df660af)">
     <use style="fill-opacity:0.5;" x="738" xlink:href="#C6_0_a0067c3185" y="1193.78671"/>
    </g>
    <g clip-path="url(#pf59df660af)">
     <use style="fill-opacity:0.5;" x="738" xlink:href="#C6_0_a0067c3185" y="1195.590041"/>
    </g>
    <g clip-path="url(#pf59df660af)">
     <use style="fill-opacity:0.5;" x="738" xlink:href="#C6_0_a0067c3185" y="1179.846254"/>
    </g>
   </g>
  </g>
  <g id="text_18">
   <!-- Linear Model: Coefficient robustness -->
   <g transform="translate(551.9 144)scale(0.2 -0.2)">
    <defs>
     <path d="M 9.8125 72.90625 
L 19.671875 72.90625 
L 19.671875 8.296875 
L 55.171875 8.296875 
L 55.171875 0 
L 9.8125 0 
z
" id="DejaVuSans-76"/>
     <path d="M 9.8125 72.90625 
L 24.515625 72.90625 
L 43.109375 23.296875 
L 61.8125 72.90625 
L 76.515625 72.90625 
L 76.515625 0 
L 66.890625 0 
L 66.890625 64.015625 
L 48.09375 14.015625 
L 38.1875 14.015625 
L 19.390625 64.015625 
L 19.390625 0 
L 9.8125 0 
z
" id="DejaVuSans-77"/>
     <path d="M 45.40625 46.390625 
L 45.40625 75.984375 
L 54.390625 75.984375 
L 54.390625 0 
L 45.40625 0 
L 45.40625 8.203125 
Q 42.578125 3.328125 38.25 0.953125 
Q 33.9375 -1.421875 27.875 -1.421875 
Q 17.96875 -1.421875 11.734375 6.484375 
Q 5.515625 14.40625 5.515625 27.296875 
Q 5.515625 40.1875 11.734375 48.09375 
Q 17.96875 56 27.875 56 
Q 33.9375 56 38.25 53.625 
Q 42.578125 51.265625 45.40625 46.390625 
z
M 14.796875 27.296875 
Q 14.796875 17.390625 18.875 11.75 
Q 22.953125 6.109375 30.078125 6.109375 
Q 37.203125 6.109375 41.296875 11.75 
Q 45.40625 17.390625 45.40625 27.296875 
Q 45.40625 37.203125 41.296875 42.84375 
Q 37.203125 48.484375 30.078125 48.484375 
Q 22.953125 48.484375 18.875 42.84375 
Q 14.796875 37.203125 14.796875 27.296875 
z
" id="DejaVuSans-100"/>
     <path d="M 11.71875 12.40625 
L 22.015625 12.40625 
L 22.015625 0 
L 11.71875 0 
z
M 11.71875 51.703125 
L 22.015625 51.703125 
L 22.015625 39.3125 
L 11.71875 39.3125 
z
" id="DejaVuSans-58"/>
     <path d="M 48.6875 27.296875 
Q 48.6875 37.203125 44.609375 42.84375 
Q 40.53125 48.484375 33.40625 48.484375 
Q 26.265625 48.484375 22.1875 42.84375 
Q 18.109375 37.203125 18.109375 27.296875 
Q 18.109375 17.390625 22.1875 11.75 
Q 26.265625 6.109375 33.40625 6.109375 
Q 40.53125 6.109375 44.609375 11.75 
Q 48.6875 17.390625 48.6875 27.296875 
z
M 18.109375 46.390625 
Q 20.953125 51.265625 25.265625 53.625 
Q 29.59375 56 35.59375 56 
Q 45.5625 56 51.78125 48.09375 
Q 58.015625 40.1875 58.015625 27.296875 
Q 58.015625 14.40625 51.78125 6.484375 
Q 45.5625 -1.421875 35.59375 -1.421875 
Q 29.59375 -1.421875 25.265625 0.953125 
Q 20.953125 3.328125 18.109375 8.203125 
L 18.109375 0 
L 9.078125 0 
L 9.078125 75.984375 
L 18.109375 75.984375 
z
" id="DejaVuSans-98"/>
    </defs>
    <use xlink:href="#DejaVuSans-76"/>
    <use x="55.712891" xlink:href="#DejaVuSans-105"/>
    <use x="83.496094" xlink:href="#DejaVuSans-110"/>
    <use x="146.875" xlink:href="#DejaVuSans-101"/>
    <use x="208.398438" xlink:href="#DejaVuSans-97"/>
    <use x="269.677734" xlink:href="#DejaVuSans-114"/>
    <use x="310.791016" xlink:href="#DejaVuSans-32"/>
    <use x="342.578125" xlink:href="#DejaVuSans-77"/>
    <use x="428.857422" xlink:href="#DejaVuSans-111"/>
    <use x="490.039062" xlink:href="#DejaVuSans-100"/>
    <use x="553.515625" xlink:href="#DejaVuSans-101"/>
    <use x="615.039062" xlink:href="#DejaVuSans-108"/>
    <use x="642.822266" xlink:href="#DejaVuSans-58"/>
    <use x="676.513672" xlink:href="#DejaVuSans-32"/>
    <use x="708.300781" xlink:href="#DejaVuSans-67"/>
    <use x="778.125" xlink:href="#DejaVuSans-111"/>
    <use x="839.306641" xlink:href="#DejaVuSans-101"/>
    <use x="900.830078" xlink:href="#DejaVuSans-102"/>
    <use x="936.035156" xlink:href="#DejaVuSans-102"/>
    <use x="971.240234" xlink:href="#DejaVuSans-105"/>
    <use x="999.023438" xlink:href="#DejaVuSans-99"/>
    <use x="1054.003906" xlink:href="#DejaVuSans-105"/>
    <use x="1081.787109" xlink:href="#DejaVuSans-101"/>
    <use x="1143.310547" xlink:href="#DejaVuSans-110"/>
    <use x="1206.689453" xlink:href="#DejaVuSans-116"/>
    <use x="1245.898438" xlink:href="#DejaVuSans-32"/>
    <use x="1277.685547" xlink:href="#DejaVuSans-114"/>
    <use x="1316.548828" xlink:href="#DejaVuSans-111"/>
    <use x="1377.730469" xlink:href="#DejaVuSans-98"/>
    <use x="1441.207031" xlink:href="#DejaVuSans-117"/>
    <use x="1504.585938" xlink:href="#DejaVuSans-115"/>
    <use x="1556.685547" xlink:href="#DejaVuSans-116"/>
    <use x="1595.894531" xlink:href="#DejaVuSans-110"/>
    <use x="1659.273438" xlink:href="#DejaVuSans-101"/>
    <use x="1720.796875" xlink:href="#DejaVuSans-115"/>
    <use x="1772.896484" xlink:href="#DejaVuSans-115"/>
   </g>
  </g>
  <g id="text_19">
   <!-- 2020-07 -->
   <g transform="translate(696.795469 165.6)scale(0.18 -0.18)">
    <defs>
     <path d="M 4.890625 31.390625 
L 31.203125 31.390625 
L 31.203125 23.390625 
L 4.890625 23.390625 
z
" id="DejaVuSans-45"/>
     <path d="M 8.203125 72.90625 
L 55.078125 72.90625 
L 55.078125 68.703125 
L 28.609375 0 
L 18.3125 0 
L 43.21875 64.59375 
L 8.203125 64.59375 
z
" id="DejaVuSans-55"/>
    </defs>
    <use xlink:href="#DejaVuSans-50"/>
    <use x="63.623047" xlink:href="#DejaVuSans-48"/>
    <use x="127.246094" xlink:href="#DejaVuSans-50"/>
    <use x="190.869141" xlink:href="#DejaVuSans-48"/>
    <use x="254.492188" xlink:href="#DejaVuSans-45"/>
    <use x="290.576172" xlink:href="#DejaVuSans-48"/>
    <use x="354.199219" xlink:href="#DejaVuSans-55"/>
   </g>
  </g>
 </g>
 <defs>
  <clipPath id="pf59df660af">
   <rect height="1087.2" width="1116" x="180" y="172.8"/>
  </clipPath>
 </defs>
</svg>
