<?xml version="1.0" encoding="utf-8" standalone="no"?>
<!DOCTYPE svg PUBLIC "-//W3C//DTD SVG 1.1//EN"
  "http://www.w3.org/Graphics/SVG/1.1/DTD/svg11.dtd">
<!-- Created with matplotlib (https://matplotlib.org/) -->
<svg height="1440pt" version="1.1" viewBox="0 0 1440 1440" width="1440pt" xmlns="http://www.w3.org/2000/svg" xmlns:xlink="http://www.w3.org/1999/xlink">
 <metadata>
  <rdf:RDF xmlns:cc="http://creativecommons.org/ns#" xmlns:dc="http://purl.org/dc/elements/1.1/" xmlns:rdf="http://www.w3.org/1999/02/22-rdf-syntax-ns#">
   <cc:Work>
    <dc:type rdf:resource="http://purl.org/dc/dcmitype/StillImage"/>
    <dc:date>2021-06-13T11:55:26.773644</dc:date>
    <dc:format>image/svg+xml</dc:format>
    <dc:creator>
     <cc:Agent>
      <dc:title>Matplotlib v3.3.4, https://matplotlib.org/</dc:title>
     </cc:Agent>
    </dc:creator>
   </cc:Work>
  </rdf:RDF>
 </metadata>
 <defs>
  <style type="text/css">*{stroke-linecap:butt;stroke-linejoin:round;}</style>
 </defs>
 <g id="figure_1">
  <g id="patch_1">
   <path d="M 0 1440 
L 1440 1440 
L 1440 0 
L 0 0 
z
" style="fill:none;"/>
  </g>
  <g id="axes_1">
   <g id="patch_2">
    <path d="M 180 1260 
L 1296 1260 
L 1296 172.8 
L 180 172.8 
z
" style="fill:#ffffff;"/>
   </g>
   <g id="patch_3">
    <path clip-path="url(#pb0e54c6109)" d="M 244.226273 188.331429 
L 244.226273 312.582857 
L 259.040252 312.582857 
L 259.040252 188.331429 
L 244.226273 188.331429 
z
" style="fill:#40bfbf;stroke:#4c4c4c;stroke-linejoin:miter;stroke-width:1.5;"/>
   </g>
   <g id="patch_4">
    <path clip-path="url(#pb0e54c6109)" d="M 905.697643 343.645714 
L 905.697643 467.897143 
L 921.746314 467.897143 
L 921.746314 343.645714 
L 905.697643 343.645714 
z
" style="fill:#40bfbf;stroke:#4c4c4c;stroke-linejoin:miter;stroke-width:1.5;"/>
   </g>
   <g id="patch_5">
    <path clip-path="url(#pb0e54c6109)" d="M 907.919157 498.96 
L 907.919157 623.211429 
L 930.607879 623.211429 
L 930.607879 498.96 
L 907.919157 498.96 
z
" style="fill:#40bfbf;stroke:#4c4c4c;stroke-linejoin:miter;stroke-width:1.5;"/>
   </g>
   <g id="patch_6">
    <path clip-path="url(#pb0e54c6109)" d="M 569.207097 654.274286 
L 569.207097 778.525714 
L 595.012484 778.525714 
L 595.012484 654.274286 
L 569.207097 654.274286 
z
" style="fill:#40bfbf;stroke:#4c4c4c;stroke-linejoin:miter;stroke-width:1.5;"/>
   </g>
   <g id="patch_7">
    <path clip-path="url(#pb0e54c6109)" d="M 881.891291 809.588571 
L 881.891291 933.84 
L 910.682125 933.84 
L 910.682125 809.588571 
L 881.891291 809.588571 
z
" style="fill:#40bfbf;stroke:#4c4c4c;stroke-linejoin:miter;stroke-width:1.5;"/>
   </g>
   <g id="patch_8">
    <path clip-path="url(#pb0e54c6109)" d="M 623.542556 964.902857 
L 623.542556 1089.154286 
L 643.540001 1089.154286 
L 643.540001 964.902857 
L 623.542556 964.902857 
z
" style="fill:#40bfbf;stroke:#4c4c4c;stroke-linejoin:miter;stroke-width:1.5;"/>
   </g>
   <g id="patch_9">
    <path clip-path="url(#pb0e54c6109)" d="M 738 1120.217143 
L 738 1244.468571 
L 738 1244.468571 
L 738 1120.217143 
L 738 1120.217143 
z
" style="fill:#40bfbf;stroke:#4c4c4c;stroke-linejoin:miter;stroke-width:1.5;"/>
   </g>
   <g id="matplotlib.axis_1">
    <g id="xtick_1">
     <g id="line2d_1">
      <defs>
       <path d="M 0 0 
L 0 3.5 
" id="m1e023c0c91" style="stroke:#000000;stroke-width:0.8;"/>
      </defs>
      <g>
       <use style="stroke:#000000;stroke-width:0.8;" x="310.539336" xlink:href="#m1e023c0c91" y="1260"/>
      </g>
     </g>
     <g id="text_1">
      <!-- −0.4 -->
      <g transform="translate(298.39793 1274.598438)scale(0.1 -0.1)">
       <defs>
        <path d="M 10.59375 35.5 
L 73.1875 35.5 
L 73.1875 27.203125 
L 10.59375 27.203125 
z
" id="DejaVuSans-8722"/>
        <path d="M 31.78125 66.40625 
Q 24.171875 66.40625 20.328125 58.90625 
Q 16.5 51.421875 16.5 36.375 
Q 16.5 21.390625 20.328125 13.890625 
Q 24.171875 6.390625 31.78125 6.390625 
Q 39.453125 6.390625 43.28125 13.890625 
Q 47.125 21.390625 47.125 36.375 
Q 47.125 51.421875 43.28125 58.90625 
Q 39.453125 66.40625 31.78125 66.40625 
z
M 31.78125 74.21875 
Q 44.046875 74.21875 50.515625 64.515625 
Q 56.984375 54.828125 56.984375 36.375 
Q 56.984375 17.96875 50.515625 8.265625 
Q 44.046875 -1.421875 31.78125 -1.421875 
Q 19.53125 -1.421875 13.0625 8.265625 
Q 6.59375 17.96875 6.59375 36.375 
Q 6.59375 54.828125 13.0625 64.515625 
Q 19.53125 74.21875 31.78125 74.21875 
z
" id="DejaVuSans-48"/>
        <path d="M 10.6875 12.40625 
L 21 12.40625 
L 21 0 
L 10.6875 0 
z
" id="DejaVuSans-46"/>
        <path d="M 37.796875 64.3125 
L 12.890625 25.390625 
L 37.796875 25.390625 
z
M 35.203125 72.90625 
L 47.609375 72.90625 
L 47.609375 25.390625 
L 58.015625 25.390625 
L 58.015625 17.1875 
L 47.609375 17.1875 
L 47.609375 0 
L 37.796875 0 
L 37.796875 17.1875 
L 4.890625 17.1875 
L 4.890625 26.703125 
z
" id="DejaVuSans-52"/>
       </defs>
       <use xlink:href="#DejaVuSans-8722"/>
       <use x="83.789062" xlink:href="#DejaVuSans-48"/>
       <use x="147.412109" xlink:href="#DejaVuSans-46"/>
       <use x="179.199219" xlink:href="#DejaVuSans-52"/>
      </g>
     </g>
    </g>
    <g id="xtick_2">
     <g id="line2d_2">
      <g>
       <use style="stroke:#000000;stroke-width:0.8;" x="524.269668" xlink:href="#m1e023c0c91" y="1260"/>
      </g>
     </g>
     <g id="text_2">
      <!-- −0.2 -->
      <g transform="translate(512.128262 1274.598438)scale(0.1 -0.1)">
       <defs>
        <path d="M 19.1875 8.296875 
L 53.609375 8.296875 
L 53.609375 0 
L 7.328125 0 
L 7.328125 8.296875 
Q 12.9375 14.109375 22.625 23.890625 
Q 32.328125 33.6875 34.8125 36.53125 
Q 39.546875 41.84375 41.421875 45.53125 
Q 43.3125 49.21875 43.3125 52.78125 
Q 43.3125 58.59375 39.234375 62.25 
Q 35.15625 65.921875 28.609375 65.921875 
Q 23.96875 65.921875 18.8125 64.3125 
Q 13.671875 62.703125 7.8125 59.421875 
L 7.8125 69.390625 
Q 13.765625 71.78125 18.9375 73 
Q 24.125 74.21875 28.421875 74.21875 
Q 39.75 74.21875 46.484375 68.546875 
Q 53.21875 62.890625 53.21875 53.421875 
Q 53.21875 48.921875 51.53125 44.890625 
Q 49.859375 40.875 45.40625 35.40625 
Q 44.1875 33.984375 37.640625 27.21875 
Q 31.109375 20.453125 19.1875 8.296875 
z
" id="DejaVuSans-50"/>
       </defs>
       <use xlink:href="#DejaVuSans-8722"/>
       <use x="83.789062" xlink:href="#DejaVuSans-48"/>
       <use x="147.412109" xlink:href="#DejaVuSans-46"/>
       <use x="179.199219" xlink:href="#DejaVuSans-50"/>
      </g>
     </g>
    </g>
    <g id="xtick_3">
     <g id="line2d_3">
      <g>
       <use style="stroke:#000000;stroke-width:0.8;" x="738" xlink:href="#m1e023c0c91" y="1260"/>
      </g>
     </g>
     <g id="text_3">
      <!-- 0.0 -->
      <g transform="translate(730.048437 1274.598438)scale(0.1 -0.1)">
       <use xlink:href="#DejaVuSans-48"/>
       <use x="63.623047" xlink:href="#DejaVuSans-46"/>
       <use x="95.410156" xlink:href="#DejaVuSans-48"/>
      </g>
     </g>
    </g>
    <g id="xtick_4">
     <g id="line2d_4">
      <g>
       <use style="stroke:#000000;stroke-width:0.8;" x="951.730332" xlink:href="#m1e023c0c91" y="1260"/>
      </g>
     </g>
     <g id="text_4">
      <!-- 0.2 -->
      <g transform="translate(943.778769 1274.598438)scale(0.1 -0.1)">
       <use xlink:href="#DejaVuSans-48"/>
       <use x="63.623047" xlink:href="#DejaVuSans-46"/>
       <use x="95.410156" xlink:href="#DejaVuSans-50"/>
      </g>
     </g>
    </g>
    <g id="xtick_5">
     <g id="line2d_5">
      <g>
       <use style="stroke:#000000;stroke-width:0.8;" x="1165.460664" xlink:href="#m1e023c0c91" y="1260"/>
      </g>
     </g>
     <g id="text_5">
      <!-- 0.4 -->
      <g transform="translate(1157.509101 1274.598438)scale(0.1 -0.1)">
       <use xlink:href="#DejaVuSans-48"/>
       <use x="63.623047" xlink:href="#DejaVuSans-46"/>
       <use x="95.410156" xlink:href="#DejaVuSans-52"/>
      </g>
     </g>
    </g>
    <g id="text_6">
     <!-- Coefficient value -->
     <g transform="translate(674.808984 1292.075781)scale(0.15 -0.15)">
      <defs>
       <path d="M 64.40625 67.28125 
L 64.40625 56.890625 
Q 59.421875 61.53125 53.78125 63.8125 
Q 48.140625 66.109375 41.796875 66.109375 
Q 29.296875 66.109375 22.65625 58.46875 
Q 16.015625 50.828125 16.015625 36.375 
Q 16.015625 21.96875 22.65625 14.328125 
Q 29.296875 6.6875 41.796875 6.6875 
Q 48.140625 6.6875 53.78125 8.984375 
Q 59.421875 11.28125 64.40625 15.921875 
L 64.40625 5.609375 
Q 59.234375 2.09375 53.4375 0.328125 
Q 47.65625 -1.421875 41.21875 -1.421875 
Q 24.65625 -1.421875 15.125 8.703125 
Q 5.609375 18.84375 5.609375 36.375 
Q 5.609375 53.953125 15.125 64.078125 
Q 24.65625 74.21875 41.21875 74.21875 
Q 47.75 74.21875 53.53125 72.484375 
Q 59.328125 70.75 64.40625 67.28125 
z
" id="DejaVuSans-67"/>
       <path d="M 30.609375 48.390625 
Q 23.390625 48.390625 19.1875 42.75 
Q 14.984375 37.109375 14.984375 27.296875 
Q 14.984375 17.484375 19.15625 11.84375 
Q 23.34375 6.203125 30.609375 6.203125 
Q 37.796875 6.203125 41.984375 11.859375 
Q 46.1875 17.53125 46.1875 27.296875 
Q 46.1875 37.015625 41.984375 42.703125 
Q 37.796875 48.390625 30.609375 48.390625 
z
M 30.609375 56 
Q 42.328125 56 49.015625 48.375 
Q 55.71875 40.765625 55.71875 27.296875 
Q 55.71875 13.875 49.015625 6.21875 
Q 42.328125 -1.421875 30.609375 -1.421875 
Q 18.84375 -1.421875 12.171875 6.21875 
Q 5.515625 13.875 5.515625 27.296875 
Q 5.515625 40.765625 12.171875 48.375 
Q 18.84375 56 30.609375 56 
z
" id="DejaVuSans-111"/>
       <path d="M 56.203125 29.59375 
L 56.203125 25.203125 
L 14.890625 25.203125 
Q 15.484375 15.921875 20.484375 11.0625 
Q 25.484375 6.203125 34.421875 6.203125 
Q 39.59375 6.203125 44.453125 7.46875 
Q 49.3125 8.734375 54.109375 11.28125 
L 54.109375 2.78125 
Q 49.265625 0.734375 44.1875 -0.34375 
Q 39.109375 -1.421875 33.890625 -1.421875 
Q 20.796875 -1.421875 13.15625 6.1875 
Q 5.515625 13.8125 5.515625 26.8125 
Q 5.515625 40.234375 12.765625 48.109375 
Q 20.015625 56 32.328125 56 
Q 43.359375 56 49.78125 48.890625 
Q 56.203125 41.796875 56.203125 29.59375 
z
M 47.21875 32.234375 
Q 47.125 39.59375 43.09375 43.984375 
Q 39.0625 48.390625 32.421875 48.390625 
Q 24.90625 48.390625 20.390625 44.140625 
Q 15.875 39.890625 15.1875 32.171875 
z
" id="DejaVuSans-101"/>
       <path d="M 37.109375 75.984375 
L 37.109375 68.5 
L 28.515625 68.5 
Q 23.6875 68.5 21.796875 66.546875 
Q 19.921875 64.59375 19.921875 59.515625 
L 19.921875 54.6875 
L 34.71875 54.6875 
L 34.71875 47.703125 
L 19.921875 47.703125 
L 19.921875 0 
L 10.890625 0 
L 10.890625 47.703125 
L 2.296875 47.703125 
L 2.296875 54.6875 
L 10.890625 54.6875 
L 10.890625 58.5 
Q 10.890625 67.625 15.140625 71.796875 
Q 19.390625 75.984375 28.609375 75.984375 
z
" id="DejaVuSans-102"/>
       <path d="M 9.421875 54.6875 
L 18.40625 54.6875 
L 18.40625 0 
L 9.421875 0 
z
M 9.421875 75.984375 
L 18.40625 75.984375 
L 18.40625 64.59375 
L 9.421875 64.59375 
z
" id="DejaVuSans-105"/>
       <path d="M 48.78125 52.59375 
L 48.78125 44.1875 
Q 44.96875 46.296875 41.140625 47.34375 
Q 37.3125 48.390625 33.40625 48.390625 
Q 24.65625 48.390625 19.8125 42.84375 
Q 14.984375 37.3125 14.984375 27.296875 
Q 14.984375 17.28125 19.8125 11.734375 
Q 24.65625 6.203125 33.40625 6.203125 
Q 37.3125 6.203125 41.140625 7.25 
Q 44.96875 8.296875 48.78125 10.40625 
L 48.78125 2.09375 
Q 45.015625 0.34375 40.984375 -0.53125 
Q 36.96875 -1.421875 32.421875 -1.421875 
Q 20.0625 -1.421875 12.78125 6.34375 
Q 5.515625 14.109375 5.515625 27.296875 
Q 5.515625 40.671875 12.859375 48.328125 
Q 20.21875 56 33.015625 56 
Q 37.15625 56 41.109375 55.140625 
Q 45.0625 54.296875 48.78125 52.59375 
z
" id="DejaVuSans-99"/>
       <path d="M 54.890625 33.015625 
L 54.890625 0 
L 45.90625 0 
L 45.90625 32.71875 
Q 45.90625 40.484375 42.875 44.328125 
Q 39.84375 48.1875 33.796875 48.1875 
Q 26.515625 48.1875 22.3125 43.546875 
Q 18.109375 38.921875 18.109375 30.90625 
L 18.109375 0 
L 9.078125 0 
L 9.078125 54.6875 
L 18.109375 54.6875 
L 18.109375 46.1875 
Q 21.34375 51.125 25.703125 53.5625 
Q 30.078125 56 35.796875 56 
Q 45.21875 56 50.046875 50.171875 
Q 54.890625 44.34375 54.890625 33.015625 
z
" id="DejaVuSans-110"/>
       <path d="M 18.3125 70.21875 
L 18.3125 54.6875 
L 36.8125 54.6875 
L 36.8125 47.703125 
L 18.3125 47.703125 
L 18.3125 18.015625 
Q 18.3125 11.328125 20.140625 9.421875 
Q 21.96875 7.515625 27.59375 7.515625 
L 36.8125 7.515625 
L 36.8125 0 
L 27.59375 0 
Q 17.1875 0 13.234375 3.875 
Q 9.28125 7.765625 9.28125 18.015625 
L 9.28125 47.703125 
L 2.6875 47.703125 
L 2.6875 54.6875 
L 9.28125 54.6875 
L 9.28125 70.21875 
z
" id="DejaVuSans-116"/>
       <path id="DejaVuSans-32"/>
       <path d="M 2.984375 54.6875 
L 12.5 54.6875 
L 29.59375 8.796875 
L 46.6875 54.6875 
L 56.203125 54.6875 
L 35.6875 0 
L 23.484375 0 
z
" id="DejaVuSans-118"/>
       <path d="M 34.28125 27.484375 
Q 23.390625 27.484375 19.1875 25 
Q 14.984375 22.515625 14.984375 16.5 
Q 14.984375 11.71875 18.140625 8.90625 
Q 21.296875 6.109375 26.703125 6.109375 
Q 34.1875 6.109375 38.703125 11.40625 
Q 43.21875 16.703125 43.21875 25.484375 
L 43.21875 27.484375 
z
M 52.203125 31.203125 
L 52.203125 0 
L 43.21875 0 
L 43.21875 8.296875 
Q 40.140625 3.328125 35.546875 0.953125 
Q 30.953125 -1.421875 24.3125 -1.421875 
Q 15.921875 -1.421875 10.953125 3.296875 
Q 6 8.015625 6 15.921875 
Q 6 25.140625 12.171875 29.828125 
Q 18.359375 34.515625 30.609375 34.515625 
L 43.21875 34.515625 
L 43.21875 35.40625 
Q 43.21875 41.609375 39.140625 45 
Q 35.0625 48.390625 27.6875 48.390625 
Q 23 48.390625 18.546875 47.265625 
Q 14.109375 46.140625 10.015625 43.890625 
L 10.015625 52.203125 
Q 14.9375 54.109375 19.578125 55.046875 
Q 24.21875 56 28.609375 56 
Q 40.484375 56 46.34375 49.84375 
Q 52.203125 43.703125 52.203125 31.203125 
z
" id="DejaVuSans-97"/>
       <path d="M 9.421875 75.984375 
L 18.40625 75.984375 
L 18.40625 0 
L 9.421875 0 
z
" id="DejaVuSans-108"/>
       <path d="M 8.5 21.578125 
L 8.5 54.6875 
L 17.484375 54.6875 
L 17.484375 21.921875 
Q 17.484375 14.15625 20.5 10.265625 
Q 23.53125 6.390625 29.59375 6.390625 
Q 36.859375 6.390625 41.078125 11.03125 
Q 45.3125 15.671875 45.3125 23.6875 
L 45.3125 54.6875 
L 54.296875 54.6875 
L 54.296875 0 
L 45.3125 0 
L 45.3125 8.40625 
Q 42.046875 3.421875 37.71875 1 
Q 33.40625 -1.421875 27.6875 -1.421875 
Q 18.265625 -1.421875 13.375 4.4375 
Q 8.5 10.296875 8.5 21.578125 
z
M 31.109375 56 
z
" id="DejaVuSans-117"/>
      </defs>
      <use xlink:href="#DejaVuSans-67"/>
      <use x="69.824219" xlink:href="#DejaVuSans-111"/>
      <use x="131.005859" xlink:href="#DejaVuSans-101"/>
      <use x="192.529297" xlink:href="#DejaVuSans-102"/>
      <use x="227.734375" xlink:href="#DejaVuSans-102"/>
      <use x="262.939453" xlink:href="#DejaVuSans-105"/>
      <use x="290.722656" xlink:href="#DejaVuSans-99"/>
      <use x="345.703125" xlink:href="#DejaVuSans-105"/>
      <use x="373.486328" xlink:href="#DejaVuSans-101"/>
      <use x="435.009766" xlink:href="#DejaVuSans-110"/>
      <use x="498.388672" xlink:href="#DejaVuSans-116"/>
      <use x="537.597656" xlink:href="#DejaVuSans-32"/>
      <use x="569.384766" xlink:href="#DejaVuSans-118"/>
      <use x="628.564453" xlink:href="#DejaVuSans-97"/>
      <use x="689.84375" xlink:href="#DejaVuSans-108"/>
      <use x="717.626953" xlink:href="#DejaVuSans-117"/>
      <use x="781.005859" xlink:href="#DejaVuSans-101"/>
     </g>
    </g>
   </g>
   <g id="matplotlib.axis_2">
    <g id="ytick_1">
     <g id="line2d_6">
      <defs>
       <path d="M 0 0 
L -3.5 0 
" id="m3dcf47ebf5" style="stroke:#000000;stroke-width:0.8;"/>
      </defs>
      <g>
       <use style="stroke:#000000;stroke-width:0.8;" x="180" xlink:href="#m3dcf47ebf5" y="250.457143"/>
      </g>
     </g>
     <g id="text_7">
      <!-- Distance_Center -->
      <g transform="translate(90.617188 254.256362)scale(0.1 -0.1)">
       <defs>
        <path d="M 19.671875 64.796875 
L 19.671875 8.109375 
L 31.59375 8.109375 
Q 46.6875 8.109375 53.6875 14.9375 
Q 60.6875 21.78125 60.6875 36.53125 
Q 60.6875 51.171875 53.6875 57.984375 
Q 46.6875 64.796875 31.59375 64.796875 
z
M 9.8125 72.90625 
L 30.078125 72.90625 
Q 51.265625 72.90625 61.171875 64.09375 
Q 71.09375 55.28125 71.09375 36.53125 
Q 71.09375 17.671875 61.125 8.828125 
Q 51.171875 0 30.078125 0 
L 9.8125 0 
z
" id="DejaVuSans-68"/>
        <path d="M 44.28125 53.078125 
L 44.28125 44.578125 
Q 40.484375 46.53125 36.375 47.5 
Q 32.28125 48.484375 27.875 48.484375 
Q 21.1875 48.484375 17.84375 46.4375 
Q 14.5 44.390625 14.5 40.28125 
Q 14.5 37.15625 16.890625 35.375 
Q 19.28125 33.59375 26.515625 31.984375 
L 29.59375 31.296875 
Q 39.15625 29.25 43.1875 25.515625 
Q 47.21875 21.78125 47.21875 15.09375 
Q 47.21875 7.46875 41.1875 3.015625 
Q 35.15625 -1.421875 24.609375 -1.421875 
Q 20.21875 -1.421875 15.453125 -0.5625 
Q 10.6875 0.296875 5.421875 2 
L 5.421875 11.28125 
Q 10.40625 8.6875 15.234375 7.390625 
Q 20.0625 6.109375 24.8125 6.109375 
Q 31.15625 6.109375 34.5625 8.28125 
Q 37.984375 10.453125 37.984375 14.40625 
Q 37.984375 18.0625 35.515625 20.015625 
Q 33.0625 21.96875 24.703125 23.78125 
L 21.578125 24.515625 
Q 13.234375 26.265625 9.515625 29.90625 
Q 5.8125 33.546875 5.8125 39.890625 
Q 5.8125 47.609375 11.28125 51.796875 
Q 16.75 56 26.8125 56 
Q 31.78125 56 36.171875 55.265625 
Q 40.578125 54.546875 44.28125 53.078125 
z
" id="DejaVuSans-115"/>
        <path d="M 50.984375 -16.609375 
L 50.984375 -23.578125 
L -0.984375 -23.578125 
L -0.984375 -16.609375 
z
" id="DejaVuSans-95"/>
        <path d="M 41.109375 46.296875 
Q 39.59375 47.171875 37.8125 47.578125 
Q 36.03125 48 33.890625 48 
Q 26.265625 48 22.1875 43.046875 
Q 18.109375 38.09375 18.109375 28.8125 
L 18.109375 0 
L 9.078125 0 
L 9.078125 54.6875 
L 18.109375 54.6875 
L 18.109375 46.1875 
Q 20.953125 51.171875 25.484375 53.578125 
Q 30.03125 56 36.53125 56 
Q 37.453125 56 38.578125 55.875 
Q 39.703125 55.765625 41.0625 55.515625 
z
" id="DejaVuSans-114"/>
       </defs>
       <use xlink:href="#DejaVuSans-68"/>
       <use x="77.001953" xlink:href="#DejaVuSans-105"/>
       <use x="104.785156" xlink:href="#DejaVuSans-115"/>
       <use x="156.884766" xlink:href="#DejaVuSans-116"/>
       <use x="196.09375" xlink:href="#DejaVuSans-97"/>
       <use x="257.373047" xlink:href="#DejaVuSans-110"/>
       <use x="320.751953" xlink:href="#DejaVuSans-99"/>
       <use x="375.732422" xlink:href="#DejaVuSans-101"/>
       <use x="437.255859" xlink:href="#DejaVuSans-95"/>
       <use x="487.255859" xlink:href="#DejaVuSans-67"/>
       <use x="557.080078" xlink:href="#DejaVuSans-101"/>
       <use x="618.603516" xlink:href="#DejaVuSans-110"/>
       <use x="681.982422" xlink:href="#DejaVuSans-116"/>
       <use x="721.191406" xlink:href="#DejaVuSans-101"/>
       <use x="782.714844" xlink:href="#DejaVuSans-114"/>
      </g>
     </g>
    </g>
    <g id="ytick_2">
     <g id="line2d_7">
      <g>
       <use style="stroke:#000000;stroke-width:0.8;" x="180" xlink:href="#m3dcf47ebf5" y="405.771429"/>
      </g>
     </g>
     <g id="text_8">
      <!-- Nationality_UK -->
      <g transform="translate(99.835938 409.570647)scale(0.1 -0.1)">
       <defs>
        <path d="M 9.8125 72.90625 
L 23.09375 72.90625 
L 55.421875 11.921875 
L 55.421875 72.90625 
L 64.984375 72.90625 
L 64.984375 0 
L 51.703125 0 
L 19.390625 60.984375 
L 19.390625 0 
L 9.8125 0 
z
" id="DejaVuSans-78"/>
        <path d="M 32.171875 -5.078125 
Q 28.375 -14.84375 24.75 -17.8125 
Q 21.140625 -20.796875 15.09375 -20.796875 
L 7.90625 -20.796875 
L 7.90625 -13.28125 
L 13.1875 -13.28125 
Q 16.890625 -13.28125 18.9375 -11.515625 
Q 21 -9.765625 23.484375 -3.21875 
L 25.09375 0.875 
L 2.984375 54.6875 
L 12.5 54.6875 
L 29.59375 11.921875 
L 46.6875 54.6875 
L 56.203125 54.6875 
z
" id="DejaVuSans-121"/>
        <path d="M 8.6875 72.90625 
L 18.609375 72.90625 
L 18.609375 28.609375 
Q 18.609375 16.890625 22.84375 11.734375 
Q 27.09375 6.59375 36.625 6.59375 
Q 46.09375 6.59375 50.34375 11.734375 
Q 54.59375 16.890625 54.59375 28.609375 
L 54.59375 72.90625 
L 64.5 72.90625 
L 64.5 27.390625 
Q 64.5 13.140625 57.4375 5.859375 
Q 50.390625 -1.421875 36.625 -1.421875 
Q 22.796875 -1.421875 15.734375 5.859375 
Q 8.6875 13.140625 8.6875 27.390625 
z
" id="DejaVuSans-85"/>
        <path d="M 9.8125 72.90625 
L 19.671875 72.90625 
L 19.671875 42.09375 
L 52.390625 72.90625 
L 65.09375 72.90625 
L 28.90625 38.921875 
L 67.671875 0 
L 54.6875 0 
L 19.671875 35.109375 
L 19.671875 0 
L 9.8125 0 
z
" id="DejaVuSans-75"/>
       </defs>
       <use xlink:href="#DejaVuSans-78"/>
       <use x="74.804688" xlink:href="#DejaVuSans-97"/>
       <use x="136.083984" xlink:href="#DejaVuSans-116"/>
       <use x="175.292969" xlink:href="#DejaVuSans-105"/>
       <use x="203.076172" xlink:href="#DejaVuSans-111"/>
       <use x="264.257812" xlink:href="#DejaVuSans-110"/>
       <use x="327.636719" xlink:href="#DejaVuSans-97"/>
       <use x="388.916016" xlink:href="#DejaVuSans-108"/>
       <use x="416.699219" xlink:href="#DejaVuSans-105"/>
       <use x="444.482422" xlink:href="#DejaVuSans-116"/>
       <use x="483.691406" xlink:href="#DejaVuSans-121"/>
       <use x="542.871094" xlink:href="#DejaVuSans-95"/>
       <use x="592.871094" xlink:href="#DejaVuSans-85"/>
       <use x="666.064453" xlink:href="#DejaVuSans-75"/>
      </g>
     </g>
    </g>
    <g id="ytick_3">
     <g id="line2d_8">
      <g>
       <use style="stroke:#000000;stroke-width:0.8;" x="180" xlink:href="#m3dcf47ebf5" y="561.085714"/>
      </g>
     </g>
     <g id="text_9">
      <!-- POI_Restaurants_Hotels -->
      <g transform="translate(54.495312 564.884933)scale(0.1 -0.1)">
       <defs>
        <path d="M 19.671875 64.796875 
L 19.671875 37.40625 
L 32.078125 37.40625 
Q 38.96875 37.40625 42.71875 40.96875 
Q 46.484375 44.53125 46.484375 51.125 
Q 46.484375 57.671875 42.71875 61.234375 
Q 38.96875 64.796875 32.078125 64.796875 
z
M 9.8125 72.90625 
L 32.078125 72.90625 
Q 44.34375 72.90625 50.609375 67.359375 
Q 56.890625 61.8125 56.890625 51.125 
Q 56.890625 40.328125 50.609375 34.8125 
Q 44.34375 29.296875 32.078125 29.296875 
L 19.671875 29.296875 
L 19.671875 0 
L 9.8125 0 
z
" id="DejaVuSans-80"/>
        <path d="M 39.40625 66.21875 
Q 28.65625 66.21875 22.328125 58.203125 
Q 16.015625 50.203125 16.015625 36.375 
Q 16.015625 22.609375 22.328125 14.59375 
Q 28.65625 6.59375 39.40625 6.59375 
Q 50.140625 6.59375 56.421875 14.59375 
Q 62.703125 22.609375 62.703125 36.375 
Q 62.703125 50.203125 56.421875 58.203125 
Q 50.140625 66.21875 39.40625 66.21875 
z
M 39.40625 74.21875 
Q 54.734375 74.21875 63.90625 63.9375 
Q 73.09375 53.65625 73.09375 36.375 
Q 73.09375 19.140625 63.90625 8.859375 
Q 54.734375 -1.421875 39.40625 -1.421875 
Q 24.03125 -1.421875 14.8125 8.828125 
Q 5.609375 19.09375 5.609375 36.375 
Q 5.609375 53.65625 14.8125 63.9375 
Q 24.03125 74.21875 39.40625 74.21875 
z
" id="DejaVuSans-79"/>
        <path d="M 9.8125 72.90625 
L 19.671875 72.90625 
L 19.671875 0 
L 9.8125 0 
z
" id="DejaVuSans-73"/>
        <path d="M 44.390625 34.1875 
Q 47.5625 33.109375 50.5625 29.59375 
Q 53.5625 26.078125 56.59375 19.921875 
L 66.609375 0 
L 56 0 
L 46.6875 18.703125 
Q 43.0625 26.03125 39.671875 28.421875 
Q 36.28125 30.8125 30.421875 30.8125 
L 19.671875 30.8125 
L 19.671875 0 
L 9.8125 0 
L 9.8125 72.90625 
L 32.078125 72.90625 
Q 44.578125 72.90625 50.734375 67.671875 
Q 56.890625 62.453125 56.890625 51.90625 
Q 56.890625 45.015625 53.6875 40.46875 
Q 50.484375 35.9375 44.390625 34.1875 
z
M 19.671875 64.796875 
L 19.671875 38.921875 
L 32.078125 38.921875 
Q 39.203125 38.921875 42.84375 42.21875 
Q 46.484375 45.515625 46.484375 51.90625 
Q 46.484375 58.296875 42.84375 61.546875 
Q 39.203125 64.796875 32.078125 64.796875 
z
" id="DejaVuSans-82"/>
        <path d="M 9.8125 72.90625 
L 19.671875 72.90625 
L 19.671875 43.015625 
L 55.515625 43.015625 
L 55.515625 72.90625 
L 65.375 72.90625 
L 65.375 0 
L 55.515625 0 
L 55.515625 34.71875 
L 19.671875 34.71875 
L 19.671875 0 
L 9.8125 0 
z
" id="DejaVuSans-72"/>
       </defs>
       <use xlink:href="#DejaVuSans-80"/>
       <use x="60.302734" xlink:href="#DejaVuSans-79"/>
       <use x="139.013672" xlink:href="#DejaVuSans-73"/>
       <use x="168.505859" xlink:href="#DejaVuSans-95"/>
       <use x="218.505859" xlink:href="#DejaVuSans-82"/>
       <use x="283.488281" xlink:href="#DejaVuSans-101"/>
       <use x="345.011719" xlink:href="#DejaVuSans-115"/>
       <use x="397.111328" xlink:href="#DejaVuSans-116"/>
       <use x="436.320312" xlink:href="#DejaVuSans-97"/>
       <use x="497.599609" xlink:href="#DejaVuSans-117"/>
       <use x="560.978516" xlink:href="#DejaVuSans-114"/>
       <use x="602.091797" xlink:href="#DejaVuSans-97"/>
       <use x="663.371094" xlink:href="#DejaVuSans-110"/>
       <use x="726.75" xlink:href="#DejaVuSans-116"/>
       <use x="765.958984" xlink:href="#DejaVuSans-115"/>
       <use x="818.058594" xlink:href="#DejaVuSans-95"/>
       <use x="868.058594" xlink:href="#DejaVuSans-72"/>
       <use x="943.253906" xlink:href="#DejaVuSans-111"/>
       <use x="1004.435547" xlink:href="#DejaVuSans-116"/>
       <use x="1043.644531" xlink:href="#DejaVuSans-101"/>
       <use x="1105.167969" xlink:href="#DejaVuSans-108"/>
       <use x="1132.951172" xlink:href="#DejaVuSans-115"/>
      </g>
     </g>
    </g>
    <g id="ytick_4">
     <g id="line2d_9">
      <g>
       <use style="stroke:#000000;stroke-width:0.8;" x="180" xlink:href="#m3dcf47ebf5" y="716.4"/>
      </g>
     </g>
     <g id="text_10">
      <!-- Nationality_Spain -->
      <g transform="translate(85.771875 720.199219)scale(0.1 -0.1)">
       <defs>
        <path d="M 53.515625 70.515625 
L 53.515625 60.890625 
Q 47.90625 63.578125 42.921875 64.890625 
Q 37.9375 66.21875 33.296875 66.21875 
Q 25.25 66.21875 20.875 63.09375 
Q 16.5 59.96875 16.5 54.203125 
Q 16.5 49.359375 19.40625 46.890625 
Q 22.3125 44.4375 30.421875 42.921875 
L 36.375 41.703125 
Q 47.40625 39.59375 52.65625 34.296875 
Q 57.90625 29 57.90625 20.125 
Q 57.90625 9.515625 50.796875 4.046875 
Q 43.703125 -1.421875 29.984375 -1.421875 
Q 24.8125 -1.421875 18.96875 -0.25 
Q 13.140625 0.921875 6.890625 3.21875 
L 6.890625 13.375 
Q 12.890625 10.015625 18.65625 8.296875 
Q 24.421875 6.59375 29.984375 6.59375 
Q 38.421875 6.59375 43.015625 9.90625 
Q 47.609375 13.234375 47.609375 19.390625 
Q 47.609375 24.75 44.3125 27.78125 
Q 41.015625 30.8125 33.5 32.328125 
L 27.484375 33.5 
Q 16.453125 35.6875 11.515625 40.375 
Q 6.59375 45.0625 6.59375 53.421875 
Q 6.59375 63.09375 13.40625 68.65625 
Q 20.21875 74.21875 32.171875 74.21875 
Q 37.3125 74.21875 42.625 73.28125 
Q 47.953125 72.359375 53.515625 70.515625 
z
" id="DejaVuSans-83"/>
        <path d="M 18.109375 8.203125 
L 18.109375 -20.796875 
L 9.078125 -20.796875 
L 9.078125 54.6875 
L 18.109375 54.6875 
L 18.109375 46.390625 
Q 20.953125 51.265625 25.265625 53.625 
Q 29.59375 56 35.59375 56 
Q 45.5625 56 51.78125 48.09375 
Q 58.015625 40.1875 58.015625 27.296875 
Q 58.015625 14.40625 51.78125 6.484375 
Q 45.5625 -1.421875 35.59375 -1.421875 
Q 29.59375 -1.421875 25.265625 0.953125 
Q 20.953125 3.328125 18.109375 8.203125 
z
M 48.6875 27.296875 
Q 48.6875 37.203125 44.609375 42.84375 
Q 40.53125 48.484375 33.40625 48.484375 
Q 26.265625 48.484375 22.1875 42.84375 
Q 18.109375 37.203125 18.109375 27.296875 
Q 18.109375 17.390625 22.1875 11.75 
Q 26.265625 6.109375 33.40625 6.109375 
Q 40.53125 6.109375 44.609375 11.75 
Q 48.6875 17.390625 48.6875 27.296875 
z
" id="DejaVuSans-112"/>
       </defs>
       <use xlink:href="#DejaVuSans-78"/>
       <use x="74.804688" xlink:href="#DejaVuSans-97"/>
       <use x="136.083984" xlink:href="#DejaVuSans-116"/>
       <use x="175.292969" xlink:href="#DejaVuSans-105"/>
       <use x="203.076172" xlink:href="#DejaVuSans-111"/>
       <use x="264.257812" xlink:href="#DejaVuSans-110"/>
       <use x="327.636719" xlink:href="#DejaVuSans-97"/>
       <use x="388.916016" xlink:href="#DejaVuSans-108"/>
       <use x="416.699219" xlink:href="#DejaVuSans-105"/>
       <use x="444.482422" xlink:href="#DejaVuSans-116"/>
       <use x="483.691406" xlink:href="#DejaVuSans-121"/>
       <use x="542.871094" xlink:href="#DejaVuSans-95"/>
       <use x="592.871094" xlink:href="#DejaVuSans-83"/>
       <use x="656.347656" xlink:href="#DejaVuSans-112"/>
       <use x="719.824219" xlink:href="#DejaVuSans-97"/>
       <use x="781.103516" xlink:href="#DejaVuSans-105"/>
       <use x="808.886719" xlink:href="#DejaVuSans-110"/>
      </g>
     </g>
    </g>
    <g id="ytick_5">
     <g id="line2d_10">
      <g>
       <use style="stroke:#000000;stroke-width:0.8;" x="180" xlink:href="#m3dcf47ebf5" y="871.714286"/>
      </g>
     </g>
     <g id="text_11">
      <!-- Nationality_Italy -->
      <g transform="translate(92.017187 875.513504)scale(0.1 -0.1)">
       <use xlink:href="#DejaVuSans-78"/>
       <use x="74.804688" xlink:href="#DejaVuSans-97"/>
       <use x="136.083984" xlink:href="#DejaVuSans-116"/>
       <use x="175.292969" xlink:href="#DejaVuSans-105"/>
       <use x="203.076172" xlink:href="#DejaVuSans-111"/>
       <use x="264.257812" xlink:href="#DejaVuSans-110"/>
       <use x="327.636719" xlink:href="#DejaVuSans-97"/>
       <use x="388.916016" xlink:href="#DejaVuSans-108"/>
       <use x="416.699219" xlink:href="#DejaVuSans-105"/>
       <use x="444.482422" xlink:href="#DejaVuSans-116"/>
       <use x="483.691406" xlink:href="#DejaVuSans-121"/>
       <use x="542.871094" xlink:href="#DejaVuSans-95"/>
       <use x="592.871094" xlink:href="#DejaVuSans-73"/>
       <use x="622.363281" xlink:href="#DejaVuSans-116"/>
       <use x="661.572266" xlink:href="#DejaVuSans-97"/>
       <use x="722.851562" xlink:href="#DejaVuSans-108"/>
       <use x="750.634766" xlink:href="#DejaVuSans-121"/>
      </g>
     </g>
    </g>
    <g id="ytick_6">
     <g id="line2d_11">
      <g>
       <use style="stroke:#000000;stroke-width:0.8;" x="180" xlink:href="#m3dcf47ebf5" y="1027.028571"/>
      </g>
     </g>
     <g id="text_12">
      <!-- Education_University -->
      <g transform="translate(67.770312 1030.82779)scale(0.1 -0.1)">
       <defs>
        <path d="M 9.8125 72.90625 
L 55.90625 72.90625 
L 55.90625 64.59375 
L 19.671875 64.59375 
L 19.671875 43.015625 
L 54.390625 43.015625 
L 54.390625 34.71875 
L 19.671875 34.71875 
L 19.671875 8.296875 
L 56.78125 8.296875 
L 56.78125 0 
L 9.8125 0 
z
" id="DejaVuSans-69"/>
        <path d="M 45.40625 46.390625 
L 45.40625 75.984375 
L 54.390625 75.984375 
L 54.390625 0 
L 45.40625 0 
L 45.40625 8.203125 
Q 42.578125 3.328125 38.25 0.953125 
Q 33.9375 -1.421875 27.875 -1.421875 
Q 17.96875 -1.421875 11.734375 6.484375 
Q 5.515625 14.40625 5.515625 27.296875 
Q 5.515625 40.1875 11.734375 48.09375 
Q 17.96875 56 27.875 56 
Q 33.9375 56 38.25 53.625 
Q 42.578125 51.265625 45.40625 46.390625 
z
M 14.796875 27.296875 
Q 14.796875 17.390625 18.875 11.75 
Q 22.953125 6.109375 30.078125 6.109375 
Q 37.203125 6.109375 41.296875 11.75 
Q 45.40625 17.390625 45.40625 27.296875 
Q 45.40625 37.203125 41.296875 42.84375 
Q 37.203125 48.484375 30.078125 48.484375 
Q 22.953125 48.484375 18.875 42.84375 
Q 14.796875 37.203125 14.796875 27.296875 
z
" id="DejaVuSans-100"/>
       </defs>
       <use xlink:href="#DejaVuSans-69"/>
       <use x="63.183594" xlink:href="#DejaVuSans-100"/>
       <use x="126.660156" xlink:href="#DejaVuSans-117"/>
       <use x="190.039062" xlink:href="#DejaVuSans-99"/>
       <use x="245.019531" xlink:href="#DejaVuSans-97"/>
       <use x="306.298828" xlink:href="#DejaVuSans-116"/>
       <use x="345.507812" xlink:href="#DejaVuSans-105"/>
       <use x="373.291016" xlink:href="#DejaVuSans-111"/>
       <use x="434.472656" xlink:href="#DejaVuSans-110"/>
       <use x="497.851562" xlink:href="#DejaVuSans-95"/>
       <use x="547.851562" xlink:href="#DejaVuSans-85"/>
       <use x="621.044922" xlink:href="#DejaVuSans-110"/>
       <use x="684.423828" xlink:href="#DejaVuSans-105"/>
       <use x="712.207031" xlink:href="#DejaVuSans-118"/>
       <use x="771.386719" xlink:href="#DejaVuSans-101"/>
       <use x="832.910156" xlink:href="#DejaVuSans-114"/>
       <use x="874.023438" xlink:href="#DejaVuSans-115"/>
       <use x="926.123047" xlink:href="#DejaVuSans-105"/>
       <use x="953.90625" xlink:href="#DejaVuSans-116"/>
       <use x="993.115234" xlink:href="#DejaVuSans-121"/>
      </g>
     </g>
    </g>
    <g id="ytick_7">
     <g id="line2d_12">
      <g>
       <use style="stroke:#000000;stroke-width:0.8;" x="180" xlink:href="#m3dcf47ebf5" y="1182.342857"/>
      </g>
     </g>
     <g id="text_13">
      <!-- Intercept -->
      <g transform="translate(127.832812 1186.142076)scale(0.1 -0.1)">
       <use xlink:href="#DejaVuSans-73"/>
       <use x="29.492188" xlink:href="#DejaVuSans-110"/>
       <use x="92.871094" xlink:href="#DejaVuSans-116"/>
       <use x="132.080078" xlink:href="#DejaVuSans-101"/>
       <use x="193.603516" xlink:href="#DejaVuSans-114"/>
       <use x="232.466797" xlink:href="#DejaVuSans-99"/>
       <use x="287.447266" xlink:href="#DejaVuSans-101"/>
       <use x="348.970703" xlink:href="#DejaVuSans-112"/>
       <use x="412.447266" xlink:href="#DejaVuSans-116"/>
      </g>
     </g>
    </g>
   </g>
   <g id="line2d_13">
    <path clip-path="url(#pb0e54c6109)" d="M 244.226273 250.457143 
L 225.326831 250.457143 
" style="fill:none;stroke:#4c4c4c;stroke-linecap:square;stroke-width:1.5;"/>
   </g>
   <g id="line2d_14">
    <path clip-path="url(#pb0e54c6109)" d="M 259.040252 250.457143 
L 275.603372 250.457143 
" style="fill:none;stroke:#4c4c4c;stroke-linecap:square;stroke-width:1.5;"/>
   </g>
   <g id="line2d_15">
    <path clip-path="url(#pb0e54c6109)" d="M 225.326831 219.394286 
L 225.326831 281.52 
" style="fill:none;stroke:#4c4c4c;stroke-linecap:square;stroke-width:1.5;"/>
   </g>
   <g id="line2d_16">
    <path clip-path="url(#pb0e54c6109)" d="M 275.603372 219.394286 
L 275.603372 281.52 
" style="fill:none;stroke:#4c4c4c;stroke-linecap:square;stroke-width:1.5;"/>
   </g>
   <g id="line2d_17">
    <defs>
     <path d="M -0 3.535534 
L 2.12132 0 
L -0 -3.535534 
L -2.12132 -0 
z
" id="m33abdcd8bf" style="stroke:#4c4c4c;stroke-linejoin:miter;"/>
    </defs>
    <g clip-path="url(#pb0e54c6109)">
     <use style="fill:#4c4c4c;stroke:#4c4c4c;stroke-linejoin:miter;" x="206.571429" xlink:href="#m33abdcd8bf" y="250.457143"/>
     <use style="fill:#4c4c4c;stroke:#4c4c4c;stroke-linejoin:miter;" x="285.905923" xlink:href="#m33abdcd8bf" y="250.457143"/>
    </g>
   </g>
   <g id="line2d_18">
    <path clip-path="url(#pb0e54c6109)" d="M 905.697643 405.771429 
L 888.92601 405.771429 
" style="fill:none;stroke:#4c4c4c;stroke-linecap:square;stroke-width:1.5;"/>
   </g>
   <g id="line2d_19">
    <path clip-path="url(#pb0e54c6109)" d="M 921.746314 405.771429 
L 934.212872 405.771429 
" style="fill:none;stroke:#4c4c4c;stroke-linecap:square;stroke-width:1.5;"/>
   </g>
   <g id="line2d_20">
    <path clip-path="url(#pb0e54c6109)" d="M 888.92601 374.708571 
L 888.92601 436.834286 
" style="fill:none;stroke:#4c4c4c;stroke-linecap:square;stroke-width:1.5;"/>
   </g>
   <g id="line2d_21">
    <path clip-path="url(#pb0e54c6109)" d="M 934.212872 374.708571 
L 934.212872 436.834286 
" style="fill:none;stroke:#4c4c4c;stroke-linecap:square;stroke-width:1.5;"/>
   </g>
   <g id="line2d_22"/>
   <g id="line2d_23">
    <path clip-path="url(#pb0e54c6109)" d="M 907.919157 561.085714 
L 901.339789 561.085714 
" style="fill:none;stroke:#4c4c4c;stroke-linecap:square;stroke-width:1.5;"/>
   </g>
   <g id="line2d_24">
    <path clip-path="url(#pb0e54c6109)" d="M 930.607879 561.085714 
L 948.642055 561.085714 
" style="fill:none;stroke:#4c4c4c;stroke-linecap:square;stroke-width:1.5;"/>
   </g>
   <g id="line2d_25">
    <path clip-path="url(#pb0e54c6109)" d="M 901.339789 530.022857 
L 901.339789 592.148571 
" style="fill:none;stroke:#4c4c4c;stroke-linecap:square;stroke-width:1.5;"/>
   </g>
   <g id="line2d_26">
    <path clip-path="url(#pb0e54c6109)" d="M 948.642055 530.022857 
L 948.642055 592.148571 
" style="fill:none;stroke:#4c4c4c;stroke-linecap:square;stroke-width:1.5;"/>
   </g>
   <g id="line2d_27"/>
   <g id="line2d_28">
    <path clip-path="url(#pb0e54c6109)" d="M 569.207097 716.4 
L 534.73268 716.4 
" style="fill:none;stroke:#4c4c4c;stroke-linecap:square;stroke-width:1.5;"/>
   </g>
   <g id="line2d_29">
    <path clip-path="url(#pb0e54c6109)" d="M 595.012484 716.4 
L 606.549535 716.4 
" style="fill:none;stroke:#4c4c4c;stroke-linecap:square;stroke-width:1.5;"/>
   </g>
   <g id="line2d_30">
    <path clip-path="url(#pb0e54c6109)" d="M 534.73268 685.337143 
L 534.73268 747.462857 
" style="fill:none;stroke:#4c4c4c;stroke-linecap:square;stroke-width:1.5;"/>
   </g>
   <g id="line2d_31">
    <path clip-path="url(#pb0e54c6109)" d="M 606.549535 685.337143 
L 606.549535 747.462857 
" style="fill:none;stroke:#4c4c4c;stroke-linecap:square;stroke-width:1.5;"/>
   </g>
   <g id="line2d_32"/>
   <g id="line2d_33">
    <path clip-path="url(#pb0e54c6109)" d="M 881.891291 871.714286 
L 857.411277 871.714286 
" style="fill:none;stroke:#4c4c4c;stroke-linecap:square;stroke-width:1.5;"/>
   </g>
   <g id="line2d_34">
    <path clip-path="url(#pb0e54c6109)" d="M 910.682125 871.714286 
L 932.219221 871.714286 
" style="fill:none;stroke:#4c4c4c;stroke-linecap:square;stroke-width:1.5;"/>
   </g>
   <g id="line2d_35">
    <path clip-path="url(#pb0e54c6109)" d="M 857.411277 840.651429 
L 857.411277 902.777143 
" style="fill:none;stroke:#4c4c4c;stroke-linecap:square;stroke-width:1.5;"/>
   </g>
   <g id="line2d_36">
    <path clip-path="url(#pb0e54c6109)" d="M 932.219221 840.651429 
L 932.219221 902.777143 
" style="fill:none;stroke:#4c4c4c;stroke-linecap:square;stroke-width:1.5;"/>
   </g>
   <g id="line2d_37"/>
   <g id="line2d_38">
    <path clip-path="url(#pb0e54c6109)" d="M 623.542556 1027.028571 
L 607.325142 1027.028571 
" style="fill:none;stroke:#4c4c4c;stroke-linecap:square;stroke-width:1.5;"/>
   </g>
   <g id="line2d_39">
    <path clip-path="url(#pb0e54c6109)" d="M 643.540001 1027.028571 
L 665.666567 1027.028571 
" style="fill:none;stroke:#4c4c4c;stroke-linecap:square;stroke-width:1.5;"/>
   </g>
   <g id="line2d_40">
    <path clip-path="url(#pb0e54c6109)" d="M 607.325142 995.965714 
L 607.325142 1058.091429 
" style="fill:none;stroke:#4c4c4c;stroke-linecap:square;stroke-width:1.5;"/>
   </g>
   <g id="line2d_41">
    <path clip-path="url(#pb0e54c6109)" d="M 665.666567 995.965714 
L 665.666567 1058.091429 
" style="fill:none;stroke:#4c4c4c;stroke-linecap:square;stroke-width:1.5;"/>
   </g>
   <g id="line2d_42"/>
   <g id="line2d_43">
    <path clip-path="url(#pb0e54c6109)" d="M 738 1182.342857 
L 738 1182.342857 
" style="fill:none;stroke:#4c4c4c;stroke-linecap:square;stroke-width:1.5;"/>
   </g>
   <g id="line2d_44">
    <path clip-path="url(#pb0e54c6109)" d="M 738 1182.342857 
L 738 1182.342857 
" style="fill:none;stroke:#4c4c4c;stroke-linecap:square;stroke-width:1.5;"/>
   </g>
   <g id="line2d_45">
    <path clip-path="url(#pb0e54c6109)" d="M 738 1151.28 
L 738 1213.405714 
" style="fill:none;stroke:#4c4c4c;stroke-linecap:square;stroke-width:1.5;"/>
   </g>
   <g id="line2d_46">
    <path clip-path="url(#pb0e54c6109)" d="M 738 1151.28 
L 738 1213.405714 
" style="fill:none;stroke:#4c4c4c;stroke-linecap:square;stroke-width:1.5;"/>
   </g>
   <g id="line2d_47">
    <g clip-path="url(#pb0e54c6109)">
     <use style="fill:#4c4c4c;stroke:#4c4c4c;stroke-linejoin:miter;" x="738" xlink:href="#m33abdcd8bf" y="1182.342857"/>
     <use style="fill:#4c4c4c;stroke:#4c4c4c;stroke-linejoin:miter;" x="738" xlink:href="#m33abdcd8bf" y="1182.342857"/>
    </g>
   </g>
   <g id="line2d_48">
    <path clip-path="url(#pb0e54c6109)" d="M 738 1260 
L 738 172.8 
" style="fill:none;stroke:#ff0000;stroke-linecap:square;stroke-width:1.5;"/>
   </g>
   <g id="line2d_49">
    <path clip-path="url(#pb0e54c6109)" d="M 249.297053 188.331429 
L 249.297053 312.582857 
" style="fill:none;stroke:#4c4c4c;stroke-linecap:square;stroke-width:1.5;"/>
   </g>
   <g id="line2d_50">
    <path clip-path="url(#pb0e54c6109)" d="M 917.142685 343.645714 
L 917.142685 467.897143 
" style="fill:none;stroke:#4c4c4c;stroke-linecap:square;stroke-width:1.5;"/>
   </g>
   <g id="line2d_51">
    <path clip-path="url(#pb0e54c6109)" d="M 917.070781 498.96 
L 917.070781 623.211429 
" style="fill:none;stroke:#4c4c4c;stroke-linecap:square;stroke-width:1.5;"/>
   </g>
   <g id="line2d_52">
    <path clip-path="url(#pb0e54c6109)" d="M 577.644485 654.274286 
L 577.644485 778.525714 
" style="fill:none;stroke:#4c4c4c;stroke-linecap:square;stroke-width:1.5;"/>
   </g>
   <g id="line2d_53">
    <path clip-path="url(#pb0e54c6109)" d="M 897.932865 809.588571 
L 897.932865 933.84 
" style="fill:none;stroke:#4c4c4c;stroke-linecap:square;stroke-width:1.5;"/>
   </g>
   <g id="line2d_54">
    <path clip-path="url(#pb0e54c6109)" d="M 633.629201 964.902857 
L 633.629201 1089.154286 
" style="fill:none;stroke:#4c4c4c;stroke-linecap:square;stroke-width:1.5;"/>
   </g>
   <g id="line2d_55">
    <path clip-path="url(#pb0e54c6109)" d="M 738 1120.217143 
L 738 1244.468571 
" style="fill:none;stroke:#4c4c4c;stroke-linecap:square;stroke-width:1.5;"/>
   </g>
   <g id="patch_10">
    <path d="M 180 1260 
L 180 172.8 
" style="fill:none;stroke:#000000;stroke-linecap:square;stroke-linejoin:miter;stroke-width:0.8;"/>
   </g>
   <g id="patch_11">
    <path d="M 1296 1260 
L 1296 172.8 
" style="fill:none;stroke:#000000;stroke-linecap:square;stroke-linejoin:miter;stroke-width:0.8;"/>
   </g>
   <g id="patch_12">
    <path d="M 180 1260 
L 1296 1260 
" style="fill:none;stroke:#000000;stroke-linecap:square;stroke-linejoin:miter;stroke-width:0.8;"/>
   </g>
   <g id="patch_13">
    <path d="M 180 172.8 
L 1296 172.8 
" style="fill:none;stroke:#000000;stroke-linecap:square;stroke-linejoin:miter;stroke-width:0.8;"/>
   </g>
   <g id="PathCollection_1">
    <defs>
     <path d="M 0 2.5 
C 0.663008 2.5 1.29895 2.236584 1.767767 1.767767 
C 2.236584 1.29895 2.5 0.663008 2.5 -0 
C 2.5 -0.663008 2.236584 -1.29895 1.767767 -1.767767 
C 1.29895 -2.236584 0.663008 -2.5 0 -2.5 
C -0.663008 -2.5 -1.29895 -2.236584 -1.767767 -1.767767 
C -2.236584 -1.29895 -2.5 -0.663008 -2.5 0 
C -2.5 0.663008 -2.236584 1.29895 -1.767767 1.767767 
C -1.29895 2.236584 -0.663008 2.5 0 2.5 
z
" id="C0_0_c65a3124c4"/>
    </defs>
    <g clip-path="url(#pb0e54c6109)">
     <use style="fill-opacity:0.5;" x="245.324354" xlink:href="#C0_0_c65a3124c4" y="260.600752"/>
    </g>
    <g clip-path="url(#pb0e54c6109)">
     <use style="fill-opacity:0.5;" x="260.516856" xlink:href="#C0_0_c65a3124c4" y="259.806463"/>
    </g>
    <g clip-path="url(#pb0e54c6109)">
     <use style="fill-opacity:0.5;" x="225.326831" xlink:href="#C0_0_c65a3124c4" y="238.17037"/>
    </g>
    <g clip-path="url(#pb0e54c6109)">
     <use style="fill-opacity:0.5;" x="266.966787" xlink:href="#C0_0_c65a3124c4" y="252.844553"/>
    </g>
    <g clip-path="url(#pb0e54c6109)">
     <use style="fill-opacity:0.5;" x="249.433822" xlink:href="#C0_0_c65a3124c4" y="249.338311"/>
    </g>
    <g clip-path="url(#pb0e54c6109)">
     <use style="fill-opacity:0.5;" x="206.571429" xlink:href="#C0_0_c65a3124c4" y="238.613158"/>
    </g>
    <g clip-path="url(#pb0e54c6109)">
     <use style="fill-opacity:0.5;" x="245.298234" xlink:href="#C0_0_c65a3124c4" y="265.384965"/>
    </g>
    <g clip-path="url(#pb0e54c6109)">
     <use style="fill-opacity:0.5;" x="275.603372" xlink:href="#C0_0_c65a3124c4" y="241.594782"/>
    </g>
    <g clip-path="url(#pb0e54c6109)">
     <use style="fill-opacity:0.5;" x="268.344328" xlink:href="#C0_0_c65a3124c4" y="237.0142"/>
    </g>
    <g clip-path="url(#pb0e54c6109)">
     <use style="fill-opacity:0.5;" x="250.806108" xlink:href="#C0_0_c65a3124c4" y="253.403373"/>
    </g>
    <g clip-path="url(#pb0e54c6109)">
     <use style="fill-opacity:0.5;" x="267.614269" xlink:href="#C0_0_c65a3124c4" y="257.877024"/>
    </g>
    <g clip-path="url(#pb0e54c6109)">
     <use style="fill-opacity:0.5;" x="249.297053" xlink:href="#C0_0_c65a3124c4" y="235.9335"/>
    </g>
    <g clip-path="url(#pb0e54c6109)">
     <use style="fill-opacity:0.5;" x="244.226273" xlink:href="#C0_0_c65a3124c4" y="255.387366"/>
    </g>
    <g clip-path="url(#pb0e54c6109)">
     <use style="fill-opacity:0.5;" x="239.711817" xlink:href="#C0_0_c65a3124c4" y="251.460221"/>
    </g>
    <g clip-path="url(#pb0e54c6109)">
     <use style="fill-opacity:0.5;" x="244.640351" xlink:href="#C0_0_c65a3124c4" y="238.133421"/>
    </g>
    <g clip-path="url(#pb0e54c6109)">
     <use style="fill-opacity:0.5;" x="259.040252" xlink:href="#C0_0_c65a3124c4" y="240.284799"/>
    </g>
    <g clip-path="url(#pb0e54c6109)">
     <use style="fill-opacity:0.5;" x="234.99231" xlink:href="#C0_0_c65a3124c4" y="252.568619"/>
    </g>
    <g clip-path="url(#pb0e54c6109)">
     <use style="fill-opacity:0.5;" x="244.438047" xlink:href="#C0_0_c65a3124c4" y="244.131428"/>
    </g>
    <g clip-path="url(#pb0e54c6109)">
     <use style="fill-opacity:0.5;" x="258.958114" xlink:href="#C0_0_c65a3124c4" y="264.072482"/>
    </g>
    <g clip-path="url(#pb0e54c6109)">
     <use style="fill-opacity:0.5;" x="244.672571" xlink:href="#C0_0_c65a3124c4" y="260.358125"/>
    </g>
    <g clip-path="url(#pb0e54c6109)">
     <use style="fill-opacity:0.5;" x="227.069002" xlink:href="#C0_0_c65a3124c4" y="265.478122"/>
    </g>
    <g clip-path="url(#pb0e54c6109)">
     <use style="fill-opacity:0.5;" x="285.905923" xlink:href="#C0_0_c65a3124c4" y="242.991832"/>
    </g>
    <g clip-path="url(#pb0e54c6109)">
     <use style="fill-opacity:0.5;" x="225.685533" xlink:href="#C0_0_c65a3124c4" y="265.048101"/>
    </g>
    <g clip-path="url(#pb0e54c6109)">
     <use style="fill-opacity:0.5;" x="251.769392" xlink:href="#C0_0_c65a3124c4" y="248.32107"/>
    </g>
    <g clip-path="url(#pb0e54c6109)">
     <use style="fill-opacity:0.5;" x="256.4762" xlink:href="#C0_0_c65a3124c4" y="245.720641"/>
    </g>
   </g>
   <g id="PathCollection_2">
    <defs>
     <path d="M 0 2.5 
C 0.663008 2.5 1.29895 2.236584 1.767767 1.767767 
C 2.236584 1.29895 2.5 0.663008 2.5 -0 
C 2.5 -0.663008 2.236584 -1.29895 1.767767 -1.767767 
C 1.29895 -2.236584 0.663008 -2.5 0 -2.5 
C -0.663008 -2.5 -1.29895 -2.236584 -1.767767 -1.767767 
C -2.236584 -1.29895 -2.5 -0.663008 -2.5 0 
C -2.5 0.663008 -2.236584 1.29895 -1.767767 1.767767 
C -1.29895 2.236584 -0.663008 2.5 0 2.5 
z
" id="C1_0_d2b88c944f"/>
    </defs>
    <g clip-path="url(#pb0e54c6109)">
     <use style="fill-opacity:0.5;" x="914.26238" xlink:href="#C1_0_d2b88c944f" y="391.804"/>
    </g>
    <g clip-path="url(#pb0e54c6109)">
     <use style="fill-opacity:0.5;" x="921.806631" xlink:href="#C1_0_d2b88c944f" y="391.87904"/>
    </g>
    <g clip-path="url(#pb0e54c6109)">
     <use style="fill-opacity:0.5;" x="905.697643" xlink:href="#C1_0_d2b88c944f" y="411.735847"/>
    </g>
    <g clip-path="url(#pb0e54c6109)">
     <use style="fill-opacity:0.5;" x="924.809502" xlink:href="#C1_0_d2b88c944f" y="404.464583"/>
    </g>
    <g clip-path="url(#pb0e54c6109)">
     <use style="fill-opacity:0.5;" x="901.097539" xlink:href="#C1_0_d2b88c944f" y="397.276409"/>
    </g>
    <g clip-path="url(#pb0e54c6109)">
     <use style="fill-opacity:0.5;" x="919.408431" xlink:href="#C1_0_d2b88c944f" y="409.311672"/>
    </g>
    <g clip-path="url(#pb0e54c6109)">
     <use style="fill-opacity:0.5;" x="921.634828" xlink:href="#C1_0_d2b88c944f" y="398.094496"/>
    </g>
    <g clip-path="url(#pb0e54c6109)">
     <use style="fill-opacity:0.5;" x="901.870164" xlink:href="#C1_0_d2b88c944f" y="408.182893"/>
    </g>
    <g clip-path="url(#pb0e54c6109)">
     <use style="fill-opacity:0.5;" x="917.142685" xlink:href="#C1_0_d2b88c944f" y="401.39805"/>
    </g>
    <g clip-path="url(#pb0e54c6109)">
     <use style="fill-opacity:0.5;" x="907.735099" xlink:href="#C1_0_d2b88c944f" y="415.821885"/>
    </g>
    <g clip-path="url(#pb0e54c6109)">
     <use style="fill-opacity:0.5;" x="934.212872" xlink:href="#C1_0_d2b88c944f" y="415.733168"/>
    </g>
    <g clip-path="url(#pb0e54c6109)">
     <use style="fill-opacity:0.5;" x="888.92601" xlink:href="#C1_0_d2b88c944f" y="405.067867"/>
    </g>
    <g clip-path="url(#pb0e54c6109)">
     <use style="fill-opacity:0.5;" x="926.313419" xlink:href="#C1_0_d2b88c944f" y="401.137444"/>
    </g>
    <g clip-path="url(#pb0e54c6109)">
     <use style="fill-opacity:0.5;" x="894.086047" xlink:href="#C1_0_d2b88c944f" y="401.502143"/>
    </g>
    <g clip-path="url(#pb0e54c6109)">
     <use style="fill-opacity:0.5;" x="921.746314" xlink:href="#C1_0_d2b88c944f" y="415.267795"/>
    </g>
    <g clip-path="url(#pb0e54c6109)">
     <use style="fill-opacity:0.5;" x="920.997569" xlink:href="#C1_0_d2b88c944f" y="400.434192"/>
    </g>
    <g clip-path="url(#pb0e54c6109)">
     <use style="fill-opacity:0.5;" x="927.609896" xlink:href="#C1_0_d2b88c944f" y="396.733981"/>
    </g>
    <g clip-path="url(#pb0e54c6109)">
     <use style="fill-opacity:0.5;" x="914.624976" xlink:href="#C1_0_d2b88c944f" y="392.870662"/>
    </g>
    <g clip-path="url(#pb0e54c6109)">
     <use style="fill-opacity:0.5;" x="911.202804" xlink:href="#C1_0_d2b88c944f" y="404.736822"/>
    </g>
    <g clip-path="url(#pb0e54c6109)">
     <use style="fill-opacity:0.5;" x="890.954829" xlink:href="#C1_0_d2b88c944f" y="405.216401"/>
    </g>
    <g clip-path="url(#pb0e54c6109)">
     <use style="fill-opacity:0.5;" x="923.495019" xlink:href="#C1_0_d2b88c944f" y="416.361027"/>
    </g>
    <g clip-path="url(#pb0e54c6109)">
     <use style="fill-opacity:0.5;" x="917.634523" xlink:href="#C1_0_d2b88c944f" y="397.112306"/>
    </g>
    <g clip-path="url(#pb0e54c6109)">
     <use style="fill-opacity:0.5;" x="895.913594" xlink:href="#C1_0_d2b88c944f" y="402.074678"/>
    </g>
    <g clip-path="url(#pb0e54c6109)">
     <use style="fill-opacity:0.5;" x="919.623889" xlink:href="#C1_0_d2b88c944f" y="415.351392"/>
    </g>
    <g clip-path="url(#pb0e54c6109)">
     <use style="fill-opacity:0.5;" x="911.200654" xlink:href="#C1_0_d2b88c944f" y="415.824103"/>
    </g>
   </g>
   <g id="PathCollection_3">
    <defs>
     <path d="M 0 2.5 
C 0.663008 2.5 1.29895 2.236584 1.767767 1.767767 
C 2.236584 1.29895 2.5 0.663008 2.5 -0 
C 2.5 -0.663008 2.236584 -1.29895 1.767767 -1.767767 
C 1.29895 -2.236584 0.663008 -2.5 0 -2.5 
C -0.663008 -2.5 -1.29895 -2.236584 -1.767767 -1.767767 
C -2.236584 -1.29895 -2.5 -0.663008 -2.5 0 
C -2.5 0.663008 -2.236584 1.29895 -1.767767 1.767767 
C -1.29895 2.236584 -0.663008 2.5 0 2.5 
z
" id="C2_0_350e0e2cb6"/>
    </defs>
    <g clip-path="url(#pb0e54c6109)">
     <use style="fill-opacity:0.5;" x="903.213959" xlink:href="#C2_0_350e0e2cb6" y="557.501405"/>
    </g>
    <g clip-path="url(#pb0e54c6109)">
     <use style="fill-opacity:0.5;" x="917.070781" xlink:href="#C2_0_350e0e2cb6" y="559.81599"/>
    </g>
    <g clip-path="url(#pb0e54c6109)">
     <use style="fill-opacity:0.5;" x="930.607879" xlink:href="#C2_0_350e0e2cb6" y="554.975212"/>
    </g>
    <g clip-path="url(#pb0e54c6109)">
     <use style="fill-opacity:0.5;" x="932.308089" xlink:href="#C2_0_350e0e2cb6" y="574.522105"/>
    </g>
    <g clip-path="url(#pb0e54c6109)">
     <use style="fill-opacity:0.5;" x="914.884653" xlink:href="#C2_0_350e0e2cb6" y="549.2397"/>
    </g>
    <g clip-path="url(#pb0e54c6109)">
     <use style="fill-opacity:0.5;" x="907.919157" xlink:href="#C2_0_350e0e2cb6" y="574.559211"/>
    </g>
    <g clip-path="url(#pb0e54c6109)">
     <use style="fill-opacity:0.5;" x="905.488871" xlink:href="#C2_0_350e0e2cb6" y="566.797132"/>
    </g>
    <g clip-path="url(#pb0e54c6109)">
     <use style="fill-opacity:0.5;" x="940.535333" xlink:href="#C2_0_350e0e2cb6" y="562.066436"/>
    </g>
    <g clip-path="url(#pb0e54c6109)">
     <use style="fill-opacity:0.5;" x="911.55654" xlink:href="#C2_0_350e0e2cb6" y="546.568769"/>
    </g>
    <g clip-path="url(#pb0e54c6109)">
     <use style="fill-opacity:0.5;" x="932.704131" xlink:href="#C2_0_350e0e2cb6" y="560.327662"/>
    </g>
    <g clip-path="url(#pb0e54c6109)">
     <use style="fill-opacity:0.5;" x="908.014704" xlink:href="#C2_0_350e0e2cb6" y="558.220107"/>
    </g>
    <g clip-path="url(#pb0e54c6109)">
     <use style="fill-opacity:0.5;" x="931.651553" xlink:href="#C2_0_350e0e2cb6" y="550.562203"/>
    </g>
    <g clip-path="url(#pb0e54c6109)">
     <use style="fill-opacity:0.5;" x="925.199249" xlink:href="#C2_0_350e0e2cb6" y="565.944243"/>
    </g>
    <g clip-path="url(#pb0e54c6109)">
     <use style="fill-opacity:0.5;" x="916.922126" xlink:href="#C2_0_350e0e2cb6" y="575.721008"/>
    </g>
    <g clip-path="url(#pb0e54c6109)">
     <use style="fill-opacity:0.5;" x="916.627159" xlink:href="#C2_0_350e0e2cb6" y="563.017476"/>
    </g>
    <g clip-path="url(#pb0e54c6109)">
     <use style="fill-opacity:0.5;" x="930.972305" xlink:href="#C2_0_350e0e2cb6" y="567.756565"/>
    </g>
    <g clip-path="url(#pb0e54c6109)">
     <use style="fill-opacity:0.5;" x="928.090735" xlink:href="#C2_0_350e0e2cb6" y="547.680552"/>
    </g>
    <g clip-path="url(#pb0e54c6109)">
     <use style="fill-opacity:0.5;" x="902.366598" xlink:href="#C2_0_350e0e2cb6" y="558.528216"/>
    </g>
    <g clip-path="url(#pb0e54c6109)">
     <use style="fill-opacity:0.5;" x="919.580959" xlink:href="#C2_0_350e0e2cb6" y="549.168713"/>
    </g>
    <g clip-path="url(#pb0e54c6109)">
     <use style="fill-opacity:0.5;" x="917.469704" xlink:href="#C2_0_350e0e2cb6" y="564.589475"/>
    </g>
    <g clip-path="url(#pb0e54c6109)">
     <use style="fill-opacity:0.5;" x="907.673822" xlink:href="#C2_0_350e0e2cb6" y="574.706223"/>
    </g>
    <g clip-path="url(#pb0e54c6109)">
     <use style="fill-opacity:0.5;" x="907.374545" xlink:href="#C2_0_350e0e2cb6" y="566.110993"/>
    </g>
    <g clip-path="url(#pb0e54c6109)">
     <use style="fill-opacity:0.5;" x="901.339789" xlink:href="#C2_0_350e0e2cb6" y="547.940008"/>
    </g>
    <g clip-path="url(#pb0e54c6109)">
     <use style="fill-opacity:0.5;" x="930.119195" xlink:href="#C2_0_350e0e2cb6" y="556.571231"/>
    </g>
    <g clip-path="url(#pb0e54c6109)">
     <use style="fill-opacity:0.5;" x="948.642055" xlink:href="#C2_0_350e0e2cb6" y="562.659464"/>
    </g>
   </g>
   <g id="PathCollection_4">
    <defs>
     <path d="M 0 2.5 
C 0.663008 2.5 1.29895 2.236584 1.767767 1.767767 
C 2.236584 1.29895 2.5 0.663008 2.5 -0 
C 2.5 -0.663008 2.236584 -1.29895 1.767767 -1.767767 
C 1.29895 -2.236584 0.663008 -2.5 0 -2.5 
C -0.663008 -2.5 -1.29895 -2.236584 -1.767767 -1.767767 
C -2.236584 -1.29895 -2.5 -0.663008 -2.5 0 
C -2.5 0.663008 -2.236584 1.29895 -1.767767 1.767767 
C -1.29895 2.236584 -0.663008 2.5 0 2.5 
z
" id="C3_0_65f1b58215"/>
    </defs>
    <g clip-path="url(#pb0e54c6109)">
     <use style="fill-opacity:0.5;" x="562.704422" xlink:href="#C3_0_65f1b58215" y="713.393356"/>
    </g>
    <g clip-path="url(#pb0e54c6109)">
     <use style="fill-opacity:0.5;" x="601.832881" xlink:href="#C3_0_65f1b58215" y="726.763936"/>
    </g>
    <g clip-path="url(#pb0e54c6109)">
     <use style="fill-opacity:0.5;" x="577.63519" xlink:href="#C3_0_65f1b58215" y="726.17458"/>
    </g>
    <g clip-path="url(#pb0e54c6109)">
     <use style="fill-opacity:0.5;" x="583.811908" xlink:href="#C3_0_65f1b58215" y="719.873791"/>
    </g>
    <g clip-path="url(#pb0e54c6109)">
     <use style="fill-opacity:0.5;" x="569.207097" xlink:href="#C3_0_65f1b58215" y="712.469242"/>
    </g>
    <g clip-path="url(#pb0e54c6109)">
     <use style="fill-opacity:0.5;" x="598.080208" xlink:href="#C3_0_65f1b58215" y="708.800049"/>
    </g>
    <g clip-path="url(#pb0e54c6109)">
     <use style="fill-opacity:0.5;" x="563.759216" xlink:href="#C3_0_65f1b58215" y="704.15733"/>
    </g>
    <g clip-path="url(#pb0e54c6109)">
     <use style="fill-opacity:0.5;" x="576.27872" xlink:href="#C3_0_65f1b58215" y="711.892707"/>
    </g>
    <g clip-path="url(#pb0e54c6109)">
     <use style="fill-opacity:0.5;" x="563.301696" xlink:href="#C3_0_65f1b58215" y="713.70289"/>
    </g>
    <g clip-path="url(#pb0e54c6109)">
     <use style="fill-opacity:0.5;" x="595.444607" xlink:href="#C3_0_65f1b58215" y="721.861562"/>
    </g>
    <g clip-path="url(#pb0e54c6109)">
     <use style="fill-opacity:0.5;" x="552.576127" xlink:href="#C3_0_65f1b58215" y="721.312896"/>
    </g>
    <g clip-path="url(#pb0e54c6109)">
     <use style="fill-opacity:0.5;" x="595.012484" xlink:href="#C3_0_65f1b58215" y="703.046331"/>
    </g>
    <g clip-path="url(#pb0e54c6109)">
     <use style="fill-opacity:0.5;" x="578.406432" xlink:href="#C3_0_65f1b58215" y="713.146455"/>
    </g>
    <g clip-path="url(#pb0e54c6109)">
     <use style="fill-opacity:0.5;" x="569.668763" xlink:href="#C3_0_65f1b58215" y="706.515142"/>
    </g>
    <g clip-path="url(#pb0e54c6109)">
     <use style="fill-opacity:0.5;" x="601.22622" xlink:href="#C3_0_65f1b58215" y="705.739622"/>
    </g>
    <g clip-path="url(#pb0e54c6109)">
     <use style="fill-opacity:0.5;" x="595.733722" xlink:href="#C3_0_65f1b58215" y="726.56694"/>
    </g>
    <g clip-path="url(#pb0e54c6109)">
     <use style="fill-opacity:0.5;" x="570.598489" xlink:href="#C3_0_65f1b58215" y="702.170578"/>
    </g>
    <g clip-path="url(#pb0e54c6109)">
     <use style="fill-opacity:0.5;" x="563.64402" xlink:href="#C3_0_65f1b58215" y="713.889589"/>
    </g>
    <g clip-path="url(#pb0e54c6109)">
     <use style="fill-opacity:0.5;" x="573.500833" xlink:href="#C3_0_65f1b58215" y="706.093458"/>
    </g>
    <g clip-path="url(#pb0e54c6109)">
     <use style="fill-opacity:0.5;" x="593.267685" xlink:href="#C3_0_65f1b58215" y="728.18308"/>
    </g>
    <g clip-path="url(#pb0e54c6109)">
     <use style="fill-opacity:0.5;" x="577.644485" xlink:href="#C3_0_65f1b58215" y="718.171841"/>
    </g>
    <g clip-path="url(#pb0e54c6109)">
     <use style="fill-opacity:0.5;" x="584.532215" xlink:href="#C3_0_65f1b58215" y="708.055915"/>
    </g>
    <g clip-path="url(#pb0e54c6109)">
     <use style="fill-opacity:0.5;" x="534.73268" xlink:href="#C3_0_65f1b58215" y="716.475398"/>
    </g>
    <g clip-path="url(#pb0e54c6109)">
     <use style="fill-opacity:0.5;" x="591.688893" xlink:href="#C3_0_65f1b58215" y="723.590628"/>
    </g>
    <g clip-path="url(#pb0e54c6109)">
     <use style="fill-opacity:0.5;" x="606.549535" xlink:href="#C3_0_65f1b58215" y="730.630454"/>
    </g>
   </g>
   <g id="PathCollection_5">
    <defs>
     <path d="M 0 2.5 
C 0.663008 2.5 1.29895 2.236584 1.767767 1.767767 
C 2.236584 1.29895 2.5 0.663008 2.5 -0 
C 2.5 -0.663008 2.236584 -1.29895 1.767767 -1.767767 
C 1.29895 -2.236584 0.663008 -2.5 0 -2.5 
C -0.663008 -2.5 -1.29895 -2.236584 -1.767767 -1.767767 
C -2.236584 -1.29895 -2.5 -0.663008 -2.5 0 
C -2.5 0.663008 -2.236584 1.29895 -1.767767 1.767767 
C -1.29895 2.236584 -0.663008 2.5 0 2.5 
z
" id="C4_0_16c689b179"/>
    </defs>
    <g clip-path="url(#pb0e54c6109)">
     <use style="fill-opacity:0.5;" x="883.972674" xlink:href="#C4_0_16c689b179" y="863.03054"/>
    </g>
    <g clip-path="url(#pb0e54c6109)">
     <use style="fill-opacity:0.5;" x="932.219221" xlink:href="#C4_0_16c689b179" y="883.710195"/>
    </g>
    <g clip-path="url(#pb0e54c6109)">
     <use style="fill-opacity:0.5;" x="857.411277" xlink:href="#C4_0_16c689b179" y="885.205012"/>
    </g>
    <g clip-path="url(#pb0e54c6109)">
     <use style="fill-opacity:0.5;" x="897.932865" xlink:href="#C4_0_16c689b179" y="884.649498"/>
    </g>
    <g clip-path="url(#pb0e54c6109)">
     <use style="fill-opacity:0.5;" x="907.768104" xlink:href="#C4_0_16c689b179" y="875.920643"/>
    </g>
    <g clip-path="url(#pb0e54c6109)">
     <use style="fill-opacity:0.5;" x="881.714436" xlink:href="#C4_0_16c689b179" y="875.746886"/>
    </g>
    <g clip-path="url(#pb0e54c6109)">
     <use style="fill-opacity:0.5;" x="875.848907" xlink:href="#C4_0_16c689b179" y="868.707731"/>
    </g>
    <g clip-path="url(#pb0e54c6109)">
     <use style="fill-opacity:0.5;" x="900.635344" xlink:href="#C4_0_16c689b179" y="879.554485"/>
    </g>
    <g clip-path="url(#pb0e54c6109)">
     <use style="fill-opacity:0.5;" x="904.212195" xlink:href="#C4_0_16c689b179" y="872.686367"/>
    </g>
    <g clip-path="url(#pb0e54c6109)">
     <use style="fill-opacity:0.5;" x="918.977213" xlink:href="#C4_0_16c689b179" y="877.226019"/>
    </g>
    <g clip-path="url(#pb0e54c6109)">
     <use style="fill-opacity:0.5;" x="883.386004" xlink:href="#C4_0_16c689b179" y="869.491984"/>
    </g>
    <g clip-path="url(#pb0e54c6109)">
     <use style="fill-opacity:0.5;" x="919.435646" xlink:href="#C4_0_16c689b179" y="878.905227"/>
    </g>
    <g clip-path="url(#pb0e54c6109)">
     <use style="fill-opacity:0.5;" x="875.517862" xlink:href="#C4_0_16c689b179" y="881.793298"/>
    </g>
    <g clip-path="url(#pb0e54c6109)">
     <use style="fill-opacity:0.5;" x="899.936194" xlink:href="#C4_0_16c689b179" y="860.731586"/>
    </g>
    <g clip-path="url(#pb0e54c6109)">
     <use style="fill-opacity:0.5;" x="905.077267" xlink:href="#C4_0_16c689b179" y="882.056034"/>
    </g>
    <g clip-path="url(#pb0e54c6109)">
     <use style="fill-opacity:0.5;" x="910.682125" xlink:href="#C4_0_16c689b179" y="872.966011"/>
    </g>
    <g clip-path="url(#pb0e54c6109)">
     <use style="fill-opacity:0.5;" x="873.44817" xlink:href="#C4_0_16c689b179" y="882.420594"/>
    </g>
    <g clip-path="url(#pb0e54c6109)">
     <use style="fill-opacity:0.5;" x="896.767807" xlink:href="#C4_0_16c689b179" y="869.58032"/>
    </g>
    <g clip-path="url(#pb0e54c6109)">
     <use style="fill-opacity:0.5;" x="883.531864" xlink:href="#C4_0_16c689b179" y="867.956938"/>
    </g>
    <g clip-path="url(#pb0e54c6109)">
     <use style="fill-opacity:0.5;" x="914.888322" xlink:href="#C4_0_16c689b179" y="884.607258"/>
    </g>
    <g clip-path="url(#pb0e54c6109)">
     <use style="fill-opacity:0.5;" x="881.891291" xlink:href="#C4_0_16c689b179" y="863.984892"/>
    </g>
    <g clip-path="url(#pb0e54c6109)">
     <use style="fill-opacity:0.5;" x="923.603715" xlink:href="#C4_0_16c689b179" y="882.406504"/>
    </g>
    <g clip-path="url(#pb0e54c6109)">
     <use style="fill-opacity:0.5;" x="859.37811" xlink:href="#C4_0_16c689b179" y="871.217919"/>
    </g>
    <g clip-path="url(#pb0e54c6109)">
     <use style="fill-opacity:0.5;" x="889.356432" xlink:href="#C4_0_16c689b179" y="872.15213"/>
    </g>
    <g clip-path="url(#pb0e54c6109)">
     <use style="fill-opacity:0.5;" x="927.997074" xlink:href="#C4_0_16c689b179" y="865.764763"/>
    </g>
   </g>
   <g id="PathCollection_6">
    <defs>
     <path d="M 0 2.5 
C 0.663008 2.5 1.29895 2.236584 1.767767 1.767767 
C 2.236584 1.29895 2.5 0.663008 2.5 -0 
C 2.5 -0.663008 2.236584 -1.29895 1.767767 -1.767767 
C 1.29895 -2.236584 0.663008 -2.5 0 -2.5 
C -0.663008 -2.5 -1.29895 -2.236584 -1.767767 -1.767767 
C -2.236584 -1.29895 -2.5 -0.663008 -2.5 0 
C -2.5 0.663008 -2.236584 1.29895 -1.767767 1.767767 
C -1.29895 2.236584 -0.663008 2.5 0 2.5 
z
" id="C5_0_15d10e9ab8"/>
    </defs>
    <g clip-path="url(#pb0e54c6109)">
     <use style="fill-opacity:0.5;" x="643.602952" xlink:href="#C5_0_15d10e9ab8" y="1029.297471"/>
    </g>
    <g clip-path="url(#pb0e54c6109)">
     <use style="fill-opacity:0.5;" x="622.752785" xlink:href="#C5_0_15d10e9ab8" y="1021.599132"/>
    </g>
    <g clip-path="url(#pb0e54c6109)">
     <use style="fill-opacity:0.5;" x="658.910594" xlink:href="#C5_0_15d10e9ab8" y="1012.716963"/>
    </g>
    <g clip-path="url(#pb0e54c6109)">
     <use style="fill-opacity:0.5;" x="626.134936" xlink:href="#C5_0_15d10e9ab8" y="1019.946197"/>
    </g>
    <g clip-path="url(#pb0e54c6109)">
     <use style="fill-opacity:0.5;" x="618.968309" xlink:href="#C5_0_15d10e9ab8" y="1011.695294"/>
    </g>
    <g clip-path="url(#pb0e54c6109)">
     <use style="fill-opacity:0.5;" x="624.859252" xlink:href="#C5_0_15d10e9ab8" y="1041.887638"/>
    </g>
    <g clip-path="url(#pb0e54c6109)">
     <use style="fill-opacity:0.5;" x="650.309443" xlink:href="#C5_0_15d10e9ab8" y="1041.49601"/>
    </g>
    <g clip-path="url(#pb0e54c6109)">
     <use style="fill-opacity:0.5;" x="642.832657" xlink:href="#C5_0_15d10e9ab8" y="1023.771795"/>
    </g>
    <g clip-path="url(#pb0e54c6109)">
     <use style="fill-opacity:0.5;" x="633.629201" xlink:href="#C5_0_15d10e9ab8" y="1034.122423"/>
    </g>
    <g clip-path="url(#pb0e54c6109)">
     <use style="fill-opacity:0.5;" x="616.816268" xlink:href="#C5_0_15d10e9ab8" y="1022.238868"/>
    </g>
    <g clip-path="url(#pb0e54c6109)">
     <use style="fill-opacity:0.5;" x="642.8739" xlink:href="#C5_0_15d10e9ab8" y="1032.343214"/>
    </g>
    <g clip-path="url(#pb0e54c6109)">
     <use style="fill-opacity:0.5;" x="630.94452" xlink:href="#C5_0_15d10e9ab8" y="1036.516101"/>
    </g>
    <g clip-path="url(#pb0e54c6109)">
     <use style="fill-opacity:0.5;" x="638.005264" xlink:href="#C5_0_15d10e9ab8" y="1040.906097"/>
    </g>
    <g clip-path="url(#pb0e54c6109)">
     <use style="fill-opacity:0.5;" x="623.542556" xlink:href="#C5_0_15d10e9ab8" y="1023.92888"/>
    </g>
    <g clip-path="url(#pb0e54c6109)">
     <use style="fill-opacity:0.5;" x="632.017658" xlink:href="#C5_0_15d10e9ab8" y="1035.828616"/>
    </g>
    <g clip-path="url(#pb0e54c6109)">
     <use style="fill-opacity:0.5;" x="616.713107" xlink:href="#C5_0_15d10e9ab8" y="1019.75764"/>
    </g>
    <g clip-path="url(#pb0e54c6109)">
     <use style="fill-opacity:0.5;" x="613.630031" xlink:href="#C5_0_15d10e9ab8" y="1042.259694"/>
    </g>
    <g clip-path="url(#pb0e54c6109)">
     <use style="fill-opacity:0.5;" x="624.959335" xlink:href="#C5_0_15d10e9ab8" y="1012.29762"/>
    </g>
    <g clip-path="url(#pb0e54c6109)">
     <use style="fill-opacity:0.5;" x="665.666567" xlink:href="#C5_0_15d10e9ab8" y="1030.244472"/>
    </g>
    <g clip-path="url(#pb0e54c6109)">
     <use style="fill-opacity:0.5;" x="648.435793" xlink:href="#C5_0_15d10e9ab8" y="1031.983283"/>
    </g>
    <g clip-path="url(#pb0e54c6109)">
     <use style="fill-opacity:0.5;" x="634.980551" xlink:href="#C5_0_15d10e9ab8" y="1032.869804"/>
    </g>
    <g clip-path="url(#pb0e54c6109)">
     <use style="fill-opacity:0.5;" x="643.540001" xlink:href="#C5_0_15d10e9ab8" y="1015.236725"/>
    </g>
    <g clip-path="url(#pb0e54c6109)">
     <use style="fill-opacity:0.5;" x="644.881284" xlink:href="#C5_0_15d10e9ab8" y="1040.650559"/>
    </g>
    <g clip-path="url(#pb0e54c6109)">
     <use style="fill-opacity:0.5;" x="639.188726" xlink:href="#C5_0_15d10e9ab8" y="1017.125213"/>
    </g>
    <g clip-path="url(#pb0e54c6109)">
     <use style="fill-opacity:0.5;" x="607.325142" xlink:href="#C5_0_15d10e9ab8" y="1030.841643"/>
    </g>
   </g>
   <g id="PathCollection_7">
    <defs>
     <path d="M 0 2.5 
C 0.663008 2.5 1.29895 2.236584 1.767767 1.767767 
C 2.236584 1.29895 2.5 0.663008 2.5 -0 
C 2.5 -0.663008 2.236584 -1.29895 1.767767 -1.767767 
C 1.29895 -2.236584 0.663008 -2.5 0 -2.5 
C -0.663008 -2.5 -1.29895 -2.236584 -1.767767 -1.767767 
C -2.236584 -1.29895 -2.5 -0.663008 -2.5 0 
C -2.5 0.663008 -2.236584 1.29895 -1.767767 1.767767 
C -1.29895 2.236584 -0.663008 2.5 0 2.5 
z
" id="C6_0_fbe48f3e21"/>
    </defs>
    <g clip-path="url(#pb0e54c6109)">
     <use style="fill-opacity:0.5;" x="738" xlink:href="#C6_0_fbe48f3e21" y="1173.728384"/>
    </g>
    <g clip-path="url(#pb0e54c6109)">
     <use style="fill-opacity:0.5;" x="738" xlink:href="#C6_0_fbe48f3e21" y="1176.354448"/>
    </g>
    <g clip-path="url(#pb0e54c6109)">
     <use style="fill-opacity:0.5;" x="738" xlink:href="#C6_0_fbe48f3e21" y="1183.785992"/>
    </g>
    <g clip-path="url(#pb0e54c6109)">
     <use style="fill-opacity:0.5;" x="738" xlink:href="#C6_0_fbe48f3e21" y="1179.770648"/>
    </g>
    <g clip-path="url(#pb0e54c6109)">
     <use style="fill-opacity:0.5;" x="738" xlink:href="#C6_0_fbe48f3e21" y="1171.788494"/>
    </g>
    <g clip-path="url(#pb0e54c6109)">
     <use style="fill-opacity:0.5;" x="738" xlink:href="#C6_0_fbe48f3e21" y="1172.121202"/>
    </g>
    <g clip-path="url(#pb0e54c6109)">
     <use style="fill-opacity:0.5;" x="738" xlink:href="#C6_0_fbe48f3e21" y="1179.8002"/>
    </g>
    <g clip-path="url(#pb0e54c6109)">
     <use style="fill-opacity:0.5;" x="738" xlink:href="#C6_0_fbe48f3e21" y="1190.334802"/>
    </g>
    <g clip-path="url(#pb0e54c6109)">
     <use style="fill-opacity:0.5;" x="738" xlink:href="#C6_0_fbe48f3e21" y="1194.704776"/>
    </g>
    <g clip-path="url(#pb0e54c6109)">
     <use style="fill-opacity:0.5;" x="738" xlink:href="#C6_0_fbe48f3e21" y="1169.424674"/>
    </g>
    <g clip-path="url(#pb0e54c6109)">
     <use style="fill-opacity:0.5;" x="738" xlink:href="#C6_0_fbe48f3e21" y="1179.022359"/>
    </g>
    <g clip-path="url(#pb0e54c6109)">
     <use style="fill-opacity:0.5;" x="738" xlink:href="#C6_0_fbe48f3e21" y="1169.925342"/>
    </g>
    <g clip-path="url(#pb0e54c6109)">
     <use style="fill-opacity:0.5;" x="738" xlink:href="#C6_0_fbe48f3e21" y="1167.326838"/>
    </g>
    <g clip-path="url(#pb0e54c6109)">
     <use style="fill-opacity:0.5;" x="738" xlink:href="#C6_0_fbe48f3e21" y="1187.366301"/>
    </g>
    <g clip-path="url(#pb0e54c6109)">
     <use style="fill-opacity:0.5;" x="738" xlink:href="#C6_0_fbe48f3e21" y="1185.52523"/>
    </g>
    <g clip-path="url(#pb0e54c6109)">
     <use style="fill-opacity:0.5;" x="738" xlink:href="#C6_0_fbe48f3e21" y="1171.875268"/>
    </g>
    <g clip-path="url(#pb0e54c6109)">
     <use style="fill-opacity:0.5;" x="738" xlink:href="#C6_0_fbe48f3e21" y="1174.074323"/>
    </g>
    <g clip-path="url(#pb0e54c6109)">
     <use style="fill-opacity:0.5;" x="738" xlink:href="#C6_0_fbe48f3e21" y="1167.547859"/>
    </g>
    <g clip-path="url(#pb0e54c6109)">
     <use style="fill-opacity:0.5;" x="738" xlink:href="#C6_0_fbe48f3e21" y="1192.747274"/>
    </g>
    <g clip-path="url(#pb0e54c6109)">
     <use style="fill-opacity:0.5;" x="738" xlink:href="#C6_0_fbe48f3e21" y="1197.088103"/>
    </g>
    <g clip-path="url(#pb0e54c6109)">
     <use style="fill-opacity:0.5;" x="738" xlink:href="#C6_0_fbe48f3e21" y="1171.019189"/>
    </g>
    <g clip-path="url(#pb0e54c6109)">
     <use style="fill-opacity:0.5;" x="738" xlink:href="#C6_0_fbe48f3e21" y="1174.00171"/>
    </g>
    <g clip-path="url(#pb0e54c6109)">
     <use style="fill-opacity:0.5;" x="738" xlink:href="#C6_0_fbe48f3e21" y="1193.78671"/>
    </g>
    <g clip-path="url(#pb0e54c6109)">
     <use style="fill-opacity:0.5;" x="738" xlink:href="#C6_0_fbe48f3e21" y="1195.590041"/>
    </g>
    <g clip-path="url(#pb0e54c6109)">
     <use style="fill-opacity:0.5;" x="738" xlink:href="#C6_0_fbe48f3e21" y="1179.846254"/>
    </g>
   </g>
  </g>
  <g id="text_14">
   <!-- Linear Model: Coefficient robustness -->
   <g transform="translate(551.9 144)scale(0.2 -0.2)">
    <defs>
     <path d="M 9.8125 72.90625 
L 19.671875 72.90625 
L 19.671875 8.296875 
L 55.171875 8.296875 
L 55.171875 0 
L 9.8125 0 
z
" id="DejaVuSans-76"/>
     <path d="M 9.8125 72.90625 
L 24.515625 72.90625 
L 43.109375 23.296875 
L 61.8125 72.90625 
L 76.515625 72.90625 
L 76.515625 0 
L 66.890625 0 
L 66.890625 64.015625 
L 48.09375 14.015625 
L 38.1875 14.015625 
L 19.390625 64.015625 
L 19.390625 0 
L 9.8125 0 
z
" id="DejaVuSans-77"/>
     <path d="M 11.71875 12.40625 
L 22.015625 12.40625 
L 22.015625 0 
L 11.71875 0 
z
M 11.71875 51.703125 
L 22.015625 51.703125 
L 22.015625 39.3125 
L 11.71875 39.3125 
z
" id="DejaVuSans-58"/>
     <path d="M 48.6875 27.296875 
Q 48.6875 37.203125 44.609375 42.84375 
Q 40.53125 48.484375 33.40625 48.484375 
Q 26.265625 48.484375 22.1875 42.84375 
Q 18.109375 37.203125 18.109375 27.296875 
Q 18.109375 17.390625 22.1875 11.75 
Q 26.265625 6.109375 33.40625 6.109375 
Q 40.53125 6.109375 44.609375 11.75 
Q 48.6875 17.390625 48.6875 27.296875 
z
M 18.109375 46.390625 
Q 20.953125 51.265625 25.265625 53.625 
Q 29.59375 56 35.59375 56 
Q 45.5625 56 51.78125 48.09375 
Q 58.015625 40.1875 58.015625 27.296875 
Q 58.015625 14.40625 51.78125 6.484375 
Q 45.5625 -1.421875 35.59375 -1.421875 
Q 29.59375 -1.421875 25.265625 0.953125 
Q 20.953125 3.328125 18.109375 8.203125 
L 18.109375 0 
L 9.078125 0 
L 9.078125 75.984375 
L 18.109375 75.984375 
z
" id="DejaVuSans-98"/>
    </defs>
    <use xlink:href="#DejaVuSans-76"/>
    <use x="55.712891" xlink:href="#DejaVuSans-105"/>
    <use x="83.496094" xlink:href="#DejaVuSans-110"/>
    <use x="146.875" xlink:href="#DejaVuSans-101"/>
    <use x="208.398438" xlink:href="#DejaVuSans-97"/>
    <use x="269.677734" xlink:href="#DejaVuSans-114"/>
    <use x="310.791016" xlink:href="#DejaVuSans-32"/>
    <use x="342.578125" xlink:href="#DejaVuSans-77"/>
    <use x="428.857422" xlink:href="#DejaVuSans-111"/>
    <use x="490.039062" xlink:href="#DejaVuSans-100"/>
    <use x="553.515625" xlink:href="#DejaVuSans-101"/>
    <use x="615.039062" xlink:href="#DejaVuSans-108"/>
    <use x="642.822266" xlink:href="#DejaVuSans-58"/>
    <use x="676.513672" xlink:href="#DejaVuSans-32"/>
    <use x="708.300781" xlink:href="#DejaVuSans-67"/>
    <use x="778.125" xlink:href="#DejaVuSans-111"/>
    <use x="839.306641" xlink:href="#DejaVuSans-101"/>
    <use x="900.830078" xlink:href="#DejaVuSans-102"/>
    <use x="936.035156" xlink:href="#DejaVuSans-102"/>
    <use x="971.240234" xlink:href="#DejaVuSans-105"/>
    <use x="999.023438" xlink:href="#DejaVuSans-99"/>
    <use x="1054.003906" xlink:href="#DejaVuSans-105"/>
    <use x="1081.787109" xlink:href="#DejaVuSans-101"/>
    <use x="1143.310547" xlink:href="#DejaVuSans-110"/>
    <use x="1206.689453" xlink:href="#DejaVuSans-116"/>
    <use x="1245.898438" xlink:href="#DejaVuSans-32"/>
    <use x="1277.685547" xlink:href="#DejaVuSans-114"/>
    <use x="1316.548828" xlink:href="#DejaVuSans-111"/>
    <use x="1377.730469" xlink:href="#DejaVuSans-98"/>
    <use x="1441.207031" xlink:href="#DejaVuSans-117"/>
    <use x="1504.585938" xlink:href="#DejaVuSans-115"/>
    <use x="1556.685547" xlink:href="#DejaVuSans-116"/>
    <use x="1595.894531" xlink:href="#DejaVuSans-110"/>
    <use x="1659.273438" xlink:href="#DejaVuSans-101"/>
    <use x="1720.796875" xlink:href="#DejaVuSans-115"/>
    <use x="1772.896484" xlink:href="#DejaVuSans-115"/>
   </g>
  </g>
  <g id="text_15">
   <!-- 2017-08 -->
   <g transform="translate(696.795469 165.6)scale(0.18 -0.18)">
    <defs>
     <path d="M 12.40625 8.296875 
L 28.515625 8.296875 
L 28.515625 63.921875 
L 10.984375 60.40625 
L 10.984375 69.390625 
L 28.421875 72.90625 
L 38.28125 72.90625 
L 38.28125 8.296875 
L 54.390625 8.296875 
L 54.390625 0 
L 12.40625 0 
z
" id="DejaVuSans-49"/>
     <path d="M 8.203125 72.90625 
L 55.078125 72.90625 
L 55.078125 68.703125 
L 28.609375 0 
L 18.3125 0 
L 43.21875 64.59375 
L 8.203125 64.59375 
z
" id="DejaVuSans-55"/>
     <path d="M 4.890625 31.390625 
L 31.203125 31.390625 
L 31.203125 23.390625 
L 4.890625 23.390625 
z
" id="DejaVuSans-45"/>
     <path d="M 31.78125 34.625 
Q 24.75 34.625 20.71875 30.859375 
Q 16.703125 27.09375 16.703125 20.515625 
Q 16.703125 13.921875 20.71875 10.15625 
Q 24.75 6.390625 31.78125 6.390625 
Q 38.8125 6.390625 42.859375 10.171875 
Q 46.921875 13.96875 46.921875 20.515625 
Q 46.921875 27.09375 42.890625 30.859375 
Q 38.875 34.625 31.78125 34.625 
z
M 21.921875 38.8125 
Q 15.578125 40.375 12.03125 44.71875 
Q 8.5 49.078125 8.5 55.328125 
Q 8.5 64.0625 14.71875 69.140625 
Q 20.953125 74.21875 31.78125 74.21875 
Q 42.671875 74.21875 48.875 69.140625 
Q 55.078125 64.0625 55.078125 55.328125 
Q 55.078125 49.078125 51.53125 44.71875 
Q 48 40.375 41.703125 38.8125 
Q 48.828125 37.15625 52.796875 32.3125 
Q 56.78125 27.484375 56.78125 20.515625 
Q 56.78125 9.90625 50.3125 4.234375 
Q 43.84375 -1.421875 31.78125 -1.421875 
Q 19.734375 -1.421875 13.25 4.234375 
Q 6.78125 9.90625 6.78125 20.515625 
Q 6.78125 27.484375 10.78125 32.3125 
Q 14.796875 37.15625 21.921875 38.8125 
z
M 18.3125 54.390625 
Q 18.3125 48.734375 21.84375 45.5625 
Q 25.390625 42.390625 31.78125 42.390625 
Q 38.140625 42.390625 41.71875 45.5625 
Q 45.3125 48.734375 45.3125 54.390625 
Q 45.3125 60.0625 41.71875 63.234375 
Q 38.140625 66.40625 31.78125 66.40625 
Q 25.390625 66.40625 21.84375 63.234375 
Q 18.3125 60.0625 18.3125 54.390625 
z
" id="DejaVuSans-56"/>
    </defs>
    <use xlink:href="#DejaVuSans-50"/>
    <use x="63.623047" xlink:href="#DejaVuSans-48"/>
    <use x="127.246094" xlink:href="#DejaVuSans-49"/>
    <use x="190.869141" xlink:href="#DejaVuSans-55"/>
    <use x="254.492188" xlink:href="#DejaVuSans-45"/>
    <use x="290.576172" xlink:href="#DejaVuSans-48"/>
    <use x="354.199219" xlink:href="#DejaVuSans-56"/>
   </g>
  </g>
 </g>
 <defs>
  <clipPath id="pb0e54c6109">
   <rect height="1087.2" width="1116" x="180" y="172.8"/>
  </clipPath>
 </defs>
</svg>
